G75*
G70*
%OFA0B0*%
%FSLAX24Y24*%
%IPPOS*%
%LPD*%
%AMOC8*
5,1,8,0,0,1.08239X$1,22.5*
%
%ADD10C,0.0030*%
%ADD11C,0.0020*%
%ADD12C,0.0010*%
%ADD13C,0.0120*%
%ADD14C,0.0160*%
%ADD15C,0.0060*%
%ADD16C,0.0050*%
%ADD17C,0.0220*%
%ADD18C,0.0100*%
%ADD19C,0.0040*%
%ADD20C,0.0080*%
D10*
X000377Y029850D02*
X000329Y029898D01*
X000329Y029995D01*
X000377Y030043D01*
X000426Y030043D01*
X000619Y029850D01*
X000619Y030043D01*
X000619Y030144D02*
X000329Y030338D01*
X000377Y030439D02*
X000329Y030487D01*
X000329Y030584D01*
X000377Y030633D01*
X000426Y030633D01*
X000474Y030584D01*
X000522Y030633D01*
X000571Y030633D01*
X000619Y030584D01*
X000619Y030487D01*
X000571Y030439D01*
X000619Y030338D02*
X000329Y030144D01*
X000474Y030536D02*
X000474Y030584D01*
X000377Y030734D02*
X000329Y030782D01*
X000329Y030879D01*
X000377Y030927D01*
X000426Y030927D01*
X000619Y030734D01*
X000619Y030927D01*
X000667Y031028D02*
X000667Y031222D01*
X000619Y031323D02*
X000329Y031323D01*
X000474Y031323D02*
X000474Y031516D01*
X000474Y031618D02*
X000474Y031714D01*
X000329Y031618D02*
X000619Y031618D01*
X000619Y031811D01*
X000619Y031912D02*
X000426Y031912D01*
X000329Y032009D01*
X000426Y032106D01*
X000619Y032106D01*
X000619Y032207D02*
X000619Y032352D01*
X000571Y032400D01*
X000377Y032400D01*
X000329Y032352D01*
X000329Y032207D01*
X000619Y032207D01*
X000619Y032502D02*
X000619Y032695D01*
X000619Y032796D02*
X000329Y032796D01*
X000329Y032941D01*
X000377Y032990D01*
X000474Y032990D01*
X000522Y032941D01*
X000522Y032796D01*
X000522Y032893D02*
X000619Y032990D01*
X000619Y032502D02*
X000329Y032502D01*
X000329Y032695D01*
X000474Y032598D02*
X000474Y032502D01*
X000474Y032106D02*
X000474Y031912D01*
X000329Y031811D02*
X000329Y031618D01*
X000329Y031516D02*
X000619Y031516D01*
X002049Y032237D02*
X002291Y032237D01*
X002339Y032285D01*
X002339Y032382D01*
X002291Y032430D01*
X002049Y032430D01*
X002097Y032532D02*
X002049Y032580D01*
X002049Y032677D01*
X002097Y032725D01*
X002097Y032826D02*
X002049Y032875D01*
X002049Y032971D01*
X002097Y033020D01*
X002146Y033020D01*
X002339Y032826D01*
X002339Y033020D01*
X002291Y032725D02*
X002242Y032725D01*
X002194Y032677D01*
X002194Y032580D01*
X002146Y032532D01*
X002097Y032532D01*
X002000Y032628D02*
X002387Y032628D01*
X002339Y032580D02*
X002339Y032677D01*
X002291Y032725D01*
X002339Y032580D02*
X002291Y032532D01*
X003623Y032791D02*
X003746Y032915D01*
X003623Y033038D01*
X003993Y033038D01*
X003993Y033160D02*
X003623Y033160D01*
X003808Y033160D02*
X003808Y033406D01*
X003746Y033528D02*
X003746Y033775D01*
X003993Y033528D01*
X003993Y033775D01*
X003993Y033406D02*
X003623Y033406D01*
X003623Y032791D02*
X003993Y032791D01*
X003932Y032301D02*
X003993Y032240D01*
X003993Y032116D01*
X003932Y032055D01*
X003685Y032301D01*
X003932Y032301D01*
X003932Y032055D02*
X003685Y032055D01*
X003623Y032116D01*
X003623Y032240D01*
X003685Y032301D01*
X003808Y031933D02*
X003808Y031686D01*
X003623Y031871D01*
X003993Y031871D01*
D11*
X002976Y031473D02*
X002976Y031421D01*
X002769Y031421D01*
X002769Y031369D01*
X002821Y031318D01*
X002872Y031318D01*
X002976Y031421D01*
X002976Y031473D02*
X002924Y031525D01*
X002872Y031525D01*
X002769Y031421D01*
X002690Y031448D02*
X002587Y031552D01*
X002638Y031500D02*
X002794Y031656D01*
X002690Y031656D01*
X002664Y031734D02*
X002664Y031786D01*
X002612Y031838D01*
X002560Y031838D01*
X002456Y031734D01*
X002456Y031682D01*
X002508Y031630D01*
X002560Y031630D01*
X002664Y031734D01*
X002534Y031916D02*
X002482Y031968D01*
X002508Y031942D02*
X002352Y031786D01*
X002326Y031812D02*
X002378Y031760D01*
X002352Y031942D02*
X002300Y031942D01*
X002222Y032020D01*
X002170Y031968D02*
X002326Y032124D01*
X002403Y032046D01*
X002403Y031994D01*
X002352Y031942D01*
X002247Y032151D02*
X002247Y032203D01*
X002195Y032254D01*
X002143Y032254D01*
X002040Y032151D01*
X002040Y032099D01*
X002092Y032047D01*
X002143Y032047D01*
X002195Y032099D01*
X002143Y032151D01*
X002050Y031450D02*
X001998Y031450D01*
X001894Y031346D01*
X001894Y031294D01*
X001946Y031242D01*
X001998Y031242D01*
X002050Y031294D01*
X001998Y031346D01*
X002102Y031346D02*
X002102Y031398D01*
X002050Y031450D01*
X002180Y031319D02*
X002024Y031164D01*
X002076Y031216D02*
X002154Y031138D01*
X002206Y031138D01*
X002258Y031190D01*
X002258Y031241D01*
X002180Y031319D01*
X002336Y031163D02*
X002388Y031111D01*
X002362Y031137D02*
X002207Y030981D01*
X002181Y031007D02*
X002233Y030955D01*
X002311Y030929D02*
X002311Y030877D01*
X002363Y030825D01*
X002414Y030825D01*
X002518Y030929D01*
X002518Y030981D01*
X002466Y031033D01*
X002414Y031033D01*
X002311Y030929D01*
X002441Y030747D02*
X002545Y030643D01*
X002493Y030695D02*
X002649Y030851D01*
X002545Y030851D01*
X002701Y030694D02*
X002805Y030694D01*
X002649Y030539D01*
X002597Y030591D02*
X002701Y030487D01*
X002360Y030132D02*
X002204Y029976D01*
X002178Y030002D02*
X002230Y029950D01*
X002308Y029924D02*
X002308Y029872D01*
X002360Y029820D01*
X002412Y029820D01*
X002516Y029924D01*
X002516Y029976D01*
X002464Y030028D01*
X002412Y030028D01*
X002308Y029924D01*
X002386Y030106D02*
X002334Y030158D01*
X002255Y030184D02*
X002204Y030132D01*
X002152Y030132D01*
X002074Y030210D01*
X002022Y030158D02*
X002178Y030314D01*
X002255Y030236D01*
X002255Y030184D01*
X002439Y029742D02*
X002542Y029638D01*
X002490Y029690D02*
X002646Y029845D01*
X002542Y029845D01*
X002595Y029585D02*
X002802Y029585D01*
X002828Y029611D01*
X002828Y029663D01*
X002776Y029715D01*
X002724Y029715D01*
X002595Y029585D02*
X002699Y029481D01*
X002363Y029136D02*
X002207Y028980D01*
X002181Y029006D02*
X002233Y028954D01*
X002311Y028928D02*
X002311Y028876D01*
X002363Y028824D01*
X002415Y028824D01*
X002519Y028928D01*
X002519Y028980D01*
X002467Y029031D01*
X002415Y029031D01*
X002311Y028928D01*
X002389Y029110D02*
X002337Y029162D01*
X002258Y029188D02*
X002206Y029136D01*
X002155Y029136D01*
X002077Y029214D01*
X002025Y029162D02*
X002180Y029318D01*
X002258Y029240D01*
X002258Y029188D01*
X002441Y028746D02*
X002545Y028642D01*
X002493Y028694D02*
X002649Y028849D01*
X002545Y028849D01*
X002624Y028615D02*
X002624Y028563D01*
X002675Y028511D01*
X002727Y028511D01*
X002753Y028537D01*
X002753Y028589D01*
X002727Y028615D01*
X002753Y028589D02*
X002805Y028589D01*
X002831Y028615D01*
X002831Y028667D01*
X002779Y028719D01*
X002727Y028719D01*
X002464Y028031D02*
X002516Y027980D01*
X002516Y027928D01*
X002412Y027824D01*
X002360Y027824D01*
X002308Y027876D01*
X002308Y027928D01*
X002412Y028031D01*
X002464Y028031D01*
X002386Y028110D02*
X002334Y028162D01*
X002360Y028136D02*
X002204Y027980D01*
X002178Y028006D02*
X002230Y027954D01*
X002204Y028136D02*
X002255Y028188D01*
X002255Y028240D01*
X002178Y028318D01*
X002022Y028162D01*
X002074Y028214D02*
X002152Y028136D01*
X002204Y028136D01*
X002047Y028292D02*
X001995Y028344D01*
X002047Y028292D02*
X001995Y028241D01*
X001944Y028241D01*
X001892Y028292D01*
X001892Y028344D01*
X001995Y028448D01*
X002047Y028448D01*
X002099Y028396D01*
X002099Y028344D01*
X001998Y029241D02*
X001946Y029241D01*
X001895Y029292D01*
X001895Y029344D01*
X001998Y029448D01*
X002050Y029448D01*
X002102Y029396D01*
X002102Y029344D01*
X002050Y029292D02*
X001998Y029344D01*
X002050Y029292D02*
X001998Y029241D01*
X001995Y030237D02*
X001944Y030237D01*
X001892Y030289D01*
X001892Y030340D01*
X001995Y030444D01*
X002047Y030444D01*
X002099Y030392D01*
X002099Y030340D01*
X002047Y030289D02*
X001995Y030340D01*
X002047Y030289D02*
X001995Y030237D01*
X002542Y027849D02*
X002646Y027849D01*
X002490Y027694D01*
X002439Y027746D02*
X002542Y027642D01*
X002673Y027667D02*
X002776Y027563D01*
X002673Y027511D02*
X002828Y027667D01*
X002673Y027667D01*
X002337Y027163D02*
X002389Y027111D01*
X002363Y027137D02*
X002208Y026981D01*
X002182Y027007D02*
X002234Y026955D01*
X002312Y026929D02*
X002312Y026877D01*
X002364Y026825D01*
X002416Y026825D01*
X002519Y026929D01*
X002519Y026981D01*
X002467Y027033D01*
X002416Y027033D01*
X002312Y026929D01*
X002442Y026747D02*
X002546Y026643D01*
X002494Y026695D02*
X002650Y026851D01*
X002546Y026851D01*
X002676Y026669D02*
X002754Y026643D01*
X002780Y026617D01*
X002780Y026565D01*
X002728Y026513D01*
X002676Y026513D01*
X002624Y026565D01*
X002624Y026617D01*
X002676Y026669D02*
X002754Y026746D01*
X002858Y026643D01*
X002468Y026028D02*
X002520Y025976D01*
X002520Y025924D01*
X002416Y025820D01*
X002364Y025820D01*
X002312Y025872D01*
X002312Y025924D01*
X002416Y026028D01*
X002468Y026028D01*
X002390Y026106D02*
X002338Y026158D01*
X002364Y026132D02*
X002208Y025976D01*
X002182Y026002D02*
X002234Y025950D01*
X002207Y026132D02*
X002259Y026184D01*
X002259Y026236D01*
X002181Y026314D01*
X002026Y026158D01*
X002078Y026210D02*
X002156Y026132D01*
X002207Y026132D01*
X002051Y026289D02*
X001999Y026340D01*
X002051Y026289D02*
X001999Y026237D01*
X001947Y026237D01*
X001896Y026289D01*
X001896Y026340D01*
X001999Y026444D01*
X002051Y026444D01*
X002103Y026392D01*
X002103Y026340D01*
X002442Y025742D02*
X002546Y025638D01*
X002494Y025690D02*
X002650Y025845D01*
X002546Y025845D01*
X002676Y025663D02*
X002754Y025585D01*
X002754Y025533D01*
X002728Y025507D01*
X002676Y025507D01*
X002625Y025559D01*
X002625Y025611D01*
X002676Y025663D01*
X002780Y025663D01*
X002858Y025637D01*
X002649Y024849D02*
X002493Y024694D01*
X002441Y024746D02*
X002545Y024642D01*
X002598Y024589D02*
X002624Y024615D01*
X002831Y024615D01*
X002857Y024641D01*
X002753Y024745D01*
X002649Y024849D02*
X002545Y024849D01*
X002519Y024928D02*
X002519Y024980D01*
X002467Y025031D01*
X002415Y025031D01*
X002311Y024928D01*
X002311Y024876D01*
X002363Y024824D01*
X002415Y024824D01*
X002519Y024928D01*
X002389Y025110D02*
X002337Y025162D01*
X002363Y025136D02*
X002207Y024980D01*
X002181Y025006D02*
X002233Y024954D01*
X002206Y025136D02*
X002258Y025188D01*
X002258Y025240D01*
X002180Y025318D01*
X002025Y025162D01*
X002077Y025214D02*
X002154Y025136D01*
X002206Y025136D01*
X002050Y025292D02*
X001998Y025344D01*
X002050Y025292D02*
X001998Y025241D01*
X001946Y025241D01*
X001894Y025292D01*
X001894Y025344D01*
X001998Y025448D01*
X002050Y025448D01*
X002102Y025396D01*
X002102Y025344D01*
X002155Y027138D02*
X002077Y027216D01*
X002025Y027164D02*
X002181Y027319D01*
X002259Y027241D01*
X002259Y027190D01*
X002207Y027138D01*
X002155Y027138D01*
X002051Y027294D02*
X001999Y027346D01*
X002051Y027294D02*
X001999Y027242D01*
X001947Y027242D01*
X001895Y027294D01*
X001895Y027346D01*
X001999Y027450D01*
X002051Y027450D01*
X002103Y027398D01*
X002103Y027346D01*
X002060Y018906D02*
X002149Y018906D01*
X002178Y018876D01*
X002178Y018817D01*
X002149Y018788D01*
X002060Y018788D01*
X002060Y018729D02*
X002060Y018906D01*
X001997Y018876D02*
X001968Y018906D01*
X001909Y018906D01*
X001879Y018876D01*
X001879Y018758D01*
X001909Y018729D01*
X001968Y018729D01*
X001997Y018758D01*
X001997Y018817D01*
X001938Y018817D01*
X001911Y017977D02*
X002057Y017977D01*
X001984Y017977D02*
X001984Y017757D01*
X002132Y017757D02*
X002132Y017977D01*
X002242Y017977D01*
X002278Y017941D01*
X002278Y017794D01*
X002242Y017757D01*
X002132Y017757D01*
X002353Y017757D02*
X002426Y017757D01*
X002389Y017757D02*
X002389Y017977D01*
X002353Y017977D02*
X002426Y017977D01*
X002451Y018729D02*
X002480Y018758D01*
X002480Y018876D01*
X002451Y018906D01*
X002392Y018906D01*
X002362Y018876D01*
X002362Y018758D01*
X002392Y018729D01*
X002451Y018729D01*
X002544Y018729D02*
X002662Y018847D01*
X002662Y018876D01*
X002632Y018906D01*
X002573Y018906D01*
X002544Y018876D01*
X002544Y018729D02*
X002662Y018729D01*
X002725Y018729D02*
X002843Y018847D01*
X002843Y018876D01*
X002813Y018906D01*
X002754Y018906D01*
X002725Y018876D01*
X002725Y018729D02*
X002843Y018729D01*
X002301Y018729D02*
X002242Y018729D01*
X002271Y018729D02*
X002271Y018906D01*
X002242Y018906D02*
X002301Y018906D01*
X002274Y016953D02*
X002164Y016953D01*
X002164Y016733D01*
X002274Y016733D01*
X002311Y016769D01*
X002311Y016916D01*
X002274Y016953D01*
X002385Y016916D02*
X002385Y016769D01*
X002422Y016733D01*
X002495Y016733D01*
X002532Y016769D01*
X002532Y016916D01*
X002495Y016953D01*
X002422Y016953D01*
X002385Y016916D01*
X002090Y016953D02*
X001943Y016953D01*
X002016Y016953D02*
X002016Y016733D01*
X002024Y016080D02*
X001951Y016080D01*
X001914Y016043D01*
X001914Y015896D01*
X001951Y015860D01*
X002024Y015860D01*
X002061Y015896D01*
X002061Y015970D01*
X001988Y015970D01*
X002061Y016043D02*
X002024Y016080D01*
X002135Y016080D02*
X002135Y015860D01*
X002135Y015933D02*
X002245Y015933D01*
X002282Y015970D01*
X002282Y016043D01*
X002245Y016080D01*
X002135Y016080D01*
X002356Y016080D02*
X002430Y016080D01*
X002393Y016080D02*
X002393Y015860D01*
X002356Y015860D02*
X002430Y015860D01*
X002504Y015896D02*
X002540Y015860D01*
X002614Y015860D01*
X002650Y015896D01*
X002650Y016043D01*
X002614Y016080D01*
X002540Y016080D01*
X002504Y016043D01*
X002504Y015896D01*
X002725Y015860D02*
X002871Y016006D01*
X002871Y016043D01*
X002835Y016080D01*
X002761Y016080D01*
X002725Y016043D01*
X002725Y015860D02*
X002871Y015860D01*
X002946Y015896D02*
X002946Y015933D01*
X002982Y015970D01*
X003056Y015970D01*
X003092Y015933D01*
X003092Y015896D01*
X003056Y015860D01*
X002982Y015860D01*
X002946Y015896D01*
X002982Y015970D02*
X002946Y016006D01*
X002946Y016043D01*
X002982Y016080D01*
X003056Y016080D01*
X003092Y016043D01*
X003092Y016006D01*
X003056Y015970D01*
X002434Y015167D02*
X002288Y015020D01*
X002324Y015057D02*
X002434Y014947D01*
X002288Y014947D02*
X002288Y015167D01*
X002213Y015130D02*
X002177Y015167D01*
X002103Y015167D01*
X002067Y015130D01*
X002067Y014983D01*
X002103Y014947D01*
X002177Y014947D01*
X002213Y014983D01*
X001992Y015167D02*
X001846Y015167D01*
X001919Y015167D02*
X001919Y014947D01*
X002190Y014414D02*
X002138Y014362D01*
X002138Y014310D01*
X002164Y014284D01*
X002216Y014284D01*
X002268Y014336D01*
X002320Y014336D01*
X002346Y014310D01*
X002346Y014258D01*
X002294Y014207D01*
X002242Y014207D01*
X002216Y014128D02*
X002060Y014284D01*
X002060Y014180D01*
X001956Y014180D01*
X002112Y014024D01*
X002008Y013920D02*
X001852Y014076D01*
X001800Y014024D02*
X001904Y014128D01*
X002190Y014414D02*
X002242Y014414D01*
X002843Y010688D02*
X002791Y010636D01*
X002791Y010584D01*
X002713Y010558D02*
X002869Y010402D01*
X002609Y010454D01*
X002765Y010298D01*
X002713Y010246D02*
X002661Y010194D01*
X002687Y010220D02*
X002531Y010376D01*
X002505Y010350D02*
X002557Y010402D01*
X002634Y010116D02*
X002531Y010012D01*
X002426Y010011D02*
X002426Y009960D01*
X002374Y009908D01*
X002322Y009908D01*
X002219Y010011D01*
X002219Y010063D01*
X002270Y010115D01*
X002322Y010115D01*
X002426Y010011D01*
X002270Y009855D02*
X002166Y009959D01*
X002114Y009959D01*
X002036Y009881D01*
X002192Y009725D01*
X002270Y009803D01*
X002270Y009855D01*
X002140Y009673D02*
X002036Y009569D01*
X001880Y009725D01*
X002200Y009029D02*
X002356Y008874D01*
X002096Y008926D01*
X002252Y008770D01*
X002174Y008744D02*
X002122Y008795D01*
X002070Y008744D01*
X002070Y008847D02*
X002018Y008847D01*
X001966Y008795D01*
X001966Y008744D01*
X002070Y008640D01*
X002122Y008640D01*
X002174Y008692D01*
X002174Y008744D01*
X002408Y008926D02*
X002253Y009082D01*
X002330Y009160D01*
X002382Y009160D01*
X002486Y009056D01*
X002486Y009004D01*
X002408Y008926D01*
X002187Y007915D02*
X002135Y007915D01*
X002083Y007863D01*
X002083Y007811D01*
X002187Y007707D01*
X002239Y007707D01*
X002291Y007759D01*
X002291Y007811D01*
X002161Y007629D02*
X002005Y007784D01*
X001901Y007681D02*
X002057Y007525D01*
X002161Y007629D02*
X001901Y007681D01*
X002104Y006911D02*
X002052Y006859D01*
X002052Y006807D01*
X002156Y006703D01*
X002207Y006703D01*
X002259Y006755D01*
X002259Y006807D01*
X002156Y006911D02*
X002104Y006911D01*
X001973Y006781D02*
X002129Y006625D01*
X001870Y006677D01*
X002025Y006521D01*
X002273Y006078D02*
X002169Y005974D01*
X002221Y006026D02*
X002377Y005870D01*
X002272Y005766D02*
X002117Y005922D01*
X002013Y005818D02*
X002272Y005766D01*
X002168Y005662D02*
X002013Y005818D01*
X002012Y005714D02*
X002116Y005610D01*
X002038Y005688D02*
X001934Y005584D01*
X001908Y005610D02*
X001908Y005714D01*
X002012Y005714D01*
X001908Y005610D02*
X002012Y005506D01*
X002286Y005120D02*
X002183Y005016D01*
X002234Y005068D02*
X002390Y004912D01*
X002286Y004808D02*
X002130Y004964D01*
X002026Y004860D02*
X002182Y004704D01*
X002130Y004652D02*
X002026Y004755D01*
X001922Y004755D01*
X001922Y004652D01*
X002026Y004548D01*
X001948Y004626D02*
X002052Y004729D01*
X002026Y004860D02*
X002286Y004808D01*
X002468Y005042D02*
X002520Y005042D01*
X002572Y005094D01*
X002572Y005146D01*
X002546Y005172D01*
X002494Y005172D01*
X002443Y005120D01*
X002391Y005120D01*
X002365Y005146D01*
X002365Y005198D01*
X002417Y005250D01*
X002468Y005250D01*
X002495Y005328D02*
X002651Y005173D01*
X002754Y005277D01*
X002807Y005329D02*
X002911Y005433D01*
X002963Y005485D02*
X002963Y005693D01*
X002937Y005719D01*
X002885Y005719D01*
X002833Y005667D01*
X002833Y005615D01*
X002963Y005485D02*
X003067Y005589D01*
X002807Y005329D02*
X002651Y005485D01*
X002599Y005432D02*
X002495Y005328D01*
X002573Y005251D02*
X002625Y005302D01*
X002507Y006001D02*
X002455Y006001D01*
X002507Y006001D02*
X002559Y006053D01*
X002559Y006105D01*
X002533Y006130D01*
X002481Y006130D01*
X002429Y006079D01*
X002377Y006079D01*
X002351Y006105D01*
X002351Y006156D01*
X002403Y006208D01*
X002455Y006208D01*
X002481Y006287D02*
X002637Y006131D01*
X002741Y006235D01*
X002793Y006287D02*
X002897Y006391D01*
X002950Y006443D02*
X003053Y006547D01*
X003001Y006495D02*
X002846Y006651D01*
X002846Y006547D01*
X002638Y006443D02*
X002793Y006287D01*
X002611Y006261D02*
X002559Y006209D01*
X002481Y006287D02*
X002585Y006390D01*
X002636Y004457D02*
X002584Y004405D01*
X002584Y004353D01*
X002688Y004250D01*
X002740Y004250D01*
X002792Y004302D01*
X002792Y004353D01*
X002740Y004405D01*
X002688Y004353D01*
X002688Y004457D02*
X002636Y004457D01*
X002531Y004301D02*
X002557Y004275D01*
X002557Y004223D01*
X002480Y004145D01*
X002557Y004067D02*
X002635Y004145D01*
X002635Y004197D01*
X002609Y004223D01*
X002557Y004223D01*
X002531Y004301D02*
X002480Y004301D01*
X002402Y004223D01*
X002557Y004067D01*
X002531Y003989D02*
X002427Y003885D01*
X002245Y003755D02*
X002089Y003911D01*
X002193Y004014D01*
X002219Y003885D02*
X002167Y003833D01*
X002115Y003780D02*
X002115Y003729D01*
X002037Y003651D01*
X002089Y003703D02*
X002193Y003703D01*
X002115Y003780D02*
X002063Y003832D01*
X002011Y003832D01*
X001933Y003754D01*
X002089Y003599D01*
X002335Y003164D02*
X002231Y003060D01*
X002387Y002905D01*
X002491Y003009D01*
X002517Y003087D02*
X002569Y003087D01*
X002621Y003139D01*
X002621Y003191D01*
X002595Y003217D01*
X002543Y003217D01*
X002491Y003165D01*
X002439Y003165D01*
X002413Y003191D01*
X002413Y003243D01*
X002465Y003295D01*
X002517Y003295D01*
X002544Y003373D02*
X002699Y003217D01*
X002803Y003321D01*
X002673Y003347D02*
X002621Y003295D01*
X002544Y003373D02*
X002647Y003477D01*
X002700Y003529D02*
X002804Y003633D01*
X002752Y003581D02*
X002907Y003425D01*
X002361Y003035D02*
X002309Y002983D01*
X002257Y002930D02*
X002257Y002878D01*
X002179Y002800D01*
X002231Y002749D02*
X002075Y002904D01*
X002153Y002982D01*
X002205Y002982D01*
X002257Y002930D01*
X002231Y002852D02*
X002334Y002852D01*
X002178Y002696D02*
X002100Y002774D01*
X002049Y002774D01*
X001971Y002696D01*
X002074Y002592D01*
X004940Y003588D02*
X004976Y003515D01*
X005050Y003441D01*
X005050Y003551D01*
X005086Y003588D01*
X005123Y003588D01*
X005160Y003551D01*
X005160Y003478D01*
X005123Y003441D01*
X005050Y003441D01*
X005123Y003662D02*
X005123Y003699D01*
X005160Y003699D01*
X005160Y003662D01*
X005123Y003662D01*
X005160Y003773D02*
X005013Y003920D01*
X004976Y003920D01*
X004940Y003883D01*
X004940Y003810D01*
X004976Y003773D01*
X005160Y003773D02*
X005160Y003920D01*
X005160Y004215D02*
X005160Y004325D01*
X005123Y004362D01*
X005050Y004362D01*
X005013Y004325D01*
X005013Y004215D01*
X005233Y004215D01*
X005160Y004436D02*
X004940Y004436D01*
X004940Y004583D01*
X005050Y004509D02*
X005050Y004436D01*
X005690Y004522D02*
X005763Y004448D01*
X005726Y004374D02*
X005690Y004337D01*
X005690Y004264D01*
X005726Y004227D01*
X005873Y004227D01*
X005910Y004264D01*
X005910Y004337D01*
X005873Y004374D01*
X005910Y004448D02*
X005910Y004595D01*
X005910Y004522D02*
X005690Y004522D01*
X006786Y004452D02*
X006786Y004599D01*
X006896Y004525D02*
X006896Y004452D01*
X006896Y004378D02*
X006969Y004378D01*
X007006Y004341D01*
X007006Y004231D01*
X007079Y004231D02*
X006859Y004231D01*
X006859Y004341D01*
X006896Y004378D01*
X007006Y004452D02*
X006786Y004452D01*
X006822Y003936D02*
X006786Y003899D01*
X006786Y003826D01*
X006822Y003789D01*
X006822Y003936D02*
X006859Y003936D01*
X007006Y003789D01*
X007006Y003936D01*
X007006Y003715D02*
X007006Y003679D01*
X006969Y003679D01*
X006969Y003715D01*
X007006Y003715D01*
X006969Y003604D02*
X006933Y003604D01*
X006896Y003568D01*
X006896Y003458D01*
X006969Y003458D01*
X007006Y003494D01*
X007006Y003568D01*
X006969Y003604D01*
X006896Y003458D02*
X006822Y003531D01*
X006786Y003604D01*
X007536Y004280D02*
X007572Y004244D01*
X007719Y004244D01*
X007756Y004280D01*
X007756Y004354D01*
X007719Y004390D01*
X007756Y004465D02*
X007609Y004611D01*
X007572Y004611D01*
X007536Y004575D01*
X007536Y004501D01*
X007572Y004465D01*
X007572Y004390D02*
X007536Y004354D01*
X007536Y004280D01*
X007756Y004465D02*
X007756Y004611D01*
X009066Y008248D02*
X009221Y008403D01*
X009170Y008144D01*
X009325Y008300D01*
X009169Y008456D02*
X009117Y008508D01*
X009143Y008482D02*
X008988Y008326D01*
X008962Y008352D02*
X009014Y008300D01*
X008961Y008456D02*
X009065Y008560D01*
X008961Y008456D02*
X008857Y008456D01*
X008857Y008560D01*
X008961Y008664D01*
X009196Y008066D02*
X009300Y007962D01*
X009378Y007935D02*
X009456Y007857D01*
X009508Y007857D01*
X009612Y007961D01*
X009612Y008013D01*
X009534Y008091D01*
X009378Y007935D01*
X009560Y007805D02*
X009560Y007753D01*
X009612Y007701D01*
X009664Y007701D01*
X009691Y007623D02*
X009769Y007545D01*
X009820Y007545D01*
X009924Y007649D01*
X009924Y007701D01*
X009846Y007778D01*
X009691Y007623D01*
X009768Y007805D02*
X009768Y007857D01*
X009716Y007909D01*
X009664Y007909D01*
X009560Y007805D01*
X009873Y007492D02*
X009873Y007441D01*
X009925Y007389D01*
X009977Y007389D01*
X009977Y007284D02*
X010081Y007180D01*
X010159Y007154D02*
X010263Y007258D01*
X010367Y007258D01*
X010367Y007154D01*
X010263Y007050D01*
X010316Y006998D02*
X010471Y007153D01*
X010419Y006894D01*
X010575Y007050D01*
X010576Y006945D02*
X010679Y006945D01*
X010679Y006841D01*
X010576Y006738D01*
X010653Y006815D02*
X010550Y006919D01*
X010576Y006945D02*
X010472Y006841D01*
X010341Y007128D02*
X010237Y007232D01*
X010080Y007492D02*
X010080Y007544D01*
X010029Y007596D01*
X009977Y007596D01*
X009873Y007492D01*
X009775Y006719D02*
X009619Y006563D01*
X009723Y006460D01*
X009776Y006407D02*
X009853Y006329D01*
X009905Y006329D01*
X010009Y006433D01*
X010009Y006485D01*
X009931Y006563D01*
X009776Y006407D01*
X009958Y006277D02*
X009958Y006225D01*
X010010Y006173D01*
X010061Y006173D01*
X010165Y006277D01*
X010165Y006329D01*
X010113Y006381D01*
X010061Y006381D01*
X009958Y006277D01*
X010062Y006069D02*
X010166Y005965D01*
X010244Y005938D02*
X010296Y005886D01*
X010270Y005912D02*
X010426Y006068D01*
X010400Y006094D02*
X010452Y006042D01*
X010504Y005990D02*
X010452Y005730D01*
X010608Y005886D01*
X010608Y005782D02*
X010712Y005782D01*
X010556Y005626D01*
X010505Y005678D02*
X010608Y005574D01*
X010348Y005834D02*
X010504Y005990D01*
X010115Y005364D02*
X010167Y005312D01*
X010167Y005260D01*
X010220Y005208D02*
X010116Y005104D01*
X010116Y005052D01*
X010168Y005000D01*
X010220Y005000D01*
X010323Y005104D01*
X010323Y005156D01*
X010271Y005208D01*
X010220Y005208D01*
X010089Y005182D02*
X010063Y005156D01*
X010011Y005156D01*
X009960Y005208D01*
X009960Y005260D01*
X010037Y005286D02*
X010089Y005234D01*
X010089Y005182D01*
X010037Y005286D02*
X010037Y005338D01*
X010063Y005364D01*
X010115Y005364D01*
X010402Y005077D02*
X010246Y004922D01*
X010298Y004973D02*
X010376Y004896D01*
X010428Y004896D01*
X010480Y004948D01*
X010480Y004999D01*
X010402Y005077D01*
X010532Y004895D02*
X010428Y004791D01*
X010636Y004791D01*
X010532Y004687D01*
X010480Y004687D01*
X010428Y004739D01*
X010428Y004791D01*
X010532Y004895D02*
X010584Y004895D01*
X010636Y004843D01*
X010636Y004791D01*
X010436Y004016D02*
X010514Y003939D01*
X010514Y003887D01*
X010462Y003835D01*
X010410Y003835D01*
X010332Y003913D01*
X010280Y003861D02*
X010436Y004016D01*
X010357Y004043D02*
X010357Y004095D01*
X010305Y004147D01*
X010254Y004147D01*
X010150Y004043D01*
X010150Y003991D01*
X010202Y003939D01*
X010254Y003939D01*
X010357Y004043D01*
X010201Y004199D02*
X010201Y004251D01*
X010149Y004303D01*
X010097Y004303D01*
X010071Y004277D01*
X010071Y004225D01*
X010123Y004173D01*
X010123Y004121D01*
X010097Y004095D01*
X010045Y004095D01*
X009994Y004147D01*
X009994Y004199D01*
X009658Y003788D02*
X009581Y003865D01*
X009425Y003710D01*
X009503Y003632D01*
X009555Y003632D01*
X009658Y003736D01*
X009658Y003788D01*
X009737Y003709D02*
X009815Y003631D01*
X009815Y003579D01*
X009711Y003476D01*
X009659Y003476D01*
X009581Y003554D01*
X009737Y003709D01*
X009528Y003918D02*
X009424Y003814D01*
X009321Y003814D01*
X009321Y003918D01*
X009424Y004022D01*
X009711Y003371D02*
X009815Y003267D01*
X009894Y003241D02*
X010049Y003397D01*
X010127Y003319D01*
X010127Y003267D01*
X010075Y003215D01*
X010023Y003215D01*
X009945Y003293D01*
X010128Y003163D02*
X010231Y003059D01*
X010257Y003085D02*
X010154Y002981D01*
X010180Y002902D02*
X010284Y002799D01*
X010362Y002772D02*
X010414Y002720D01*
X010388Y002746D02*
X010544Y002902D01*
X010518Y002928D02*
X010570Y002876D01*
X010622Y002824D02*
X010570Y002564D01*
X010726Y002720D01*
X010622Y002824D02*
X010466Y002668D01*
X010257Y003085D02*
X010257Y003189D01*
X010154Y003189D01*
X010050Y003085D01*
X010540Y003601D02*
X010436Y003704D01*
X010488Y003652D02*
X010644Y003808D01*
X010540Y003808D01*
X009856Y016905D02*
X009709Y016905D01*
X009635Y016979D02*
X009635Y017126D01*
X009598Y017162D01*
X009488Y017162D01*
X009488Y016942D01*
X009598Y016942D01*
X009635Y016979D01*
X009414Y016979D02*
X009414Y017126D01*
X009377Y017162D01*
X009267Y017162D01*
X009267Y016942D01*
X009377Y016942D01*
X009414Y016979D01*
X009193Y017016D02*
X009193Y017162D01*
X009193Y017016D02*
X009120Y016942D01*
X009046Y017016D01*
X009046Y017162D01*
X009311Y017809D02*
X009245Y017875D01*
X009245Y018006D01*
X009377Y018006D02*
X009377Y017875D01*
X009311Y017809D01*
X009445Y017809D02*
X009445Y018006D01*
X009543Y018006D01*
X009576Y017973D01*
X009576Y017842D01*
X009543Y017809D01*
X009445Y017809D01*
X009644Y017809D02*
X009644Y018006D01*
X009743Y018006D01*
X009775Y017973D01*
X009775Y017842D01*
X009743Y017809D01*
X009644Y017809D01*
X009844Y017776D02*
X009975Y017776D01*
X010043Y017809D02*
X010043Y018006D01*
X010141Y018006D01*
X010174Y017973D01*
X010174Y017908D01*
X010141Y017875D01*
X010043Y017875D01*
X010109Y017875D02*
X010174Y017809D01*
X010242Y017809D02*
X010242Y017940D01*
X010308Y018006D01*
X010373Y017940D01*
X010373Y017809D01*
X010442Y017809D02*
X010442Y018006D01*
X010507Y017940D01*
X010573Y018006D01*
X010573Y017809D01*
X010373Y017908D02*
X010242Y017908D01*
X010298Y017162D02*
X010298Y016942D01*
X010151Y017162D01*
X010151Y016942D01*
X010077Y016942D02*
X010077Y017089D01*
X010004Y017162D01*
X009930Y017089D01*
X009930Y016942D01*
X009930Y017052D02*
X010077Y017052D01*
X010372Y017052D02*
X010519Y017052D01*
X010519Y017089D02*
X010519Y016942D01*
X010593Y016942D02*
X010740Y016942D01*
X010666Y016942D02*
X010666Y017162D01*
X010593Y017089D01*
X010519Y017089D02*
X010445Y017162D01*
X010372Y017089D01*
X010372Y016942D01*
X009917Y020463D02*
X009865Y020463D01*
X009761Y020566D01*
X009761Y020618D01*
X009813Y020670D01*
X009865Y020670D01*
X009917Y020618D02*
X009865Y020566D01*
X009917Y020618D02*
X009969Y020566D01*
X009969Y020514D01*
X009917Y020463D01*
X010047Y020593D02*
X009892Y020749D01*
X009970Y020826D01*
X010021Y020826D01*
X010073Y020774D01*
X010073Y020723D01*
X009996Y020645D01*
X010048Y020905D02*
X010100Y020957D01*
X010074Y020931D02*
X010230Y020775D01*
X010204Y020749D02*
X010256Y020801D01*
X010282Y020879D02*
X010178Y020983D01*
X010178Y021035D01*
X010230Y021087D01*
X010282Y021087D01*
X010386Y020983D01*
X010386Y020931D01*
X010334Y020879D01*
X010282Y020879D01*
X010438Y021035D02*
X010490Y021035D01*
X010542Y021087D01*
X010542Y021139D01*
X010516Y021165D01*
X010464Y021165D01*
X010438Y021139D01*
X010464Y021165D02*
X010464Y021217D01*
X010438Y021243D01*
X010386Y021243D01*
X010334Y021191D01*
X010334Y021139D01*
X010491Y021295D02*
X010491Y021347D01*
X010542Y021399D01*
X010594Y021399D01*
X010594Y021192D01*
X010646Y021192D01*
X010698Y021243D01*
X010698Y021295D01*
X010594Y021399D01*
X010491Y021295D02*
X010594Y021192D01*
X010041Y022628D02*
X010093Y022680D01*
X010093Y022732D01*
X010041Y022784D01*
X009989Y022732D01*
X009989Y022836D02*
X009937Y022836D01*
X009885Y022784D01*
X009885Y022732D01*
X009989Y022628D01*
X010041Y022628D01*
X010171Y022758D02*
X010016Y022914D01*
X010093Y022992D01*
X010145Y022992D01*
X010197Y022940D01*
X010197Y022888D01*
X010119Y022810D01*
X010172Y023070D02*
X010224Y023122D01*
X010198Y023096D02*
X010354Y022940D01*
X010328Y022915D02*
X010379Y022966D01*
X010406Y023045D02*
X010302Y023148D01*
X010302Y023200D01*
X010354Y023252D01*
X010406Y023252D01*
X010510Y023148D01*
X010510Y023096D01*
X010458Y023045D01*
X010406Y023045D01*
X010588Y023175D02*
X010692Y023279D01*
X010640Y023227D02*
X010484Y023382D01*
X010484Y023279D01*
X010160Y023776D02*
X010238Y023854D01*
X010238Y023906D01*
X010134Y024010D01*
X010082Y024010D01*
X010004Y023932D01*
X010160Y023776D01*
X010134Y023698D02*
X010030Y023594D01*
X009925Y023594D02*
X009822Y023697D01*
X009770Y023697D01*
X009692Y023619D01*
X009848Y023464D01*
X009925Y023542D01*
X009925Y023594D01*
X009769Y023437D02*
X009665Y023541D01*
X009614Y023541D01*
X009536Y023463D01*
X009691Y023308D01*
X009769Y023385D01*
X009769Y023437D01*
X009587Y023307D02*
X009483Y023411D01*
X009379Y023307D02*
X009483Y023203D01*
X009587Y023203D01*
X009587Y023307D01*
X009980Y024594D02*
X009877Y024698D01*
X009877Y024750D01*
X009929Y024802D01*
X009980Y024802D01*
X010032Y024750D02*
X009980Y024698D01*
X010032Y024750D02*
X010084Y024698D01*
X010084Y024646D01*
X010032Y024594D01*
X009980Y024594D01*
X010111Y024776D02*
X010189Y024854D01*
X010189Y024906D01*
X010137Y024958D01*
X010085Y024958D01*
X010007Y024880D01*
X010163Y024724D01*
X010319Y024880D02*
X010371Y024932D01*
X010345Y024906D02*
X010189Y025062D01*
X010163Y025036D02*
X010215Y025088D01*
X010293Y025114D02*
X010397Y025011D01*
X010449Y025011D01*
X010501Y025062D01*
X010501Y025114D01*
X010397Y025218D01*
X010345Y025218D01*
X010293Y025166D01*
X010293Y025114D01*
X010449Y025271D02*
X010449Y025322D01*
X010501Y025374D01*
X010553Y025374D01*
X010579Y025348D01*
X010579Y025141D01*
X010683Y025245D01*
X010449Y026017D02*
X010501Y026069D01*
X010501Y026121D01*
X010397Y026224D01*
X010345Y026224D01*
X010293Y026173D01*
X010293Y026121D01*
X010397Y026017D01*
X010449Y026017D01*
X010371Y025939D02*
X010319Y025887D01*
X010345Y025913D02*
X010189Y026068D01*
X010163Y026042D02*
X010215Y026094D01*
X010137Y025964D02*
X010188Y025912D01*
X010188Y025860D01*
X010111Y025782D01*
X010163Y025731D02*
X010007Y025886D01*
X010085Y025964D01*
X010137Y025964D01*
X009980Y025808D02*
X009928Y025808D01*
X009877Y025756D01*
X009877Y025704D01*
X009980Y025600D01*
X010032Y025600D01*
X010084Y025652D01*
X010084Y025704D01*
X010032Y025756D01*
X009980Y025704D01*
X009983Y026580D02*
X009879Y026684D01*
X009879Y026736D01*
X009931Y026788D01*
X009983Y026788D01*
X010034Y026736D02*
X009983Y026684D01*
X010034Y026736D02*
X010086Y026684D01*
X010086Y026632D01*
X010034Y026580D01*
X009983Y026580D01*
X010165Y026711D02*
X010009Y026866D01*
X010087Y026944D01*
X010139Y026944D01*
X010191Y026892D01*
X010191Y026840D01*
X010113Y026763D01*
X010165Y027023D02*
X010217Y027075D01*
X010191Y027049D02*
X010347Y026893D01*
X010321Y026867D02*
X010373Y026919D01*
X010399Y026997D02*
X010295Y027101D01*
X010295Y027153D01*
X010347Y027205D01*
X010399Y027205D01*
X010503Y027101D01*
X010503Y027049D01*
X010451Y026997D01*
X010399Y026997D01*
X010503Y027205D02*
X010607Y027309D01*
X010503Y027361D02*
X010503Y027205D01*
X010659Y027205D02*
X010503Y027361D01*
X010300Y027859D02*
X010352Y027911D01*
X010326Y027885D02*
X010170Y028041D01*
X010144Y028015D02*
X010196Y028067D01*
X010274Y028093D02*
X010378Y027989D01*
X010430Y027989D01*
X010482Y028041D01*
X010482Y028093D01*
X010378Y028197D01*
X010326Y028197D01*
X010274Y028145D01*
X010274Y028093D01*
X010118Y027937D02*
X010170Y027885D01*
X010170Y027833D01*
X010092Y027755D01*
X010144Y027703D02*
X009988Y027859D01*
X010066Y027937D01*
X010118Y027937D01*
X009961Y027780D02*
X009910Y027780D01*
X009858Y027729D01*
X009858Y027677D01*
X009961Y027573D01*
X010013Y027573D01*
X010065Y027625D01*
X010065Y027677D01*
X010013Y027729D01*
X009961Y027677D01*
X009954Y028542D02*
X010006Y028594D01*
X010006Y028646D01*
X009954Y028697D01*
X009902Y028646D01*
X009902Y028749D02*
X009850Y028749D01*
X009799Y028697D01*
X009799Y028646D01*
X009902Y028542D01*
X009954Y028542D01*
X010085Y028672D02*
X009929Y028828D01*
X010007Y028906D01*
X010059Y028906D01*
X010111Y028854D01*
X010111Y028802D01*
X010033Y028724D01*
X010241Y028828D02*
X010293Y028880D01*
X010267Y028854D02*
X010111Y029010D01*
X010085Y028984D02*
X010137Y029036D01*
X010215Y029062D02*
X010319Y028958D01*
X010371Y028958D01*
X010423Y029010D01*
X010423Y029062D01*
X010319Y029166D01*
X010267Y029166D01*
X010215Y029114D01*
X010215Y029062D01*
X010026Y029626D02*
X010078Y029677D01*
X010078Y029729D01*
X010026Y029781D01*
X009974Y029729D01*
X009974Y029626D02*
X010026Y029626D01*
X009974Y029626D02*
X009870Y029729D01*
X009870Y029781D01*
X009922Y029833D01*
X009974Y029833D01*
X010001Y029911D02*
X010078Y029989D01*
X010130Y029989D01*
X010182Y029937D01*
X010182Y029886D01*
X010104Y029808D01*
X010156Y029756D02*
X010001Y029911D01*
X010157Y030068D02*
X010209Y030120D01*
X010183Y030094D02*
X010338Y029938D01*
X010312Y029912D02*
X010364Y029964D01*
X010391Y030042D02*
X010287Y030146D01*
X010287Y030198D01*
X010339Y030250D01*
X010391Y030250D01*
X010494Y030146D01*
X010494Y030094D01*
X010443Y030042D01*
X010391Y030042D01*
X010547Y030198D02*
X010547Y030406D01*
X010521Y030432D01*
X010417Y030328D01*
X010547Y030198D02*
X010573Y030172D01*
X010230Y030866D02*
X010282Y030918D01*
X010256Y030892D02*
X010100Y031048D01*
X010074Y031022D02*
X010126Y031074D01*
X010204Y031100D02*
X010308Y030996D01*
X010360Y030996D01*
X010412Y031048D01*
X010412Y031100D01*
X010308Y031204D01*
X010256Y031204D01*
X010204Y031152D01*
X010204Y031100D01*
X010360Y031256D02*
X010386Y031230D01*
X010438Y031230D01*
X010490Y031282D01*
X010542Y031282D01*
X010568Y031256D01*
X010568Y031204D01*
X010516Y031153D01*
X010464Y031153D01*
X010438Y031178D01*
X010438Y031230D01*
X010490Y031282D02*
X010490Y031334D01*
X010464Y031360D01*
X010412Y031360D01*
X010360Y031308D01*
X010360Y031256D01*
X010048Y030944D02*
X010100Y030892D01*
X010100Y030840D01*
X010022Y030762D01*
X010074Y030710D02*
X009918Y030866D01*
X009996Y030944D01*
X010048Y030944D01*
X009943Y030735D02*
X009995Y030684D01*
X009995Y030632D01*
X009943Y030580D01*
X009891Y030580D01*
X009788Y030684D01*
X009788Y030735D01*
X009839Y030787D01*
X009891Y030787D01*
X009943Y030735D02*
X009891Y030684D01*
X009862Y031653D02*
X009914Y031653D01*
X009966Y031705D01*
X009966Y031757D01*
X009914Y031809D01*
X009862Y031757D01*
X009758Y031757D02*
X009862Y031653D01*
X009758Y031757D02*
X009758Y031809D01*
X009810Y031861D01*
X009862Y031861D01*
X009888Y031939D02*
X009966Y032017D01*
X010018Y032017D01*
X010070Y031965D01*
X010070Y031913D01*
X009992Y031836D01*
X010044Y031784D02*
X009888Y031939D01*
X010045Y032096D02*
X010097Y032147D01*
X010071Y032121D02*
X010226Y031966D01*
X010200Y031940D02*
X010252Y031992D01*
X010279Y032070D02*
X010175Y032174D01*
X010175Y032226D01*
X010227Y032278D01*
X010279Y032278D01*
X010382Y032174D01*
X010382Y032122D01*
X010330Y032070D01*
X010279Y032070D01*
X010435Y032226D02*
X010487Y032226D01*
X010539Y032278D01*
X010539Y032330D01*
X010435Y032434D01*
X010383Y032434D01*
X010331Y032382D01*
X010331Y032330D01*
X010357Y032304D01*
X010409Y032304D01*
X010487Y032382D01*
X010449Y029348D02*
X010423Y029270D01*
X010423Y029166D01*
X010501Y029244D01*
X010553Y029244D01*
X010579Y029218D01*
X010579Y029166D01*
X010527Y029115D01*
X010475Y029115D01*
X010423Y029166D01*
X010508Y028379D02*
X010405Y028275D01*
X010482Y028198D01*
X010508Y028275D01*
X010534Y028301D01*
X010586Y028301D01*
X010638Y028249D01*
X010638Y028198D01*
X010586Y028146D01*
X010534Y028146D01*
X010501Y026381D02*
X010553Y026381D01*
X010579Y026355D01*
X010579Y026303D01*
X010631Y026303D01*
X010657Y026277D01*
X010657Y026225D01*
X010605Y026173D01*
X010553Y026173D01*
X010553Y026277D02*
X010579Y026303D01*
X010501Y026381D02*
X010449Y026329D01*
X010449Y026277D01*
X010499Y024426D02*
X010447Y024374D01*
X010447Y024323D01*
X010394Y024270D02*
X010343Y024270D01*
X010291Y024218D01*
X010291Y024166D01*
X010394Y024063D01*
X010446Y024063D01*
X010498Y024114D01*
X010498Y024166D01*
X010446Y024218D01*
X010394Y024166D01*
X010368Y023984D02*
X010316Y023932D01*
X010342Y023958D02*
X010187Y024114D01*
X010161Y024088D02*
X010212Y024140D01*
X010499Y024426D02*
X010551Y024426D01*
X010577Y024400D01*
X010577Y024193D01*
X010680Y024297D01*
X003025Y010558D02*
X002921Y010454D01*
X002921Y010662D01*
X002895Y010688D01*
X002843Y010688D01*
D12*
X002514Y010999D02*
X002585Y011070D01*
X002618Y011104D02*
X002512Y011210D01*
X002408Y011106D02*
X002514Y010999D01*
X002428Y010984D02*
X002375Y010931D01*
X002410Y010895D02*
X002304Y011001D01*
X002357Y011054D01*
X002392Y011054D01*
X002428Y011019D01*
X002428Y010984D01*
X002394Y010844D02*
X002324Y010773D01*
X002255Y010775D02*
X002184Y010846D01*
X002149Y010846D01*
X002096Y010793D01*
X002202Y010687D01*
X002255Y010740D01*
X002255Y010775D01*
X002151Y010671D02*
X002080Y010742D01*
X002045Y010742D01*
X001992Y010689D01*
X002098Y010583D01*
X002151Y010636D01*
X002151Y010671D01*
X002029Y010585D02*
X001958Y010656D01*
X001887Y010585D02*
X001958Y010514D01*
X002029Y010514D01*
X002029Y010585D01*
X002009Y011515D02*
X001903Y011621D01*
X001974Y011692D02*
X002080Y011585D01*
X002009Y011585D01*
X002009Y011515D01*
X002113Y011619D02*
X002007Y011725D01*
X002113Y011619D02*
X002184Y011690D01*
X002217Y011723D02*
X002147Y011794D01*
X002147Y011864D01*
X002217Y011864D01*
X002288Y011794D01*
X002322Y011827D02*
X002215Y011933D01*
X002392Y011898D01*
X002286Y012004D01*
X002235Y011847D02*
X002164Y011776D01*
X002443Y011914D02*
X002514Y011984D01*
X002530Y012035D02*
X002494Y012212D01*
X002528Y012246D02*
X002599Y012316D01*
X002563Y012281D02*
X002669Y012175D01*
X002601Y012106D02*
X002424Y012141D01*
X002272Y012766D02*
X002202Y012837D01*
X002131Y012837D01*
X002131Y012766D01*
X002202Y012695D01*
X002168Y012662D02*
X002098Y012591D01*
X001991Y012697D01*
X001958Y012664D02*
X002064Y012558D01*
X001993Y012558D01*
X001993Y012487D01*
X001887Y012593D01*
X002149Y012748D02*
X002219Y012819D01*
X002200Y012906D02*
X002377Y012870D01*
X002270Y012976D01*
X002200Y012906D02*
X002306Y012800D01*
X002428Y012886D02*
X002498Y012957D01*
X002514Y013008D02*
X002479Y013185D01*
X002512Y013218D02*
X002583Y013289D01*
X002547Y013253D02*
X002654Y013147D01*
X002722Y013216D02*
X002652Y013287D01*
X002652Y013358D01*
X002722Y013358D01*
X002793Y013287D01*
X002827Y013320D02*
X002897Y013391D01*
X002948Y013407D02*
X003019Y013477D01*
X003035Y013528D02*
X002929Y013635D01*
X003106Y013599D01*
X002999Y013705D01*
X002720Y013426D02*
X002827Y013320D01*
X002740Y013340D02*
X002669Y013269D01*
X002585Y013079D02*
X002408Y013114D01*
X002298Y013694D02*
X002298Y013835D01*
X002280Y013853D01*
X002245Y013853D01*
X002209Y013818D01*
X002209Y013782D01*
X002176Y013749D02*
X002211Y013714D01*
X002211Y013678D01*
X002158Y013625D01*
X002194Y013590D02*
X002087Y013696D01*
X002140Y013749D01*
X002176Y013749D01*
X002298Y013694D02*
X002368Y013765D01*
X002142Y013574D02*
X002072Y013645D01*
X002036Y013645D01*
X002001Y013609D01*
X002001Y013574D01*
X002072Y013503D01*
X002107Y013503D01*
X002142Y013539D01*
X002142Y013574D01*
X002038Y013470D02*
X002038Y013435D01*
X002003Y013399D01*
X001968Y013399D01*
X001950Y013452D02*
X001985Y013488D01*
X002021Y013488D01*
X002038Y013470D01*
X001950Y013452D02*
X001914Y013452D01*
X001897Y013470D01*
X001897Y013505D01*
X001932Y013541D01*
X001968Y013541D01*
X002667Y012385D02*
X002738Y012385D01*
X002809Y012314D01*
X002842Y012348D02*
X002913Y012419D01*
X002964Y012434D02*
X003035Y012505D01*
X003051Y012556D02*
X002944Y012662D01*
X002997Y012715D01*
X003033Y012715D01*
X003068Y012680D01*
X003068Y012644D01*
X003015Y012591D01*
X002842Y012348D02*
X002736Y012454D01*
X002756Y012367D02*
X002685Y012297D01*
X002667Y012314D02*
X002667Y012385D01*
X002667Y012314D02*
X002738Y012244D01*
X002689Y011174D02*
X002618Y011104D01*
X003051Y018976D02*
X003026Y019001D01*
X003026Y019027D01*
X002999Y019054D02*
X002973Y019054D01*
X002947Y019080D01*
X002947Y019106D01*
X002999Y019157D01*
X003025Y019157D01*
X003051Y019132D01*
X003051Y019106D01*
X003077Y019079D02*
X003064Y019066D01*
X003064Y019040D01*
X003090Y019014D01*
X003090Y018989D01*
X003077Y018976D01*
X003051Y018976D01*
X003129Y019027D02*
X003129Y019053D01*
X003103Y019079D01*
X003077Y019079D01*
X002895Y019106D02*
X002843Y019158D01*
X002830Y019197D02*
X002804Y019223D01*
X002817Y019210D02*
X002895Y019288D01*
X002882Y019301D02*
X002908Y019275D01*
X002843Y019314D02*
X002843Y019340D01*
X002804Y019379D01*
X002726Y019301D01*
X002752Y019327D02*
X002791Y019288D01*
X002817Y019288D01*
X002843Y019314D01*
X002765Y019392D02*
X002765Y019418D01*
X002739Y019444D01*
X002713Y019444D01*
X002700Y019431D01*
X002700Y019405D01*
X002726Y019379D01*
X002726Y019353D01*
X002713Y019340D01*
X002687Y019340D01*
X002661Y019366D01*
X002661Y019392D01*
X002609Y019392D02*
X002557Y019444D01*
X002544Y019484D02*
X002622Y019561D01*
X002583Y019522D02*
X002531Y019574D01*
X002492Y019588D02*
X002479Y019575D01*
X002453Y019575D01*
X002427Y019601D01*
X002427Y019627D01*
X002466Y019640D02*
X002492Y019614D01*
X002492Y019588D01*
X002492Y019535D02*
X002570Y019613D01*
X002531Y019627D02*
X002531Y019653D01*
X002505Y019678D01*
X002479Y019678D01*
X002466Y019666D01*
X002466Y019640D01*
X002426Y019679D02*
X002375Y019731D01*
X002388Y019744D02*
X002439Y019744D01*
X002439Y019692D01*
X002388Y019640D01*
X002336Y019692D02*
X002388Y019744D01*
X002309Y019718D02*
X002258Y019770D01*
X002335Y019848D01*
X002309Y019874D02*
X002257Y019926D01*
X002179Y019848D01*
X002218Y019887D02*
X002244Y019861D01*
X002452Y020062D02*
X002530Y020140D01*
X002569Y020101D01*
X002569Y020075D01*
X002543Y020049D01*
X002517Y020049D01*
X002478Y020088D01*
X002452Y020114D02*
X002439Y020101D01*
X002413Y020101D01*
X002387Y020127D01*
X002387Y020153D01*
X002426Y020166D02*
X002452Y020140D01*
X002452Y020114D01*
X002491Y020153D02*
X002491Y020179D01*
X002465Y020205D01*
X002439Y020205D01*
X002426Y020192D01*
X002426Y020166D01*
X002335Y020154D02*
X002283Y020205D01*
X002270Y020245D02*
X002347Y020322D01*
X002308Y020284D02*
X002257Y020335D01*
X002217Y020349D02*
X002217Y020375D01*
X002191Y020401D01*
X002191Y020427D01*
X002204Y020440D01*
X002230Y020440D01*
X002256Y020414D01*
X002256Y020388D01*
X002296Y020374D02*
X002218Y020297D01*
X002204Y020336D02*
X002178Y020336D01*
X002153Y020362D01*
X002153Y020388D01*
X002113Y020401D02*
X002165Y020453D01*
X002165Y020505D01*
X002113Y020505D01*
X002061Y020453D01*
X002035Y020479D02*
X001983Y020531D01*
X002061Y020609D01*
X002035Y020635D02*
X001983Y020687D01*
X001905Y020609D01*
X001944Y020648D02*
X001970Y020622D01*
X002100Y020492D02*
X002152Y020440D01*
X002217Y020349D02*
X002204Y020336D01*
X002422Y020749D02*
X002500Y020827D01*
X002539Y020788D01*
X002539Y020762D01*
X002513Y020736D01*
X002487Y020736D01*
X002448Y020775D01*
X002422Y020801D02*
X002409Y020788D01*
X002383Y020788D01*
X002357Y020814D01*
X002357Y020840D01*
X002396Y020853D02*
X002422Y020827D01*
X002422Y020801D01*
X002461Y020840D02*
X002461Y020866D01*
X002435Y020892D01*
X002409Y020892D01*
X002396Y020879D01*
X002396Y020853D01*
X002305Y020841D02*
X002253Y020892D01*
X002240Y020932D02*
X002318Y021010D01*
X002279Y020971D02*
X002227Y021023D01*
X002188Y021036D02*
X002188Y021062D01*
X002162Y021088D01*
X002162Y021114D01*
X002175Y021127D01*
X002201Y021127D01*
X002227Y021101D01*
X002227Y021075D01*
X002266Y021061D02*
X002188Y020984D01*
X002175Y021023D02*
X002149Y021023D01*
X002123Y021049D01*
X002123Y021075D01*
X002084Y021088D02*
X002136Y021140D01*
X002136Y021192D01*
X002084Y021192D01*
X002032Y021140D01*
X002006Y021166D02*
X001954Y021218D01*
X002032Y021296D01*
X002005Y021322D02*
X001953Y021374D01*
X001876Y021296D01*
X001915Y021335D02*
X001940Y021309D01*
X002071Y021179D02*
X002123Y021127D01*
X002188Y021036D02*
X002175Y021023D01*
X002501Y020671D02*
X002526Y020645D01*
X002513Y020658D02*
X002591Y020736D01*
X002578Y020749D02*
X002604Y020723D01*
X002540Y020606D02*
X002591Y020554D01*
X002631Y020541D02*
X002670Y020502D01*
X002696Y020502D01*
X002747Y020554D01*
X002747Y020580D01*
X002709Y020619D01*
X002631Y020541D01*
X002722Y020476D02*
X002722Y020450D01*
X002748Y020424D01*
X002774Y020424D01*
X002826Y020476D01*
X002826Y020502D01*
X002800Y020527D01*
X002774Y020527D01*
X002722Y020476D01*
X002608Y020062D02*
X002634Y020036D01*
X002621Y020049D02*
X002543Y019971D01*
X002530Y019984D02*
X002556Y019958D01*
X002569Y019919D02*
X002621Y019867D01*
X002660Y019854D02*
X002699Y019815D01*
X002725Y019815D01*
X002777Y019867D01*
X002777Y019893D01*
X002738Y019932D01*
X002660Y019854D01*
X002738Y019776D02*
X002764Y019750D01*
X002751Y019763D02*
X002829Y019840D01*
X002816Y019853D02*
X002842Y019827D01*
X002868Y019801D02*
X002842Y019672D01*
X002920Y019749D01*
X002868Y019801D02*
X002790Y019723D01*
X002529Y021658D02*
X002477Y021710D01*
X002554Y021788D01*
X002515Y021801D02*
X002515Y021827D01*
X002489Y021853D01*
X002463Y021853D01*
X002411Y021801D01*
X002411Y021775D01*
X002437Y021749D01*
X002463Y021749D01*
X002359Y021801D02*
X002307Y021853D01*
X002294Y021892D02*
X002268Y021918D01*
X002281Y021905D02*
X002359Y021983D01*
X002346Y021996D02*
X002372Y021970D01*
X002307Y022010D02*
X002281Y021984D01*
X002255Y021984D01*
X002216Y022023D01*
X002190Y022049D02*
X002177Y022036D01*
X002151Y022036D01*
X002125Y022062D01*
X002125Y022088D01*
X002164Y022101D02*
X002190Y022075D01*
X002190Y022049D01*
X002190Y021997D02*
X002268Y022074D01*
X002307Y022035D01*
X002307Y022010D01*
X002229Y022088D02*
X002229Y022114D01*
X002203Y022140D01*
X002177Y022140D01*
X002164Y022127D01*
X002164Y022101D01*
X002073Y022088D02*
X002021Y022140D01*
X002008Y022179D02*
X001956Y022231D01*
X002034Y022309D01*
X002008Y022335D02*
X001956Y022387D01*
X001878Y022309D01*
X001917Y022348D02*
X001943Y022322D01*
X002228Y022917D02*
X002158Y022987D01*
X002160Y023056D02*
X002230Y023127D01*
X002230Y023162D01*
X002177Y023215D01*
X002071Y023109D01*
X002124Y023056D01*
X002160Y023056D01*
X002055Y023160D02*
X002126Y023231D01*
X002126Y023267D01*
X002073Y023320D01*
X001967Y023213D01*
X002020Y023160D01*
X002055Y023160D01*
X001969Y023282D02*
X002040Y023353D01*
X001969Y023282D02*
X001898Y023282D01*
X001898Y023353D01*
X001969Y023424D01*
X002228Y023919D02*
X002157Y023990D01*
X002159Y024058D02*
X002230Y024129D01*
X002230Y024165D01*
X002177Y024218D01*
X002071Y024112D01*
X002124Y024058D01*
X002159Y024058D01*
X002055Y024163D02*
X002126Y024233D01*
X002126Y024269D01*
X002073Y024322D01*
X001967Y024216D01*
X002020Y024163D01*
X002055Y024163D01*
X001969Y024284D02*
X002039Y024355D01*
X001969Y024284D02*
X001898Y024284D01*
X001898Y024355D01*
X001969Y024426D01*
X002385Y024009D02*
X002279Y023903D01*
X002332Y023850D01*
X002367Y023850D01*
X002438Y023921D01*
X002438Y023956D01*
X002385Y024009D01*
X002489Y023905D02*
X002525Y023870D01*
X002507Y023887D02*
X002401Y023781D01*
X002419Y023764D02*
X002383Y023799D01*
X002470Y023747D02*
X002470Y023712D01*
X002506Y023676D01*
X002541Y023676D01*
X002576Y023712D01*
X002541Y023747D01*
X002541Y023818D02*
X002470Y023747D01*
X002541Y023818D02*
X002576Y023818D01*
X002612Y023783D01*
X002612Y023747D01*
X002627Y023696D02*
X002698Y023696D01*
X002592Y023590D01*
X002557Y023625D02*
X002627Y023555D01*
X002386Y023007D02*
X002421Y022972D01*
X002403Y022989D02*
X002297Y022883D01*
X002315Y022866D02*
X002279Y022901D01*
X002366Y022849D02*
X002366Y022814D01*
X002402Y022778D01*
X002437Y022778D01*
X002508Y022849D01*
X002508Y022885D01*
X002473Y022920D01*
X002437Y022920D01*
X002366Y022849D01*
X002453Y022727D02*
X002524Y022657D01*
X002488Y022692D02*
X002594Y022798D01*
X002524Y022798D01*
X009439Y009015D02*
X009333Y008909D01*
X009386Y008856D01*
X009421Y008856D01*
X009492Y008927D01*
X009492Y008962D01*
X009439Y009015D01*
X009525Y008893D02*
X009455Y008822D01*
X009455Y008787D01*
X009490Y008752D01*
X009525Y008752D01*
X009541Y008701D02*
X009594Y008647D01*
X009630Y008647D01*
X009700Y008718D01*
X009700Y008754D01*
X009647Y008807D01*
X009541Y008701D01*
X009596Y008822D02*
X009596Y008858D01*
X009561Y008893D01*
X009525Y008893D01*
X009734Y008685D02*
X009663Y008614D01*
X009663Y008579D01*
X009698Y008543D01*
X009734Y008543D01*
X009732Y008474D02*
X009803Y008404D01*
X009854Y008388D02*
X009924Y008459D01*
X009995Y008459D01*
X009995Y008388D01*
X009924Y008317D01*
X009958Y008284D02*
X010064Y008390D01*
X010028Y008213D01*
X010135Y008319D01*
X010133Y008250D02*
X010203Y008250D01*
X010203Y008180D01*
X010133Y008109D01*
X010148Y008058D02*
X010219Y007987D01*
X010288Y007989D02*
X010288Y007954D01*
X010323Y007918D01*
X010359Y007918D01*
X010376Y007936D01*
X010376Y007971D01*
X010341Y008007D01*
X010341Y008042D01*
X010359Y008060D01*
X010394Y008060D01*
X010429Y008024D01*
X010429Y007989D01*
X010480Y007973D02*
X010374Y007867D01*
X010445Y007867D01*
X010445Y007796D01*
X010551Y007902D01*
X010186Y008162D02*
X010115Y008233D01*
X010133Y008250D02*
X010062Y008180D01*
X009977Y008370D02*
X009907Y008441D01*
X009804Y008614D02*
X009804Y008649D01*
X009769Y008685D01*
X009734Y008685D01*
X009979Y009400D02*
X010015Y009400D01*
X009979Y009400D02*
X009944Y009435D01*
X009944Y009471D01*
X010015Y009542D01*
X010050Y009542D01*
X010085Y009506D01*
X010085Y009471D01*
X010136Y009455D02*
X010190Y009402D01*
X010190Y009367D01*
X010119Y009296D01*
X010083Y009296D01*
X010030Y009349D01*
X010136Y009455D01*
X010223Y009333D02*
X010152Y009262D01*
X010152Y009227D01*
X010188Y009192D01*
X010223Y009192D01*
X010221Y009123D02*
X010292Y009052D01*
X010343Y009036D02*
X010449Y009143D01*
X010502Y009089D01*
X010502Y009054D01*
X010467Y009019D01*
X010431Y009019D01*
X010378Y009072D01*
X010500Y008985D02*
X010571Y008915D01*
X010588Y008932D02*
X010518Y008861D01*
X010588Y008932D02*
X010588Y009003D01*
X010518Y009003D01*
X010447Y008932D01*
X010294Y009262D02*
X010294Y009298D01*
X010258Y009333D01*
X010223Y009333D01*
X010412Y009827D02*
X010360Y009879D01*
X010347Y009918D02*
X010425Y009996D01*
X010373Y010048D02*
X010295Y009970D01*
X010347Y009970D01*
X010347Y009918D01*
X010282Y010009D02*
X010256Y010009D01*
X010230Y010035D01*
X010230Y010061D01*
X010269Y010074D02*
X010295Y010048D01*
X010295Y010022D01*
X010282Y010009D01*
X010269Y010074D02*
X010269Y010100D01*
X010282Y010113D01*
X010308Y010113D01*
X010334Y010087D01*
X010334Y010061D01*
X010178Y010061D02*
X010126Y010113D01*
X010113Y010152D02*
X010165Y010204D01*
X010165Y010256D01*
X010113Y010256D01*
X010061Y010204D01*
X010100Y010243D02*
X010152Y010191D01*
X010074Y010269D02*
X010048Y010269D01*
X010009Y010308D01*
X009983Y010282D02*
X010061Y010360D01*
X010100Y010321D01*
X010100Y010295D01*
X010074Y010269D01*
X009944Y010296D02*
X009892Y010347D01*
X009891Y010400D02*
X009866Y010400D01*
X009840Y010426D01*
X009840Y010452D01*
X009891Y010503D01*
X009917Y010503D01*
X009943Y010477D01*
X009943Y010452D01*
X009865Y010530D02*
X009865Y010556D01*
X009826Y010595D01*
X009749Y010517D01*
X009787Y010478D01*
X009813Y010478D01*
X009865Y010530D01*
X009787Y010608D02*
X009787Y010634D01*
X009761Y010660D01*
X009735Y010660D01*
X009683Y010608D01*
X009683Y010582D01*
X009709Y010556D01*
X009735Y010556D01*
X009657Y010634D02*
X009709Y010686D01*
X009709Y010712D01*
X009670Y010751D01*
X009592Y010673D01*
X009631Y010634D01*
X009657Y010634D01*
X009546Y010045D02*
X009476Y009975D01*
X009476Y009904D01*
X009546Y009904D01*
X009617Y009975D01*
X009651Y009941D02*
X009686Y009906D01*
X009668Y009924D02*
X009562Y009817D01*
X009580Y009800D02*
X009544Y009835D01*
X009614Y009766D02*
X009720Y009872D01*
X009685Y009695D01*
X009791Y009801D01*
X009700Y009644D02*
X009771Y009573D01*
X009822Y009557D02*
X009875Y009504D01*
X009911Y009504D01*
X009981Y009575D01*
X009981Y009610D01*
X009928Y009663D01*
X009822Y009557D01*
X010383Y010965D02*
X010461Y011043D01*
X010409Y011095D02*
X010331Y011017D01*
X010383Y011017D01*
X010383Y010965D01*
X010396Y010926D02*
X010448Y010874D01*
X010487Y010861D02*
X010565Y010939D01*
X010539Y010809D01*
X010617Y010887D01*
X010370Y011108D02*
X010370Y011134D01*
X010344Y011160D01*
X010318Y011160D01*
X010305Y011147D01*
X010305Y011121D01*
X010331Y011095D01*
X010331Y011069D01*
X010318Y011057D01*
X010292Y011057D01*
X010266Y011082D01*
X010266Y011108D01*
X010214Y011109D02*
X010162Y011161D01*
X010149Y011200D02*
X010200Y011252D01*
X010200Y011304D01*
X010149Y011304D01*
X010097Y011252D01*
X010136Y011291D02*
X010187Y011239D01*
X010109Y011317D02*
X010083Y011317D01*
X010044Y011356D01*
X010019Y011330D02*
X010096Y011408D01*
X010135Y011369D01*
X010135Y011343D01*
X010109Y011317D01*
X009979Y011343D02*
X009927Y011395D01*
X009927Y011447D02*
X009901Y011447D01*
X009875Y011473D01*
X009875Y011499D01*
X009927Y011551D01*
X009953Y011551D01*
X009979Y011525D01*
X009979Y011499D01*
X009901Y011577D02*
X009901Y011603D01*
X009862Y011642D01*
X009784Y011564D01*
X009823Y011525D01*
X009849Y011525D01*
X009901Y011577D01*
X009823Y011655D02*
X009823Y011681D01*
X009797Y011707D01*
X009771Y011707D01*
X009719Y011655D01*
X009719Y011630D01*
X009745Y011604D01*
X009771Y011604D01*
X009693Y011682D02*
X009745Y011734D01*
X009745Y011760D01*
X009706Y011799D01*
X009628Y011721D01*
X009667Y011682D01*
X009693Y011682D01*
X010011Y012237D02*
X009959Y012289D01*
X009959Y012341D02*
X009933Y012341D01*
X009907Y012367D01*
X009907Y012393D01*
X009959Y012445D01*
X009985Y012445D01*
X010011Y012419D01*
X010011Y012393D01*
X009932Y012471D02*
X009932Y012497D01*
X009894Y012536D01*
X009816Y012458D01*
X009855Y012419D01*
X009881Y012419D01*
X009932Y012471D01*
X009854Y012549D02*
X009854Y012575D01*
X009828Y012601D01*
X009802Y012601D01*
X009751Y012549D01*
X009751Y012523D01*
X009776Y012497D01*
X009802Y012497D01*
X009724Y012575D02*
X009776Y012627D01*
X009776Y012653D01*
X009737Y012692D01*
X009659Y012614D01*
X009698Y012575D01*
X009724Y012575D01*
X010050Y012224D02*
X010128Y012301D01*
X010167Y012263D01*
X010167Y012237D01*
X010141Y012211D01*
X010115Y012211D01*
X010076Y012250D01*
X010167Y012184D02*
X010219Y012132D01*
X010232Y012145D02*
X010180Y012094D01*
X010193Y012054D02*
X010245Y012002D01*
X010297Y012002D02*
X010297Y011976D01*
X010323Y011950D01*
X010349Y011950D01*
X010401Y012002D01*
X010401Y012028D01*
X010375Y012054D01*
X010349Y012054D01*
X010297Y012002D01*
X010375Y011924D02*
X010375Y011898D01*
X010401Y011872D01*
X010427Y011872D01*
X010492Y011937D01*
X010518Y011911D02*
X010570Y011859D01*
X010544Y011885D02*
X010467Y011807D01*
X010375Y011924D02*
X010440Y011989D01*
X010232Y012145D02*
X010232Y012197D01*
X010180Y012197D01*
X010128Y012145D01*
X010349Y012833D02*
X010297Y012884D01*
X010297Y012937D02*
X010323Y012963D01*
X010297Y012989D01*
X010297Y013040D02*
X010245Y012989D01*
X010245Y012963D01*
X010271Y012937D01*
X010297Y012937D01*
X010349Y012989D02*
X010349Y013014D01*
X010323Y013040D01*
X010297Y013040D01*
X010284Y013080D02*
X010258Y013105D01*
X010271Y013092D02*
X010193Y013015D01*
X010180Y013028D02*
X010206Y013002D01*
X010167Y013067D02*
X010219Y013119D01*
X010219Y013145D01*
X010180Y013184D01*
X010102Y013106D01*
X010141Y013067D01*
X010167Y013067D01*
X010401Y012832D02*
X010401Y012806D01*
X010427Y012780D01*
X010453Y012780D01*
X010466Y012793D01*
X010466Y012819D01*
X010440Y012845D01*
X010440Y012871D01*
X010453Y012884D01*
X010479Y012884D01*
X010505Y012858D01*
X010505Y012832D01*
X010544Y012819D02*
X010466Y012741D01*
X010518Y012741D01*
X010518Y012689D01*
X010596Y012767D01*
X010622Y013594D02*
X010648Y013594D01*
X010674Y013620D01*
X010648Y013646D01*
X010648Y013697D02*
X010596Y013646D01*
X010596Y013620D01*
X010622Y013594D01*
X010557Y013659D02*
X010531Y013685D01*
X010544Y013672D02*
X010622Y013750D01*
X010609Y013763D02*
X010635Y013737D01*
X010648Y013697D02*
X010674Y013697D01*
X010700Y013672D01*
X010700Y013646D01*
X010570Y013776D02*
X010570Y013802D01*
X010531Y013841D01*
X010453Y013763D01*
X010492Y013724D01*
X010518Y013724D01*
X010570Y013776D01*
X010414Y013776D02*
X010362Y013828D01*
X010361Y013880D02*
X010335Y013880D01*
X010310Y013906D01*
X010310Y013932D01*
X010361Y013984D01*
X010387Y013984D01*
X010413Y013958D01*
X010413Y013932D01*
X010335Y014010D02*
X010335Y014036D01*
X010296Y014075D01*
X010218Y013997D01*
X010257Y013958D01*
X010283Y013958D01*
X010335Y014010D01*
X010257Y014088D02*
X010257Y014114D01*
X010231Y014140D01*
X010205Y014140D01*
X010153Y014088D01*
X010153Y014062D01*
X010179Y014037D01*
X010205Y014037D01*
X010127Y014115D02*
X010179Y014167D01*
X010179Y014193D01*
X010140Y014231D01*
X010062Y014154D01*
X010101Y014115D01*
X010127Y014115D01*
X010023Y014167D02*
X009971Y014219D01*
X009958Y014258D02*
X010036Y014336D01*
X009984Y014388D02*
X009958Y014258D01*
X009906Y014310D02*
X009984Y014388D01*
X009958Y014414D02*
X009932Y014440D01*
X009945Y014427D02*
X009867Y014349D01*
X009854Y014362D02*
X009880Y014336D01*
X009854Y014414D02*
X009906Y014466D01*
X009854Y014414D02*
X009802Y014414D01*
X009802Y014466D01*
X009854Y014518D01*
X009928Y014652D02*
X009876Y014704D01*
X009876Y014756D02*
X009850Y014756D01*
X009824Y014782D01*
X009824Y014808D01*
X009876Y014860D01*
X009902Y014860D01*
X009928Y014834D01*
X009928Y014808D01*
X009850Y014886D02*
X009850Y014912D01*
X009811Y014951D01*
X009733Y014873D01*
X009772Y014834D01*
X009798Y014834D01*
X009850Y014886D01*
X009771Y014964D02*
X009771Y014990D01*
X009746Y015016D01*
X009720Y015016D01*
X009668Y014964D01*
X009668Y014938D01*
X009694Y014912D01*
X009720Y014912D01*
X009641Y014991D02*
X009693Y015042D01*
X009693Y015068D01*
X009654Y015107D01*
X009577Y015029D01*
X009616Y014991D01*
X009641Y014991D01*
X009761Y015300D02*
X009709Y015352D01*
X009709Y015404D02*
X009683Y015404D01*
X009657Y015430D01*
X009657Y015456D01*
X009709Y015508D01*
X009735Y015508D01*
X009760Y015482D01*
X009760Y015456D01*
X009682Y015534D02*
X009682Y015560D01*
X009643Y015599D01*
X009566Y015521D01*
X009605Y015482D01*
X009630Y015482D01*
X009682Y015534D01*
X009604Y015612D02*
X009604Y015638D01*
X009578Y015664D01*
X009552Y015664D01*
X009500Y015612D01*
X009500Y015586D01*
X009526Y015560D01*
X009552Y015560D01*
X009474Y015638D02*
X009526Y015690D01*
X009526Y015716D01*
X009487Y015755D01*
X009409Y015677D01*
X009448Y015638D01*
X009474Y015638D01*
X009669Y015932D02*
X009618Y015983D01*
X009618Y016083D01*
X009719Y016083D02*
X009719Y015983D01*
X009669Y015932D01*
X009766Y015932D02*
X009841Y015932D01*
X009866Y015957D01*
X009866Y016058D01*
X009841Y016083D01*
X009766Y016083D01*
X009766Y015932D01*
X009913Y015932D02*
X009988Y015932D01*
X010013Y015957D01*
X010013Y016058D01*
X009988Y016083D01*
X009913Y016083D01*
X009913Y015932D01*
X010060Y015907D02*
X010161Y015907D01*
X010208Y015932D02*
X010208Y016033D01*
X010258Y016083D01*
X010308Y016033D01*
X010308Y015932D01*
X010355Y015932D02*
X010355Y016083D01*
X010455Y015932D01*
X010455Y016083D01*
X010502Y016033D02*
X010552Y016083D01*
X010602Y016033D01*
X010602Y015932D01*
X010650Y015932D02*
X010750Y016033D01*
X010750Y016058D01*
X010725Y016083D01*
X010675Y016083D01*
X010650Y016058D01*
X010602Y016008D02*
X010502Y016008D01*
X010502Y016033D02*
X010502Y015932D01*
X010308Y016008D02*
X010208Y016008D01*
X009904Y015339D02*
X009904Y015287D01*
X009852Y015235D01*
X009878Y015209D02*
X009956Y015286D01*
X009930Y015157D01*
X010008Y015234D01*
X010008Y015182D02*
X010060Y015182D01*
X010060Y015130D01*
X010008Y015078D01*
X010034Y015052D02*
X010138Y015052D01*
X010151Y015065D01*
X010151Y015091D01*
X010125Y015117D01*
X010099Y015117D01*
X010047Y015117D02*
X009995Y015169D01*
X010008Y015182D02*
X009956Y015130D01*
X010034Y015052D02*
X010086Y015000D01*
X010099Y014961D02*
X010151Y014909D01*
X010203Y014909D02*
X010203Y014883D01*
X010229Y014857D01*
X010255Y014857D01*
X010268Y014870D01*
X010268Y014896D01*
X010242Y014922D01*
X010242Y014948D01*
X010255Y014961D01*
X010281Y014961D01*
X010307Y014935D01*
X010307Y014909D01*
X010346Y014896D02*
X010269Y014818D01*
X010321Y014818D01*
X010321Y014766D01*
X010398Y014844D01*
X010334Y014727D02*
X010386Y014675D01*
X010425Y014661D02*
X010503Y014739D01*
X010477Y014610D01*
X010555Y014687D01*
X010449Y014313D02*
X010423Y014313D01*
X010410Y014300D01*
X010410Y014274D01*
X010436Y014248D01*
X010436Y014222D01*
X010423Y014209D01*
X010397Y014209D01*
X010371Y014235D01*
X010371Y014261D01*
X010319Y014261D02*
X010267Y014313D01*
X010253Y014352D02*
X010202Y014404D01*
X010305Y014404D01*
X010318Y014417D01*
X010318Y014443D01*
X010292Y014469D01*
X010266Y014469D01*
X010227Y014482D02*
X010227Y014534D01*
X010175Y014534D01*
X010123Y014482D01*
X010097Y014509D02*
X010175Y014586D01*
X010162Y014521D02*
X010214Y014469D01*
X010227Y014482D02*
X010175Y014430D01*
X010097Y014509D02*
X010123Y014638D01*
X010045Y014561D01*
X010019Y014587D02*
X010071Y014639D01*
X010071Y014691D01*
X010019Y014691D01*
X009967Y014639D01*
X010006Y014678D02*
X010058Y014626D01*
X009891Y015274D02*
X009839Y015326D01*
X009852Y015339D02*
X009904Y015339D01*
X009852Y015339D02*
X009800Y015287D01*
X010449Y014313D02*
X010474Y014287D01*
X010474Y014261D01*
X010514Y014248D02*
X010436Y014170D01*
X010488Y014170D01*
X010488Y014118D01*
X010566Y014196D01*
X010501Y014079D02*
X010553Y014027D01*
X010592Y014014D02*
X010670Y014091D01*
X010709Y014052D01*
X010709Y014026D01*
X010683Y014001D01*
X010657Y014001D01*
X010618Y014039D01*
X010650Y015932D02*
X010750Y015932D01*
X010646Y018813D02*
X010595Y018813D01*
X010570Y018838D01*
X010671Y018938D01*
X010671Y018838D01*
X010646Y018813D01*
X010570Y018838D02*
X010570Y018938D01*
X010595Y018963D01*
X010646Y018963D01*
X010671Y018938D01*
X010523Y018938D02*
X010498Y018963D01*
X010448Y018963D01*
X010423Y018938D01*
X010423Y018838D01*
X010448Y018813D01*
X010498Y018813D01*
X010523Y018838D01*
X010523Y018938D01*
X010375Y018963D02*
X010325Y018963D01*
X010350Y018963D02*
X010350Y018813D01*
X010325Y018813D02*
X010375Y018813D01*
X010278Y018888D02*
X010253Y018863D01*
X010178Y018863D01*
X010178Y018813D02*
X010178Y018963D01*
X010253Y018963D01*
X010278Y018938D01*
X010278Y018888D01*
X010130Y018888D02*
X010080Y018888D01*
X010130Y018888D02*
X010130Y018838D01*
X010105Y018813D01*
X010055Y018813D01*
X010030Y018838D01*
X010030Y018938D01*
X010055Y018963D01*
X010105Y018963D01*
X010130Y018938D01*
X009915Y019315D02*
X009809Y019421D01*
X009844Y019456D02*
X009773Y019386D01*
X009758Y019334D02*
X009793Y019299D01*
X009793Y019264D01*
X009740Y019211D01*
X009775Y019246D02*
X009846Y019246D01*
X009775Y019175D02*
X009669Y019281D01*
X009722Y019334D01*
X009758Y019334D01*
X009895Y019472D02*
X009966Y019401D01*
X010001Y019401D01*
X010037Y019437D01*
X010037Y019472D01*
X010105Y019470D02*
X010176Y019541D01*
X010192Y019592D02*
X010156Y019769D01*
X010190Y019802D02*
X010261Y019873D01*
X010225Y019837D02*
X010331Y019731D01*
X010263Y019663D02*
X010086Y019698D01*
X009966Y019543D02*
X009930Y019543D01*
X009895Y019507D01*
X009895Y019472D01*
X009974Y019929D02*
X009896Y020007D01*
X009935Y020046D01*
X009961Y020046D01*
X009987Y020020D01*
X009987Y019994D01*
X009948Y019955D01*
X009974Y019981D02*
X010026Y019981D01*
X010078Y020033D02*
X010000Y020111D01*
X009974Y020085D02*
X010026Y020137D01*
X010065Y020150D02*
X010117Y020098D01*
X010143Y020098D01*
X010169Y020124D01*
X010169Y020150D01*
X010221Y020150D02*
X010273Y020202D01*
X010286Y020241D02*
X010260Y020371D01*
X010286Y020397D02*
X010338Y020449D01*
X010312Y020423D02*
X010390Y020346D01*
X010442Y020398D02*
X010390Y020450D01*
X010390Y020501D01*
X010442Y020501D01*
X010494Y020450D01*
X010521Y020476D02*
X010443Y020554D01*
X010455Y020489D02*
X010403Y020437D01*
X010521Y020476D02*
X010572Y020528D01*
X010612Y020541D02*
X010663Y020593D01*
X010677Y020632D02*
X010599Y020710D01*
X010729Y020684D01*
X010651Y020762D01*
X010659Y020272D02*
X010606Y020219D01*
X010712Y020112D01*
X010677Y020148D02*
X010730Y020201D01*
X010730Y020236D01*
X010695Y020272D01*
X010659Y020272D01*
X010697Y020061D02*
X010626Y019991D01*
X010575Y019975D02*
X010504Y019904D01*
X010398Y020010D01*
X010400Y019942D02*
X010471Y019871D01*
X010418Y019924D02*
X010347Y019853D01*
X010329Y019871D02*
X010329Y019942D01*
X010400Y019942D01*
X010329Y019871D02*
X010400Y019800D01*
X010338Y020293D02*
X010208Y020319D01*
X010117Y020202D02*
X010091Y020202D01*
X010065Y020176D01*
X010065Y020150D01*
X010101Y021781D02*
X010172Y021781D01*
X010172Y021852D01*
X010101Y021923D01*
X010134Y021956D02*
X010170Y021991D01*
X010152Y021974D02*
X010258Y021868D01*
X010241Y021850D02*
X010276Y021885D01*
X010310Y021919D02*
X010204Y022026D01*
X010381Y021990D01*
X010275Y022096D01*
X010432Y022006D02*
X010503Y022077D01*
X010518Y022128D02*
X010554Y022163D01*
X010536Y022145D02*
X010430Y022251D01*
X010412Y022234D02*
X010448Y022269D01*
X010499Y022286D02*
X010570Y022215D01*
X010605Y022215D01*
X010641Y022250D01*
X010641Y022286D01*
X010570Y022356D01*
X010535Y022356D01*
X010499Y022321D01*
X010499Y022286D01*
X010603Y022390D02*
X010603Y022425D01*
X010639Y022460D01*
X010674Y022460D01*
X010692Y022443D01*
X010692Y022301D01*
X010763Y022372D01*
X010101Y021781D02*
X010030Y021852D01*
X010529Y009891D02*
X010452Y009813D01*
X010477Y009839D02*
X010516Y009800D01*
X010542Y009800D01*
X010568Y009826D01*
X010568Y009852D01*
X010529Y009891D01*
D13*
X012157Y000170D02*
X000503Y000170D01*
X000503Y034344D01*
X012157Y034344D01*
X012157Y000170D01*
D14*
X007553Y001165D02*
X005153Y001165D01*
X005096Y001167D01*
X005040Y001173D01*
X004984Y001182D01*
X004928Y001195D01*
X004874Y001212D01*
X004821Y001232D01*
X004770Y001256D01*
X004720Y001284D01*
X004672Y001314D01*
X004626Y001348D01*
X004583Y001385D01*
X004542Y001424D01*
X004504Y001466D01*
X004469Y001511D01*
X004437Y001558D01*
X004408Y001607D01*
X004382Y001657D01*
X004360Y001710D01*
X004341Y001763D01*
X004326Y001818D01*
X004315Y001874D01*
X004307Y001930D01*
X004303Y001987D01*
X004303Y002043D01*
X004307Y002100D01*
X004315Y002156D01*
X004326Y002212D01*
X004341Y002267D01*
X004360Y002320D01*
X004382Y002373D01*
X004408Y002423D01*
X004437Y002472D01*
X004469Y002519D01*
X004504Y002564D01*
X004542Y002606D01*
X004583Y002645D01*
X004626Y002682D01*
X004672Y002716D01*
X004720Y002746D01*
X004770Y002774D01*
X004821Y002798D01*
X004874Y002818D01*
X004928Y002835D01*
X004984Y002848D01*
X005040Y002857D01*
X005096Y002863D01*
X005153Y002865D01*
X007553Y002865D01*
X007610Y002863D01*
X007666Y002857D01*
X007722Y002848D01*
X007778Y002835D01*
X007832Y002818D01*
X007885Y002798D01*
X007936Y002774D01*
X007986Y002746D01*
X008034Y002716D01*
X008080Y002682D01*
X008123Y002645D01*
X008164Y002606D01*
X008202Y002564D01*
X008237Y002519D01*
X008269Y002472D01*
X008298Y002423D01*
X008324Y002373D01*
X008346Y002320D01*
X008365Y002267D01*
X008380Y002212D01*
X008391Y002156D01*
X008399Y002100D01*
X008403Y002043D01*
X008403Y001987D01*
X008399Y001930D01*
X008391Y001874D01*
X008380Y001818D01*
X008365Y001763D01*
X008346Y001710D01*
X008324Y001657D01*
X008298Y001607D01*
X008269Y001558D01*
X008237Y001511D01*
X008202Y001466D01*
X008164Y001424D01*
X008123Y001385D01*
X008080Y001348D01*
X008034Y001314D01*
X007986Y001284D01*
X007936Y001256D01*
X007885Y001232D01*
X007832Y001212D01*
X007778Y001195D01*
X007722Y001182D01*
X007666Y001173D01*
X007610Y001167D01*
X007553Y001165D01*
X007508Y031792D02*
X005108Y031792D01*
X005051Y031794D01*
X004995Y031800D01*
X004939Y031809D01*
X004883Y031822D01*
X004829Y031839D01*
X004776Y031859D01*
X004725Y031883D01*
X004675Y031911D01*
X004627Y031941D01*
X004581Y031975D01*
X004538Y032012D01*
X004497Y032051D01*
X004459Y032093D01*
X004424Y032138D01*
X004392Y032185D01*
X004363Y032234D01*
X004337Y032284D01*
X004315Y032337D01*
X004296Y032390D01*
X004281Y032445D01*
X004270Y032501D01*
X004262Y032557D01*
X004258Y032614D01*
X004258Y032670D01*
X004262Y032727D01*
X004270Y032783D01*
X004281Y032839D01*
X004296Y032894D01*
X004315Y032947D01*
X004337Y033000D01*
X004363Y033050D01*
X004392Y033099D01*
X004424Y033146D01*
X004459Y033191D01*
X004497Y033233D01*
X004538Y033272D01*
X004581Y033309D01*
X004627Y033343D01*
X004675Y033373D01*
X004725Y033401D01*
X004776Y033425D01*
X004829Y033445D01*
X004883Y033462D01*
X004939Y033475D01*
X004995Y033484D01*
X005051Y033490D01*
X005108Y033492D01*
X007508Y033492D01*
X007565Y033490D01*
X007621Y033484D01*
X007677Y033475D01*
X007733Y033462D01*
X007787Y033445D01*
X007840Y033425D01*
X007891Y033401D01*
X007941Y033373D01*
X007989Y033343D01*
X008035Y033309D01*
X008078Y033272D01*
X008119Y033233D01*
X008157Y033191D01*
X008192Y033146D01*
X008224Y033099D01*
X008253Y033050D01*
X008279Y033000D01*
X008301Y032947D01*
X008320Y032894D01*
X008335Y032839D01*
X008346Y032783D01*
X008354Y032727D01*
X008358Y032670D01*
X008358Y032614D01*
X008354Y032557D01*
X008346Y032501D01*
X008335Y032445D01*
X008320Y032390D01*
X008301Y032337D01*
X008279Y032284D01*
X008253Y032234D01*
X008224Y032185D01*
X008192Y032138D01*
X008157Y032093D01*
X008119Y032051D01*
X008078Y032012D01*
X008035Y031975D01*
X007989Y031941D01*
X007941Y031911D01*
X007891Y031883D01*
X007840Y031859D01*
X007787Y031839D01*
X007733Y031822D01*
X007677Y031809D01*
X007621Y031800D01*
X007565Y031794D01*
X007508Y031792D01*
D15*
X007508Y031992D02*
X005108Y031992D01*
X005058Y031994D01*
X005009Y032000D01*
X004960Y032009D01*
X004912Y032022D01*
X004865Y032039D01*
X004820Y032059D01*
X004776Y032083D01*
X004734Y032110D01*
X004694Y032141D01*
X004657Y032174D01*
X004623Y032210D01*
X004591Y032248D01*
X004562Y032289D01*
X004537Y032331D01*
X004515Y032376D01*
X004496Y032422D01*
X004481Y032470D01*
X004470Y032518D01*
X004462Y032567D01*
X004458Y032617D01*
X004458Y032667D01*
X004462Y032717D01*
X004470Y032766D01*
X004481Y032814D01*
X004496Y032862D01*
X004515Y032908D01*
X004537Y032953D01*
X004562Y032995D01*
X004591Y033036D01*
X004623Y033074D01*
X004657Y033110D01*
X004694Y033143D01*
X004734Y033174D01*
X004776Y033201D01*
X004820Y033225D01*
X004865Y033245D01*
X004912Y033262D01*
X004960Y033275D01*
X005009Y033284D01*
X005058Y033290D01*
X005108Y033292D01*
X007508Y033292D01*
X007558Y033290D01*
X007607Y033284D01*
X007656Y033275D01*
X007704Y033262D01*
X007751Y033245D01*
X007796Y033225D01*
X007840Y033201D01*
X007882Y033174D01*
X007922Y033143D01*
X007959Y033110D01*
X007993Y033074D01*
X008025Y033036D01*
X008054Y032995D01*
X008079Y032953D01*
X008101Y032908D01*
X008120Y032862D01*
X008135Y032814D01*
X008146Y032766D01*
X008154Y032717D01*
X008158Y032667D01*
X008158Y032617D01*
X008154Y032567D01*
X008146Y032518D01*
X008135Y032470D01*
X008120Y032422D01*
X008101Y032376D01*
X008079Y032331D01*
X008054Y032289D01*
X008025Y032248D01*
X007993Y032210D01*
X007959Y032174D01*
X007922Y032141D01*
X007882Y032110D01*
X007840Y032083D01*
X007796Y032059D01*
X007751Y032039D01*
X007704Y032022D01*
X007656Y032009D01*
X007607Y032000D01*
X007558Y031994D01*
X007508Y031992D01*
X007792Y031320D02*
X006992Y031320D01*
X006975Y031318D01*
X006958Y031314D01*
X006942Y031307D01*
X006928Y031297D01*
X006915Y031284D01*
X006905Y031270D01*
X006898Y031254D01*
X006894Y031237D01*
X006892Y031220D01*
X006892Y029520D01*
X006894Y029503D01*
X006898Y029486D01*
X006905Y029470D01*
X006915Y029456D01*
X006928Y029443D01*
X006942Y029433D01*
X006958Y029426D01*
X006975Y029422D01*
X006992Y029420D01*
X007792Y029420D01*
X007809Y029422D01*
X007826Y029426D01*
X007842Y029433D01*
X007856Y029443D01*
X007869Y029456D01*
X007879Y029470D01*
X007886Y029486D01*
X007890Y029503D01*
X007892Y029520D01*
X007892Y031220D01*
X007890Y031237D01*
X007886Y031254D01*
X007879Y031270D01*
X007869Y031284D01*
X007856Y031297D01*
X007842Y031307D01*
X007826Y031314D01*
X007809Y031318D01*
X007792Y031320D01*
X007392Y030520D02*
X007392Y030470D01*
X007392Y030270D02*
X007392Y030220D01*
X006558Y032342D02*
X006558Y032642D01*
X006808Y032642D01*
X006558Y032642D02*
X006558Y032942D01*
X006408Y032942D02*
X006408Y032342D01*
X006208Y032342D01*
X006208Y032942D01*
X006408Y032942D01*
X006058Y032942D02*
X006058Y032642D01*
X005808Y032642D01*
X006058Y032642D02*
X006058Y032342D01*
X005680Y031319D02*
X004880Y031319D01*
X004863Y031317D01*
X004846Y031313D01*
X004830Y031306D01*
X004816Y031296D01*
X004803Y031283D01*
X004793Y031269D01*
X004786Y031253D01*
X004782Y031236D01*
X004780Y031219D01*
X004780Y029519D01*
X004782Y029502D01*
X004786Y029485D01*
X004793Y029469D01*
X004803Y029455D01*
X004816Y029442D01*
X004830Y029432D01*
X004846Y029425D01*
X004863Y029421D01*
X004880Y029419D01*
X005680Y029419D01*
X005697Y029421D01*
X005714Y029425D01*
X005730Y029432D01*
X005744Y029442D01*
X005757Y029455D01*
X005767Y029469D01*
X005774Y029485D01*
X005778Y029502D01*
X005780Y029519D01*
X005780Y031219D01*
X005778Y031236D01*
X005774Y031253D01*
X005767Y031269D01*
X005757Y031283D01*
X005744Y031296D01*
X005730Y031306D01*
X005714Y031313D01*
X005697Y031317D01*
X005680Y031319D01*
X005280Y030519D02*
X005280Y030469D01*
X005280Y030269D02*
X005280Y030219D01*
X005153Y002665D02*
X007553Y002665D01*
X007603Y002663D01*
X007652Y002657D01*
X007701Y002648D01*
X007749Y002635D01*
X007796Y002618D01*
X007841Y002598D01*
X007885Y002574D01*
X007927Y002547D01*
X007967Y002516D01*
X008004Y002483D01*
X008038Y002447D01*
X008070Y002409D01*
X008099Y002368D01*
X008124Y002326D01*
X008146Y002281D01*
X008165Y002235D01*
X008180Y002187D01*
X008191Y002139D01*
X008199Y002090D01*
X008203Y002040D01*
X008203Y001990D01*
X008199Y001940D01*
X008191Y001891D01*
X008180Y001843D01*
X008165Y001795D01*
X008146Y001749D01*
X008124Y001704D01*
X008099Y001662D01*
X008070Y001621D01*
X008038Y001583D01*
X008004Y001547D01*
X007967Y001514D01*
X007927Y001483D01*
X007885Y001456D01*
X007841Y001432D01*
X007796Y001412D01*
X007749Y001395D01*
X007701Y001382D01*
X007652Y001373D01*
X007603Y001367D01*
X007553Y001365D01*
X005153Y001365D01*
X005103Y001367D01*
X005054Y001373D01*
X005005Y001382D01*
X004957Y001395D01*
X004910Y001412D01*
X004865Y001432D01*
X004821Y001456D01*
X004779Y001483D01*
X004739Y001514D01*
X004702Y001547D01*
X004668Y001583D01*
X004636Y001621D01*
X004607Y001662D01*
X004582Y001704D01*
X004560Y001749D01*
X004541Y001795D01*
X004526Y001843D01*
X004515Y001891D01*
X004507Y001940D01*
X004503Y001990D01*
X004503Y002040D01*
X004507Y002090D01*
X004515Y002139D01*
X004526Y002187D01*
X004541Y002235D01*
X004560Y002281D01*
X004582Y002326D01*
X004607Y002368D01*
X004636Y002409D01*
X004668Y002447D01*
X004702Y002483D01*
X004739Y002516D01*
X004779Y002547D01*
X004821Y002574D01*
X004865Y002598D01*
X004910Y002618D01*
X004957Y002635D01*
X005005Y002648D01*
X005054Y002657D01*
X005103Y002663D01*
X005153Y002665D01*
X005853Y002015D02*
X006103Y002015D01*
X006103Y001715D01*
X006253Y001715D02*
X006253Y002315D01*
X006453Y002315D01*
X006453Y001715D01*
X006253Y001715D01*
X006103Y002015D02*
X006103Y002315D01*
X006603Y002315D02*
X006603Y002015D01*
X006853Y002015D01*
X006603Y002015D02*
X006603Y001715D01*
D16*
X006525Y000941D02*
X006675Y000941D01*
X006750Y000866D01*
X006750Y000790D01*
X006675Y000715D01*
X006525Y000715D01*
X006450Y000790D01*
X006450Y000866D01*
X006525Y000941D01*
X006525Y000715D02*
X006450Y000640D01*
X006450Y000565D01*
X006525Y000490D01*
X006675Y000490D01*
X006750Y000565D01*
X006750Y000640D01*
X006675Y000715D01*
X006290Y000640D02*
X006215Y000715D01*
X005990Y000715D01*
X005990Y000565D01*
X006065Y000490D01*
X006215Y000490D01*
X006290Y000565D01*
X006290Y000640D01*
X006140Y000866D02*
X005990Y000715D01*
X006140Y000866D02*
X006290Y000941D01*
X005830Y000941D02*
X005830Y000866D01*
X005529Y000565D01*
X005529Y000490D01*
X005374Y000490D02*
X005299Y000490D01*
X005299Y000565D01*
X005374Y000565D01*
X005374Y000490D01*
X005529Y000941D02*
X005830Y000941D01*
X005139Y000866D02*
X005064Y000941D01*
X004914Y000941D01*
X004839Y000866D01*
X005139Y000790D02*
X004839Y000490D01*
X005139Y000490D01*
X005139Y000790D02*
X005139Y000866D01*
X004679Y000866D02*
X004679Y000790D01*
X004604Y000715D01*
X004679Y000640D01*
X004679Y000565D01*
X004604Y000490D01*
X004454Y000490D01*
X004378Y000565D01*
X004529Y000715D02*
X004604Y000715D01*
X004679Y000866D02*
X004604Y000941D01*
X004454Y000941D01*
X004378Y000866D01*
X004454Y003090D02*
X004378Y003165D01*
X004378Y003466D01*
X004454Y003541D01*
X004604Y003541D01*
X004679Y003466D01*
X004679Y003165D01*
X004604Y003090D01*
X004454Y003090D01*
X004529Y003240D02*
X004679Y003090D01*
X004839Y003090D02*
X005139Y003090D01*
X004989Y003090D02*
X004989Y003541D01*
X004839Y003390D01*
X007371Y000941D02*
X007371Y000490D01*
X007371Y000640D02*
X007596Y000790D01*
X007754Y000715D02*
X008055Y000715D01*
X008215Y000790D02*
X008515Y000790D01*
X008215Y000490D01*
X008515Y000490D01*
X008055Y000490D02*
X008055Y000941D01*
X007754Y000941D02*
X007754Y000490D01*
X007596Y000490D02*
X007371Y000640D01*
X006767Y028993D02*
X006767Y029293D01*
X006767Y029143D02*
X006316Y029143D01*
X006466Y028993D01*
X006391Y029453D02*
X006316Y029528D01*
X006316Y029678D01*
X006391Y029753D01*
X006692Y029453D01*
X006767Y029528D01*
X006767Y029678D01*
X006692Y029753D01*
X006391Y029753D01*
X006391Y029453D02*
X006692Y029453D01*
X006767Y030374D02*
X006767Y030599D01*
X006692Y030674D01*
X006542Y030674D01*
X006466Y030599D01*
X006466Y030374D01*
X006917Y030374D01*
X006767Y030834D02*
X006316Y030834D01*
X006316Y031134D01*
X006355Y031058D02*
X005905Y031058D01*
X006130Y030833D01*
X006130Y031134D01*
X005980Y030673D02*
X005905Y030598D01*
X005905Y030448D01*
X005980Y030373D01*
X006280Y030373D01*
X006355Y030448D01*
X006355Y030598D01*
X006280Y030673D01*
X006542Y030834D02*
X006542Y030984D01*
X005094Y033717D02*
X004793Y033717D01*
X005094Y034017D01*
X005094Y034092D01*
X005019Y034167D01*
X004868Y034167D01*
X004793Y034092D01*
X004633Y034092D02*
X004633Y033792D01*
X004558Y033717D01*
X004408Y033717D01*
X004333Y033792D01*
X004333Y034092D01*
X004408Y034167D01*
X004558Y034167D01*
X004633Y034092D01*
X004483Y033867D02*
X004633Y033717D01*
X004205Y031133D02*
X004205Y030833D01*
X004655Y030833D01*
X004580Y030673D02*
X004655Y030598D01*
X004655Y030373D01*
X004806Y030373D02*
X004355Y030373D01*
X004355Y030598D01*
X004430Y030673D01*
X004580Y030673D01*
X004430Y030833D02*
X004430Y030983D01*
X004280Y029752D02*
X004580Y029452D01*
X004655Y029527D01*
X004655Y029677D01*
X004580Y029752D01*
X004280Y029752D01*
X004205Y029677D01*
X004205Y029527D01*
X004280Y029452D01*
X004580Y029452D01*
X004655Y029292D02*
X004655Y028992D01*
X004655Y029142D02*
X004205Y029142D01*
X004355Y028992D01*
X008016Y030449D02*
X008091Y030374D01*
X008392Y030374D01*
X008467Y030449D01*
X008467Y030599D01*
X008392Y030674D01*
X008392Y030834D02*
X008467Y030909D01*
X008467Y031059D01*
X008392Y031135D01*
X008317Y031135D01*
X008242Y031059D01*
X008242Y030984D01*
X008242Y031059D02*
X008166Y031135D01*
X008091Y031135D01*
X008016Y031059D01*
X008016Y030909D01*
X008091Y030834D01*
X008091Y030674D02*
X008016Y030599D01*
X008016Y030449D01*
D17*
X007300Y004201D02*
X007276Y004201D01*
X005454Y004184D02*
X005430Y004184D01*
D18*
X005280Y030269D02*
X004980Y030269D01*
X004980Y030469D02*
X005280Y030469D01*
X005580Y030469D01*
X005580Y030269D02*
X005280Y030269D01*
X007092Y030270D02*
X007392Y030270D01*
X007692Y030270D01*
X007692Y030470D02*
X007392Y030470D01*
X007092Y030470D01*
D19*
X006845Y020084D02*
X006573Y019812D01*
X006573Y019704D01*
X006682Y019595D01*
X006790Y019595D01*
X007062Y019867D01*
X007116Y019704D02*
X007224Y019704D01*
X007333Y019595D01*
X007333Y019487D01*
X007387Y019324D02*
X007604Y019324D01*
X007279Y018999D01*
X007170Y019107D02*
X007387Y018890D01*
X007116Y019270D02*
X007170Y019324D01*
X007170Y019433D01*
X007062Y019541D01*
X007062Y019650D01*
X007116Y019704D01*
X007333Y019704D02*
X006899Y019270D01*
X006899Y019378D02*
X007007Y019270D01*
X007116Y019270D01*
X006899Y019378D02*
X006899Y019487D01*
X005314Y015189D02*
X005422Y015081D01*
X005422Y014972D01*
X004988Y014972D01*
X004988Y014864D01*
X005097Y014755D01*
X005205Y014755D01*
X005422Y014972D01*
X005314Y015189D02*
X005205Y015189D01*
X004988Y014972D01*
X004880Y015081D02*
X005097Y015298D01*
X004663Y015298D01*
X004663Y015189D01*
X004771Y015081D01*
X004880Y015081D01*
X004663Y015298D02*
X004880Y015515D01*
X004988Y015515D01*
X005097Y015406D01*
X005097Y015298D01*
X004771Y015623D02*
X004771Y015732D01*
X004663Y015840D01*
X004554Y015840D01*
X004446Y015949D02*
X004391Y015894D01*
X004283Y015894D01*
X004283Y015786D01*
X004229Y015732D01*
X004120Y015732D01*
X004012Y015840D01*
X004012Y015949D01*
X003903Y016057D02*
X003795Y016057D01*
X003686Y016166D01*
X003686Y016274D01*
X003903Y016491D01*
X004012Y016491D01*
X004120Y016383D01*
X004120Y016274D01*
X004229Y016166D02*
X004337Y016166D01*
X004446Y016057D01*
X004446Y015949D01*
X004283Y015894D02*
X004229Y015949D01*
X004283Y015569D02*
X004717Y015569D01*
X004771Y015623D01*
X004500Y015352D02*
X004283Y015569D01*
X003795Y016600D02*
X003795Y016708D01*
X003686Y016817D01*
X003578Y016817D01*
X003361Y016600D01*
X003361Y016491D01*
X003469Y016383D01*
X003578Y016383D01*
D20*
X001814Y016326D02*
X001564Y016076D01*
X001814Y015826D01*
X001814Y015326D01*
X001564Y015076D01*
X001814Y014826D01*
X001814Y014326D01*
X001564Y014076D01*
X001814Y013826D01*
X001814Y013326D01*
X001564Y013076D01*
X001814Y012826D01*
X001814Y012326D01*
X001564Y012076D01*
X001814Y011826D01*
X001814Y011326D01*
X001564Y011076D01*
X001814Y010826D01*
X001814Y010326D01*
X001564Y010076D01*
X001814Y009826D01*
X001814Y009326D01*
X001564Y009076D01*
X001814Y008826D01*
X001814Y008326D01*
X001564Y008076D01*
X001814Y007826D01*
X001814Y007326D01*
X001564Y007076D01*
X001814Y006826D01*
X001814Y006326D01*
X001564Y006076D01*
X001814Y005826D01*
X001814Y005326D01*
X001564Y005076D01*
X001814Y004826D01*
X001814Y004326D01*
X001564Y004076D01*
X001814Y003826D01*
X001814Y003326D01*
X001564Y003076D01*
X001814Y002826D01*
X001814Y002326D01*
X001564Y002076D01*
X001814Y001826D01*
X001814Y001326D01*
X001564Y001076D01*
X001562Y001076D02*
X001066Y001076D01*
X001064Y001076D02*
X000814Y001326D01*
X000814Y001826D01*
X001064Y002076D01*
X000814Y002326D01*
X000814Y002826D01*
X001064Y003076D01*
X000814Y003326D01*
X000814Y003826D01*
X001064Y004076D01*
X000814Y004326D01*
X000814Y004826D01*
X001064Y005076D01*
X000814Y005326D01*
X000814Y005826D01*
X001064Y006076D01*
X000814Y006326D01*
X000814Y006826D01*
X001064Y007076D01*
X000814Y007326D01*
X000814Y007826D01*
X001064Y008076D01*
X000814Y008326D01*
X000814Y008826D01*
X001064Y009076D01*
X000814Y009326D01*
X000814Y009826D01*
X001064Y010076D01*
X000814Y010326D01*
X000814Y010826D01*
X001064Y011076D01*
X000814Y011326D01*
X000814Y011826D01*
X001064Y012076D01*
X000814Y012326D01*
X000814Y012826D01*
X001064Y013076D01*
X000814Y013326D01*
X000814Y013826D01*
X001064Y014076D01*
X000814Y014326D01*
X000814Y014826D01*
X001064Y015076D01*
X000814Y015326D01*
X000814Y015826D01*
X001064Y016076D01*
X000814Y016326D01*
X000814Y016826D01*
X001064Y017076D01*
X000814Y017326D01*
X000814Y017826D01*
X001064Y018076D01*
X000814Y018326D01*
X000814Y018826D01*
X001064Y019076D01*
X000814Y019326D01*
X000814Y019826D01*
X001064Y020076D01*
X000814Y020326D01*
X000814Y020826D01*
X001064Y021076D01*
X000814Y021326D01*
X000814Y021826D01*
X001064Y022076D01*
X000814Y022326D01*
X000814Y022826D01*
X001064Y023076D01*
X000814Y023326D01*
X000814Y023826D01*
X001064Y024076D01*
X000814Y024326D01*
X000814Y024826D01*
X001064Y025076D01*
X000814Y025326D01*
X000814Y025826D01*
X001064Y026076D01*
X000814Y026326D01*
X000814Y026826D01*
X001064Y027076D01*
X000814Y027326D01*
X000814Y027826D01*
X001064Y028076D01*
X000814Y028326D01*
X000814Y028826D01*
X001064Y029076D01*
X000814Y029326D01*
X000814Y029826D01*
X001064Y030076D01*
X000814Y030326D01*
X000814Y030826D01*
X001064Y031076D01*
X000814Y031326D01*
X000814Y031826D01*
X001064Y032076D01*
X000814Y032326D01*
X000814Y032826D01*
X001064Y033076D01*
X001564Y033076D01*
X001814Y032826D01*
X001814Y032326D01*
X001564Y032076D01*
X001814Y031826D01*
X001814Y031326D01*
X001564Y031076D01*
X001814Y030826D01*
X001814Y030326D01*
X001564Y030076D01*
X001814Y029826D01*
X001814Y029326D01*
X001564Y029076D01*
X001814Y028826D01*
X001814Y028326D01*
X001564Y028076D01*
X001814Y027826D01*
X001814Y027326D01*
X001564Y027076D01*
X001814Y026826D01*
X001814Y026326D01*
X001564Y026076D01*
X001814Y025826D01*
X001814Y025326D01*
X001564Y025076D01*
X001814Y024826D01*
X001814Y024326D01*
X001564Y024076D01*
X001814Y023826D01*
X001814Y023326D01*
X001564Y023076D01*
X001814Y022826D01*
X001814Y022326D01*
X001564Y022076D01*
X001814Y021826D01*
X001814Y021326D01*
X001564Y021076D01*
X001814Y020826D01*
X001814Y020326D01*
X001564Y020076D01*
X001814Y019826D01*
X001814Y019326D01*
X001564Y019076D01*
X001814Y018826D01*
X001814Y018326D01*
X001564Y018076D01*
X001814Y017826D01*
X001814Y017326D01*
X001564Y017076D01*
X001814Y016826D01*
X001814Y016326D01*
X010814Y016326D02*
X011064Y016076D01*
X010814Y015826D01*
X010814Y015326D01*
X011064Y015076D01*
X010814Y014826D01*
X010814Y014326D01*
X011064Y014076D01*
X010814Y013826D01*
X010814Y013326D01*
X011064Y013076D01*
X010814Y012826D01*
X010814Y012326D01*
X011064Y012076D01*
X010814Y011826D01*
X010814Y011326D01*
X011064Y011076D01*
X010814Y010826D01*
X010814Y010326D01*
X011064Y010076D01*
X010814Y009826D01*
X010814Y009326D01*
X011064Y009076D01*
X010814Y008826D01*
X010814Y008326D01*
X011064Y008076D01*
X010814Y007826D01*
X010814Y007326D01*
X011064Y007076D01*
X010814Y006826D01*
X010814Y006326D01*
X011064Y006076D01*
X010814Y005826D01*
X010814Y005326D01*
X011064Y005076D01*
X010814Y004826D01*
X010814Y004326D01*
X011064Y004076D01*
X010814Y003826D01*
X010814Y003326D01*
X011064Y003076D01*
X010814Y002826D01*
X010814Y002326D01*
X011064Y002076D01*
X010814Y001826D01*
X010814Y001326D01*
X011064Y001076D01*
X011564Y001076D01*
X011814Y001326D01*
X011814Y001826D01*
X011564Y002076D01*
X011814Y002326D01*
X011814Y002826D01*
X011564Y003076D01*
X011814Y003326D01*
X011814Y003826D01*
X011564Y004076D01*
X011814Y004326D01*
X011814Y004826D01*
X011564Y005076D01*
X011814Y005326D01*
X011814Y005826D01*
X011564Y006076D01*
X011814Y006326D01*
X011814Y006826D01*
X011564Y007076D01*
X011814Y007326D01*
X011814Y007826D01*
X011564Y008076D01*
X011814Y008326D01*
X011814Y008826D01*
X011564Y009076D01*
X011814Y009326D01*
X011814Y009826D01*
X011564Y010076D01*
X011814Y010326D01*
X011814Y010826D01*
X011564Y011076D01*
X011814Y011326D01*
X011814Y011826D01*
X011564Y012076D01*
X011814Y012326D01*
X011814Y012826D01*
X011564Y013076D01*
X011814Y013326D01*
X011814Y013826D01*
X011564Y014076D01*
X011814Y014326D01*
X011814Y014826D01*
X011564Y015076D01*
X011814Y015326D01*
X011814Y015826D01*
X011564Y016076D01*
X011814Y016326D01*
X011814Y016826D01*
X011564Y017076D01*
X011814Y017326D01*
X011814Y017826D01*
X011564Y018076D01*
X011814Y018326D01*
X011814Y018826D01*
X011564Y019076D01*
X011814Y019326D01*
X011814Y019826D01*
X011564Y020076D01*
X011814Y020326D01*
X011814Y020826D01*
X011564Y021076D01*
X011814Y021326D01*
X011814Y021826D01*
X011564Y022076D01*
X011814Y022326D01*
X011814Y022826D01*
X011564Y023076D01*
X011814Y023326D01*
X011814Y023826D01*
X011564Y024076D01*
X011814Y024326D01*
X011814Y024826D01*
X011564Y025076D01*
X011814Y025326D01*
X011814Y025826D01*
X011564Y026076D01*
X011814Y026326D01*
X011814Y026826D01*
X011564Y027076D01*
X011814Y027326D01*
X011814Y027826D01*
X011564Y028076D01*
X011814Y028326D01*
X011814Y028826D01*
X011564Y029076D01*
X011814Y029326D01*
X011814Y029826D01*
X011564Y030076D01*
X011814Y030326D01*
X011814Y030826D01*
X011564Y031076D01*
X011814Y031326D01*
X011814Y031826D01*
X011564Y032076D01*
X011814Y032326D01*
X011814Y032826D01*
X011564Y033076D01*
X011562Y033076D02*
X011066Y033076D01*
X011064Y033076D02*
X010814Y032826D01*
X010814Y032326D01*
X011064Y032076D01*
X010814Y031826D01*
X010814Y031326D01*
X011064Y031076D01*
X010814Y030826D01*
X010814Y030326D01*
X011064Y030076D01*
X010814Y029826D01*
X010814Y029326D01*
X011064Y029076D01*
X010814Y028826D01*
X010814Y028326D01*
X011064Y028076D01*
X010814Y027826D01*
X010814Y027326D01*
X011064Y027076D01*
X010814Y026826D01*
X010814Y026326D01*
X011064Y026076D01*
X010814Y025826D01*
X010814Y025326D01*
X011064Y025076D01*
X010814Y024826D01*
X010814Y024326D01*
X011064Y024076D01*
X010814Y023826D01*
X010814Y023326D01*
X011064Y023076D01*
X010814Y022826D01*
X010814Y022326D01*
X011064Y022076D01*
X010814Y021826D01*
X010814Y021326D01*
X011064Y021076D01*
X010814Y020826D01*
X010814Y020326D01*
X011064Y020076D01*
X010814Y019826D01*
X010814Y019326D01*
X011064Y019076D01*
X010814Y018826D01*
X010814Y018326D01*
X011064Y018076D01*
X010814Y017826D01*
X010814Y017326D01*
X011064Y017076D01*
X010814Y016826D01*
X010814Y016326D01*
M02*
