G75*
G70*
%OFA0B0*%
%FSLAX24Y24*%
%IPPOS*%
%LPD*%
%AMOC8*
5,1,8,0,0,1.08239X$1,22.5*
%
%ADD10C,0.0020*%
%ADD11C,0.0120*%
D10*
X000832Y000913D02*
X000869Y000876D01*
X000906Y000913D02*
X000942Y000876D01*
X000906Y000913D02*
X000906Y000987D01*
X000832Y000987D02*
X000832Y000913D01*
X001016Y000840D02*
X001016Y000803D01*
X001163Y000803D01*
X001163Y000766D02*
X001163Y000840D01*
X001127Y000876D01*
X001053Y000876D01*
X001016Y000840D01*
X001053Y000730D02*
X001127Y000730D01*
X001163Y000766D01*
X001237Y000730D02*
X001311Y000730D01*
X001274Y000730D02*
X001274Y000876D01*
X001311Y000876D01*
X001385Y000840D02*
X001385Y000766D01*
X001421Y000730D01*
X001532Y000730D01*
X001532Y000656D02*
X001532Y000876D01*
X001421Y000876D01*
X001385Y000840D01*
X001274Y000950D02*
X001274Y000987D01*
X001827Y000876D02*
X001937Y000876D01*
X001974Y000840D01*
X001937Y000803D01*
X001863Y000803D01*
X001827Y000766D01*
X001863Y000730D01*
X001974Y000730D01*
X002048Y000803D02*
X002194Y000803D01*
X002194Y000766D02*
X002194Y000840D01*
X002158Y000876D01*
X002084Y000876D01*
X002048Y000840D01*
X002048Y000803D01*
X002084Y000730D02*
X002158Y000730D01*
X002194Y000766D01*
X002269Y000730D02*
X002379Y000803D01*
X002269Y000876D01*
X002379Y000950D02*
X002379Y000730D01*
X002453Y000730D02*
X002526Y000730D01*
X002489Y000730D02*
X002489Y000876D01*
X002526Y000876D01*
X002489Y000950D02*
X002489Y000987D01*
X002637Y000950D02*
X002637Y000730D01*
X002673Y000730D02*
X002600Y000730D01*
X002637Y000950D02*
X002673Y000950D01*
X002968Y000840D02*
X002968Y000803D01*
X003115Y000803D01*
X003115Y000766D02*
X003115Y000840D01*
X003079Y000876D01*
X003005Y000876D01*
X002968Y000840D01*
X003005Y000730D02*
X003079Y000730D01*
X003115Y000766D01*
X003189Y000730D02*
X003263Y000730D01*
X003226Y000730D02*
X003226Y000876D01*
X003263Y000876D01*
X003337Y000876D02*
X003447Y000803D01*
X003337Y000730D01*
X003447Y000730D02*
X003447Y000950D01*
X003521Y000876D02*
X003631Y000876D01*
X003668Y000840D01*
X003668Y000766D01*
X003631Y000730D01*
X003521Y000730D01*
X003742Y000730D02*
X003852Y000730D01*
X003889Y000766D01*
X003852Y000803D01*
X003742Y000803D01*
X003742Y000840D02*
X003742Y000730D01*
X003742Y000840D02*
X003779Y000876D01*
X003852Y000876D01*
X003963Y000950D02*
X004036Y000950D01*
X004000Y000950D02*
X004000Y000766D01*
X004036Y000730D01*
X004073Y000730D01*
X004110Y000766D01*
X004220Y000876D02*
X004184Y000913D01*
X004184Y000987D01*
X004257Y000987D02*
X004257Y000913D01*
X004294Y000876D01*
X003226Y000950D02*
X003226Y000987D01*
X011245Y000758D02*
X011281Y000795D01*
X011355Y000795D01*
X011391Y000758D01*
X011391Y000611D01*
X011355Y000575D01*
X011281Y000575D01*
X011245Y000611D01*
X011245Y000685D01*
X011318Y000685D01*
X011466Y000575D02*
X011466Y000795D01*
X011612Y000795D02*
X011466Y000575D01*
X011612Y000575D02*
X011612Y000795D01*
X007328Y027423D02*
X007255Y027423D01*
X007218Y027459D01*
X007218Y027496D01*
X007255Y027533D01*
X007328Y027533D01*
X007365Y027569D01*
X007365Y027606D01*
X007328Y027643D01*
X007255Y027643D01*
X007218Y027606D01*
X007144Y027643D02*
X007144Y027459D01*
X007107Y027423D01*
X007034Y027423D01*
X006997Y027459D01*
X006997Y027643D01*
X006923Y027643D02*
X006849Y027569D01*
X006776Y027643D01*
X006776Y027423D01*
X006702Y027423D02*
X006702Y027643D01*
X006628Y027569D01*
X006555Y027643D01*
X006555Y027423D01*
X006481Y027423D02*
X006481Y027643D01*
X006334Y027643D01*
X006260Y027643D02*
X006260Y027423D01*
X006260Y027496D02*
X006150Y027496D01*
X006113Y027533D01*
X006113Y027606D01*
X006150Y027643D01*
X006260Y027643D01*
X006186Y027496D02*
X006113Y027423D01*
X006334Y027423D02*
X006481Y027423D01*
X006481Y027533D02*
X006407Y027533D01*
X006428Y028019D02*
X006391Y028055D01*
X006428Y028019D02*
X006501Y028019D01*
X006538Y028055D01*
X006538Y028202D01*
X006501Y028239D01*
X006428Y028239D01*
X006391Y028202D01*
X006317Y028239D02*
X006317Y028019D01*
X006317Y028092D02*
X006170Y028239D01*
X006096Y028239D02*
X006096Y028019D01*
X005949Y028019D01*
X006022Y028129D02*
X006096Y028129D01*
X006096Y028239D02*
X005949Y028239D01*
X005875Y028239D02*
X005728Y028239D01*
X005801Y028239D02*
X005801Y028019D01*
X005781Y027643D02*
X005818Y027606D01*
X005781Y027643D02*
X005708Y027643D01*
X005671Y027606D01*
X005671Y027569D01*
X005818Y027423D01*
X005671Y027423D01*
X005597Y027459D02*
X005450Y027606D01*
X005450Y027459D01*
X005487Y027423D01*
X005560Y027423D01*
X005597Y027459D01*
X005597Y027606D01*
X005560Y027643D01*
X005487Y027643D01*
X005450Y027606D01*
X005376Y027569D02*
X005302Y027643D01*
X005302Y027423D01*
X005229Y027423D02*
X005376Y027423D01*
X005155Y027459D02*
X005118Y027423D01*
X005045Y027423D01*
X005008Y027459D01*
X005008Y027533D01*
X005045Y027569D01*
X005081Y027569D01*
X005155Y027533D01*
X005155Y027643D01*
X005008Y027643D01*
X004991Y028019D02*
X004991Y028165D01*
X004917Y028239D01*
X004844Y028165D01*
X004844Y028019D01*
X004770Y028019D02*
X004770Y028239D01*
X004660Y028239D01*
X004623Y028202D01*
X004623Y028129D01*
X004660Y028092D01*
X004770Y028092D01*
X004696Y028092D02*
X004623Y028019D01*
X004549Y028019D02*
X004439Y028019D01*
X004402Y028055D01*
X004402Y028202D01*
X004439Y028239D01*
X004549Y028239D01*
X004549Y028019D01*
X004583Y028639D02*
X004657Y028639D01*
X004620Y028639D02*
X004620Y028859D01*
X004657Y028859D02*
X004583Y028859D01*
X004510Y028859D02*
X004510Y028639D01*
X004510Y028713D02*
X004399Y028713D01*
X004363Y028749D01*
X004363Y028823D01*
X004399Y028859D01*
X004510Y028859D01*
X004436Y028713D02*
X004363Y028639D01*
X004289Y028639D02*
X004289Y028859D01*
X004142Y028859D01*
X004068Y028859D02*
X004068Y028639D01*
X003921Y028639D01*
X003847Y028639D02*
X003700Y028639D01*
X003626Y028676D02*
X003589Y028639D01*
X003516Y028639D01*
X003479Y028676D01*
X003479Y028713D01*
X003516Y028749D01*
X003589Y028749D01*
X003626Y028786D01*
X003626Y028823D01*
X003589Y028859D01*
X003516Y028859D01*
X003479Y028823D01*
X003405Y028823D02*
X003405Y028786D01*
X003368Y028749D01*
X003295Y028749D01*
X003258Y028713D01*
X003258Y028676D01*
X003295Y028639D01*
X003368Y028639D01*
X003405Y028676D01*
X003405Y028823D02*
X003368Y028859D01*
X003295Y028859D01*
X003258Y028823D01*
X002963Y028859D02*
X002963Y028639D01*
X002816Y028639D02*
X002816Y028859D01*
X002889Y028786D01*
X002963Y028859D01*
X002742Y028823D02*
X002742Y028676D01*
X002705Y028639D01*
X002632Y028639D01*
X002595Y028676D01*
X002521Y028676D02*
X002484Y028639D01*
X002411Y028639D01*
X002374Y028676D01*
X002374Y028859D01*
X002521Y028859D02*
X002521Y028676D01*
X002595Y028823D02*
X002632Y028859D01*
X002705Y028859D01*
X002742Y028823D01*
X003700Y028859D02*
X003847Y028859D01*
X003847Y028639D01*
X003847Y028749D02*
X003773Y028749D01*
X004142Y028639D02*
X004289Y028639D01*
X004289Y028749D02*
X004215Y028749D01*
X004731Y028639D02*
X004731Y028859D01*
X004878Y028859D02*
X004878Y028639D01*
X004804Y028713D01*
X004731Y028639D01*
X004844Y028129D02*
X004991Y028129D01*
X005065Y028202D02*
X005102Y028239D01*
X005175Y028239D01*
X005212Y028202D01*
X005212Y028055D01*
X005175Y028019D01*
X005102Y028019D01*
X005065Y028055D01*
X005065Y028202D01*
X005286Y028202D02*
X005286Y028165D01*
X005323Y028129D01*
X005433Y028129D01*
X005433Y028239D02*
X005323Y028239D01*
X005286Y028202D01*
X005323Y028129D02*
X005286Y028092D01*
X005286Y028055D01*
X005323Y028019D01*
X005433Y028019D01*
X005433Y028239D01*
X005430Y028639D02*
X005430Y028859D01*
X005394Y028859D02*
X005467Y028859D01*
X005541Y028859D02*
X005541Y028639D01*
X005467Y028639D02*
X005394Y028639D01*
X005320Y028639D02*
X005320Y028859D01*
X005210Y028859D01*
X005173Y028823D01*
X005173Y028749D01*
X005210Y028713D01*
X005320Y028713D01*
X005541Y028749D02*
X005688Y028749D01*
X005762Y028676D02*
X005799Y028639D01*
X005872Y028639D01*
X005909Y028676D01*
X005909Y028823D01*
X005872Y028859D01*
X005799Y028859D01*
X005762Y028823D01*
X005688Y028859D02*
X005688Y028639D01*
X006280Y028129D02*
X006170Y028019D01*
X006204Y028639D02*
X006351Y028639D01*
X006351Y028859D01*
X006204Y028859D01*
X006278Y028749D02*
X006351Y028749D01*
X006425Y028639D02*
X006572Y028639D01*
X006572Y028859D01*
X006646Y028823D02*
X006683Y028859D01*
X006756Y028859D01*
X006793Y028823D01*
X006793Y028676D01*
X006756Y028639D01*
X006683Y028639D01*
X006646Y028676D01*
X006646Y028749D01*
X006720Y028749D01*
X006867Y028639D02*
X006867Y028859D01*
X007014Y028859D02*
X006867Y028639D01*
X007014Y028639D02*
X007014Y028859D01*
X007088Y028859D02*
X007161Y028859D01*
X007125Y028859D02*
X007125Y028639D01*
X007161Y028639D02*
X007088Y028639D01*
X007236Y028676D02*
X007272Y028639D01*
X007346Y028639D01*
X007382Y028676D01*
X007346Y028749D02*
X007272Y028749D01*
X007236Y028713D01*
X007236Y028676D01*
X007346Y028749D02*
X007382Y028786D01*
X007382Y028823D01*
X007346Y028859D01*
X007272Y028859D01*
X007236Y028823D01*
X007312Y028239D02*
X007275Y028202D01*
X007275Y028129D01*
X007312Y028092D01*
X007422Y028092D01*
X007422Y028019D02*
X007422Y028239D01*
X007312Y028239D01*
X007496Y028239D02*
X007569Y028239D01*
X007532Y028239D02*
X007532Y028019D01*
X007496Y028019D02*
X007569Y028019D01*
X007643Y028055D02*
X007643Y028202D01*
X007680Y028239D01*
X007790Y028239D01*
X007790Y028019D01*
X007680Y028019D01*
X007643Y028055D01*
X007714Y028639D02*
X007788Y028639D01*
X007824Y028676D01*
X007678Y028823D01*
X007678Y028676D01*
X007714Y028639D01*
X007824Y028676D02*
X007824Y028823D01*
X007788Y028859D01*
X007714Y028859D01*
X007678Y028823D01*
X007899Y028823D02*
X008045Y028676D01*
X008009Y028639D01*
X007935Y028639D01*
X007899Y028676D01*
X007899Y028823D01*
X007935Y028859D01*
X008009Y028859D01*
X008045Y028823D01*
X008045Y028676D01*
X008119Y028639D02*
X008266Y028639D01*
X008119Y028786D01*
X008119Y028823D01*
X008156Y028859D01*
X008230Y028859D01*
X008266Y028823D01*
X008340Y028823D02*
X008340Y028786D01*
X008377Y028749D01*
X008340Y028713D01*
X008340Y028676D01*
X008377Y028639D01*
X008451Y028639D01*
X008487Y028676D01*
X008561Y028676D02*
X008598Y028639D01*
X008672Y028639D01*
X008708Y028676D01*
X008708Y028823D01*
X008672Y028859D01*
X008598Y028859D01*
X008561Y028823D01*
X008487Y028823D02*
X008451Y028859D01*
X008377Y028859D01*
X008340Y028823D01*
X008377Y028749D02*
X008414Y028749D01*
X008782Y028676D02*
X008819Y028639D01*
X008893Y028639D01*
X008929Y028676D01*
X008929Y028823D01*
X008893Y028859D01*
X008819Y028859D01*
X008782Y028823D01*
X009224Y028859D02*
X009298Y028859D01*
X009261Y028859D02*
X009261Y028639D01*
X009298Y028639D02*
X009224Y028639D01*
X009372Y028859D02*
X009519Y028859D01*
X009445Y028859D02*
X009445Y028639D01*
X007365Y027459D02*
X007328Y027423D01*
X006943Y028019D02*
X006980Y028055D01*
X006943Y028019D02*
X006870Y028019D01*
X006833Y028055D01*
X006833Y028092D01*
X006870Y028129D01*
X006943Y028129D01*
X006980Y028165D01*
X006980Y028202D01*
X006943Y028239D01*
X006870Y028239D01*
X006833Y028202D01*
X006759Y028202D02*
X006759Y028055D01*
X006722Y028019D01*
X006649Y028019D01*
X006612Y028055D01*
X006612Y028202D01*
X006649Y028239D01*
X006722Y028239D01*
X006759Y028202D01*
X006923Y027643D02*
X006923Y027423D01*
D11*
X012157Y000170D02*
X000503Y000170D01*
X000503Y034344D01*
X012157Y034344D01*
X012157Y000170D01*
M02*
