G75*
G70*
%OFA0B0*%
%FSLAX24Y24*%
%IPPOS*%
%LPD*%
%AMOC8*
5,1,8,0,0,1.08239X$1,22.5*
%
%ADD10C,0.0120*%
%ADD11C,0.0520*%
%ADD12OC8,0.0520*%
%ADD13R,0.0740X0.0740*%
%ADD14C,0.0740*%
%ADD15C,0.0197*%
%ADD16C,0.0413*%
%ADD17C,0.0317*%
%ADD18C,0.0356*%
%ADD19C,0.0472*%
%ADD20C,0.0098*%
D10*
X000503Y000170D02*
X012157Y000170D01*
X012157Y034344D01*
X000503Y034344D01*
X000503Y000170D01*
X000743Y000410D02*
X011917Y000410D01*
X011917Y033950D01*
X000743Y033950D01*
X000743Y000410D01*
X000743Y000487D02*
X011917Y000487D01*
X011917Y000605D02*
X000743Y000605D01*
X000743Y000724D02*
X011917Y000724D01*
X011917Y000842D02*
X000743Y000842D01*
X000743Y000961D02*
X011917Y000961D01*
X011917Y001079D02*
X011552Y001079D01*
X011626Y001110D02*
X011423Y001026D01*
X011205Y001026D01*
X011002Y001110D01*
X010848Y001264D01*
X010764Y001466D01*
X010764Y001685D01*
X010848Y001887D01*
X011002Y002042D01*
X011084Y002076D01*
X011002Y002110D01*
X010848Y002264D01*
X010764Y002466D01*
X010764Y002685D01*
X010848Y002887D01*
X011002Y003042D01*
X011084Y003076D01*
X011002Y003110D01*
X010848Y003264D01*
X010764Y003466D01*
X010764Y003685D01*
X010848Y003887D01*
X011002Y004042D01*
X011084Y004076D01*
X011002Y004110D01*
X010848Y004264D01*
X010764Y004466D01*
X010764Y004685D01*
X010848Y004887D01*
X011002Y005042D01*
X011084Y005076D01*
X011002Y005110D01*
X007553Y005110D01*
X007553Y005228D02*
X010884Y005228D01*
X010848Y005264D02*
X011002Y005110D01*
X010952Y004991D02*
X007553Y004991D01*
X007553Y004873D02*
X010842Y004873D01*
X010793Y004754D02*
X007553Y004754D01*
X007553Y004636D02*
X010764Y004636D01*
X010764Y004517D02*
X007553Y004517D01*
X007553Y004399D02*
X010792Y004399D01*
X010841Y004280D02*
X007553Y004280D01*
X007553Y004161D02*
X010951Y004161D01*
X011004Y004043D02*
X007553Y004043D01*
X007553Y003924D02*
X010885Y003924D01*
X010814Y003806D02*
X007553Y003806D01*
X007553Y003687D02*
X010765Y003687D01*
X010764Y003569D02*
X007553Y003569D01*
X007553Y003510D02*
X007553Y008927D01*
X007511Y009029D01*
X007432Y009107D01*
X004728Y011812D01*
X004625Y011854D01*
X004514Y011854D01*
X001794Y011854D01*
X001780Y011887D01*
X001626Y012042D01*
X001544Y012076D01*
X001626Y012110D01*
X001780Y012264D01*
X001864Y012466D01*
X001864Y012685D01*
X001780Y012887D01*
X001626Y013042D01*
X001544Y013076D01*
X001626Y013110D01*
X001780Y013264D01*
X001864Y013466D01*
X001864Y013685D01*
X001780Y013887D01*
X001626Y014042D01*
X001544Y014076D01*
X001626Y014110D01*
X001780Y014264D01*
X001864Y014466D01*
X001864Y014685D01*
X001780Y014887D01*
X001626Y015042D01*
X001544Y015076D01*
X001626Y015110D01*
X001780Y015264D01*
X001864Y015466D01*
X001864Y015685D01*
X001780Y015887D01*
X001626Y016042D01*
X001544Y016076D01*
X001626Y016110D01*
X001780Y016264D01*
X001864Y016466D01*
X001864Y016685D01*
X001780Y016887D01*
X001626Y017042D01*
X001544Y017076D01*
X001626Y017110D01*
X001780Y017264D01*
X001864Y017466D01*
X001864Y017685D01*
X001780Y017887D01*
X001626Y018042D01*
X001544Y018076D01*
X001626Y018110D01*
X001780Y018264D01*
X001864Y018466D01*
X001864Y018685D01*
X001780Y018887D01*
X001626Y019042D01*
X001544Y019076D01*
X001626Y019110D01*
X001780Y019264D01*
X001864Y019466D01*
X001864Y019685D01*
X001780Y019887D01*
X001626Y020042D01*
X001544Y020076D01*
X001626Y020110D01*
X001780Y020264D01*
X001864Y020466D01*
X001864Y020685D01*
X001780Y020887D01*
X001626Y021042D01*
X001544Y021076D01*
X001626Y021110D01*
X001780Y021264D01*
X001864Y021466D01*
X001864Y021685D01*
X001780Y021887D01*
X001626Y022042D01*
X001544Y022076D01*
X001626Y022110D01*
X001780Y022264D01*
X001864Y022466D01*
X001864Y022685D01*
X001780Y022887D01*
X001626Y023042D01*
X001544Y023076D01*
X001626Y023110D01*
X001780Y023264D01*
X001864Y023466D01*
X001864Y023685D01*
X001780Y023887D01*
X001626Y024042D01*
X001544Y024076D01*
X001626Y024110D01*
X001780Y024264D01*
X001864Y024466D01*
X001864Y024685D01*
X001780Y024887D01*
X001626Y025042D01*
X001544Y025076D01*
X001626Y025110D01*
X001780Y025264D01*
X001864Y025466D01*
X001864Y025685D01*
X001780Y025887D01*
X001626Y026042D01*
X001544Y026076D01*
X001626Y026110D01*
X001780Y026264D01*
X001864Y026466D01*
X001864Y026685D01*
X002389Y026685D01*
X002389Y026803D02*
X001815Y026803D01*
X001780Y026887D02*
X001626Y027042D01*
X001544Y027076D01*
X001626Y027110D01*
X001780Y027264D01*
X001864Y027466D01*
X001864Y027685D01*
X001780Y027887D01*
X001626Y028042D01*
X001544Y028076D01*
X001626Y028110D01*
X001780Y028264D01*
X001864Y028466D01*
X001864Y028685D01*
X001780Y028887D01*
X001626Y029042D01*
X001544Y029076D01*
X001626Y029110D01*
X001780Y029264D01*
X001864Y029466D01*
X001864Y029685D01*
X001780Y029887D01*
X001626Y030042D01*
X001544Y030076D01*
X001626Y030110D01*
X001780Y030264D01*
X001864Y030466D01*
X001864Y030685D01*
X001780Y030887D01*
X001626Y031042D01*
X001544Y031076D01*
X001626Y031110D01*
X001780Y031264D01*
X001864Y031466D01*
X001864Y031685D01*
X001780Y031887D01*
X001642Y032026D01*
X001759Y032026D01*
X001864Y032131D01*
X001864Y033020D01*
X001759Y033126D01*
X000869Y033126D01*
X000764Y033020D01*
X000764Y032131D01*
X000869Y032026D01*
X000986Y032026D01*
X000848Y031887D01*
X000764Y031685D01*
X000764Y031466D01*
X000848Y031264D01*
X001002Y031110D01*
X001084Y031076D01*
X001002Y031042D01*
X000848Y030887D01*
X000764Y030685D01*
X000764Y030466D01*
X000848Y030264D01*
X001002Y030110D01*
X001084Y030076D01*
X001002Y030042D01*
X000848Y029887D01*
X000764Y029685D01*
X000764Y029466D01*
X000848Y029264D01*
X001002Y029110D01*
X001084Y029076D01*
X001002Y029042D01*
X000848Y028887D01*
X000764Y028685D01*
X000764Y028466D01*
X000848Y028264D01*
X001002Y028110D01*
X001084Y028076D01*
X001002Y028042D01*
X000848Y027887D01*
X000764Y027685D01*
X000764Y027466D01*
X000848Y027264D01*
X001002Y027110D01*
X001084Y027076D01*
X001002Y027042D01*
X000848Y026887D01*
X000764Y026685D01*
X000743Y026685D01*
X000764Y026685D02*
X000764Y026466D01*
X000848Y026264D01*
X001002Y026110D01*
X001084Y026076D01*
X001002Y026042D01*
X000848Y025887D01*
X000764Y025685D01*
X000764Y025466D01*
X000848Y025264D01*
X001002Y025110D01*
X001084Y025076D01*
X001002Y025042D01*
X000848Y024887D01*
X000764Y024685D01*
X000764Y024466D01*
X000848Y024264D01*
X001002Y024110D01*
X001084Y024076D01*
X001002Y024042D01*
X000848Y023887D01*
X000764Y023685D01*
X000764Y023466D01*
X000848Y023264D01*
X001002Y023110D01*
X001084Y023076D01*
X001002Y023042D01*
X000848Y022887D01*
X000764Y022685D01*
X000764Y022466D01*
X000848Y022264D01*
X001002Y022110D01*
X001084Y022076D01*
X001002Y022042D01*
X000848Y021887D01*
X000764Y021685D01*
X000764Y021466D01*
X000848Y021264D01*
X001002Y021110D01*
X001084Y021076D01*
X001002Y021042D01*
X000848Y020887D01*
X000764Y020685D01*
X000764Y020466D01*
X000848Y020264D01*
X001002Y020110D01*
X001084Y020076D01*
X001002Y020042D01*
X000848Y019887D01*
X000764Y019685D01*
X000764Y019466D01*
X000848Y019264D01*
X001002Y019110D01*
X001084Y019076D01*
X001002Y019042D01*
X000848Y018887D01*
X000764Y018685D01*
X000764Y018466D01*
X000848Y018264D01*
X001002Y018110D01*
X001084Y018076D01*
X001002Y018042D01*
X000848Y017887D01*
X000764Y017685D01*
X000764Y017466D01*
X000848Y017264D01*
X001002Y017110D01*
X001084Y017076D01*
X001002Y017042D01*
X000848Y016887D01*
X000764Y016685D01*
X000764Y016466D01*
X000848Y016264D01*
X001002Y016110D01*
X001084Y016076D01*
X001002Y016042D01*
X000848Y015887D01*
X000764Y015685D01*
X000764Y015466D01*
X000848Y015264D01*
X001002Y015110D01*
X001084Y015076D01*
X001002Y015042D01*
X000848Y014887D01*
X000764Y014685D01*
X000764Y014466D01*
X000848Y014264D01*
X001002Y014110D01*
X001084Y014076D01*
X001002Y014042D01*
X000848Y013887D01*
X000764Y013685D01*
X000764Y013466D01*
X000848Y013264D01*
X001002Y013110D01*
X001084Y013076D01*
X001002Y013042D01*
X000848Y012887D01*
X000764Y012685D01*
X000764Y012466D01*
X000848Y012264D01*
X001002Y012110D01*
X001084Y012076D01*
X001002Y012042D01*
X000848Y011887D01*
X000764Y011685D01*
X000764Y011466D01*
X000848Y011264D01*
X001002Y011110D01*
X001084Y011076D01*
X001002Y011042D01*
X000848Y010887D01*
X000764Y010685D01*
X000764Y010466D01*
X000848Y010264D01*
X001002Y010110D01*
X001084Y010076D01*
X001002Y010042D01*
X000848Y009887D01*
X000764Y009685D01*
X000764Y009466D01*
X000848Y009264D01*
X001002Y009110D01*
X001084Y009076D01*
X001002Y009042D01*
X000848Y008887D01*
X000764Y008685D01*
X000764Y008466D01*
X000848Y008264D01*
X001002Y008110D01*
X001108Y008066D01*
X001036Y008029D01*
X000969Y007980D01*
X000910Y007921D01*
X000861Y007854D01*
X000823Y007779D01*
X000797Y007700D01*
X000784Y007618D01*
X000784Y007616D01*
X001274Y007616D01*
X001274Y007536D01*
X000784Y007536D01*
X000784Y007534D01*
X000797Y007452D01*
X000823Y007372D01*
X000861Y007298D01*
X000910Y007231D01*
X000969Y007172D01*
X001036Y007123D01*
X001108Y007086D01*
X001002Y007042D01*
X000848Y006887D01*
X000764Y006685D01*
X000764Y006466D01*
X000848Y006264D01*
X001002Y006110D01*
X001084Y006076D01*
X001002Y006042D01*
X000848Y005887D01*
X000764Y005685D01*
X000764Y005466D01*
X000848Y005264D01*
X001002Y005110D01*
X000743Y005110D01*
X000743Y005228D02*
X000884Y005228D01*
X000814Y005347D02*
X000743Y005347D01*
X000743Y005465D02*
X000764Y005465D01*
X000764Y005584D02*
X000743Y005584D01*
X000743Y005703D02*
X000771Y005703D01*
X000743Y005821D02*
X000820Y005821D01*
X000743Y005940D02*
X000900Y005940D01*
X001041Y006058D02*
X000743Y006058D01*
X000743Y006177D02*
X000935Y006177D01*
X000835Y006295D02*
X000743Y006295D01*
X000743Y006414D02*
X000786Y006414D01*
X000764Y006532D02*
X000743Y006532D01*
X000743Y006651D02*
X000764Y006651D01*
X000743Y006769D02*
X000799Y006769D01*
X000848Y006888D02*
X000743Y006888D01*
X000743Y007007D02*
X000967Y007007D01*
X001033Y007125D02*
X000743Y007125D01*
X000743Y007244D02*
X000900Y007244D01*
X000828Y007362D02*
X000743Y007362D01*
X000743Y007481D02*
X000792Y007481D01*
X000743Y007599D02*
X001274Y007599D01*
X001354Y007599D02*
X005185Y007599D01*
X005185Y007481D02*
X001836Y007481D01*
X001831Y007452D02*
X001844Y007534D01*
X001844Y007536D01*
X001354Y007536D01*
X001354Y007616D01*
X001844Y007616D01*
X001844Y007618D01*
X001831Y007700D01*
X001805Y007779D01*
X001767Y007854D01*
X001718Y007921D01*
X001659Y007980D01*
X001592Y008029D01*
X001520Y008066D01*
X001626Y008110D01*
X001780Y008264D01*
X001864Y008466D01*
X001864Y008685D01*
X001780Y008887D01*
X001626Y009042D01*
X001544Y009076D01*
X001626Y009110D01*
X001780Y009264D01*
X001864Y009466D01*
X001864Y009685D01*
X001780Y009887D01*
X001626Y010042D01*
X001544Y010076D01*
X001626Y010110D01*
X001780Y010264D01*
X001794Y010297D01*
X003762Y010297D01*
X005185Y008874D01*
X005185Y003549D01*
X005136Y003500D01*
X005077Y003358D01*
X005077Y003204D01*
X005136Y003062D01*
X005185Y003012D01*
X005185Y002401D01*
X005154Y002388D01*
X005030Y002264D01*
X004963Y002103D01*
X004963Y001928D01*
X005030Y001766D01*
X005154Y001642D01*
X005316Y001575D01*
X005491Y001575D01*
X005653Y001642D01*
X005776Y001766D01*
X005843Y001928D01*
X005843Y002103D01*
X005776Y002264D01*
X005742Y002299D01*
X005742Y003012D01*
X005791Y003062D01*
X005850Y003204D01*
X005850Y003358D01*
X005791Y003500D01*
X005742Y003549D01*
X005742Y009045D01*
X005700Y009147D01*
X005621Y009225D01*
X004035Y010812D01*
X003932Y010854D01*
X003822Y010854D01*
X001794Y010854D01*
X001780Y010887D01*
X001626Y011042D01*
X001544Y011076D01*
X001626Y011110D01*
X001780Y011264D01*
X001794Y011297D01*
X004455Y011297D01*
X006996Y008756D01*
X006996Y003510D01*
X006947Y003460D01*
X006888Y003318D01*
X006888Y003164D01*
X006947Y003022D01*
X006996Y002973D01*
X006996Y002330D01*
X006930Y002264D01*
X006863Y002103D01*
X006863Y001928D01*
X006930Y001766D01*
X007054Y001642D01*
X007216Y001575D01*
X007391Y001575D01*
X007553Y001642D01*
X007676Y001766D01*
X007743Y001928D01*
X007743Y002103D01*
X007676Y002264D01*
X007553Y002388D01*
X007553Y002973D01*
X007602Y003022D01*
X007661Y003164D01*
X007661Y003318D01*
X007602Y003460D01*
X007553Y003510D01*
X007607Y003450D02*
X010771Y003450D01*
X010820Y003332D02*
X007656Y003332D01*
X007661Y003213D02*
X010899Y003213D01*
X011039Y003095D02*
X007632Y003095D01*
X007556Y002976D02*
X010936Y002976D01*
X010835Y002858D02*
X007553Y002858D01*
X007553Y002739D02*
X010786Y002739D01*
X010764Y002620D02*
X007553Y002620D01*
X007553Y002502D02*
X010764Y002502D01*
X010798Y002383D02*
X007558Y002383D01*
X007676Y002265D02*
X010848Y002265D01*
X010966Y002146D02*
X007725Y002146D01*
X007743Y002028D02*
X010988Y002028D01*
X010869Y001909D02*
X007736Y001909D01*
X007687Y001791D02*
X010808Y001791D01*
X010764Y001672D02*
X007583Y001672D01*
X007024Y001672D02*
X005683Y001672D01*
X005787Y001791D02*
X006920Y001791D01*
X006871Y001909D02*
X005836Y001909D01*
X005843Y002028D02*
X006863Y002028D01*
X006881Y002146D02*
X005825Y002146D01*
X005776Y002265D02*
X006931Y002265D01*
X006996Y002383D02*
X005742Y002383D01*
X005742Y002502D02*
X006996Y002502D01*
X006996Y002620D02*
X005742Y002620D01*
X005742Y002739D02*
X006996Y002739D01*
X006996Y002858D02*
X005742Y002858D01*
X005742Y002976D02*
X006993Y002976D01*
X006917Y003095D02*
X005805Y003095D01*
X005850Y003213D02*
X006888Y003213D01*
X006894Y003332D02*
X005850Y003332D01*
X005812Y003450D02*
X006943Y003450D01*
X006996Y003569D02*
X005742Y003569D01*
X005742Y003687D02*
X006996Y003687D01*
X006996Y003806D02*
X005742Y003806D01*
X005742Y003924D02*
X006996Y003924D01*
X006996Y004043D02*
X005742Y004043D01*
X005742Y004161D02*
X006996Y004161D01*
X006996Y004280D02*
X005742Y004280D01*
X005742Y004399D02*
X006996Y004399D01*
X006996Y004517D02*
X005742Y004517D01*
X005742Y004636D02*
X006996Y004636D01*
X006996Y004754D02*
X005742Y004754D01*
X005742Y004873D02*
X006996Y004873D01*
X006996Y004991D02*
X005742Y004991D01*
X005742Y005110D02*
X006996Y005110D01*
X006996Y005228D02*
X005742Y005228D01*
X005742Y005347D02*
X006996Y005347D01*
X006996Y005465D02*
X005742Y005465D01*
X005742Y005584D02*
X006996Y005584D01*
X006996Y005703D02*
X005742Y005703D01*
X005742Y005821D02*
X006996Y005821D01*
X006996Y005940D02*
X005742Y005940D01*
X005742Y006058D02*
X006996Y006058D01*
X006996Y006177D02*
X005742Y006177D01*
X005742Y006295D02*
X006996Y006295D01*
X006996Y006414D02*
X005742Y006414D01*
X005742Y006532D02*
X006996Y006532D01*
X006996Y006651D02*
X005742Y006651D01*
X005742Y006769D02*
X006996Y006769D01*
X006996Y006888D02*
X005742Y006888D01*
X005742Y007007D02*
X006996Y007007D01*
X006996Y007125D02*
X005742Y007125D01*
X005742Y007244D02*
X006996Y007244D01*
X006996Y007362D02*
X005742Y007362D01*
X005742Y007481D02*
X006996Y007481D01*
X006996Y007599D02*
X005742Y007599D01*
X005742Y007718D02*
X006996Y007718D01*
X006996Y007836D02*
X005742Y007836D01*
X005742Y007955D02*
X006996Y007955D01*
X006996Y008073D02*
X005742Y008073D01*
X005742Y008192D02*
X006996Y008192D01*
X006996Y008311D02*
X005742Y008311D01*
X005742Y008429D02*
X006996Y008429D01*
X006996Y008548D02*
X005742Y008548D01*
X005742Y008666D02*
X006996Y008666D01*
X006967Y008785D02*
X005742Y008785D01*
X005742Y008903D02*
X006849Y008903D01*
X006730Y009022D02*
X005742Y009022D01*
X005702Y009140D02*
X006612Y009140D01*
X006493Y009259D02*
X005588Y009259D01*
X005469Y009377D02*
X006375Y009377D01*
X006256Y009496D02*
X005351Y009496D01*
X005232Y009614D02*
X006138Y009614D01*
X006019Y009733D02*
X005114Y009733D01*
X004995Y009852D02*
X005900Y009852D01*
X005782Y009970D02*
X004876Y009970D01*
X004758Y010089D02*
X005663Y010089D01*
X005545Y010207D02*
X004639Y010207D01*
X004521Y010326D02*
X005426Y010326D01*
X005308Y010444D02*
X004402Y010444D01*
X004284Y010563D02*
X005189Y010563D01*
X005071Y010681D02*
X004165Y010681D01*
X004047Y010800D02*
X004952Y010800D01*
X004834Y010918D02*
X001749Y010918D01*
X001631Y011037D02*
X004715Y011037D01*
X004596Y011156D02*
X001671Y011156D01*
X001784Y011274D02*
X004478Y011274D01*
X004791Y011748D02*
X009762Y011748D01*
X009762Y011630D02*
X004910Y011630D01*
X005028Y011511D02*
X009762Y011511D01*
X009762Y011393D02*
X005147Y011393D01*
X005265Y011274D02*
X009762Y011274D01*
X009762Y011156D02*
X005384Y011156D01*
X005503Y011037D02*
X009762Y011037D01*
X009762Y010918D02*
X005621Y010918D01*
X005740Y010800D02*
X009762Y010800D01*
X009762Y010681D02*
X005858Y010681D01*
X005977Y010563D02*
X009762Y010563D01*
X009762Y010444D02*
X006095Y010444D01*
X006214Y010326D02*
X009762Y010326D01*
X009762Y010207D02*
X006332Y010207D01*
X006451Y010089D02*
X009762Y010089D01*
X009762Y009970D02*
X006569Y009970D01*
X006688Y009852D02*
X009762Y009852D01*
X009762Y009733D02*
X006806Y009733D01*
X006925Y009614D02*
X009762Y009614D01*
X009762Y009496D02*
X007044Y009496D01*
X007162Y009377D02*
X009762Y009377D01*
X009762Y009259D02*
X007281Y009259D01*
X007399Y009140D02*
X009715Y009140D01*
X009688Y009113D02*
X009633Y008982D01*
X009633Y008839D01*
X009688Y008708D01*
X009762Y008633D01*
X009762Y007180D01*
X009688Y007106D01*
X009633Y006974D01*
X009633Y006831D01*
X009688Y006700D01*
X009788Y006599D01*
X009920Y006545D01*
X010062Y006545D01*
X010194Y006599D01*
X010295Y006700D01*
X010349Y006831D01*
X010349Y006974D01*
X010295Y007106D01*
X010220Y007180D01*
X010220Y008633D01*
X010295Y008708D01*
X010349Y008839D01*
X010349Y008982D01*
X010295Y009113D01*
X010220Y009188D01*
X010220Y013614D01*
X010295Y013688D01*
X010349Y013820D01*
X010349Y013962D01*
X010295Y014094D01*
X010220Y014168D01*
X010220Y020976D01*
X010314Y021070D01*
X010363Y021187D01*
X010794Y020757D01*
X010764Y020685D01*
X010764Y020466D01*
X010848Y020264D01*
X011002Y020110D01*
X011084Y020076D01*
X011002Y020042D01*
X010848Y019887D01*
X010764Y019685D01*
X010764Y019466D01*
X010848Y019264D01*
X011002Y019110D01*
X011084Y019076D01*
X011002Y019042D01*
X010848Y018887D01*
X010764Y018685D01*
X010764Y018466D01*
X010848Y018264D01*
X011002Y018110D01*
X011084Y018076D01*
X011002Y018042D01*
X010848Y017887D01*
X010764Y017685D01*
X010764Y017466D01*
X010848Y017264D01*
X011002Y017110D01*
X011084Y017076D01*
X011002Y017042D01*
X010848Y016887D01*
X010764Y016685D01*
X010764Y016466D01*
X010848Y016264D01*
X011002Y016110D01*
X011084Y016076D01*
X011002Y016042D01*
X010848Y015887D01*
X010764Y015685D01*
X010764Y015466D01*
X010848Y015264D01*
X011002Y015110D01*
X011084Y015076D01*
X011002Y015042D01*
X010848Y014887D01*
X010764Y014685D01*
X010764Y014466D01*
X010848Y014264D01*
X011002Y014110D01*
X011084Y014076D01*
X011002Y014042D01*
X010848Y013887D01*
X010764Y013685D01*
X010764Y013466D01*
X010848Y013264D01*
X011002Y013110D01*
X011084Y013076D01*
X011002Y013042D01*
X010848Y012887D01*
X010764Y012685D01*
X010764Y012466D01*
X010848Y012264D01*
X011002Y012110D01*
X011084Y012076D01*
X011002Y012042D01*
X010848Y011887D01*
X010764Y011685D01*
X010764Y011466D01*
X010848Y011264D01*
X011002Y011110D01*
X011084Y011076D01*
X011002Y011042D01*
X010848Y010887D01*
X010764Y010685D01*
X010764Y010466D01*
X010848Y010264D01*
X011002Y010110D01*
X011084Y010076D01*
X011002Y010042D01*
X010848Y009887D01*
X010764Y009685D01*
X010764Y009466D01*
X010848Y009264D01*
X011002Y009110D01*
X011084Y009076D01*
X011002Y009042D01*
X010848Y008887D01*
X010764Y008685D01*
X010764Y008466D01*
X010848Y008264D01*
X011002Y008110D01*
X011084Y008076D01*
X011002Y008042D01*
X010848Y007887D01*
X010764Y007685D01*
X010764Y007466D01*
X010848Y007264D01*
X011002Y007110D01*
X011084Y007076D01*
X011002Y007042D01*
X010848Y006887D01*
X010764Y006685D01*
X010764Y006466D01*
X010848Y006264D01*
X011002Y006110D01*
X011084Y006076D01*
X011002Y006042D01*
X010848Y005887D01*
X010764Y005685D01*
X010764Y005466D01*
X010848Y005264D01*
X010814Y005347D02*
X007553Y005347D01*
X007553Y005465D02*
X010764Y005465D01*
X010764Y005584D02*
X007553Y005584D01*
X007553Y005703D02*
X010771Y005703D01*
X010820Y005821D02*
X007553Y005821D01*
X007553Y005940D02*
X010900Y005940D01*
X011041Y006058D02*
X007553Y006058D01*
X007553Y006177D02*
X010935Y006177D01*
X010835Y006295D02*
X007553Y006295D01*
X007553Y006414D02*
X010786Y006414D01*
X010764Y006532D02*
X007553Y006532D01*
X007553Y006651D02*
X009736Y006651D01*
X009659Y006769D02*
X007553Y006769D01*
X007553Y006888D02*
X009633Y006888D01*
X009647Y007007D02*
X007553Y007007D01*
X007553Y007125D02*
X009707Y007125D01*
X009762Y007244D02*
X007553Y007244D01*
X007553Y007362D02*
X009762Y007362D01*
X009762Y007481D02*
X007553Y007481D01*
X007553Y007599D02*
X009762Y007599D01*
X009762Y007718D02*
X007553Y007718D01*
X007553Y007836D02*
X009762Y007836D01*
X009762Y007955D02*
X007553Y007955D01*
X007553Y008073D02*
X009762Y008073D01*
X009762Y008192D02*
X007553Y008192D01*
X007553Y008311D02*
X009762Y008311D01*
X009762Y008429D02*
X007553Y008429D01*
X007553Y008548D02*
X009762Y008548D01*
X009729Y008666D02*
X007553Y008666D01*
X007553Y008785D02*
X009656Y008785D01*
X009633Y008903D02*
X007553Y008903D01*
X007514Y009022D02*
X009650Y009022D01*
X009688Y009113D02*
X009762Y009188D01*
X009762Y013614D01*
X009688Y013688D01*
X009633Y013820D01*
X009633Y013962D01*
X009688Y014094D01*
X009762Y014168D01*
X009762Y018542D01*
X009686Y018511D01*
X009552Y018511D01*
X009427Y018563D01*
X009332Y018658D01*
X009281Y018782D01*
X009281Y018849D01*
X008671Y019458D01*
X004550Y019458D01*
X004461Y019494D01*
X004394Y019562D01*
X002426Y021530D01*
X002389Y021619D01*
X002389Y021714D01*
X002389Y029667D01*
X002426Y029755D01*
X002493Y029823D01*
X003742Y031072D01*
X003831Y031109D01*
X003926Y031109D01*
X004898Y031109D01*
X005080Y031290D01*
X005080Y032298D01*
X004985Y032392D01*
X004918Y032554D01*
X004918Y032729D01*
X004985Y032891D01*
X005109Y033015D01*
X005271Y033082D01*
X005446Y033082D01*
X005607Y033015D01*
X005731Y032891D01*
X005798Y032729D01*
X005798Y032554D01*
X005731Y032392D01*
X005636Y032298D01*
X005636Y031135D01*
X005720Y031051D01*
X005720Y030686D01*
X005463Y030429D01*
X005098Y030429D01*
X004898Y030629D01*
X003978Y030629D01*
X002869Y029520D01*
X002869Y021766D01*
X003264Y021370D01*
X003310Y021480D01*
X003410Y021580D01*
X003542Y021635D01*
X003684Y021635D01*
X003816Y021580D01*
X003884Y021513D01*
X009744Y021513D01*
X009808Y021576D01*
X009926Y021625D01*
X009709Y021841D01*
X009672Y021930D01*
X009672Y022025D01*
X009672Y029559D01*
X008602Y030630D01*
X007774Y030630D01*
X007574Y030430D01*
X007209Y030430D01*
X006952Y030687D01*
X006952Y031052D01*
X006980Y031080D01*
X006980Y032298D01*
X006885Y032392D01*
X006818Y032554D01*
X006818Y032729D01*
X006885Y032891D01*
X007009Y033015D01*
X007171Y033082D01*
X007346Y033082D01*
X007507Y033015D01*
X007631Y032891D01*
X007698Y032729D01*
X007698Y032554D01*
X007631Y032392D01*
X007536Y032298D01*
X007536Y031310D01*
X007574Y031310D01*
X007774Y031110D01*
X008654Y031110D01*
X008749Y031110D01*
X008837Y031073D01*
X010048Y029862D01*
X010116Y029795D01*
X010152Y029706D01*
X010152Y022077D01*
X010765Y021464D01*
X010764Y021466D01*
X010764Y021685D01*
X010848Y021887D01*
X011002Y022042D01*
X011084Y022076D01*
X011002Y022110D01*
X010848Y022264D01*
X010764Y022466D01*
X010764Y022685D01*
X010848Y022887D01*
X011002Y023042D01*
X011084Y023076D01*
X011002Y023110D01*
X010848Y023264D01*
X010764Y023466D01*
X010764Y023685D01*
X010848Y023887D01*
X011002Y024042D01*
X011084Y024076D01*
X011002Y024110D01*
X010848Y024264D01*
X010764Y024466D01*
X010764Y024685D01*
X010848Y024887D01*
X011002Y025042D01*
X011084Y025076D01*
X011002Y025110D01*
X010848Y025264D01*
X010764Y025466D01*
X010764Y025685D01*
X010848Y025887D01*
X011002Y026042D01*
X011084Y026076D01*
X011002Y026110D01*
X010848Y026264D01*
X010764Y026466D01*
X010764Y026685D01*
X010152Y026685D01*
X010152Y026803D02*
X010813Y026803D01*
X010848Y026887D02*
X010764Y026685D01*
X010764Y026566D02*
X010152Y026566D01*
X010152Y026448D02*
X010772Y026448D01*
X010821Y026329D02*
X010152Y026329D01*
X010152Y026211D02*
X010902Y026211D01*
X011045Y026092D02*
X010152Y026092D01*
X010152Y025973D02*
X010934Y025973D01*
X010834Y025855D02*
X010152Y025855D01*
X010152Y025736D02*
X010785Y025736D01*
X010764Y025618D02*
X010152Y025618D01*
X010152Y025499D02*
X010764Y025499D01*
X010799Y025381D02*
X010152Y025381D01*
X010152Y025262D02*
X010850Y025262D01*
X010968Y025144D02*
X010152Y025144D01*
X010152Y025025D02*
X010985Y025025D01*
X010867Y024907D02*
X010152Y024907D01*
X010152Y024788D02*
X010807Y024788D01*
X010764Y024669D02*
X010152Y024669D01*
X010152Y024551D02*
X010764Y024551D01*
X010778Y024432D02*
X010152Y024432D01*
X010152Y024314D02*
X010827Y024314D01*
X010917Y024195D02*
X010152Y024195D01*
X010152Y024077D02*
X011082Y024077D01*
X010919Y023958D02*
X010152Y023958D01*
X010152Y023840D02*
X010828Y023840D01*
X010779Y023721D02*
X010152Y023721D01*
X010152Y023603D02*
X010764Y023603D01*
X010764Y023484D02*
X010152Y023484D01*
X010152Y023366D02*
X010806Y023366D01*
X010865Y023247D02*
X010152Y023247D01*
X010152Y023128D02*
X010984Y023128D01*
X010970Y023010D02*
X010152Y023010D01*
X010152Y022891D02*
X010852Y022891D01*
X010800Y022773D02*
X010152Y022773D01*
X010152Y022654D02*
X010764Y022654D01*
X010764Y022536D02*
X010152Y022536D01*
X010152Y022417D02*
X010784Y022417D01*
X010834Y022299D02*
X010152Y022299D01*
X010152Y022180D02*
X010932Y022180D01*
X011049Y022062D02*
X010168Y022062D01*
X010286Y021943D02*
X010903Y021943D01*
X010822Y021824D02*
X010405Y021824D01*
X010523Y021706D02*
X010773Y021706D01*
X010764Y021587D02*
X010642Y021587D01*
X010760Y021469D02*
X010764Y021469D01*
X010556Y020995D02*
X010239Y020995D01*
X010220Y020876D02*
X010674Y020876D01*
X010793Y020758D02*
X010220Y020758D01*
X010220Y020639D02*
X010764Y020639D01*
X010764Y020520D02*
X010220Y020520D01*
X010220Y020402D02*
X010791Y020402D01*
X010840Y020283D02*
X010220Y020283D01*
X010220Y020165D02*
X010947Y020165D01*
X011013Y020046D02*
X010220Y020046D01*
X010220Y019928D02*
X010888Y019928D01*
X010815Y019809D02*
X010220Y019809D01*
X010220Y019691D02*
X010766Y019691D01*
X010764Y019572D02*
X010220Y019572D01*
X010220Y019454D02*
X010769Y019454D01*
X010818Y019335D02*
X010220Y019335D01*
X010220Y019216D02*
X010896Y019216D01*
X011031Y019098D02*
X010220Y019098D01*
X010220Y018979D02*
X010940Y018979D01*
X010837Y018861D02*
X010220Y018861D01*
X010220Y018742D02*
X010788Y018742D01*
X010764Y018624D02*
X010220Y018624D01*
X010220Y018505D02*
X010764Y018505D01*
X010797Y018387D02*
X010220Y018387D01*
X010220Y018268D02*
X010846Y018268D01*
X010962Y018150D02*
X010220Y018150D01*
X010220Y018031D02*
X010991Y018031D01*
X010873Y017913D02*
X010220Y017913D01*
X010220Y017794D02*
X010809Y017794D01*
X010764Y017675D02*
X010220Y017675D01*
X010220Y017557D02*
X010764Y017557D01*
X010776Y017438D02*
X010220Y017438D01*
X010220Y017320D02*
X010825Y017320D01*
X010911Y017201D02*
X010220Y017201D01*
X010220Y017083D02*
X011067Y017083D01*
X010924Y016964D02*
X010220Y016964D01*
X010220Y016846D02*
X010830Y016846D01*
X010781Y016727D02*
X010220Y016727D01*
X010220Y016609D02*
X010764Y016609D01*
X010764Y016490D02*
X010220Y016490D01*
X010220Y016371D02*
X010803Y016371D01*
X010859Y016253D02*
X010220Y016253D01*
X010220Y016134D02*
X010978Y016134D01*
X010976Y016016D02*
X010220Y016016D01*
X010220Y015897D02*
X010858Y015897D01*
X010803Y015779D02*
X010220Y015779D01*
X010220Y015660D02*
X010764Y015660D01*
X010764Y015542D02*
X010220Y015542D01*
X010220Y015423D02*
X010782Y015423D01*
X010831Y015305D02*
X010220Y015305D01*
X010220Y015186D02*
X010926Y015186D01*
X011064Y015067D02*
X010220Y015067D01*
X010220Y014949D02*
X010909Y014949D01*
X010824Y014830D02*
X010220Y014830D01*
X010220Y014712D02*
X010775Y014712D01*
X010764Y014593D02*
X010220Y014593D01*
X010220Y014475D02*
X010764Y014475D01*
X010810Y014356D02*
X010220Y014356D01*
X010220Y014238D02*
X010874Y014238D01*
X010993Y014119D02*
X010269Y014119D01*
X010333Y014001D02*
X010961Y014001D01*
X010846Y013882D02*
X010349Y013882D01*
X010326Y013764D02*
X010796Y013764D01*
X010764Y013645D02*
X010252Y013645D01*
X010220Y013526D02*
X010764Y013526D01*
X010788Y013408D02*
X010220Y013408D01*
X010220Y013289D02*
X010837Y013289D01*
X010941Y013171D02*
X010220Y013171D01*
X010220Y013052D02*
X011027Y013052D01*
X010894Y012934D02*
X010220Y012934D01*
X010220Y012815D02*
X010818Y012815D01*
X010769Y012697D02*
X010220Y012697D01*
X010220Y012578D02*
X010764Y012578D01*
X010767Y012460D02*
X010220Y012460D01*
X010220Y012341D02*
X010816Y012341D01*
X010890Y012222D02*
X010220Y012222D01*
X010220Y012104D02*
X011016Y012104D01*
X010946Y011985D02*
X010220Y011985D01*
X010220Y011867D02*
X010839Y011867D01*
X010790Y011748D02*
X010220Y011748D01*
X010220Y011630D02*
X010764Y011630D01*
X010764Y011511D02*
X010220Y011511D01*
X010220Y011393D02*
X010795Y011393D01*
X010844Y011274D02*
X010220Y011274D01*
X010220Y011156D02*
X010957Y011156D01*
X010997Y011037D02*
X010220Y011037D01*
X010220Y010918D02*
X010879Y010918D01*
X010812Y010800D02*
X010220Y010800D01*
X010220Y010681D02*
X010764Y010681D01*
X010764Y010563D02*
X010220Y010563D01*
X010220Y010444D02*
X010773Y010444D01*
X010822Y010326D02*
X010220Y010326D01*
X010220Y010207D02*
X010905Y010207D01*
X011053Y010089D02*
X010220Y010089D01*
X010220Y009970D02*
X010930Y009970D01*
X010833Y009852D02*
X010220Y009852D01*
X010220Y009733D02*
X010784Y009733D01*
X010764Y009614D02*
X010220Y009614D01*
X010220Y009496D02*
X010764Y009496D01*
X010801Y009377D02*
X010220Y009377D01*
X010220Y009259D02*
X010853Y009259D01*
X010972Y009140D02*
X010268Y009140D01*
X010333Y009022D02*
X010982Y009022D01*
X010864Y008903D02*
X010349Y008903D01*
X010327Y008785D02*
X010805Y008785D01*
X010764Y008666D02*
X010253Y008666D01*
X010220Y008548D02*
X010764Y008548D01*
X010779Y008429D02*
X010220Y008429D01*
X010220Y008311D02*
X010829Y008311D01*
X010920Y008192D02*
X010220Y008192D01*
X010220Y008073D02*
X011078Y008073D01*
X010915Y007955D02*
X010220Y007955D01*
X010220Y007836D02*
X010827Y007836D01*
X010777Y007718D02*
X010220Y007718D01*
X010220Y007599D02*
X010764Y007599D01*
X010764Y007481D02*
X010220Y007481D01*
X010220Y007362D02*
X010807Y007362D01*
X010868Y007244D02*
X010220Y007244D01*
X010275Y007125D02*
X010987Y007125D01*
X010967Y007007D02*
X010336Y007007D01*
X010349Y006888D02*
X010848Y006888D01*
X010799Y006769D02*
X010324Y006769D01*
X010246Y006651D02*
X010764Y006651D01*
X011544Y007076D02*
X011626Y007110D01*
X011780Y007264D01*
X011864Y007466D01*
X011864Y007685D01*
X011780Y007887D01*
X011626Y008042D01*
X011544Y008076D01*
X011626Y008110D01*
X011780Y008264D01*
X011864Y008466D01*
X011864Y008685D01*
X011780Y008887D01*
X011626Y009042D01*
X011544Y009076D01*
X011626Y009110D01*
X011780Y009264D01*
X011864Y009466D01*
X011864Y009685D01*
X011780Y009887D01*
X011626Y010042D01*
X011544Y010076D01*
X011626Y010110D01*
X011780Y010264D01*
X011864Y010466D01*
X011864Y010685D01*
X011780Y010887D01*
X011626Y011042D01*
X011544Y011076D01*
X011626Y011110D01*
X011780Y011264D01*
X011864Y011466D01*
X011864Y011685D01*
X011780Y011887D01*
X011626Y012042D01*
X011544Y012076D01*
X011626Y012110D01*
X011780Y012264D01*
X011864Y012466D01*
X011864Y012685D01*
X011780Y012887D01*
X011626Y013042D01*
X011544Y013076D01*
X011626Y013110D01*
X011780Y013264D01*
X011864Y013466D01*
X011864Y013685D01*
X011780Y013887D01*
X011626Y014042D01*
X011544Y014076D01*
X011626Y014110D01*
X011780Y014264D01*
X011864Y014466D01*
X011864Y014685D01*
X011780Y014887D01*
X011626Y015042D01*
X011544Y015076D01*
X011626Y015110D01*
X011780Y015264D01*
X011864Y015466D01*
X011864Y015685D01*
X011780Y015887D01*
X011626Y016042D01*
X011544Y016076D01*
X011626Y016110D01*
X011780Y016264D01*
X011864Y016466D01*
X011864Y016685D01*
X011780Y016887D01*
X011626Y017042D01*
X011544Y017076D01*
X011626Y017110D01*
X011780Y017264D01*
X011864Y017466D01*
X011864Y017685D01*
X011780Y017887D01*
X011626Y018042D01*
X011544Y018076D01*
X011626Y018110D01*
X011780Y018264D01*
X011864Y018466D01*
X011864Y018685D01*
X011780Y018887D01*
X011626Y019042D01*
X011544Y019076D01*
X011626Y019110D01*
X011780Y019264D01*
X011864Y019466D01*
X011864Y019685D01*
X011780Y019887D01*
X011626Y020042D01*
X011544Y020076D01*
X011626Y020110D01*
X011780Y020264D01*
X011864Y020466D01*
X011864Y020685D01*
X011780Y020887D01*
X011626Y021042D01*
X011544Y021076D01*
X011626Y021110D01*
X011780Y021264D01*
X011864Y021466D01*
X011864Y021685D01*
X011780Y021887D01*
X011626Y022042D01*
X011544Y022076D01*
X011626Y022110D01*
X011780Y022264D01*
X011864Y022466D01*
X011864Y022685D01*
X011780Y022887D01*
X011626Y023042D01*
X011544Y023076D01*
X011626Y023110D01*
X011780Y023264D01*
X011864Y023466D01*
X011864Y023685D01*
X011780Y023887D01*
X011626Y024042D01*
X011544Y024076D01*
X011626Y024110D01*
X011780Y024264D01*
X011864Y024466D01*
X011864Y024685D01*
X011780Y024887D01*
X011626Y025042D01*
X011544Y025076D01*
X011626Y025110D01*
X011780Y025264D01*
X011864Y025466D01*
X011864Y025685D01*
X011780Y025887D01*
X011626Y026042D01*
X011544Y026076D01*
X011626Y026110D01*
X011780Y026264D01*
X011864Y026466D01*
X011864Y026685D01*
X011917Y026685D01*
X011864Y026685D02*
X011780Y026887D01*
X011626Y027042D01*
X011544Y027076D01*
X011626Y027110D01*
X011780Y027264D01*
X011864Y027466D01*
X011864Y027685D01*
X011780Y027887D01*
X011626Y028042D01*
X011544Y028076D01*
X011626Y028110D01*
X011780Y028264D01*
X011864Y028466D01*
X011864Y028685D01*
X011780Y028887D01*
X011626Y029042D01*
X011544Y029076D01*
X011626Y029110D01*
X011780Y029264D01*
X011864Y029466D01*
X011864Y029685D01*
X011780Y029887D01*
X011626Y030042D01*
X011544Y030076D01*
X011626Y030110D01*
X011780Y030264D01*
X011864Y030466D01*
X011864Y030685D01*
X011780Y030887D01*
X011626Y031042D01*
X011544Y031076D01*
X011626Y031110D01*
X011780Y031264D01*
X011864Y031466D01*
X011864Y031685D01*
X011780Y031887D01*
X011642Y032026D01*
X011759Y032026D01*
X011864Y032131D01*
X011864Y033020D01*
X011759Y033126D01*
X010869Y033126D01*
X010764Y033020D01*
X010764Y032131D01*
X010869Y032026D01*
X010986Y032026D01*
X010848Y031887D01*
X010764Y031685D01*
X010764Y031466D01*
X010848Y031264D01*
X011002Y031110D01*
X011084Y031076D01*
X011002Y031042D01*
X010848Y030887D01*
X010764Y030685D01*
X010764Y030466D01*
X010848Y030264D01*
X011002Y030110D01*
X011084Y030076D01*
X011002Y030042D01*
X010848Y029887D01*
X010764Y029685D01*
X010764Y029466D01*
X010848Y029264D01*
X011002Y029110D01*
X011084Y029076D01*
X011002Y029042D01*
X010848Y028887D01*
X010764Y028685D01*
X010764Y028466D01*
X010848Y028264D01*
X011002Y028110D01*
X011084Y028076D01*
X011002Y028042D01*
X010848Y027887D01*
X010764Y027685D01*
X010764Y027466D01*
X010848Y027264D01*
X011002Y027110D01*
X011084Y027076D01*
X011002Y027042D01*
X010848Y026887D01*
X010882Y026922D02*
X010152Y026922D01*
X010152Y027040D02*
X011001Y027040D01*
X010953Y027159D02*
X010152Y027159D01*
X010152Y027277D02*
X010842Y027277D01*
X010793Y027396D02*
X010152Y027396D01*
X010152Y027515D02*
X010764Y027515D01*
X010764Y027633D02*
X010152Y027633D01*
X010152Y027752D02*
X010791Y027752D01*
X010841Y027870D02*
X010152Y027870D01*
X010152Y027989D02*
X010949Y027989D01*
X011008Y028107D02*
X010152Y028107D01*
X010152Y028226D02*
X010886Y028226D01*
X010815Y028344D02*
X010152Y028344D01*
X010152Y028463D02*
X010765Y028463D01*
X010764Y028581D02*
X010152Y028581D01*
X010152Y028700D02*
X010770Y028700D01*
X010819Y028819D02*
X010152Y028819D01*
X010152Y028937D02*
X010897Y028937D01*
X011035Y029056D02*
X010152Y029056D01*
X010152Y029174D02*
X010938Y029174D01*
X010836Y029293D02*
X010152Y029293D01*
X010152Y029411D02*
X010787Y029411D01*
X010764Y029530D02*
X010152Y029530D01*
X010152Y029648D02*
X010764Y029648D01*
X010798Y029767D02*
X010127Y029767D01*
X010025Y029885D02*
X010847Y029885D01*
X010964Y030004D02*
X009906Y030004D01*
X009788Y030122D02*
X010990Y030122D01*
X010871Y030241D02*
X009669Y030241D01*
X009551Y030360D02*
X010808Y030360D01*
X010764Y030478D02*
X009432Y030478D01*
X009314Y030597D02*
X010764Y030597D01*
X010776Y030715D02*
X009195Y030715D01*
X009077Y030834D02*
X010826Y030834D01*
X010913Y030952D02*
X008958Y030952D01*
X008840Y031071D02*
X011072Y031071D01*
X010923Y031189D02*
X007694Y031189D01*
X007576Y031308D02*
X010830Y031308D01*
X010781Y031426D02*
X007536Y031426D01*
X007536Y031545D02*
X010764Y031545D01*
X010764Y031664D02*
X007536Y031664D01*
X007536Y031782D02*
X010804Y031782D01*
X010861Y031901D02*
X007536Y031901D01*
X007536Y032019D02*
X010980Y032019D01*
X010764Y032138D02*
X007536Y032138D01*
X007536Y032256D02*
X010764Y032256D01*
X010764Y032375D02*
X007613Y032375D01*
X007673Y032493D02*
X010764Y032493D01*
X010764Y032612D02*
X007698Y032612D01*
X007698Y032730D02*
X010764Y032730D01*
X010764Y032849D02*
X007648Y032849D01*
X007554Y032968D02*
X010764Y032968D01*
X010830Y033086D02*
X001798Y033086D01*
X001864Y032968D02*
X005062Y032968D01*
X004968Y032849D02*
X001864Y032849D01*
X001864Y032730D02*
X004919Y032730D01*
X004918Y032612D02*
X001864Y032612D01*
X001864Y032493D02*
X004943Y032493D01*
X005003Y032375D02*
X001864Y032375D01*
X001864Y032256D02*
X005080Y032256D01*
X005080Y032138D02*
X001864Y032138D01*
X001767Y031901D02*
X005080Y031901D01*
X005080Y032019D02*
X001649Y032019D01*
X001824Y031782D02*
X005080Y031782D01*
X005080Y031664D02*
X001864Y031664D01*
X001864Y031545D02*
X005080Y031545D01*
X005080Y031426D02*
X001847Y031426D01*
X001798Y031308D02*
X005080Y031308D01*
X004979Y031189D02*
X001705Y031189D01*
X001556Y031071D02*
X003741Y031071D01*
X003623Y030952D02*
X001715Y030952D01*
X001803Y030834D02*
X003504Y030834D01*
X003386Y030715D02*
X001852Y030715D01*
X001864Y030597D02*
X003267Y030597D01*
X003148Y030478D02*
X001864Y030478D01*
X001820Y030360D02*
X003030Y030360D01*
X002911Y030241D02*
X001757Y030241D01*
X001638Y030122D02*
X002793Y030122D01*
X002674Y030004D02*
X001664Y030004D01*
X001781Y029885D02*
X002556Y029885D01*
X002437Y029767D02*
X001830Y029767D01*
X001864Y029648D02*
X002389Y029648D01*
X002389Y029530D02*
X001864Y029530D01*
X001841Y029411D02*
X002389Y029411D01*
X002389Y029293D02*
X001792Y029293D01*
X001690Y029174D02*
X002389Y029174D01*
X002389Y029056D02*
X001593Y029056D01*
X001731Y028937D02*
X002389Y028937D01*
X002389Y028819D02*
X001809Y028819D01*
X001858Y028700D02*
X002389Y028700D01*
X002389Y028581D02*
X001864Y028581D01*
X001862Y028463D02*
X002389Y028463D01*
X002389Y028344D02*
X001813Y028344D01*
X001742Y028226D02*
X002389Y028226D01*
X002389Y028107D02*
X001620Y028107D01*
X001679Y027989D02*
X002389Y027989D01*
X002389Y027870D02*
X001787Y027870D01*
X001837Y027752D02*
X002389Y027752D01*
X002389Y027633D02*
X001864Y027633D01*
X001864Y027515D02*
X002389Y027515D01*
X002389Y027396D02*
X001835Y027396D01*
X001786Y027277D02*
X002389Y027277D01*
X002389Y027159D02*
X001675Y027159D01*
X001627Y027040D02*
X002389Y027040D01*
X002389Y026922D02*
X001746Y026922D01*
X001780Y026887D02*
X001864Y026685D01*
X001864Y026566D02*
X002389Y026566D01*
X002389Y026448D02*
X001856Y026448D01*
X001807Y026329D02*
X002389Y026329D01*
X002389Y026211D02*
X001726Y026211D01*
X001583Y026092D02*
X002389Y026092D01*
X002389Y025973D02*
X001694Y025973D01*
X001794Y025855D02*
X002389Y025855D01*
X002389Y025736D02*
X001843Y025736D01*
X001864Y025618D02*
X002389Y025618D01*
X002389Y025499D02*
X001864Y025499D01*
X001828Y025381D02*
X002389Y025381D01*
X002389Y025262D02*
X001778Y025262D01*
X001660Y025144D02*
X002389Y025144D01*
X002389Y025025D02*
X001643Y025025D01*
X001761Y024907D02*
X002389Y024907D01*
X002389Y024788D02*
X001821Y024788D01*
X001864Y024669D02*
X002389Y024669D01*
X002389Y024551D02*
X001864Y024551D01*
X001850Y024432D02*
X002389Y024432D01*
X002389Y024314D02*
X001801Y024314D01*
X001711Y024195D02*
X002389Y024195D01*
X002389Y024077D02*
X001546Y024077D01*
X001709Y023958D02*
X002389Y023958D01*
X002389Y023840D02*
X001800Y023840D01*
X001849Y023721D02*
X002389Y023721D01*
X002389Y023603D02*
X001864Y023603D01*
X001864Y023484D02*
X002389Y023484D01*
X002389Y023366D02*
X001822Y023366D01*
X001763Y023247D02*
X002389Y023247D01*
X002389Y023128D02*
X001644Y023128D01*
X001658Y023010D02*
X002389Y023010D01*
X002389Y022891D02*
X001776Y022891D01*
X001828Y022773D02*
X002389Y022773D01*
X002389Y022654D02*
X001864Y022654D01*
X001864Y022536D02*
X002389Y022536D01*
X002389Y022417D02*
X001844Y022417D01*
X001794Y022299D02*
X002389Y022299D01*
X002389Y022180D02*
X001696Y022180D01*
X001579Y022062D02*
X002389Y022062D01*
X002389Y021943D02*
X001725Y021943D01*
X001806Y021824D02*
X002389Y021824D01*
X002389Y021706D02*
X001855Y021706D01*
X001864Y021587D02*
X002402Y021587D01*
X002487Y021469D02*
X001864Y021469D01*
X001816Y021350D02*
X002606Y021350D01*
X002724Y021232D02*
X001748Y021232D01*
X001629Y021113D02*
X002843Y021113D01*
X002961Y020995D02*
X001673Y020995D01*
X001785Y020876D02*
X003080Y020876D01*
X003198Y020758D02*
X001834Y020758D01*
X001864Y020639D02*
X003317Y020639D01*
X003436Y020520D02*
X001864Y020520D01*
X001837Y020402D02*
X003554Y020402D01*
X003673Y020283D02*
X001788Y020283D01*
X001681Y020165D02*
X003791Y020165D01*
X003910Y020046D02*
X001616Y020046D01*
X001740Y019928D02*
X004028Y019928D01*
X004147Y019809D02*
X001813Y019809D01*
X001862Y019691D02*
X004265Y019691D01*
X004384Y019572D02*
X001864Y019572D01*
X001859Y019454D02*
X008676Y019454D01*
X008794Y019335D02*
X001810Y019335D01*
X001732Y019216D02*
X008913Y019216D01*
X009031Y019098D02*
X001597Y019098D01*
X001688Y018979D02*
X009150Y018979D01*
X009268Y018861D02*
X001791Y018861D01*
X001840Y018742D02*
X009297Y018742D01*
X009366Y018624D02*
X001864Y018624D01*
X001864Y018505D02*
X009762Y018505D01*
X009762Y018387D02*
X001831Y018387D01*
X001782Y018268D02*
X009762Y018268D01*
X009762Y018150D02*
X001666Y018150D01*
X001637Y018031D02*
X009762Y018031D01*
X009762Y017913D02*
X001755Y017913D01*
X001819Y017794D02*
X009762Y017794D01*
X009762Y017675D02*
X001864Y017675D01*
X001864Y017557D02*
X009762Y017557D01*
X009762Y017438D02*
X001852Y017438D01*
X001803Y017320D02*
X009762Y017320D01*
X009762Y017201D02*
X001717Y017201D01*
X001560Y017083D02*
X009762Y017083D01*
X009762Y016964D02*
X001704Y016964D01*
X001798Y016846D02*
X009762Y016846D01*
X009762Y016727D02*
X001847Y016727D01*
X001864Y016609D02*
X009762Y016609D01*
X009762Y016490D02*
X001864Y016490D01*
X001825Y016371D02*
X009762Y016371D01*
X009762Y016253D02*
X001769Y016253D01*
X001650Y016134D02*
X009762Y016134D01*
X009762Y016016D02*
X001652Y016016D01*
X001770Y015897D02*
X009762Y015897D01*
X009762Y015779D02*
X001825Y015779D01*
X001864Y015660D02*
X009762Y015660D01*
X009762Y015542D02*
X001864Y015542D01*
X001846Y015423D02*
X009762Y015423D01*
X009762Y015305D02*
X001797Y015305D01*
X001702Y015186D02*
X009762Y015186D01*
X009762Y015067D02*
X001564Y015067D01*
X001719Y014949D02*
X009762Y014949D01*
X009762Y014830D02*
X001804Y014830D01*
X001853Y014712D02*
X009762Y014712D01*
X009762Y014593D02*
X001864Y014593D01*
X001864Y014475D02*
X009762Y014475D01*
X009762Y014356D02*
X001818Y014356D01*
X001754Y014238D02*
X009762Y014238D01*
X009713Y014119D02*
X001635Y014119D01*
X001667Y014001D02*
X009649Y014001D01*
X009633Y013882D02*
X001782Y013882D01*
X001832Y013764D02*
X009656Y013764D01*
X009731Y013645D02*
X001864Y013645D01*
X001864Y013526D02*
X009762Y013526D01*
X009762Y013408D02*
X001840Y013408D01*
X001791Y013289D02*
X009762Y013289D01*
X009762Y013171D02*
X001687Y013171D01*
X001601Y013052D02*
X009762Y013052D01*
X009762Y012934D02*
X001734Y012934D01*
X001810Y012815D02*
X009762Y012815D01*
X009762Y012697D02*
X001859Y012697D01*
X001864Y012578D02*
X009762Y012578D01*
X009762Y012460D02*
X001861Y012460D01*
X001812Y012341D02*
X009762Y012341D01*
X009762Y012222D02*
X001738Y012222D01*
X001612Y012104D02*
X009762Y012104D01*
X009762Y011985D02*
X001682Y011985D01*
X001789Y011867D02*
X009762Y011867D01*
X011612Y012104D02*
X011917Y012104D01*
X011917Y012222D02*
X011738Y012222D01*
X011812Y012341D02*
X011917Y012341D01*
X011917Y012460D02*
X011861Y012460D01*
X011864Y012578D02*
X011917Y012578D01*
X011917Y012697D02*
X011859Y012697D01*
X011810Y012815D02*
X011917Y012815D01*
X011917Y012934D02*
X011734Y012934D01*
X011601Y013052D02*
X011917Y013052D01*
X011917Y013171D02*
X011687Y013171D01*
X011791Y013289D02*
X011917Y013289D01*
X011917Y013408D02*
X011840Y013408D01*
X011864Y013526D02*
X011917Y013526D01*
X011917Y013645D02*
X011864Y013645D01*
X011832Y013764D02*
X011917Y013764D01*
X011917Y013882D02*
X011782Y013882D01*
X011667Y014001D02*
X011917Y014001D01*
X011917Y014119D02*
X011635Y014119D01*
X011754Y014238D02*
X011917Y014238D01*
X011917Y014356D02*
X011818Y014356D01*
X011864Y014475D02*
X011917Y014475D01*
X011917Y014593D02*
X011864Y014593D01*
X011853Y014712D02*
X011917Y014712D01*
X011917Y014830D02*
X011804Y014830D01*
X011719Y014949D02*
X011917Y014949D01*
X011917Y015067D02*
X011564Y015067D01*
X011702Y015186D02*
X011917Y015186D01*
X011917Y015305D02*
X011797Y015305D01*
X011846Y015423D02*
X011917Y015423D01*
X011917Y015542D02*
X011864Y015542D01*
X011864Y015660D02*
X011917Y015660D01*
X011917Y015779D02*
X011825Y015779D01*
X011770Y015897D02*
X011917Y015897D01*
X011917Y016016D02*
X011652Y016016D01*
X011650Y016134D02*
X011917Y016134D01*
X011917Y016253D02*
X011769Y016253D01*
X011825Y016371D02*
X011917Y016371D01*
X011917Y016490D02*
X011864Y016490D01*
X011864Y016609D02*
X011917Y016609D01*
X011917Y016727D02*
X011847Y016727D01*
X011798Y016846D02*
X011917Y016846D01*
X011917Y016964D02*
X011704Y016964D01*
X011561Y017083D02*
X011917Y017083D01*
X011917Y017201D02*
X011717Y017201D01*
X011803Y017320D02*
X011917Y017320D01*
X011917Y017438D02*
X011852Y017438D01*
X011864Y017557D02*
X011917Y017557D01*
X011917Y017675D02*
X011864Y017675D01*
X011819Y017794D02*
X011917Y017794D01*
X011917Y017913D02*
X011755Y017913D01*
X011637Y018031D02*
X011917Y018031D01*
X011917Y018150D02*
X011666Y018150D01*
X011782Y018268D02*
X011917Y018268D01*
X011917Y018387D02*
X011831Y018387D01*
X011864Y018505D02*
X011917Y018505D01*
X011917Y018624D02*
X011864Y018624D01*
X011840Y018742D02*
X011917Y018742D01*
X011917Y018861D02*
X011791Y018861D01*
X011688Y018979D02*
X011917Y018979D01*
X011917Y019098D02*
X011597Y019098D01*
X011732Y019216D02*
X011917Y019216D01*
X011917Y019335D02*
X011810Y019335D01*
X011859Y019454D02*
X011917Y019454D01*
X011917Y019572D02*
X011864Y019572D01*
X011862Y019691D02*
X011917Y019691D01*
X011917Y019809D02*
X011813Y019809D01*
X011740Y019928D02*
X011917Y019928D01*
X011917Y020046D02*
X011615Y020046D01*
X011681Y020165D02*
X011917Y020165D01*
X011917Y020283D02*
X011788Y020283D01*
X011837Y020402D02*
X011917Y020402D01*
X011917Y020520D02*
X011864Y020520D01*
X011864Y020639D02*
X011917Y020639D01*
X011917Y020758D02*
X011834Y020758D01*
X011785Y020876D02*
X011917Y020876D01*
X011917Y020995D02*
X011673Y020995D01*
X011629Y021113D02*
X011917Y021113D01*
X011917Y021232D02*
X011748Y021232D01*
X011816Y021350D02*
X011917Y021350D01*
X011917Y021469D02*
X011864Y021469D01*
X011864Y021587D02*
X011917Y021587D01*
X011917Y021706D02*
X011855Y021706D01*
X011806Y021824D02*
X011917Y021824D01*
X011917Y021943D02*
X011725Y021943D01*
X011579Y022062D02*
X011917Y022062D01*
X011917Y022180D02*
X011696Y022180D01*
X011794Y022299D02*
X011917Y022299D01*
X011917Y022417D02*
X011844Y022417D01*
X011864Y022536D02*
X011917Y022536D01*
X011917Y022654D02*
X011864Y022654D01*
X011828Y022773D02*
X011917Y022773D01*
X011917Y022891D02*
X011776Y022891D01*
X011658Y023010D02*
X011917Y023010D01*
X011917Y023128D02*
X011644Y023128D01*
X011763Y023247D02*
X011917Y023247D01*
X011917Y023366D02*
X011822Y023366D01*
X011864Y023484D02*
X011917Y023484D01*
X011917Y023603D02*
X011864Y023603D01*
X011849Y023721D02*
X011917Y023721D01*
X011917Y023840D02*
X011800Y023840D01*
X011709Y023958D02*
X011917Y023958D01*
X011917Y024077D02*
X011546Y024077D01*
X011711Y024195D02*
X011917Y024195D01*
X011917Y024314D02*
X011801Y024314D01*
X011850Y024432D02*
X011917Y024432D01*
X011917Y024551D02*
X011864Y024551D01*
X011864Y024669D02*
X011917Y024669D01*
X011917Y024788D02*
X011821Y024788D01*
X011761Y024907D02*
X011917Y024907D01*
X011917Y025025D02*
X011643Y025025D01*
X011660Y025144D02*
X011917Y025144D01*
X011917Y025262D02*
X011778Y025262D01*
X011828Y025381D02*
X011917Y025381D01*
X011917Y025499D02*
X011864Y025499D01*
X011864Y025618D02*
X011917Y025618D01*
X011917Y025736D02*
X011843Y025736D01*
X011794Y025855D02*
X011917Y025855D01*
X011917Y025973D02*
X011694Y025973D01*
X011583Y026092D02*
X011917Y026092D01*
X011917Y026211D02*
X011726Y026211D01*
X011807Y026329D02*
X011917Y026329D01*
X011917Y026448D02*
X011856Y026448D01*
X011864Y026566D02*
X011917Y026566D01*
X011917Y026803D02*
X011815Y026803D01*
X011746Y026922D02*
X011917Y026922D01*
X011917Y027040D02*
X011627Y027040D01*
X011675Y027159D02*
X011917Y027159D01*
X011917Y027277D02*
X011786Y027277D01*
X011835Y027396D02*
X011917Y027396D01*
X011917Y027515D02*
X011864Y027515D01*
X011864Y027633D02*
X011917Y027633D01*
X011917Y027752D02*
X011837Y027752D01*
X011787Y027870D02*
X011917Y027870D01*
X011917Y027989D02*
X011679Y027989D01*
X011620Y028107D02*
X011917Y028107D01*
X011917Y028226D02*
X011742Y028226D01*
X011813Y028344D02*
X011917Y028344D01*
X011917Y028463D02*
X011862Y028463D01*
X011864Y028581D02*
X011917Y028581D01*
X011917Y028700D02*
X011858Y028700D01*
X011809Y028819D02*
X011917Y028819D01*
X011917Y028937D02*
X011731Y028937D01*
X011593Y029056D02*
X011917Y029056D01*
X011917Y029174D02*
X011690Y029174D01*
X011792Y029293D02*
X011917Y029293D01*
X011917Y029411D02*
X011841Y029411D01*
X011864Y029530D02*
X011917Y029530D01*
X011917Y029648D02*
X011864Y029648D01*
X011830Y029767D02*
X011917Y029767D01*
X011917Y029885D02*
X011781Y029885D01*
X011664Y030004D02*
X011917Y030004D01*
X011917Y030122D02*
X011638Y030122D01*
X011757Y030241D02*
X011917Y030241D01*
X011917Y030360D02*
X011820Y030360D01*
X011864Y030478D02*
X011917Y030478D01*
X011917Y030597D02*
X011864Y030597D01*
X011852Y030715D02*
X011917Y030715D01*
X011917Y030834D02*
X011803Y030834D01*
X011715Y030952D02*
X011917Y030952D01*
X011917Y031071D02*
X011556Y031071D01*
X011705Y031189D02*
X011917Y031189D01*
X011917Y031308D02*
X011798Y031308D01*
X011847Y031426D02*
X011917Y031426D01*
X011917Y031545D02*
X011864Y031545D01*
X011864Y031664D02*
X011917Y031664D01*
X011917Y031782D02*
X011824Y031782D01*
X011767Y031901D02*
X011917Y031901D01*
X011917Y032019D02*
X011649Y032019D01*
X011864Y032138D02*
X011917Y032138D01*
X011917Y032256D02*
X011864Y032256D01*
X011864Y032375D02*
X011917Y032375D01*
X011917Y032493D02*
X011864Y032493D01*
X011864Y032612D02*
X011917Y032612D01*
X011917Y032730D02*
X011864Y032730D01*
X011864Y032849D02*
X011917Y032849D01*
X011917Y032968D02*
X011864Y032968D01*
X011917Y033086D02*
X011798Y033086D01*
X011917Y033205D02*
X000743Y033205D01*
X000743Y033323D02*
X011917Y033323D01*
X011917Y033442D02*
X000743Y033442D01*
X000743Y033560D02*
X011917Y033560D01*
X011917Y033679D02*
X000743Y033679D01*
X000743Y033797D02*
X011917Y033797D01*
X011917Y033916D02*
X000743Y033916D01*
X000743Y033086D02*
X000830Y033086D01*
X000764Y032968D02*
X000743Y032968D01*
X000743Y032849D02*
X000764Y032849D01*
X000764Y032730D02*
X000743Y032730D01*
X000743Y032612D02*
X000764Y032612D01*
X000764Y032493D02*
X000743Y032493D01*
X000743Y032375D02*
X000764Y032375D01*
X000764Y032256D02*
X000743Y032256D01*
X000743Y032138D02*
X000764Y032138D01*
X000743Y032019D02*
X000980Y032019D01*
X000861Y031901D02*
X000743Y031901D01*
X000743Y031782D02*
X000804Y031782D01*
X000764Y031664D02*
X000743Y031664D01*
X000743Y031545D02*
X000764Y031545D01*
X000743Y031426D02*
X000781Y031426D01*
X000743Y031308D02*
X000830Y031308D01*
X000743Y031189D02*
X000923Y031189D01*
X001072Y031071D02*
X000743Y031071D01*
X000743Y030952D02*
X000913Y030952D01*
X000826Y030834D02*
X000743Y030834D01*
X000743Y030715D02*
X000776Y030715D01*
X000764Y030597D02*
X000743Y030597D01*
X000743Y030478D02*
X000764Y030478D01*
X000743Y030360D02*
X000808Y030360D01*
X000871Y030241D02*
X000743Y030241D01*
X000743Y030122D02*
X000990Y030122D01*
X000964Y030004D02*
X000743Y030004D01*
X000743Y029885D02*
X000847Y029885D01*
X000798Y029767D02*
X000743Y029767D01*
X000743Y029648D02*
X000764Y029648D01*
X000764Y029530D02*
X000743Y029530D01*
X000743Y029411D02*
X000787Y029411D01*
X000743Y029293D02*
X000836Y029293D01*
X000743Y029174D02*
X000938Y029174D01*
X001035Y029056D02*
X000743Y029056D01*
X000743Y028937D02*
X000897Y028937D01*
X000819Y028819D02*
X000743Y028819D01*
X000743Y028700D02*
X000770Y028700D01*
X000764Y028581D02*
X000743Y028581D01*
X000743Y028463D02*
X000765Y028463D01*
X000743Y028344D02*
X000815Y028344D01*
X000886Y028226D02*
X000743Y028226D01*
X000743Y028107D02*
X001008Y028107D01*
X000949Y027989D02*
X000743Y027989D01*
X000743Y027870D02*
X000841Y027870D01*
X000791Y027752D02*
X000743Y027752D01*
X000743Y027633D02*
X000764Y027633D01*
X000764Y027515D02*
X000743Y027515D01*
X000743Y027396D02*
X000793Y027396D01*
X000842Y027277D02*
X000743Y027277D01*
X000743Y027159D02*
X000953Y027159D01*
X001001Y027040D02*
X000743Y027040D01*
X000743Y026922D02*
X000882Y026922D01*
X000813Y026803D02*
X000743Y026803D01*
X000743Y026566D02*
X000764Y026566D01*
X000772Y026448D02*
X000743Y026448D01*
X000743Y026329D02*
X000821Y026329D01*
X000743Y026211D02*
X000902Y026211D01*
X001045Y026092D02*
X000743Y026092D01*
X000743Y025973D02*
X000934Y025973D01*
X000834Y025855D02*
X000743Y025855D01*
X000743Y025736D02*
X000785Y025736D01*
X000764Y025618D02*
X000743Y025618D01*
X000743Y025499D02*
X000764Y025499D01*
X000743Y025381D02*
X000799Y025381D01*
X000850Y025262D02*
X000743Y025262D01*
X000743Y025144D02*
X000968Y025144D01*
X000985Y025025D02*
X000743Y025025D01*
X000743Y024907D02*
X000867Y024907D01*
X000807Y024788D02*
X000743Y024788D01*
X000743Y024669D02*
X000764Y024669D01*
X000764Y024551D02*
X000743Y024551D01*
X000743Y024432D02*
X000778Y024432D01*
X000743Y024314D02*
X000827Y024314D01*
X000743Y024195D02*
X000917Y024195D01*
X001082Y024077D02*
X000743Y024077D01*
X000743Y023958D02*
X000919Y023958D01*
X000828Y023840D02*
X000743Y023840D01*
X000743Y023721D02*
X000779Y023721D01*
X000764Y023603D02*
X000743Y023603D01*
X000743Y023484D02*
X000764Y023484D01*
X000743Y023366D02*
X000806Y023366D01*
X000865Y023247D02*
X000743Y023247D01*
X000743Y023128D02*
X000984Y023128D01*
X000970Y023010D02*
X000743Y023010D01*
X000743Y022891D02*
X000852Y022891D01*
X000800Y022773D02*
X000743Y022773D01*
X000743Y022654D02*
X000764Y022654D01*
X000764Y022536D02*
X000743Y022536D01*
X000743Y022417D02*
X000784Y022417D01*
X000743Y022299D02*
X000834Y022299D01*
X000743Y022180D02*
X000932Y022180D01*
X001049Y022062D02*
X000743Y022062D01*
X000743Y021943D02*
X000903Y021943D01*
X000822Y021824D02*
X000743Y021824D01*
X000743Y021706D02*
X000773Y021706D01*
X000764Y021587D02*
X000743Y021587D01*
X000743Y021469D02*
X000764Y021469D01*
X000743Y021350D02*
X000812Y021350D01*
X000743Y021232D02*
X000880Y021232D01*
X000999Y021113D02*
X000743Y021113D01*
X000743Y020995D02*
X000955Y020995D01*
X000843Y020876D02*
X000743Y020876D01*
X000743Y020758D02*
X000794Y020758D01*
X000764Y020639D02*
X000743Y020639D01*
X000743Y020520D02*
X000764Y020520D01*
X000743Y020402D02*
X000791Y020402D01*
X000743Y020283D02*
X000840Y020283D01*
X000743Y020165D02*
X000947Y020165D01*
X001013Y020046D02*
X000743Y020046D01*
X000743Y019928D02*
X000888Y019928D01*
X000815Y019809D02*
X000743Y019809D01*
X000743Y019691D02*
X000766Y019691D01*
X000764Y019572D02*
X000743Y019572D01*
X000743Y019454D02*
X000769Y019454D01*
X000743Y019335D02*
X000818Y019335D01*
X000743Y019216D02*
X000896Y019216D01*
X001031Y019098D02*
X000743Y019098D01*
X000743Y018979D02*
X000940Y018979D01*
X000837Y018861D02*
X000743Y018861D01*
X000743Y018742D02*
X000788Y018742D01*
X000764Y018624D02*
X000743Y018624D01*
X000743Y018505D02*
X000764Y018505D01*
X000743Y018387D02*
X000797Y018387D01*
X000846Y018268D02*
X000743Y018268D01*
X000743Y018150D02*
X000962Y018150D01*
X000991Y018031D02*
X000743Y018031D01*
X000743Y017913D02*
X000873Y017913D01*
X000809Y017794D02*
X000743Y017794D01*
X000743Y017675D02*
X000764Y017675D01*
X000764Y017557D02*
X000743Y017557D01*
X000743Y017438D02*
X000776Y017438D01*
X000743Y017320D02*
X000825Y017320D01*
X000743Y017201D02*
X000911Y017201D01*
X001067Y017083D02*
X000743Y017083D01*
X000743Y016964D02*
X000924Y016964D01*
X000830Y016846D02*
X000743Y016846D01*
X000743Y016727D02*
X000781Y016727D01*
X000764Y016609D02*
X000743Y016609D01*
X000743Y016490D02*
X000764Y016490D01*
X000743Y016371D02*
X000803Y016371D01*
X000859Y016253D02*
X000743Y016253D01*
X000743Y016134D02*
X000978Y016134D01*
X000976Y016016D02*
X000743Y016016D01*
X000743Y015897D02*
X000858Y015897D01*
X000803Y015779D02*
X000743Y015779D01*
X000743Y015660D02*
X000764Y015660D01*
X000764Y015542D02*
X000743Y015542D01*
X000743Y015423D02*
X000782Y015423D01*
X000743Y015305D02*
X000831Y015305D01*
X000743Y015186D02*
X000926Y015186D01*
X001064Y015067D02*
X000743Y015067D01*
X000743Y014949D02*
X000909Y014949D01*
X000824Y014830D02*
X000743Y014830D01*
X000743Y014712D02*
X000775Y014712D01*
X000764Y014593D02*
X000743Y014593D01*
X000743Y014475D02*
X000764Y014475D01*
X000743Y014356D02*
X000810Y014356D01*
X000874Y014238D02*
X000743Y014238D01*
X000743Y014119D02*
X000993Y014119D01*
X000961Y014001D02*
X000743Y014001D01*
X000743Y013882D02*
X000846Y013882D01*
X000796Y013764D02*
X000743Y013764D01*
X000743Y013645D02*
X000764Y013645D01*
X000764Y013526D02*
X000743Y013526D01*
X000743Y013408D02*
X000788Y013408D01*
X000743Y013289D02*
X000837Y013289D01*
X000743Y013171D02*
X000941Y013171D01*
X001027Y013052D02*
X000743Y013052D01*
X000743Y012934D02*
X000894Y012934D01*
X000818Y012815D02*
X000743Y012815D01*
X000743Y012697D02*
X000769Y012697D01*
X000764Y012578D02*
X000743Y012578D01*
X000743Y012460D02*
X000767Y012460D01*
X000743Y012341D02*
X000816Y012341D01*
X000743Y012222D02*
X000890Y012222D01*
X001016Y012104D02*
X000743Y012104D01*
X000743Y011985D02*
X000946Y011985D01*
X000839Y011867D02*
X000743Y011867D01*
X000743Y011748D02*
X000790Y011748D01*
X000764Y011630D02*
X000743Y011630D01*
X000743Y011511D02*
X000764Y011511D01*
X000743Y011393D02*
X000795Y011393D01*
X000844Y011274D02*
X000743Y011274D01*
X000743Y011156D02*
X000957Y011156D01*
X000997Y011037D02*
X000743Y011037D01*
X000743Y010918D02*
X000879Y010918D01*
X000812Y010800D02*
X000743Y010800D01*
X000743Y010681D02*
X000764Y010681D01*
X000764Y010563D02*
X000743Y010563D01*
X000743Y010444D02*
X000773Y010444D01*
X000743Y010326D02*
X000822Y010326D01*
X000743Y010207D02*
X000905Y010207D01*
X001053Y010089D02*
X000743Y010089D01*
X000743Y009970D02*
X000930Y009970D01*
X000833Y009852D02*
X000743Y009852D01*
X000743Y009733D02*
X000784Y009733D01*
X000764Y009614D02*
X000743Y009614D01*
X000743Y009496D02*
X000764Y009496D01*
X000743Y009377D02*
X000801Y009377D01*
X000853Y009259D02*
X000743Y009259D01*
X000743Y009140D02*
X000972Y009140D01*
X000982Y009022D02*
X000743Y009022D01*
X000743Y008903D02*
X000864Y008903D01*
X000805Y008785D02*
X000743Y008785D01*
X000743Y008666D02*
X000764Y008666D01*
X000764Y008548D02*
X000743Y008548D01*
X000743Y008429D02*
X000779Y008429D01*
X000743Y008311D02*
X000829Y008311D01*
X000743Y008192D02*
X000920Y008192D01*
X001090Y008073D02*
X000743Y008073D01*
X000743Y007955D02*
X000944Y007955D01*
X000852Y007836D02*
X000743Y007836D01*
X000743Y007718D02*
X000803Y007718D01*
X001538Y008073D02*
X005185Y008073D01*
X005185Y007955D02*
X001684Y007955D01*
X001776Y007836D02*
X005185Y007836D01*
X005185Y007718D02*
X001825Y007718D01*
X001831Y007452D02*
X001805Y007372D01*
X001767Y007298D01*
X001718Y007231D01*
X001659Y007172D01*
X001592Y007123D01*
X001520Y007086D01*
X001626Y007042D01*
X001780Y006887D01*
X001864Y006685D01*
X001864Y006466D01*
X001780Y006264D01*
X001626Y006110D01*
X001544Y006076D01*
X001626Y006042D01*
X001780Y005887D01*
X001864Y005685D01*
X001864Y005466D01*
X001780Y005264D01*
X001626Y005110D01*
X005185Y005110D01*
X005185Y005228D02*
X001744Y005228D01*
X001814Y005347D02*
X005185Y005347D01*
X005185Y005465D02*
X001864Y005465D01*
X001864Y005584D02*
X005185Y005584D01*
X005185Y005703D02*
X001857Y005703D01*
X001808Y005821D02*
X005185Y005821D01*
X005185Y005940D02*
X001728Y005940D01*
X001587Y006058D02*
X005185Y006058D01*
X005185Y006177D02*
X001693Y006177D01*
X001793Y006295D02*
X005185Y006295D01*
X005185Y006414D02*
X001842Y006414D01*
X001864Y006532D02*
X005185Y006532D01*
X005185Y006651D02*
X001864Y006651D01*
X001829Y006769D02*
X005185Y006769D01*
X005185Y006888D02*
X001780Y006888D01*
X001661Y007007D02*
X005185Y007007D01*
X005185Y007125D02*
X001595Y007125D01*
X001728Y007244D02*
X005185Y007244D01*
X005185Y007362D02*
X001800Y007362D01*
X001708Y008192D02*
X005185Y008192D01*
X005185Y008311D02*
X001799Y008311D01*
X001848Y008429D02*
X005185Y008429D01*
X005185Y008548D02*
X001864Y008548D01*
X001864Y008666D02*
X005185Y008666D01*
X005185Y008785D02*
X001823Y008785D01*
X001764Y008903D02*
X005156Y008903D01*
X005037Y009022D02*
X001646Y009022D01*
X001656Y009140D02*
X004919Y009140D01*
X004800Y009259D02*
X001775Y009259D01*
X001827Y009377D02*
X004682Y009377D01*
X004563Y009496D02*
X001864Y009496D01*
X001864Y009614D02*
X004445Y009614D01*
X004326Y009733D02*
X001844Y009733D01*
X001795Y009852D02*
X004208Y009852D01*
X004089Y009970D02*
X001698Y009970D01*
X001575Y010089D02*
X003970Y010089D01*
X003852Y010207D02*
X001723Y010207D01*
X001626Y005110D02*
X001544Y005076D01*
X001626Y005042D01*
X001780Y004887D01*
X001864Y004685D01*
X001864Y004466D01*
X001780Y004264D01*
X001626Y004110D01*
X001544Y004076D01*
X001626Y004042D01*
X001780Y003887D01*
X001864Y003685D01*
X001864Y003466D01*
X001780Y003264D01*
X001626Y003110D01*
X001544Y003076D01*
X001626Y003042D01*
X001780Y002887D01*
X001864Y002685D01*
X001864Y002466D01*
X001780Y002264D01*
X001626Y002110D01*
X001544Y002076D01*
X001626Y002042D01*
X001780Y001887D01*
X001864Y001685D01*
X001864Y001466D01*
X001780Y001264D01*
X001626Y001110D01*
X001423Y001026D01*
X001205Y001026D01*
X001002Y001110D01*
X000848Y001264D01*
X000764Y001466D01*
X000764Y001685D01*
X000848Y001887D01*
X001002Y002042D01*
X001084Y002076D01*
X001002Y002110D01*
X000848Y002264D01*
X000764Y002466D01*
X000764Y002685D01*
X000848Y002887D01*
X001002Y003042D01*
X001084Y003076D01*
X001002Y003110D01*
X000848Y003264D01*
X000764Y003466D01*
X000764Y003685D01*
X000848Y003887D01*
X001002Y004042D01*
X001084Y004076D01*
X001002Y004110D01*
X000848Y004264D01*
X000764Y004466D01*
X000764Y004685D01*
X000848Y004887D01*
X001002Y005042D01*
X001084Y005076D01*
X001002Y005110D01*
X000952Y004991D02*
X000743Y004991D01*
X000743Y004873D02*
X000842Y004873D01*
X000793Y004754D02*
X000743Y004754D01*
X000743Y004636D02*
X000764Y004636D01*
X000764Y004517D02*
X000743Y004517D01*
X000743Y004399D02*
X000792Y004399D01*
X000743Y004280D02*
X000841Y004280D01*
X000743Y004161D02*
X000951Y004161D01*
X001004Y004043D02*
X000743Y004043D01*
X000743Y003924D02*
X000885Y003924D01*
X000814Y003806D02*
X000743Y003806D01*
X000743Y003687D02*
X000765Y003687D01*
X000764Y003569D02*
X000743Y003569D01*
X000743Y003450D02*
X000771Y003450D01*
X000743Y003332D02*
X000820Y003332D01*
X000743Y003213D02*
X000899Y003213D01*
X001039Y003095D02*
X000743Y003095D01*
X000743Y002976D02*
X000936Y002976D01*
X000835Y002858D02*
X000743Y002858D01*
X000743Y002739D02*
X000786Y002739D01*
X000764Y002620D02*
X000743Y002620D01*
X000743Y002502D02*
X000764Y002502D01*
X000743Y002383D02*
X000798Y002383D01*
X000848Y002265D02*
X000743Y002265D01*
X000743Y002146D02*
X000966Y002146D01*
X000988Y002028D02*
X000743Y002028D01*
X000743Y001909D02*
X000869Y001909D01*
X000808Y001791D02*
X000743Y001791D01*
X000743Y001672D02*
X000764Y001672D01*
X000764Y001554D02*
X000743Y001554D01*
X000743Y001435D02*
X000777Y001435D01*
X000743Y001316D02*
X000826Y001316D01*
X000743Y001198D02*
X000914Y001198D01*
X001076Y001079D02*
X000743Y001079D01*
X001552Y001079D02*
X011076Y001079D01*
X010914Y001198D02*
X001714Y001198D01*
X001802Y001316D02*
X010826Y001316D01*
X010777Y001435D02*
X001851Y001435D01*
X001864Y001554D02*
X010764Y001554D01*
X011544Y002076D02*
X011626Y002110D01*
X011780Y002264D01*
X011864Y002466D01*
X011864Y002685D01*
X011780Y002887D01*
X011626Y003042D01*
X011544Y003076D01*
X011626Y003110D01*
X011780Y003264D01*
X011864Y003466D01*
X011864Y003685D01*
X011780Y003887D01*
X011626Y004042D01*
X011544Y004076D01*
X011626Y004110D01*
X011780Y004264D01*
X011864Y004466D01*
X011864Y004685D01*
X011780Y004887D01*
X011626Y005042D01*
X011544Y005076D01*
X011626Y005110D01*
X011917Y005110D01*
X011917Y005228D02*
X011744Y005228D01*
X011780Y005264D02*
X011626Y005110D01*
X011676Y004991D02*
X011917Y004991D01*
X011917Y004873D02*
X011786Y004873D01*
X011835Y004754D02*
X011917Y004754D01*
X011917Y004636D02*
X011864Y004636D01*
X011864Y004517D02*
X011917Y004517D01*
X011917Y004399D02*
X011836Y004399D01*
X011787Y004280D02*
X011917Y004280D01*
X011917Y004161D02*
X011677Y004161D01*
X011624Y004043D02*
X011917Y004043D01*
X011917Y003924D02*
X011743Y003924D01*
X011814Y003806D02*
X011917Y003806D01*
X011917Y003687D02*
X011863Y003687D01*
X011864Y003569D02*
X011917Y003569D01*
X011917Y003450D02*
X011857Y003450D01*
X011808Y003332D02*
X011917Y003332D01*
X011917Y003213D02*
X011729Y003213D01*
X011589Y003095D02*
X011917Y003095D01*
X011917Y002976D02*
X011692Y002976D01*
X011793Y002858D02*
X011917Y002858D01*
X011917Y002739D02*
X011842Y002739D01*
X011864Y002620D02*
X011917Y002620D01*
X011917Y002502D02*
X011864Y002502D01*
X011830Y002383D02*
X011917Y002383D01*
X011917Y002265D02*
X011780Y002265D01*
X011662Y002146D02*
X011917Y002146D01*
X011917Y002028D02*
X011640Y002028D01*
X011626Y002042D02*
X011544Y002076D01*
X011626Y002042D02*
X011780Y001887D01*
X011864Y001685D01*
X011864Y001466D01*
X011780Y001264D01*
X011626Y001110D01*
X011714Y001198D02*
X011917Y001198D01*
X011917Y001316D02*
X011802Y001316D01*
X011851Y001435D02*
X011917Y001435D01*
X011917Y001554D02*
X011864Y001554D01*
X011864Y001672D02*
X011917Y001672D01*
X011917Y001791D02*
X011820Y001791D01*
X011759Y001909D02*
X011917Y001909D01*
X011780Y005264D02*
X011864Y005466D01*
X011864Y005685D01*
X011780Y005887D01*
X011626Y006042D01*
X011544Y006076D01*
X011626Y006110D01*
X011780Y006264D01*
X011864Y006466D01*
X011864Y006685D01*
X011780Y006887D01*
X011626Y007042D01*
X011544Y007076D01*
X011641Y007125D02*
X011917Y007125D01*
X011917Y007007D02*
X011661Y007007D01*
X011780Y006888D02*
X011917Y006888D01*
X011917Y006769D02*
X011829Y006769D01*
X011864Y006651D02*
X011917Y006651D01*
X011917Y006532D02*
X011864Y006532D01*
X011842Y006414D02*
X011917Y006414D01*
X011917Y006295D02*
X011793Y006295D01*
X011693Y006177D02*
X011917Y006177D01*
X011917Y006058D02*
X011587Y006058D01*
X011728Y005940D02*
X011917Y005940D01*
X011917Y005821D02*
X011808Y005821D01*
X011857Y005703D02*
X011917Y005703D01*
X011917Y005584D02*
X011864Y005584D01*
X011864Y005465D02*
X011917Y005465D01*
X011917Y005347D02*
X011814Y005347D01*
X011760Y007244D02*
X011917Y007244D01*
X011917Y007362D02*
X011821Y007362D01*
X011864Y007481D02*
X011917Y007481D01*
X011917Y007599D02*
X011864Y007599D01*
X011851Y007718D02*
X011917Y007718D01*
X011917Y007836D02*
X011801Y007836D01*
X011713Y007955D02*
X011917Y007955D01*
X011917Y008073D02*
X011550Y008073D01*
X011708Y008192D02*
X011917Y008192D01*
X011917Y008311D02*
X011799Y008311D01*
X011848Y008429D02*
X011917Y008429D01*
X011917Y008548D02*
X011864Y008548D01*
X011864Y008666D02*
X011917Y008666D01*
X011917Y008785D02*
X011823Y008785D01*
X011764Y008903D02*
X011917Y008903D01*
X011917Y009022D02*
X011646Y009022D01*
X011656Y009140D02*
X011917Y009140D01*
X011917Y009259D02*
X011775Y009259D01*
X011827Y009377D02*
X011917Y009377D01*
X011917Y009496D02*
X011864Y009496D01*
X011864Y009614D02*
X011917Y009614D01*
X011917Y009733D02*
X011844Y009733D01*
X011795Y009852D02*
X011917Y009852D01*
X011917Y009970D02*
X011698Y009970D01*
X011575Y010089D02*
X011917Y010089D01*
X011917Y010207D02*
X011723Y010207D01*
X011806Y010326D02*
X011917Y010326D01*
X011917Y010444D02*
X011855Y010444D01*
X011864Y010563D02*
X011917Y010563D01*
X011917Y010681D02*
X011864Y010681D01*
X011816Y010800D02*
X011917Y010800D01*
X011917Y010918D02*
X011749Y010918D01*
X011631Y011037D02*
X011917Y011037D01*
X011917Y011156D02*
X011671Y011156D01*
X011784Y011274D02*
X011917Y011274D01*
X011917Y011393D02*
X011833Y011393D01*
X011864Y011511D02*
X011917Y011511D01*
X011917Y011630D02*
X011864Y011630D01*
X011838Y011748D02*
X011917Y011748D01*
X011917Y011867D02*
X011789Y011867D01*
X011682Y011985D02*
X011917Y011985D01*
X009619Y018850D02*
X008771Y019698D01*
X004597Y019698D01*
X002629Y021666D01*
X002629Y029619D01*
X003878Y030869D01*
X005280Y030869D01*
X005049Y030478D02*
X003827Y030478D01*
X003709Y030360D02*
X008872Y030360D01*
X008753Y030478D02*
X007622Y030478D01*
X007741Y030597D02*
X008635Y030597D01*
X008701Y030870D02*
X009912Y029659D01*
X009912Y021977D01*
X011314Y020576D01*
X010437Y021113D02*
X010332Y021113D01*
X010011Y021273D02*
X003617Y021273D01*
X003613Y021277D01*
X003596Y021294D01*
X003799Y021587D02*
X009835Y021587D01*
X009845Y021706D02*
X002929Y021706D01*
X002869Y021824D02*
X009726Y021824D01*
X009672Y021943D02*
X002869Y021943D01*
X002869Y022062D02*
X009672Y022062D01*
X009672Y022180D02*
X002869Y022180D01*
X002869Y022299D02*
X009672Y022299D01*
X009672Y022417D02*
X002869Y022417D01*
X002869Y022536D02*
X009672Y022536D01*
X009672Y022654D02*
X002869Y022654D01*
X002869Y022773D02*
X009672Y022773D01*
X009672Y022891D02*
X002869Y022891D01*
X002869Y023010D02*
X009672Y023010D01*
X009672Y023128D02*
X002869Y023128D01*
X002869Y023247D02*
X009672Y023247D01*
X009672Y023366D02*
X002869Y023366D01*
X002869Y023484D02*
X009672Y023484D01*
X009672Y023603D02*
X002869Y023603D01*
X002869Y023721D02*
X009672Y023721D01*
X009672Y023840D02*
X002869Y023840D01*
X002869Y023958D02*
X009672Y023958D01*
X009672Y024077D02*
X002869Y024077D01*
X002869Y024195D02*
X009672Y024195D01*
X009672Y024314D02*
X002869Y024314D01*
X002869Y024432D02*
X009672Y024432D01*
X009672Y024551D02*
X002869Y024551D01*
X002869Y024669D02*
X009672Y024669D01*
X009672Y024788D02*
X002869Y024788D01*
X002869Y024907D02*
X009672Y024907D01*
X009672Y025025D02*
X002869Y025025D01*
X002869Y025144D02*
X009672Y025144D01*
X009672Y025262D02*
X002869Y025262D01*
X002869Y025381D02*
X009672Y025381D01*
X009672Y025499D02*
X002869Y025499D01*
X002869Y025618D02*
X009672Y025618D01*
X009672Y025736D02*
X002869Y025736D01*
X002869Y025855D02*
X009672Y025855D01*
X009672Y025973D02*
X002869Y025973D01*
X002869Y026092D02*
X009672Y026092D01*
X009672Y026211D02*
X002869Y026211D01*
X002869Y026329D02*
X009672Y026329D01*
X009672Y026448D02*
X002869Y026448D01*
X002869Y026566D02*
X009672Y026566D01*
X009672Y026685D02*
X002869Y026685D01*
X002869Y026803D02*
X009672Y026803D01*
X009672Y026922D02*
X002869Y026922D01*
X002869Y027040D02*
X009672Y027040D01*
X009672Y027159D02*
X002869Y027159D01*
X002869Y027277D02*
X009672Y027277D01*
X009672Y027396D02*
X002869Y027396D01*
X002869Y027515D02*
X009672Y027515D01*
X009672Y027633D02*
X002869Y027633D01*
X002869Y027752D02*
X009672Y027752D01*
X009672Y027870D02*
X002869Y027870D01*
X002869Y027989D02*
X009672Y027989D01*
X009672Y028107D02*
X002869Y028107D01*
X002869Y028226D02*
X009672Y028226D01*
X009672Y028344D02*
X002869Y028344D01*
X002869Y028463D02*
X009672Y028463D01*
X009672Y028581D02*
X002869Y028581D01*
X002869Y028700D02*
X009672Y028700D01*
X009672Y028819D02*
X002869Y028819D01*
X002869Y028937D02*
X009672Y028937D01*
X009672Y029056D02*
X002869Y029056D01*
X002869Y029174D02*
X009672Y029174D01*
X009672Y029293D02*
X002869Y029293D01*
X002869Y029411D02*
X009672Y029411D01*
X009672Y029530D02*
X007646Y029530D01*
X007566Y029450D02*
X007812Y029696D01*
X007812Y029850D01*
X007412Y029850D01*
X007412Y029890D01*
X007812Y029890D01*
X007812Y030044D01*
X007566Y030290D01*
X007412Y030290D01*
X007412Y029890D01*
X007372Y029890D01*
X007372Y030290D01*
X007218Y030290D01*
X006972Y030044D01*
X006972Y029890D01*
X007371Y029890D01*
X007371Y029850D01*
X006972Y029850D01*
X006972Y029696D01*
X007218Y029450D01*
X007372Y029450D01*
X007372Y029849D01*
X007412Y029849D01*
X007412Y029450D01*
X007566Y029450D01*
X007764Y029648D02*
X009583Y029648D01*
X009465Y029767D02*
X007812Y029767D01*
X007812Y030004D02*
X009228Y030004D01*
X009346Y029885D02*
X007412Y029885D01*
X007371Y029885D02*
X005301Y029885D01*
X005301Y029889D02*
X005700Y029889D01*
X005700Y030043D01*
X005454Y030289D01*
X005300Y030289D01*
X005300Y029889D01*
X005260Y029889D01*
X005260Y029849D01*
X004860Y029849D01*
X004860Y029695D01*
X005106Y029449D01*
X005260Y029449D01*
X005260Y029848D01*
X005300Y029848D01*
X005300Y029449D01*
X005454Y029449D01*
X005700Y029695D01*
X005700Y029849D01*
X005301Y029849D01*
X005301Y029889D01*
X005260Y029889D02*
X005260Y030289D01*
X005106Y030289D01*
X004860Y030043D01*
X004860Y029889D01*
X005260Y029889D01*
X005260Y029885D02*
X003235Y029885D01*
X003353Y030004D02*
X004860Y030004D01*
X004940Y030122D02*
X003472Y030122D01*
X003590Y030241D02*
X005059Y030241D01*
X004930Y030597D02*
X003946Y030597D01*
X003116Y029767D02*
X004860Y029767D01*
X004907Y029648D02*
X002997Y029648D01*
X002879Y029530D02*
X005025Y029530D01*
X005260Y029530D02*
X005300Y029530D01*
X005300Y029648D02*
X005260Y029648D01*
X005260Y029767D02*
X005300Y029767D01*
X005300Y030004D02*
X005260Y030004D01*
X005260Y030122D02*
X005300Y030122D01*
X005300Y030241D02*
X005260Y030241D01*
X005502Y030241D02*
X007169Y030241D01*
X007051Y030122D02*
X005621Y030122D01*
X005700Y030004D02*
X006972Y030004D01*
X006972Y029767D02*
X005700Y029767D01*
X005654Y029648D02*
X007019Y029648D01*
X007138Y029530D02*
X005535Y029530D01*
X005512Y030478D02*
X007161Y030478D01*
X007043Y030597D02*
X005631Y030597D01*
X005720Y030715D02*
X006952Y030715D01*
X006952Y030834D02*
X005720Y030834D01*
X005720Y030952D02*
X006952Y030952D01*
X006971Y031071D02*
X005700Y031071D01*
X005636Y031189D02*
X006980Y031189D01*
X006980Y031308D02*
X005636Y031308D01*
X005636Y031426D02*
X006980Y031426D01*
X006980Y031545D02*
X005636Y031545D01*
X005636Y031664D02*
X006980Y031664D01*
X006980Y031782D02*
X005636Y031782D01*
X005636Y031901D02*
X006980Y031901D01*
X006980Y032019D02*
X005636Y032019D01*
X005636Y032138D02*
X006980Y032138D01*
X006980Y032256D02*
X005636Y032256D01*
X005713Y032375D02*
X006903Y032375D01*
X006843Y032493D02*
X005773Y032493D01*
X005798Y032612D02*
X006818Y032612D01*
X006819Y032730D02*
X005798Y032730D01*
X005748Y032849D02*
X006868Y032849D01*
X006962Y032968D02*
X005654Y032968D01*
X007392Y030870D02*
X008701Y030870D01*
X008991Y030241D02*
X007614Y030241D01*
X007733Y030122D02*
X009109Y030122D01*
X007412Y030122D02*
X007372Y030122D01*
X007372Y030004D02*
X007412Y030004D01*
X007412Y030241D02*
X007372Y030241D01*
X007372Y029767D02*
X007412Y029767D01*
X007412Y029648D02*
X007372Y029648D01*
X007372Y029530D02*
X007412Y029530D01*
X003428Y021587D02*
X003047Y021587D01*
X003166Y021469D02*
X003305Y021469D01*
X001676Y004991D02*
X005185Y004991D01*
X005185Y004873D02*
X001786Y004873D01*
X001835Y004754D02*
X005185Y004754D01*
X005185Y004636D02*
X001864Y004636D01*
X001864Y004517D02*
X005185Y004517D01*
X005185Y004399D02*
X001836Y004399D01*
X001787Y004280D02*
X005185Y004280D01*
X005185Y004161D02*
X001677Y004161D01*
X001624Y004043D02*
X005185Y004043D01*
X005185Y003924D02*
X001743Y003924D01*
X001814Y003806D02*
X005185Y003806D01*
X005185Y003687D02*
X001863Y003687D01*
X001864Y003569D02*
X005185Y003569D01*
X005115Y003450D02*
X001857Y003450D01*
X001808Y003332D02*
X005077Y003332D01*
X005077Y003213D02*
X001729Y003213D01*
X001589Y003095D02*
X005122Y003095D01*
X005185Y002976D02*
X001692Y002976D01*
X001793Y002858D02*
X005185Y002858D01*
X005185Y002739D02*
X001842Y002739D01*
X001864Y002620D02*
X005185Y002620D01*
X005185Y002502D02*
X001864Y002502D01*
X001830Y002383D02*
X005149Y002383D01*
X005031Y002265D02*
X001780Y002265D01*
X001662Y002146D02*
X004981Y002146D01*
X004963Y002028D02*
X001640Y002028D01*
X001759Y001909D02*
X004971Y001909D01*
X005020Y001791D02*
X001820Y001791D01*
X001864Y001672D02*
X005124Y001672D01*
D11*
X005403Y002015D03*
X007303Y002015D03*
X007258Y032642D03*
X005358Y032642D03*
D12*
X005280Y030869D03*
X005280Y029869D03*
X007392Y029870D03*
X007392Y030870D03*
D13*
X011314Y032576D03*
X001314Y032576D03*
D14*
X001314Y031576D03*
X001314Y030576D03*
X001314Y029576D03*
X001314Y028576D03*
X001314Y027576D03*
X001314Y026576D03*
X001314Y025576D03*
X001314Y024576D03*
X001314Y023576D03*
X001314Y022576D03*
X001314Y021576D03*
X001314Y020576D03*
X001314Y019576D03*
X001314Y018576D03*
X001314Y017576D03*
X001314Y016576D03*
X001314Y015576D03*
X001314Y014576D03*
X001314Y013576D03*
X001314Y012576D03*
X001314Y011576D03*
X001314Y010576D03*
X001314Y009576D03*
X001314Y008576D03*
X001314Y007576D03*
X001314Y006576D03*
X001314Y005576D03*
X001314Y004576D03*
X001314Y003576D03*
X001314Y002576D03*
X001314Y001576D03*
X011314Y001576D03*
X011314Y002576D03*
X011314Y003576D03*
X011314Y004576D03*
X011314Y005576D03*
X011314Y006576D03*
X011314Y007576D03*
X011314Y008576D03*
X011314Y009576D03*
X011314Y010576D03*
X011314Y011576D03*
X011314Y012576D03*
X011314Y013576D03*
X011314Y014576D03*
X011314Y015576D03*
X011314Y016576D03*
X011314Y017576D03*
X011314Y018576D03*
X011314Y019576D03*
X011314Y020576D03*
X011314Y021576D03*
X011314Y022576D03*
X011314Y023576D03*
X011314Y024576D03*
X011314Y025576D03*
X011314Y026576D03*
X011314Y027576D03*
X011314Y028576D03*
X011314Y029576D03*
X011314Y030576D03*
X011314Y031576D03*
D15*
X007392Y030870D02*
X007258Y031003D01*
X007258Y032642D01*
X005358Y032642D02*
X005358Y030946D01*
X005280Y030869D01*
X004570Y011576D02*
X001314Y011576D01*
X001314Y010576D02*
X003877Y010576D01*
X005464Y008989D01*
X005464Y003281D01*
X005464Y002075D01*
X005403Y002015D01*
X007275Y002044D02*
X007303Y002015D01*
X007275Y002044D02*
X007275Y003241D01*
X007275Y008871D01*
X004570Y011576D01*
D16*
X005464Y003281D03*
X007275Y003241D03*
D17*
X009619Y018850D03*
D18*
X010011Y021273D03*
X009991Y013891D03*
X009991Y008911D03*
X009991Y006903D03*
X003613Y021277D03*
X002511Y008753D03*
D19*
X006359Y005810D03*
D20*
X009991Y006903D02*
X009991Y008911D01*
X009991Y013891D01*
X009991Y021253D01*
X010011Y021273D01*
M02*
