G75*
G70*
%OFA0B0*%
%FSLAX24Y24*%
%IPPOS*%
%LPD*%
%AMOC8*
5,1,8,0,0,1.08239X$1,22.5*
%
%ADD10C,0.0120*%
%ADD11C,0.0560*%
%ADD12R,0.0434X0.0473*%
%ADD13OC8,0.0560*%
%ADD14C,0.0138*%
%ADD15C,0.0080*%
%ADD16R,0.0780X0.0780*%
%ADD17C,0.0780*%
D10*
X000503Y000170D02*
X012157Y000170D01*
X012157Y034344D01*
X000503Y034344D01*
X000503Y000170D01*
D11*
X005403Y002015D03*
X007303Y002015D03*
X007258Y032642D03*
X005358Y032642D03*
D12*
X005442Y004519D03*
X005442Y003850D03*
X007288Y003866D03*
X007288Y004535D03*
D13*
X007392Y029870D03*
X007392Y030870D03*
X005280Y030869D03*
X005280Y029869D03*
D14*
X006106Y019372D02*
X006188Y019290D01*
X006049Y019151D02*
X005967Y019233D01*
X005828Y019093D02*
X005910Y019011D01*
X005770Y018872D02*
X005688Y018954D01*
X005549Y018815D02*
X005631Y018733D01*
X005492Y018594D02*
X005410Y018676D01*
X005271Y018537D02*
X005353Y018455D01*
X005214Y018315D02*
X005132Y018397D01*
X004992Y018258D02*
X005074Y018176D01*
X004935Y018037D02*
X004853Y018119D01*
X004714Y017980D02*
X004796Y017898D01*
X004657Y017759D02*
X004575Y017841D01*
X004436Y017702D02*
X004518Y017620D01*
X004378Y017480D02*
X004296Y017562D01*
X004157Y017423D02*
X004239Y017341D01*
X004100Y017202D02*
X004018Y017284D01*
X004100Y016950D02*
X004018Y016868D01*
X004157Y016729D02*
X004239Y016811D01*
X004378Y016671D02*
X004296Y016589D01*
X004436Y016450D02*
X004518Y016532D01*
X004657Y016393D02*
X004575Y016311D01*
X004714Y016172D02*
X004796Y016254D01*
X004935Y016115D02*
X004853Y016033D01*
X004992Y015893D02*
X005074Y015975D01*
X005214Y015836D02*
X005132Y015754D01*
X005271Y015615D02*
X005353Y015697D01*
X005492Y015558D02*
X005410Y015476D01*
X005549Y015337D02*
X005631Y015419D01*
X005770Y015280D02*
X005688Y015198D01*
X005828Y015058D02*
X005910Y015140D01*
X006049Y015001D02*
X005967Y014919D01*
X006106Y014780D02*
X006188Y014862D01*
X006440Y014862D02*
X006522Y014780D01*
X006661Y014919D02*
X006579Y015001D01*
X006718Y015140D02*
X006800Y015058D01*
X006940Y015198D02*
X006858Y015280D01*
X006997Y015419D02*
X007079Y015337D01*
X007218Y015476D02*
X007136Y015558D01*
X007275Y015697D02*
X007357Y015615D01*
X007496Y015754D02*
X007414Y015836D01*
X007554Y015975D02*
X007636Y015893D01*
X007775Y016033D02*
X007693Y016115D01*
X007832Y016254D02*
X007914Y016172D01*
X008053Y016311D02*
X007971Y016393D01*
X008110Y016532D02*
X008192Y016450D01*
X008332Y016589D02*
X008250Y016671D01*
X008389Y016811D02*
X008471Y016729D01*
X008610Y016868D02*
X008528Y016950D01*
X008528Y017202D02*
X008610Y017284D01*
X008471Y017423D02*
X008389Y017341D01*
X008250Y017480D02*
X008332Y017562D01*
X008192Y017702D02*
X008110Y017620D01*
X007971Y017759D02*
X008053Y017841D01*
X007914Y017980D02*
X007832Y017898D01*
X007693Y018037D02*
X007775Y018119D01*
X007636Y018258D02*
X007554Y018176D01*
X007414Y018315D02*
X007496Y018397D01*
X007357Y018537D02*
X007275Y018455D01*
X007136Y018594D02*
X007218Y018676D01*
X007079Y018815D02*
X006997Y018733D01*
X006858Y018872D02*
X006940Y018954D01*
X006800Y019093D02*
X006718Y019011D01*
X006579Y019151D02*
X006661Y019233D01*
X006522Y019372D02*
X006440Y019290D01*
D15*
X006411Y018955D02*
X006217Y018955D01*
X004337Y017076D01*
X006314Y015099D01*
X008291Y017076D01*
X006411Y018955D01*
X006464Y018903D02*
X006164Y018903D01*
X006086Y018824D02*
X006542Y018824D01*
X006621Y018746D02*
X006007Y018746D01*
X005929Y018667D02*
X006699Y018667D01*
X006778Y018589D02*
X005850Y018589D01*
X005772Y018510D02*
X006856Y018510D01*
X006935Y018432D02*
X005693Y018432D01*
X005615Y018353D02*
X007013Y018353D01*
X007092Y018275D02*
X005536Y018275D01*
X005458Y018196D02*
X007170Y018196D01*
X007249Y018117D02*
X005379Y018117D01*
X005300Y018039D02*
X007328Y018039D01*
X007406Y017960D02*
X005222Y017960D01*
X005143Y017882D02*
X007485Y017882D01*
X007563Y017803D02*
X005065Y017803D01*
X004986Y017725D02*
X007642Y017725D01*
X007720Y017646D02*
X004908Y017646D01*
X004829Y017568D02*
X007799Y017568D01*
X007877Y017489D02*
X004751Y017489D01*
X004672Y017411D02*
X007956Y017411D01*
X008034Y017332D02*
X004594Y017332D01*
X004515Y017253D02*
X008113Y017253D01*
X008191Y017175D02*
X004436Y017175D01*
X004358Y017096D02*
X008270Y017096D01*
X008233Y017018D02*
X004396Y017018D01*
X004474Y016939D02*
X008154Y016939D01*
X008075Y016861D02*
X004553Y016861D01*
X004631Y016782D02*
X007997Y016782D01*
X007918Y016704D02*
X004710Y016704D01*
X004788Y016625D02*
X007840Y016625D01*
X007761Y016547D02*
X004867Y016547D01*
X004945Y016468D02*
X007683Y016468D01*
X007604Y016389D02*
X005024Y016389D01*
X005102Y016311D02*
X007526Y016311D01*
X007447Y016232D02*
X005181Y016232D01*
X005259Y016154D02*
X007369Y016154D01*
X007290Y016075D02*
X005338Y016075D01*
X005417Y015997D02*
X007211Y015997D01*
X007133Y015918D02*
X005495Y015918D01*
X005574Y015840D02*
X007054Y015840D01*
X006976Y015761D02*
X005652Y015761D01*
X005731Y015683D02*
X006897Y015683D01*
X006819Y015604D02*
X005809Y015604D01*
X005888Y015526D02*
X006740Y015526D01*
X006662Y015447D02*
X005966Y015447D01*
X006045Y015368D02*
X006583Y015368D01*
X006505Y015290D02*
X006123Y015290D01*
X006202Y015211D02*
X006426Y015211D01*
X006347Y015133D02*
X006281Y015133D01*
D16*
X001314Y032576D03*
X011314Y032576D03*
D17*
X011314Y031576D03*
X011314Y030576D03*
X011314Y029576D03*
X011314Y028576D03*
X011314Y027576D03*
X011314Y026576D03*
X011314Y025576D03*
X011314Y024576D03*
X011314Y023576D03*
X011314Y022576D03*
X011314Y021576D03*
X011314Y020576D03*
X011314Y019576D03*
X011314Y018576D03*
X011314Y017576D03*
X011314Y016576D03*
X011314Y015576D03*
X011314Y014576D03*
X011314Y013576D03*
X011314Y012576D03*
X011314Y011576D03*
X011314Y010576D03*
X011314Y009576D03*
X011314Y008576D03*
X011314Y007576D03*
X011314Y006576D03*
X011314Y005576D03*
X011314Y004576D03*
X011314Y003576D03*
X011314Y002576D03*
X011314Y001576D03*
X001314Y001576D03*
X001314Y002576D03*
X001314Y003576D03*
X001314Y004576D03*
X001314Y005576D03*
X001314Y006576D03*
X001314Y007576D03*
X001314Y008576D03*
X001314Y009576D03*
X001314Y010576D03*
X001314Y011576D03*
X001314Y012576D03*
X001314Y013576D03*
X001314Y014576D03*
X001314Y015576D03*
X001314Y016576D03*
X001314Y017576D03*
X001314Y018576D03*
X001314Y019576D03*
X001314Y020576D03*
X001314Y021576D03*
X001314Y022576D03*
X001314Y023576D03*
X001314Y024576D03*
X001314Y025576D03*
X001314Y026576D03*
X001314Y027576D03*
X001314Y028576D03*
X001314Y029576D03*
X001314Y030576D03*
X001314Y031576D03*
M02*
