%
M48
M72
T01C0.0197
T02C0.0236
T03C0.0276
T04C0.0315
T05C0.0320
T06C0.0400
%
T01
X9619Y18850
T02
X9991Y6903
X9991Y8911
X9991Y13891
X10011Y21273
X3613Y21277
X2511Y8753
T03
X7275Y3241
X5464Y3281
T04
X6359Y5810
T05
X7303Y2015
X5403Y2015
X5280Y29869
X5280Y30869
X5358Y32642
X7258Y32642
X7392Y30870
X7392Y29870
T06
X11314Y1576
X11314Y2576
X11314Y3576
X11314Y4576
X11314Y5576
X11314Y6576
X11314Y7576
X11314Y8576
X11314Y9576
X11314Y10576
X11314Y11576
X11314Y12576
X11314Y13576
X11314Y14576
X11314Y15576
X11314Y16576
X11314Y17576
X11314Y18576
X11314Y19576
X11314Y20576
X11314Y21576
X11314Y22576
X11314Y23576
X11314Y24576
X11314Y25576
X11314Y26576
X11314Y27576
X11314Y28576
X11314Y29576
X11314Y30576
X11314Y31576
X11314Y32576
X1314Y32576
X1314Y31576
X1314Y30576
X1314Y29576
X1314Y28576
X1314Y27576
X1314Y26576
X1314Y25576
X1314Y24576
X1314Y23576
X1314Y22576
X1314Y21576
X1314Y20576
X1314Y19576
X1314Y18576
X1314Y17576
X1314Y16576
X1314Y15576
X1314Y14576
X1314Y13576
X1314Y12576
X1314Y11576
X1314Y10576
X1314Y9576
X1314Y8576
X1314Y7576
X1314Y6576
X1314Y5576
X1314Y4576
X1314Y3576
X1314Y2576
X1314Y1576
M30
