G75*
G70*
%OFA0B0*%
%FSLAX24Y24*%
%IPPOS*%
%LPD*%
%AMOC8*
5,1,8,0,0,1.08239X$1,22.5*
%
%ADD10C,0.0120*%
%ADD11C,0.0560*%
%ADD12OC8,0.0560*%
%ADD13R,0.0780X0.0780*%
%ADD14C,0.0780*%
D10*
X000503Y000170D02*
X012157Y000170D01*
X012157Y034344D01*
X000503Y034344D01*
X000503Y000170D01*
D11*
X005403Y002015D03*
X007303Y002015D03*
X007258Y032642D03*
X005358Y032642D03*
D12*
X005280Y030869D03*
X005280Y029869D03*
X007392Y029870D03*
X007392Y030870D03*
D13*
X011314Y032576D03*
X001314Y032576D03*
D14*
X001314Y031576D03*
X001314Y030576D03*
X001314Y029576D03*
X001314Y028576D03*
X001314Y027576D03*
X001314Y026576D03*
X001314Y025576D03*
X001314Y024576D03*
X001314Y023576D03*
X001314Y022576D03*
X001314Y021576D03*
X001314Y020576D03*
X001314Y019576D03*
X001314Y018576D03*
X001314Y017576D03*
X001314Y016576D03*
X001314Y015576D03*
X001314Y014576D03*
X001314Y013576D03*
X001314Y012576D03*
X001314Y011576D03*
X001314Y010576D03*
X001314Y009576D03*
X001314Y008576D03*
X001314Y007576D03*
X001314Y006576D03*
X001314Y005576D03*
X001314Y004576D03*
X001314Y003576D03*
X001314Y002576D03*
X001314Y001576D03*
X011314Y001576D03*
X011314Y002576D03*
X011314Y003576D03*
X011314Y004576D03*
X011314Y005576D03*
X011314Y006576D03*
X011314Y007576D03*
X011314Y008576D03*
X011314Y009576D03*
X011314Y010576D03*
X011314Y011576D03*
X011314Y012576D03*
X011314Y013576D03*
X011314Y014576D03*
X011314Y015576D03*
X011314Y016576D03*
X011314Y017576D03*
X011314Y018576D03*
X011314Y019576D03*
X011314Y020576D03*
X011314Y021576D03*
X011314Y022576D03*
X011314Y023576D03*
X011314Y024576D03*
X011314Y025576D03*
X011314Y026576D03*
X011314Y027576D03*
X011314Y028576D03*
X011314Y029576D03*
X011314Y030576D03*
X011314Y031576D03*
M02*
