G75*
G70*
%OFA0B0*%
%FSLAX24Y24*%
%IPPOS*%
%LPD*%
%AMOC8*
5,1,8,0,0,1.08239X$1,22.5*
%
%ADD10C,0.0030*%
%ADD11C,0.0020*%
%ADD12C,0.0120*%
%ADD13C,0.0080*%
%ADD14C,0.0040*%
%ADD15C,0.0050*%
%ADD16C,0.0200*%
%ADD17C,0.0060*%
%ADD18R,0.0500X0.0750*%
%ADD19R,0.0300X0.0700*%
%ADD20R,0.0500X0.0300*%
%ADD21C,0.0100*%
%ADD22R,0.0340X0.0240*%
D10*
X002341Y005343D02*
X002486Y005343D01*
X002534Y005391D01*
X002534Y005439D01*
X002486Y005488D01*
X002341Y005488D01*
X002341Y005343D02*
X002341Y005633D01*
X002486Y005633D01*
X002534Y005584D01*
X002534Y005536D01*
X002486Y005488D01*
X002636Y005536D02*
X002732Y005633D01*
X002732Y005343D01*
X002636Y005343D02*
X002829Y005343D01*
X002930Y005391D02*
X002979Y005343D01*
X003075Y005343D01*
X003124Y005391D01*
X003124Y005439D01*
X003075Y005488D01*
X003027Y005488D01*
X003075Y005488D02*
X003124Y005536D01*
X003124Y005584D01*
X003075Y005633D01*
X002979Y005633D01*
X002930Y005584D01*
X002930Y006248D02*
X003124Y006442D01*
X003124Y006490D01*
X003075Y006538D01*
X002979Y006538D01*
X002930Y006490D01*
X002732Y006538D02*
X002732Y006248D01*
X002636Y006248D02*
X002829Y006248D01*
X002930Y006248D02*
X003124Y006248D01*
X002732Y006538D02*
X002636Y006442D01*
X002534Y006442D02*
X002486Y006393D01*
X002341Y006393D01*
X002341Y006248D02*
X002341Y006538D01*
X002486Y006538D01*
X002534Y006490D01*
X002534Y006442D01*
X002486Y006393D02*
X002534Y006345D01*
X002534Y006296D01*
X002486Y006248D01*
X002341Y006248D01*
X002389Y007291D02*
X002341Y007340D01*
X002389Y007291D02*
X002486Y007291D01*
X002534Y007340D01*
X002534Y007388D01*
X002486Y007436D01*
X002438Y007436D01*
X002486Y007436D02*
X002534Y007485D01*
X002534Y007533D01*
X002486Y007582D01*
X002389Y007582D01*
X002341Y007533D01*
X002636Y007340D02*
X002684Y007340D01*
X002684Y007291D01*
X002636Y007291D01*
X002636Y007340D01*
X002783Y007340D02*
X002831Y007291D01*
X002928Y007291D01*
X002976Y007340D01*
X002976Y007388D01*
X002928Y007436D01*
X002880Y007436D01*
X002928Y007436D02*
X002976Y007485D01*
X002976Y007533D01*
X002928Y007582D01*
X002831Y007582D01*
X002783Y007533D01*
X003078Y007582D02*
X003078Y007388D01*
X003174Y007291D01*
X003271Y007388D01*
X003271Y007582D01*
X003115Y010264D02*
X003018Y010264D01*
X002970Y010312D01*
X003163Y010506D01*
X003163Y010312D01*
X003115Y010264D01*
X002970Y010312D02*
X002970Y010506D01*
X003018Y010554D01*
X003115Y010554D01*
X003163Y010506D01*
X002868Y010264D02*
X002675Y010264D01*
X002772Y010264D02*
X002772Y010554D01*
X002675Y010457D01*
X002574Y010457D02*
X002525Y010409D01*
X002380Y010409D01*
X002380Y010554D02*
X002525Y010554D01*
X002574Y010506D01*
X002574Y010457D01*
X002525Y010409D02*
X002574Y010361D01*
X002574Y010312D01*
X002525Y010264D01*
X002380Y010264D01*
X002380Y010554D01*
X002459Y011346D02*
X002604Y011346D01*
X002653Y011395D01*
X002653Y011443D01*
X002604Y011492D01*
X002459Y011492D01*
X002459Y011637D02*
X002459Y011346D01*
X002604Y011492D02*
X002653Y011540D01*
X002653Y011588D01*
X002604Y011637D01*
X002459Y011637D01*
X002754Y011588D02*
X002754Y011540D01*
X002802Y011492D01*
X002947Y011492D01*
X002947Y011588D02*
X002947Y011395D01*
X002899Y011346D01*
X002802Y011346D01*
X002754Y011395D01*
X002754Y011588D02*
X002802Y011637D01*
X002899Y011637D01*
X002947Y011588D01*
X002820Y012311D02*
X002723Y012311D01*
X002675Y012359D01*
X002675Y012408D01*
X002723Y012456D01*
X002820Y012456D01*
X002868Y012408D01*
X002868Y012359D01*
X002820Y012311D01*
X002820Y012456D02*
X002868Y012505D01*
X002868Y012553D01*
X002820Y012601D01*
X002723Y012601D01*
X002675Y012553D01*
X002675Y012505D01*
X002723Y012456D01*
X002574Y012408D02*
X002574Y012359D01*
X002525Y012311D01*
X002380Y012311D01*
X002380Y012601D01*
X002525Y012601D01*
X002574Y012553D01*
X002574Y012505D01*
X002525Y012456D01*
X002380Y012456D01*
X002525Y012456D02*
X002574Y012408D01*
X002616Y013256D02*
X002616Y013546D01*
X002809Y013256D01*
X002809Y013546D01*
X002911Y013546D02*
X003056Y013546D01*
X003104Y013498D01*
X003104Y013304D01*
X003056Y013256D01*
X002911Y013256D01*
X002911Y013546D01*
X002515Y013498D02*
X002466Y013546D01*
X002370Y013546D01*
X002321Y013498D01*
X002321Y013304D01*
X002370Y013256D01*
X002466Y013256D01*
X002515Y013304D01*
X002515Y013401D01*
X002418Y013401D01*
X002429Y014378D02*
X002380Y014426D01*
X002429Y014378D02*
X002525Y014378D01*
X002574Y014426D01*
X002574Y014475D01*
X002525Y014523D01*
X002477Y014523D01*
X002525Y014523D02*
X002574Y014571D01*
X002574Y014620D01*
X002525Y014668D01*
X002429Y014668D01*
X002380Y014620D01*
X002675Y014426D02*
X002723Y014426D01*
X002723Y014378D01*
X002675Y014378D01*
X002675Y014426D01*
X002822Y014426D02*
X002871Y014378D01*
X002967Y014378D01*
X003016Y014426D01*
X003016Y014475D01*
X002967Y014523D01*
X002919Y014523D01*
X002967Y014523D02*
X003016Y014571D01*
X003016Y014620D01*
X002967Y014668D01*
X002871Y014668D01*
X002822Y014620D01*
X003117Y014668D02*
X003117Y014475D01*
X003214Y014378D01*
X003310Y014475D01*
X003310Y014668D01*
X002655Y015362D02*
X002655Y015411D01*
X002849Y015604D01*
X002849Y015652D01*
X002655Y015652D01*
X002554Y015604D02*
X002554Y015556D01*
X002506Y015507D01*
X002361Y015507D01*
X002361Y015362D02*
X002506Y015362D01*
X002554Y015411D01*
X002554Y015459D01*
X002506Y015507D01*
X002554Y015604D02*
X002506Y015652D01*
X002361Y015652D01*
X002361Y015362D01*
X002361Y016327D02*
X002506Y016327D01*
X002554Y016375D01*
X002554Y016424D01*
X002506Y016472D01*
X002361Y016472D01*
X002506Y016472D02*
X002554Y016520D01*
X002554Y016569D01*
X002506Y016617D01*
X002361Y016617D01*
X002361Y016327D01*
X002655Y016375D02*
X002704Y016327D01*
X002800Y016327D01*
X002849Y016375D01*
X002849Y016424D01*
X002800Y016472D01*
X002655Y016472D01*
X002655Y016375D01*
X002655Y016472D02*
X002752Y016569D01*
X002849Y016617D01*
X002868Y019299D02*
X002675Y019299D01*
X002868Y019493D01*
X002868Y019541D01*
X002820Y019589D01*
X002723Y019589D01*
X002675Y019541D01*
X002574Y019541D02*
X002574Y019493D01*
X002525Y019444D01*
X002380Y019444D01*
X002380Y019299D02*
X002525Y019299D01*
X002574Y019348D01*
X002574Y019396D01*
X002525Y019444D01*
X002574Y019541D02*
X002525Y019589D01*
X002380Y019589D01*
X002380Y019299D01*
X002361Y020362D02*
X002506Y020362D01*
X002554Y020411D01*
X002554Y020459D01*
X002506Y020507D01*
X002361Y020507D01*
X002361Y020362D02*
X002361Y020652D01*
X002506Y020652D01*
X002554Y020604D01*
X002554Y020556D01*
X002506Y020507D01*
X002655Y020411D02*
X002704Y020362D01*
X002800Y020362D01*
X002849Y020411D01*
X002849Y020459D01*
X002800Y020507D01*
X002752Y020507D01*
X002800Y020507D02*
X002849Y020556D01*
X002849Y020604D01*
X002800Y020652D01*
X002704Y020652D01*
X002655Y020604D01*
X002800Y021366D02*
X002800Y021656D01*
X002655Y021511D01*
X002849Y021511D01*
X002554Y021463D02*
X002554Y021415D01*
X002506Y021366D01*
X002361Y021366D01*
X002361Y021656D01*
X002506Y021656D01*
X002554Y021608D01*
X002554Y021560D01*
X002506Y021511D01*
X002361Y021511D01*
X002506Y021511D02*
X002554Y021463D01*
X002545Y022331D02*
X002400Y022331D01*
X002400Y022621D01*
X002545Y022621D01*
X002594Y022573D01*
X002594Y022524D01*
X002545Y022476D01*
X002400Y022476D01*
X002545Y022476D02*
X002594Y022427D01*
X002594Y022379D01*
X002545Y022331D01*
X002695Y022379D02*
X002743Y022331D01*
X002840Y022331D01*
X002888Y022379D01*
X002888Y022476D01*
X002840Y022524D01*
X002791Y022524D01*
X002695Y022476D01*
X002695Y022621D01*
X002888Y022621D01*
X002820Y023295D02*
X002723Y023295D01*
X002675Y023344D01*
X002574Y023344D02*
X002574Y023440D01*
X002477Y023440D01*
X002380Y023344D02*
X002429Y023295D01*
X002525Y023295D01*
X002574Y023344D01*
X002675Y023489D02*
X002723Y023440D01*
X002868Y023440D01*
X002868Y023344D02*
X002868Y023537D01*
X002820Y023586D01*
X002723Y023586D01*
X002675Y023537D01*
X002675Y023489D01*
X002574Y023537D02*
X002525Y023586D01*
X002429Y023586D01*
X002380Y023537D01*
X002380Y023344D01*
X002820Y023295D02*
X002868Y023344D01*
X002930Y024339D02*
X003124Y024339D01*
X003225Y024339D02*
X003225Y024629D01*
X003370Y024629D01*
X003418Y024580D01*
X003418Y024484D01*
X003370Y024435D01*
X003225Y024435D01*
X003322Y024435D02*
X003418Y024339D01*
X002930Y024339D02*
X002930Y024629D01*
X002829Y024580D02*
X002781Y024629D01*
X002684Y024629D01*
X002636Y024580D01*
X002636Y024387D01*
X002684Y024339D01*
X002781Y024339D01*
X002829Y024387D01*
X002534Y024339D02*
X002534Y024629D01*
X002438Y024532D01*
X002341Y024629D01*
X002341Y024339D01*
X002409Y025343D02*
X002361Y025391D01*
X002409Y025343D02*
X002506Y025343D01*
X002554Y025391D01*
X002554Y025439D01*
X002506Y025488D01*
X002457Y025488D01*
X002506Y025488D02*
X002554Y025536D01*
X002554Y025584D01*
X002506Y025633D01*
X002409Y025633D01*
X002361Y025584D01*
X002655Y025391D02*
X002704Y025391D01*
X002704Y025343D01*
X002655Y025343D01*
X002655Y025391D01*
X002803Y025391D02*
X002851Y025343D01*
X002948Y025343D01*
X002996Y025391D01*
X002996Y025439D01*
X002948Y025488D01*
X002899Y025488D01*
X002948Y025488D02*
X002996Y025536D01*
X002996Y025584D01*
X002948Y025633D01*
X002851Y025633D01*
X002803Y025584D01*
X003097Y025633D02*
X003097Y025439D01*
X003194Y025343D01*
X003291Y025439D01*
X003291Y025633D01*
X003115Y026327D02*
X003163Y026375D01*
X003163Y026569D01*
X003115Y026617D01*
X002970Y026617D01*
X002970Y026327D01*
X003115Y026327D01*
X002868Y026327D02*
X002868Y026617D01*
X002675Y026617D02*
X002675Y026327D01*
X002574Y026375D02*
X002574Y026472D01*
X002477Y026472D01*
X002380Y026569D02*
X002380Y026375D01*
X002429Y026327D01*
X002525Y026327D01*
X002574Y026375D01*
X002574Y026569D02*
X002525Y026617D01*
X002429Y026617D01*
X002380Y026569D01*
X002675Y026617D02*
X002868Y026327D01*
X002859Y027331D02*
X002763Y027331D01*
X002714Y027379D01*
X002714Y027427D01*
X002763Y027476D01*
X002859Y027476D01*
X002908Y027427D01*
X002908Y027379D01*
X002859Y027331D01*
X002859Y027476D02*
X002908Y027524D01*
X002908Y027573D01*
X002859Y027621D01*
X002763Y027621D01*
X002714Y027573D01*
X002714Y027524D01*
X002763Y027476D01*
X002613Y027476D02*
X002613Y027379D01*
X002565Y027331D01*
X002468Y027331D01*
X002420Y027379D01*
X002420Y027573D01*
X002468Y027621D01*
X002565Y027621D01*
X002613Y027573D01*
X002613Y027476D02*
X002516Y027476D01*
X002525Y028335D02*
X002574Y028383D01*
X002574Y028480D01*
X002477Y028480D01*
X002380Y028577D02*
X002380Y028383D01*
X002429Y028335D01*
X002525Y028335D01*
X002675Y028335D02*
X002675Y028383D01*
X002868Y028577D01*
X002868Y028625D01*
X002675Y028625D01*
X002574Y028577D02*
X002525Y028625D01*
X002429Y028625D01*
X002380Y028577D01*
X002448Y029299D02*
X002545Y029299D01*
X002594Y029348D01*
X002594Y029444D01*
X002497Y029444D01*
X002400Y029348D02*
X002400Y029541D01*
X002448Y029589D01*
X002545Y029589D01*
X002594Y029541D01*
X002695Y029444D02*
X002840Y029444D01*
X002888Y029396D01*
X002888Y029348D01*
X002840Y029299D01*
X002743Y029299D01*
X002695Y029348D01*
X002695Y029444D01*
X002791Y029541D01*
X002888Y029589D01*
X002448Y029299D02*
X002400Y029348D01*
X002361Y030303D02*
X002554Y030303D01*
X002655Y030303D02*
X002655Y030352D01*
X002849Y030545D01*
X002849Y030593D01*
X002655Y030593D01*
X002554Y030593D02*
X002361Y030593D01*
X002361Y030303D01*
X002361Y030448D02*
X002457Y030448D01*
X002361Y031287D02*
X002554Y031287D01*
X002655Y031336D02*
X002655Y031433D01*
X002800Y031433D01*
X002849Y031384D01*
X002849Y031336D01*
X002800Y031287D01*
X002704Y031287D01*
X002655Y031336D01*
X002655Y031433D02*
X002752Y031529D01*
X002849Y031578D01*
X002554Y031578D02*
X002361Y031578D01*
X002361Y031287D01*
X002361Y031433D02*
X002457Y031433D01*
X002361Y032272D02*
X002554Y032272D01*
X002655Y032320D02*
X002704Y032272D01*
X002800Y032272D01*
X002849Y032320D01*
X002849Y032417D01*
X002800Y032465D01*
X002752Y032465D01*
X002655Y032417D01*
X002655Y032562D01*
X002849Y032562D01*
X002554Y032562D02*
X002361Y032562D01*
X002361Y032272D01*
X002361Y032417D02*
X002457Y032417D01*
X006735Y026756D02*
X006735Y026386D01*
X006735Y026509D02*
X006920Y026509D01*
X006982Y026571D01*
X006982Y026694D01*
X006920Y026756D01*
X006735Y026756D01*
X007103Y026756D02*
X007226Y026756D01*
X007165Y026756D02*
X007165Y026386D01*
X007226Y026386D02*
X007103Y026386D01*
X007349Y026448D02*
X007410Y026386D01*
X007534Y026386D01*
X007595Y026448D01*
X007717Y026448D02*
X007779Y026386D01*
X007902Y026386D01*
X007964Y026448D01*
X007964Y026509D01*
X007902Y026571D01*
X007840Y026571D01*
X007902Y026571D02*
X007964Y026633D01*
X007964Y026694D01*
X007902Y026756D01*
X007779Y026756D01*
X007717Y026694D01*
X007595Y026694D02*
X007534Y026756D01*
X007410Y026756D01*
X007349Y026694D01*
X007349Y026448D01*
X007349Y025890D02*
X007534Y025890D01*
X007595Y025828D01*
X007595Y025705D01*
X007534Y025643D01*
X007349Y025643D01*
X007349Y025520D02*
X007349Y025890D01*
X007226Y025890D02*
X007103Y025890D01*
X007165Y025890D02*
X007165Y025520D01*
X007226Y025520D02*
X007103Y025520D01*
X006982Y025581D02*
X006982Y025828D01*
X006920Y025890D01*
X006735Y025890D01*
X006735Y025520D01*
X006920Y025520D01*
X006982Y025581D01*
X006920Y025063D02*
X006796Y025063D01*
X006735Y025002D01*
X006735Y024940D01*
X006796Y024878D01*
X006920Y024878D01*
X006982Y024816D01*
X006982Y024755D01*
X006920Y024693D01*
X006796Y024693D01*
X006735Y024755D01*
X006982Y025002D02*
X006920Y025063D01*
X007103Y024940D02*
X007103Y024755D01*
X007165Y024693D01*
X007350Y024693D01*
X007350Y024940D01*
X007471Y024940D02*
X007533Y024940D01*
X007595Y024878D01*
X007656Y024940D01*
X007718Y024878D01*
X007718Y024693D01*
X007840Y024693D02*
X007840Y024940D01*
X007901Y024940D01*
X007963Y024878D01*
X008025Y024940D01*
X008086Y024878D01*
X008086Y024693D01*
X007963Y024693D02*
X007963Y024878D01*
X008208Y024878D02*
X008208Y024755D01*
X008270Y024693D01*
X008393Y024693D01*
X008455Y024816D02*
X008208Y024816D01*
X008208Y024878D02*
X008270Y024940D01*
X008393Y024940D01*
X008455Y024878D01*
X008455Y024816D01*
X008576Y024816D02*
X008700Y024940D01*
X008761Y024940D01*
X008576Y024940D02*
X008576Y024693D01*
X009251Y024693D02*
X009498Y024940D01*
X009498Y025002D01*
X009437Y025063D01*
X009313Y025063D01*
X009251Y025002D01*
X009251Y024693D02*
X009498Y024693D01*
X009620Y024755D02*
X009867Y025002D01*
X009867Y024755D01*
X009805Y024693D01*
X009681Y024693D01*
X009620Y024755D01*
X009620Y025002D01*
X009681Y025063D01*
X009805Y025063D01*
X009867Y025002D01*
X009988Y024940D02*
X010111Y025063D01*
X010111Y024693D01*
X009988Y024693D02*
X010235Y024693D01*
X010356Y024755D02*
X010418Y024693D01*
X010541Y024693D01*
X010603Y024755D01*
X010603Y024878D01*
X010541Y024940D01*
X010480Y024940D01*
X010356Y024878D01*
X010356Y025063D01*
X010603Y025063D01*
X010664Y025520D02*
X010479Y025520D01*
X010479Y025890D01*
X010664Y025890D01*
X010726Y025828D01*
X010726Y025767D01*
X010664Y025705D01*
X010479Y025705D01*
X010664Y025705D02*
X010726Y025643D01*
X010726Y025581D01*
X010664Y025520D01*
X010847Y025581D02*
X010909Y025520D01*
X011033Y025520D01*
X011094Y025581D01*
X011094Y025705D01*
X011033Y025767D01*
X010909Y025767D01*
X010847Y025705D01*
X010847Y025581D01*
X011216Y025581D02*
X011277Y025643D01*
X011463Y025643D01*
X011463Y025705D02*
X011463Y025520D01*
X011277Y025520D01*
X011216Y025581D01*
X011277Y025767D02*
X011401Y025767D01*
X011463Y025705D01*
X011584Y025767D02*
X011584Y025520D01*
X011584Y025643D02*
X011707Y025767D01*
X011769Y025767D01*
X011891Y025705D02*
X011953Y025767D01*
X012138Y025767D01*
X012138Y025890D02*
X012138Y025520D01*
X011953Y025520D01*
X011891Y025581D01*
X011891Y025705D01*
X011830Y026386D02*
X011768Y026448D01*
X012015Y026694D01*
X012015Y026448D01*
X011953Y026386D01*
X011830Y026386D01*
X011768Y026448D02*
X011768Y026694D01*
X011830Y026756D01*
X011953Y026756D01*
X012015Y026694D01*
X012136Y026571D02*
X012322Y026571D01*
X012383Y026509D01*
X012383Y026448D01*
X012322Y026386D01*
X012198Y026386D01*
X012136Y026448D01*
X012136Y026571D01*
X012260Y026694D01*
X012383Y026756D01*
X012505Y026571D02*
X012752Y026571D01*
X012690Y026386D02*
X012690Y026756D01*
X012505Y026571D01*
X011647Y026571D02*
X011523Y026571D01*
X011647Y026571D02*
X011647Y026448D01*
X011585Y026386D01*
X011462Y026386D01*
X011400Y026448D01*
X011400Y026694D01*
X011462Y026756D01*
X011585Y026756D01*
X011647Y026694D01*
X011278Y026694D02*
X011217Y026756D01*
X011093Y026756D01*
X011032Y026694D01*
X011032Y026448D01*
X011093Y026386D01*
X011217Y026386D01*
X011278Y026448D01*
X010910Y026386D02*
X010663Y026386D01*
X010663Y026756D01*
X010910Y026756D01*
X010787Y026571D02*
X010663Y026571D01*
X010542Y026571D02*
X010295Y026571D01*
X010480Y026756D01*
X010480Y026386D01*
X010174Y026386D02*
X009927Y026386D01*
X010174Y026633D01*
X010174Y026694D01*
X010112Y026756D01*
X009988Y026756D01*
X009927Y026694D01*
X009805Y026694D02*
X009744Y026756D01*
X009620Y026756D01*
X009558Y026694D01*
X009558Y026448D01*
X009805Y026694D01*
X009805Y026448D01*
X009744Y026386D01*
X009620Y026386D01*
X009558Y026448D01*
X009437Y026386D02*
X009190Y026386D01*
X009069Y026386D02*
X008822Y026386D01*
X008822Y026448D01*
X009069Y026694D01*
X009069Y026756D01*
X008822Y026756D01*
X008700Y026756D02*
X008700Y026386D01*
X008577Y026633D02*
X008700Y026756D01*
X008577Y026633D02*
X008453Y026756D01*
X008453Y026386D01*
X008332Y026386D02*
X008085Y026386D01*
X008332Y026633D01*
X008332Y026694D01*
X008270Y026756D01*
X008147Y026756D01*
X008085Y026694D01*
X008147Y025890D02*
X008085Y025828D01*
X008085Y025767D01*
X008147Y025705D01*
X008270Y025705D01*
X008332Y025643D01*
X008332Y025581D01*
X008270Y025520D01*
X008147Y025520D01*
X008085Y025581D01*
X008147Y025890D02*
X008270Y025890D01*
X008332Y025828D01*
X008453Y025705D02*
X008453Y025581D01*
X008515Y025520D01*
X008639Y025520D01*
X008700Y025581D01*
X008700Y025705D01*
X008639Y025767D01*
X008515Y025767D01*
X008453Y025705D01*
X008822Y025705D02*
X008822Y025581D01*
X008883Y025520D01*
X009069Y025520D01*
X009190Y025520D02*
X009190Y025890D01*
X009069Y025767D02*
X008883Y025767D01*
X008822Y025705D01*
X009190Y025643D02*
X009375Y025767D01*
X009497Y025705D02*
X009559Y025767D01*
X009682Y025767D01*
X009744Y025705D01*
X009744Y025643D01*
X009497Y025643D01*
X009497Y025581D02*
X009497Y025705D01*
X009497Y025581D02*
X009559Y025520D01*
X009682Y025520D01*
X009927Y025581D02*
X009927Y025828D01*
X009865Y025767D02*
X009989Y025767D01*
X009927Y025581D02*
X009989Y025520D01*
X009375Y025520D02*
X009190Y025643D01*
X009313Y026386D02*
X009313Y026756D01*
X009190Y026633D01*
X007595Y024878D02*
X007595Y024693D01*
X007471Y024693D02*
X007471Y024940D01*
X012730Y028452D02*
X012977Y028452D01*
X012853Y028452D02*
X012853Y028823D01*
X012730Y028699D01*
X013098Y028761D02*
X013098Y028514D01*
X013345Y028761D01*
X013345Y028514D01*
X013283Y028452D01*
X013160Y028452D01*
X013098Y028514D01*
X013098Y028761D02*
X013160Y028823D01*
X013283Y028823D01*
X013345Y028761D01*
X013467Y028699D02*
X013467Y028514D01*
X013528Y028452D01*
X013713Y028452D01*
X013713Y028699D01*
X013835Y028638D02*
X013958Y028638D01*
X013835Y028452D02*
X013835Y028823D01*
X014082Y028823D01*
X015967Y029136D02*
X015967Y029233D01*
X016015Y029281D01*
X016209Y029088D01*
X016257Y029136D01*
X016257Y029233D01*
X016209Y029281D01*
X016015Y029281D01*
X015967Y029136D02*
X016015Y029088D01*
X016209Y029088D01*
X016209Y029382D02*
X016209Y029431D01*
X016257Y029431D01*
X016257Y029382D01*
X016209Y029382D01*
X016257Y029529D02*
X016257Y029723D01*
X016257Y029626D02*
X015967Y029626D01*
X016064Y029529D01*
X016064Y029824D02*
X016209Y029824D01*
X016257Y029872D01*
X016257Y030018D01*
X016064Y030018D01*
X016112Y030119D02*
X016112Y030216D01*
X015967Y030312D02*
X015967Y030119D01*
X016257Y030119D01*
X016896Y030264D02*
X017090Y030264D01*
X017191Y030264D02*
X017384Y030457D01*
X017384Y030506D01*
X017336Y030554D01*
X017239Y030554D01*
X017191Y030506D01*
X017090Y030554D02*
X016896Y030554D01*
X016896Y030264D01*
X016896Y030409D02*
X016993Y030409D01*
X017191Y030264D02*
X017384Y030264D01*
X017287Y029550D02*
X017287Y029260D01*
X017191Y029260D02*
X017384Y029260D01*
X017191Y029453D02*
X017287Y029550D01*
X017090Y029550D02*
X016896Y029550D01*
X016896Y029260D01*
X017090Y029260D01*
X016993Y029405D02*
X016896Y029405D01*
X017012Y028723D02*
X017109Y028723D01*
X017158Y028675D01*
X017158Y028627D01*
X017109Y028578D01*
X017158Y028530D01*
X017158Y028481D01*
X017109Y028433D01*
X017012Y028433D01*
X016964Y028481D01*
X016865Y028481D02*
X016865Y028433D01*
X016817Y028433D01*
X016817Y028481D01*
X016865Y028481D01*
X016716Y028481D02*
X016667Y028433D01*
X016570Y028433D01*
X016522Y028481D01*
X016619Y028578D02*
X016667Y028578D01*
X016716Y028530D01*
X016716Y028481D01*
X016667Y028578D02*
X016716Y028627D01*
X016716Y028675D01*
X016667Y028723D01*
X016570Y028723D01*
X016522Y028675D01*
X016964Y028675D02*
X017012Y028723D01*
X017061Y028578D02*
X017109Y028578D01*
X017259Y028530D02*
X017355Y028433D01*
X017452Y028530D01*
X017452Y028723D01*
X017259Y028723D02*
X017259Y028530D01*
X017276Y027582D02*
X017131Y027582D01*
X017131Y027291D01*
X017276Y027291D01*
X017325Y027340D01*
X017325Y027533D01*
X017276Y027582D01*
X017030Y027582D02*
X017030Y027291D01*
X016836Y027582D01*
X016836Y027291D01*
X016735Y027340D02*
X016735Y027436D01*
X016639Y027436D01*
X016735Y027340D02*
X016687Y027291D01*
X016590Y027291D01*
X016542Y027340D01*
X016542Y027533D01*
X016590Y027582D01*
X016687Y027582D01*
X016735Y027533D01*
X016916Y026578D02*
X016916Y026287D01*
X017109Y026287D01*
X017210Y026336D02*
X017210Y026529D01*
X017259Y026578D01*
X017356Y026578D01*
X017404Y026529D01*
X017210Y026336D01*
X017259Y026287D01*
X017356Y026287D01*
X017404Y026336D01*
X017404Y026529D01*
X017109Y026578D02*
X016916Y026578D01*
X016916Y026433D02*
X017013Y026433D01*
X016935Y025554D02*
X017129Y025554D01*
X017230Y025457D02*
X017327Y025554D01*
X017327Y025264D01*
X017230Y025264D02*
X017424Y025264D01*
X017032Y025409D02*
X016935Y025409D01*
X016935Y025264D02*
X016935Y025554D01*
X016916Y024570D02*
X017109Y024570D01*
X017210Y024521D02*
X017210Y024328D01*
X017404Y024521D01*
X017404Y024328D01*
X017356Y024280D01*
X017259Y024280D01*
X017210Y024328D01*
X017210Y024521D02*
X017259Y024570D01*
X017356Y024570D01*
X017404Y024521D01*
X017013Y024425D02*
X016916Y024425D01*
X016916Y024280D02*
X016916Y024570D01*
X016915Y023586D02*
X017109Y023295D01*
X017109Y023586D01*
X017210Y023586D02*
X017210Y023295D01*
X017355Y023295D01*
X017403Y023344D01*
X017403Y023537D01*
X017355Y023586D01*
X017210Y023586D01*
X016915Y023586D02*
X016915Y023295D01*
X016814Y023344D02*
X016814Y023440D01*
X016717Y023440D01*
X016621Y023344D02*
X016669Y023295D01*
X016766Y023295D01*
X016814Y023344D01*
X016814Y023537D02*
X016766Y023586D01*
X016669Y023586D01*
X016621Y023537D01*
X016621Y023344D01*
X016628Y022719D02*
X016531Y022719D01*
X016483Y022671D01*
X016579Y022574D02*
X016628Y022574D01*
X016676Y022526D01*
X016676Y022478D01*
X016628Y022429D01*
X016531Y022429D01*
X016483Y022478D01*
X016628Y022574D02*
X016676Y022623D01*
X016676Y022671D01*
X016628Y022719D01*
X016777Y022478D02*
X016777Y022429D01*
X016826Y022429D01*
X016826Y022478D01*
X016777Y022478D01*
X016925Y022478D02*
X016973Y022429D01*
X017070Y022429D01*
X017118Y022478D01*
X017118Y022526D01*
X017070Y022574D01*
X017021Y022574D01*
X017070Y022574D02*
X017118Y022623D01*
X017118Y022671D01*
X017070Y022719D01*
X016973Y022719D01*
X016925Y022671D01*
X017219Y022719D02*
X017219Y022526D01*
X017316Y022429D01*
X017413Y022526D01*
X017413Y022719D01*
X017424Y021578D02*
X017230Y021578D01*
X017230Y021433D01*
X017327Y021481D01*
X017375Y021481D01*
X017424Y021433D01*
X017424Y021336D01*
X017375Y021287D01*
X017278Y021287D01*
X017230Y021336D01*
X017129Y021336D02*
X017129Y021529D01*
X017081Y021578D01*
X016935Y021578D01*
X016935Y021287D01*
X017081Y021287D01*
X017129Y021336D01*
X017061Y020593D02*
X016916Y020593D01*
X016916Y020303D01*
X017061Y020303D01*
X017109Y020352D01*
X017109Y020545D01*
X017061Y020593D01*
X017210Y020448D02*
X017404Y020448D01*
X017356Y020303D02*
X017356Y020593D01*
X017210Y020448D01*
X017278Y019550D02*
X017375Y019550D01*
X017424Y019502D01*
X017424Y019453D01*
X017375Y019405D01*
X017424Y019357D01*
X017424Y019308D01*
X017375Y019260D01*
X017278Y019260D01*
X017230Y019308D01*
X017129Y019308D02*
X017129Y019502D01*
X017081Y019550D01*
X016935Y019550D01*
X016935Y019260D01*
X017081Y019260D01*
X017129Y019308D01*
X017230Y019502D02*
X017278Y019550D01*
X017327Y019405D02*
X017375Y019405D01*
X017316Y018566D02*
X017219Y018566D01*
X017171Y018517D01*
X017070Y018517D02*
X017070Y018324D01*
X017022Y018276D01*
X016876Y018276D01*
X016876Y018566D01*
X017022Y018566D01*
X017070Y018517D01*
X017316Y018566D02*
X017365Y018517D01*
X017365Y018469D01*
X017171Y018276D01*
X017365Y018276D01*
X017347Y017601D02*
X017250Y017505D01*
X017149Y017553D02*
X017100Y017601D01*
X016955Y017601D01*
X016955Y017311D01*
X017100Y017311D01*
X017149Y017359D01*
X017149Y017553D01*
X017347Y017601D02*
X017347Y017311D01*
X017443Y017311D02*
X017250Y017311D01*
X017355Y016558D02*
X017210Y016413D01*
X017403Y016413D01*
X017355Y016268D02*
X017355Y016558D01*
X017012Y016558D02*
X017012Y016268D01*
X016915Y016268D02*
X017109Y016268D01*
X016915Y016461D02*
X017012Y016558D01*
X016814Y016510D02*
X016766Y016558D01*
X016669Y016558D01*
X016621Y016510D01*
X016621Y016316D01*
X016669Y016268D01*
X016766Y016268D01*
X016814Y016316D01*
X016805Y015554D02*
X016708Y015554D01*
X016660Y015506D01*
X016660Y015312D01*
X016708Y015264D01*
X016805Y015264D01*
X016853Y015312D01*
X016955Y015264D02*
X017148Y015264D01*
X017051Y015264D02*
X017051Y015554D01*
X016955Y015457D01*
X016853Y015506D02*
X016805Y015554D01*
X017249Y015506D02*
X017298Y015554D01*
X017394Y015554D01*
X017443Y015506D01*
X017443Y015457D01*
X017394Y015409D01*
X017443Y015361D01*
X017443Y015312D01*
X017394Y015264D01*
X017298Y015264D01*
X017249Y015312D01*
X017346Y015409D02*
X017394Y015409D01*
X017395Y014570D02*
X017298Y014570D01*
X017250Y014521D01*
X017250Y014328D01*
X017443Y014521D01*
X017443Y014328D01*
X017395Y014280D01*
X017298Y014280D01*
X017250Y014328D01*
X017149Y014328D02*
X017149Y014521D01*
X017100Y014570D01*
X016955Y014570D01*
X016955Y014280D01*
X017100Y014280D01*
X017149Y014328D01*
X017395Y014570D02*
X017443Y014521D01*
X017523Y013723D02*
X017523Y013433D01*
X017426Y013433D02*
X017620Y013433D01*
X017426Y013627D02*
X017523Y013723D01*
X017228Y013723D02*
X017228Y013433D01*
X017132Y013433D02*
X017325Y013433D01*
X017132Y013627D02*
X017228Y013723D01*
X017031Y013675D02*
X017031Y013481D01*
X016982Y013433D01*
X016837Y013433D01*
X016837Y013723D01*
X016982Y013723D01*
X017031Y013675D01*
X017002Y012719D02*
X016857Y012719D01*
X016857Y012429D01*
X017002Y012429D01*
X017050Y012478D01*
X017050Y012671D01*
X017002Y012719D01*
X017151Y012623D02*
X017248Y012719D01*
X017248Y012429D01*
X017151Y012429D02*
X017345Y012429D01*
X017446Y012478D02*
X017639Y012671D01*
X017639Y012478D01*
X017591Y012429D01*
X017494Y012429D01*
X017446Y012478D01*
X017446Y012671D01*
X017494Y012719D01*
X017591Y012719D01*
X017639Y012671D01*
X017356Y011558D02*
X017259Y011558D01*
X017210Y011510D01*
X017210Y011461D01*
X017259Y011413D01*
X017404Y011413D01*
X017404Y011510D02*
X017356Y011558D01*
X017404Y011510D02*
X017404Y011316D01*
X017356Y011268D01*
X017259Y011268D01*
X017210Y011316D01*
X017109Y011316D02*
X017109Y011510D01*
X017061Y011558D01*
X016916Y011558D01*
X016916Y011268D01*
X017061Y011268D01*
X017109Y011316D01*
X017070Y010574D02*
X016876Y010574D01*
X016876Y010284D01*
X016876Y010429D02*
X016973Y010429D01*
X017171Y010429D02*
X017171Y010574D01*
X017365Y010574D01*
X017316Y010477D02*
X017365Y010429D01*
X017365Y010332D01*
X017316Y010284D01*
X017219Y010284D01*
X017171Y010332D01*
X017171Y010429D02*
X017268Y010477D01*
X017316Y010477D01*
X017336Y009589D02*
X017191Y009444D01*
X017384Y009444D01*
X017336Y009299D02*
X017336Y009589D01*
X017090Y009589D02*
X016896Y009589D01*
X016896Y009299D01*
X016896Y009444D02*
X016993Y009444D01*
X017010Y008566D02*
X017010Y008276D01*
X016817Y008566D01*
X016817Y008276D01*
X016716Y008324D02*
X016716Y008421D01*
X016619Y008421D01*
X016716Y008517D02*
X016667Y008566D01*
X016570Y008566D01*
X016522Y008517D01*
X016522Y008324D01*
X016570Y008276D01*
X016667Y008276D01*
X016716Y008324D01*
X017111Y008276D02*
X017256Y008276D01*
X017305Y008324D01*
X017305Y008517D01*
X017256Y008566D01*
X017111Y008566D01*
X017111Y008276D01*
X017089Y007700D02*
X017138Y007651D01*
X017138Y007603D01*
X017089Y007555D01*
X017138Y007506D01*
X017138Y007458D01*
X017089Y007409D01*
X016993Y007409D01*
X016944Y007458D01*
X016845Y007458D02*
X016845Y007409D01*
X016797Y007409D01*
X016797Y007458D01*
X016845Y007458D01*
X016696Y007458D02*
X016648Y007409D01*
X016551Y007409D01*
X016502Y007458D01*
X016599Y007555D02*
X016648Y007555D01*
X016696Y007506D01*
X016696Y007458D01*
X016648Y007555D02*
X016696Y007603D01*
X016696Y007651D01*
X016648Y007700D01*
X016551Y007700D01*
X016502Y007651D01*
X016944Y007651D02*
X016993Y007700D01*
X017089Y007700D01*
X017089Y007555D02*
X017041Y007555D01*
X017239Y007506D02*
X017239Y007700D01*
X017432Y007700D02*
X017432Y007506D01*
X017336Y007409D01*
X017239Y007506D01*
X017278Y006578D02*
X017375Y006578D01*
X017424Y006529D01*
X017424Y006481D01*
X017375Y006433D01*
X017424Y006384D01*
X017424Y006336D01*
X017375Y006287D01*
X017278Y006287D01*
X017230Y006336D01*
X017327Y006433D02*
X017375Y006433D01*
X017230Y006529D02*
X017278Y006578D01*
X017129Y006578D02*
X016935Y006578D01*
X016935Y006287D01*
X016935Y006433D02*
X017032Y006433D01*
X017041Y005593D02*
X016896Y005593D01*
X016896Y005303D01*
X017041Y005303D01*
X017090Y005352D01*
X017090Y005545D01*
X017041Y005593D01*
X017191Y005448D02*
X017384Y005448D01*
X017287Y005352D02*
X017287Y005545D01*
X017100Y004589D02*
X016955Y004589D01*
X016955Y004299D01*
X017100Y004299D01*
X017149Y004348D01*
X017149Y004541D01*
X017100Y004589D01*
X017250Y004444D02*
X017443Y004444D01*
X017296Y003546D02*
X017151Y003546D01*
X017151Y003256D01*
X017296Y003256D01*
X017344Y003304D01*
X017344Y003498D01*
X017296Y003546D01*
X017050Y003546D02*
X017050Y003256D01*
X016856Y003546D01*
X016856Y003256D01*
X016755Y003304D02*
X016755Y003401D01*
X016658Y003401D01*
X016561Y003304D02*
X016610Y003256D01*
X016707Y003256D01*
X016755Y003304D01*
X016561Y003304D02*
X016561Y003498D01*
X016610Y003546D01*
X016707Y003546D01*
X016755Y003498D01*
X016588Y002660D02*
X016492Y002660D01*
X016443Y002612D01*
X016540Y002515D02*
X016588Y002515D01*
X016637Y002467D01*
X016637Y002418D01*
X016588Y002370D01*
X016492Y002370D01*
X016443Y002418D01*
X016588Y002515D02*
X016637Y002564D01*
X016637Y002612D01*
X016588Y002660D01*
X016738Y002418D02*
X016786Y002418D01*
X016786Y002370D01*
X016738Y002370D01*
X016738Y002418D01*
X016885Y002418D02*
X016934Y002370D01*
X017030Y002370D01*
X017079Y002418D01*
X017079Y002467D01*
X017030Y002515D01*
X016982Y002515D01*
X017030Y002515D02*
X017079Y002564D01*
X017079Y002612D01*
X017030Y002660D01*
X016934Y002660D01*
X016885Y002612D01*
X017180Y002660D02*
X017180Y002467D01*
X017277Y002370D01*
X017373Y002467D01*
X017373Y002660D01*
X017266Y001617D02*
X017266Y001424D01*
X017169Y001327D01*
X017073Y001424D01*
X017073Y001617D01*
X016971Y001617D02*
X016778Y001617D01*
X016778Y001472D01*
X016875Y001520D01*
X016923Y001520D01*
X016971Y001472D01*
X016971Y001375D01*
X016923Y001327D01*
X016826Y001327D01*
X016778Y001375D01*
X011670Y008984D02*
X011476Y008984D01*
X011670Y009178D01*
X011476Y009178D01*
X011375Y009129D02*
X011182Y009129D01*
X011182Y008984D02*
X011182Y009275D01*
X011080Y009275D02*
X011080Y008984D01*
X010887Y008984D02*
X010887Y009275D01*
X010984Y009178D01*
X011080Y009275D01*
X011375Y009275D02*
X011375Y008984D01*
X010491Y009033D02*
X010443Y008984D01*
X010346Y008984D01*
X010298Y009033D01*
X010298Y009081D01*
X010346Y009129D01*
X010443Y009129D01*
X010491Y009081D01*
X010491Y009033D01*
X010443Y009129D02*
X010491Y009178D01*
X010491Y009226D01*
X010443Y009275D01*
X010346Y009275D01*
X010298Y009226D01*
X010298Y009178D01*
X010346Y009129D01*
X009438Y004309D02*
X009500Y004248D01*
X009500Y004186D01*
X009438Y004124D01*
X009500Y004062D01*
X009500Y004001D01*
X009438Y003939D01*
X009315Y003939D01*
X009253Y004001D01*
X009131Y003939D02*
X009069Y004001D01*
X009069Y004248D01*
X009007Y004186D02*
X009131Y004186D01*
X009253Y004248D02*
X009315Y004309D01*
X009438Y004309D01*
X009438Y004124D02*
X009376Y004124D01*
X008885Y003939D02*
X008762Y003939D01*
X008824Y003939D02*
X008824Y004186D01*
X008762Y004186D01*
X008640Y004186D02*
X008455Y004062D01*
X008640Y003939D01*
X008455Y003939D02*
X008455Y004309D01*
X008334Y004248D02*
X008272Y004309D01*
X008148Y004309D01*
X008087Y004248D01*
X008087Y004001D01*
X008148Y003939D01*
X008272Y003939D01*
X008334Y004001D01*
X007965Y003939D02*
X007841Y003939D01*
X007903Y003939D02*
X007903Y004309D01*
X007841Y004309D02*
X007965Y004309D01*
X007720Y004248D02*
X007720Y004124D01*
X007658Y004062D01*
X007473Y004062D01*
X007473Y003939D02*
X007473Y004309D01*
X007658Y004309D01*
X007720Y004248D01*
X008824Y004309D02*
X008824Y004371D01*
X009345Y000892D02*
X009592Y000522D01*
X009592Y000892D01*
X009713Y000830D02*
X009713Y000583D01*
X009775Y000522D01*
X009898Y000522D01*
X009960Y000583D01*
X009960Y000707D01*
X009837Y000707D01*
X009960Y000830D02*
X009898Y000892D01*
X009775Y000892D01*
X009713Y000830D01*
X009345Y000892D02*
X009345Y000522D01*
X005971Y001010D02*
X005910Y000948D01*
X005786Y000948D01*
X005725Y001010D01*
X005971Y001257D01*
X005971Y001010D01*
X005725Y001010D02*
X005725Y001257D01*
X005786Y001319D01*
X005910Y001319D01*
X005971Y001257D01*
X005603Y001257D02*
X005603Y001195D01*
X005541Y001134D01*
X005603Y001072D01*
X005603Y001010D01*
X005541Y000948D01*
X005418Y000948D01*
X005356Y001010D01*
X005235Y001010D02*
X005173Y000948D01*
X005050Y000948D01*
X004988Y001010D01*
X005111Y001134D02*
X005173Y001134D01*
X005235Y001072D01*
X005235Y001010D01*
X005173Y001134D02*
X005235Y001195D01*
X005235Y001257D01*
X005173Y001319D01*
X005050Y001319D01*
X004988Y001257D01*
X005356Y001257D02*
X005418Y001319D01*
X005541Y001319D01*
X005603Y001257D01*
X005541Y001134D02*
X005480Y001134D01*
X016876Y031268D02*
X017070Y031268D01*
X017171Y031316D02*
X017219Y031268D01*
X017316Y031268D01*
X017365Y031316D01*
X017365Y031364D01*
X017316Y031413D01*
X017268Y031413D01*
X017316Y031413D02*
X017365Y031461D01*
X017365Y031510D01*
X017316Y031558D01*
X017219Y031558D01*
X017171Y031510D01*
X017070Y031558D02*
X016876Y031558D01*
X016876Y031268D01*
X016876Y031413D02*
X016973Y031413D01*
X016896Y032291D02*
X017090Y032291D01*
X016993Y032436D02*
X016896Y032436D01*
X016896Y032291D02*
X016896Y032582D01*
X017090Y032582D01*
X017191Y032436D02*
X017384Y032436D01*
X017336Y032291D02*
X017336Y032582D01*
X017191Y032436D01*
D11*
X003644Y018526D02*
X003644Y018349D01*
X003585Y018349D02*
X003703Y018349D01*
X003585Y018467D02*
X003644Y018526D01*
X003522Y018497D02*
X003492Y018526D01*
X003433Y018526D01*
X003404Y018497D01*
X003404Y018379D01*
X003433Y018349D01*
X003492Y018349D01*
X003522Y018379D01*
X003340Y018349D02*
X003222Y018349D01*
X003222Y018526D01*
X003340Y018526D01*
X003281Y018438D02*
X003222Y018438D01*
X003159Y018438D02*
X003100Y018438D01*
X003159Y018438D02*
X003159Y018379D01*
X003130Y018349D01*
X003071Y018349D01*
X003041Y018379D01*
X003041Y018497D01*
X003071Y018526D01*
X003130Y018526D01*
X003159Y018497D01*
X002978Y018497D02*
X002978Y018438D01*
X002948Y018408D01*
X002860Y018408D01*
X002860Y018349D02*
X002860Y018526D01*
X002948Y018526D01*
X002978Y018497D01*
X002797Y018526D02*
X002679Y018349D01*
X002616Y018349D02*
X002498Y018349D01*
X002556Y018349D02*
X002556Y018526D01*
X002498Y018467D01*
X002434Y018467D02*
X002405Y018438D01*
X002316Y018438D01*
X002316Y018526D02*
X002316Y018349D01*
X002405Y018349D01*
X002434Y018379D01*
X002434Y018408D01*
X002405Y018438D01*
X002434Y018467D02*
X002434Y018497D01*
X002405Y018526D01*
X002316Y018526D01*
X002297Y017542D02*
X002385Y017542D01*
X002415Y017513D01*
X002415Y017483D01*
X002385Y017454D01*
X002297Y017454D01*
X002297Y017542D02*
X002297Y017365D01*
X002385Y017365D01*
X002415Y017395D01*
X002415Y017424D01*
X002385Y017454D01*
X002478Y017395D02*
X002478Y017513D01*
X002507Y017542D01*
X002566Y017542D01*
X002596Y017513D01*
X002478Y017395D01*
X002507Y017365D01*
X002566Y017365D01*
X002596Y017395D01*
X002596Y017513D01*
X002659Y017365D02*
X002777Y017542D01*
X002840Y017542D02*
X002929Y017542D01*
X002958Y017513D01*
X002958Y017454D01*
X002929Y017424D01*
X002840Y017424D01*
X002840Y017365D02*
X002840Y017542D01*
X003021Y017513D02*
X003021Y017395D01*
X003051Y017365D01*
X003110Y017365D01*
X003139Y017395D01*
X003139Y017454D01*
X003080Y017454D01*
X003021Y017513D02*
X003051Y017542D01*
X003110Y017542D01*
X003139Y017513D01*
X003203Y017542D02*
X003203Y017365D01*
X003321Y017365D01*
X003384Y017365D02*
X003384Y017542D01*
X003472Y017542D01*
X003502Y017513D01*
X003502Y017395D01*
X003472Y017365D01*
X003384Y017365D01*
X003262Y017454D02*
X003203Y017454D01*
X003203Y017542D02*
X003321Y017542D01*
X003565Y017483D02*
X003624Y017542D01*
X003624Y017365D01*
X003565Y017365D02*
X003683Y017365D01*
X002797Y009412D02*
X002738Y009353D01*
X002797Y009412D02*
X002797Y009235D01*
X002738Y009235D02*
X002856Y009235D01*
X002675Y009235D02*
X002557Y009235D01*
X002616Y009235D02*
X002616Y009412D01*
X002557Y009353D01*
X002493Y009353D02*
X002464Y009324D01*
X002375Y009324D01*
X002375Y009412D02*
X002464Y009412D01*
X002493Y009383D01*
X002493Y009353D01*
X002464Y009324D02*
X002493Y009294D01*
X002493Y009265D01*
X002464Y009235D01*
X002375Y009235D01*
X002375Y009412D01*
X002405Y008448D02*
X002375Y008418D01*
X002375Y008300D01*
X002405Y008271D01*
X002464Y008271D01*
X002493Y008300D01*
X002493Y008359D01*
X002434Y008359D01*
X002493Y008418D02*
X002464Y008448D01*
X002405Y008448D01*
X002557Y008448D02*
X002675Y008271D01*
X002675Y008448D01*
X002738Y008448D02*
X002826Y008448D01*
X002856Y008418D01*
X002856Y008300D01*
X002826Y008271D01*
X002738Y008271D01*
X002738Y008448D01*
X002557Y008448D02*
X002557Y008271D01*
X002488Y004648D02*
X002488Y004432D01*
X002416Y004432D02*
X002560Y004432D01*
X002633Y004540D02*
X002741Y004648D01*
X002741Y004432D01*
X002777Y004540D02*
X002633Y004540D01*
X002488Y004648D02*
X002416Y004576D01*
X002342Y004576D02*
X002306Y004540D01*
X002198Y004540D01*
X002198Y004432D02*
X002306Y004432D01*
X002342Y004468D01*
X002342Y004504D01*
X002306Y004540D01*
X002342Y004576D02*
X002342Y004612D01*
X002306Y004648D01*
X002198Y004648D01*
X002198Y004432D01*
X002247Y003664D02*
X002139Y003664D01*
X002139Y003448D01*
X002247Y003448D01*
X002283Y003484D01*
X002283Y003520D01*
X002247Y003556D01*
X002139Y003556D01*
X002247Y003556D02*
X002283Y003592D01*
X002283Y003628D01*
X002247Y003664D01*
X002357Y003592D02*
X002429Y003664D01*
X002429Y003448D01*
X002357Y003448D02*
X002501Y003448D01*
X002574Y003484D02*
X002610Y003448D01*
X002682Y003448D01*
X002718Y003484D01*
X002718Y003556D01*
X002682Y003592D01*
X002646Y003592D01*
X002574Y003556D01*
X002574Y003664D01*
X002718Y003664D01*
X002698Y000709D02*
X002698Y000489D01*
X002624Y000563D01*
X002551Y000489D01*
X002551Y000709D01*
X002477Y000673D02*
X002440Y000709D01*
X002367Y000709D01*
X002330Y000673D01*
X002330Y000526D01*
X002367Y000489D01*
X002440Y000489D01*
X002477Y000526D01*
X002477Y000673D01*
X002256Y000673D02*
X002256Y000599D01*
X002219Y000563D01*
X002109Y000563D01*
X002109Y000489D02*
X002109Y000709D01*
X002219Y000709D01*
X002256Y000673D01*
X002772Y000709D02*
X002772Y000489D01*
X002919Y000489D01*
X002993Y000489D02*
X002993Y000709D01*
X003103Y000709D01*
X003140Y000673D01*
X003140Y000599D01*
X003103Y000563D01*
X002993Y000563D01*
X003066Y000563D02*
X003140Y000489D01*
X002919Y000709D02*
X002772Y000709D01*
X002772Y000599D02*
X002845Y000599D01*
D12*
X001007Y000170D02*
X018692Y000170D01*
X018692Y032847D01*
X001007Y032847D01*
X001007Y000170D01*
D13*
X007314Y003083D02*
X007564Y002833D01*
X008064Y002833D01*
X008314Y003083D01*
X008564Y002833D01*
X009064Y002833D01*
X009314Y003083D01*
X009564Y002833D01*
X010064Y002833D01*
X010314Y003083D01*
X010564Y002833D01*
X011064Y002833D01*
X011314Y003083D01*
X011564Y002833D01*
X012064Y002833D01*
X012314Y003083D01*
X012314Y003583D01*
X012064Y003833D01*
X011564Y003833D01*
X011314Y003583D01*
X011064Y003833D01*
X010564Y003833D01*
X010314Y003583D01*
X010064Y003833D01*
X009564Y003833D01*
X009314Y003583D01*
X009064Y003833D01*
X008564Y003833D01*
X008314Y003583D01*
X008064Y003833D01*
X007564Y003833D01*
X007314Y003583D01*
X007314Y003083D01*
X007861Y014916D02*
X007861Y018592D01*
X008043Y018774D01*
X011718Y018774D01*
X011718Y014916D01*
X007861Y014916D01*
X013020Y029191D02*
X013020Y029591D01*
X012586Y029891D02*
X012588Y029953D01*
X012594Y030016D01*
X012604Y030077D01*
X012618Y030138D01*
X012635Y030198D01*
X012656Y030257D01*
X012682Y030314D01*
X012710Y030369D01*
X012742Y030423D01*
X012778Y030474D01*
X012816Y030524D01*
X012858Y030570D01*
X012902Y030614D01*
X012950Y030655D01*
X012999Y030693D01*
X013051Y030727D01*
X013105Y030758D01*
X013161Y030786D01*
X013219Y030810D01*
X013278Y030831D01*
X013338Y030847D01*
X013399Y030860D01*
X013461Y030869D01*
X013523Y030874D01*
X013586Y030875D01*
X013648Y030872D01*
X013710Y030865D01*
X013772Y030854D01*
X013832Y030839D01*
X013892Y030821D01*
X013950Y030799D01*
X014007Y030773D01*
X014062Y030743D01*
X014115Y030710D01*
X014166Y030674D01*
X014214Y030635D01*
X014260Y030592D01*
X014303Y030547D01*
X014343Y030499D01*
X014380Y030449D01*
X014414Y030396D01*
X014445Y030342D01*
X014471Y030286D01*
X014495Y030228D01*
X014514Y030168D01*
X014530Y030108D01*
X014542Y030046D01*
X014550Y029985D01*
X014554Y029922D01*
X014554Y029860D01*
X014550Y029797D01*
X014542Y029736D01*
X014530Y029674D01*
X014514Y029614D01*
X014495Y029554D01*
X014471Y029496D01*
X014445Y029440D01*
X014414Y029386D01*
X014380Y029333D01*
X014343Y029283D01*
X014303Y029235D01*
X014260Y029190D01*
X014214Y029147D01*
X014166Y029108D01*
X014115Y029072D01*
X014062Y029039D01*
X014007Y029009D01*
X013950Y028983D01*
X013892Y028961D01*
X013832Y028943D01*
X013772Y028928D01*
X013710Y028917D01*
X013648Y028910D01*
X013586Y028907D01*
X013523Y028908D01*
X013461Y028913D01*
X013399Y028922D01*
X013338Y028935D01*
X013278Y028951D01*
X013219Y028972D01*
X013161Y028996D01*
X013105Y029024D01*
X013051Y029055D01*
X012999Y029089D01*
X012950Y029127D01*
X012902Y029168D01*
X012858Y029212D01*
X012816Y029258D01*
X012778Y029308D01*
X012742Y029359D01*
X012710Y029413D01*
X012682Y029468D01*
X012656Y029525D01*
X012635Y029584D01*
X012618Y029644D01*
X012604Y029705D01*
X012594Y029766D01*
X012588Y029829D01*
X012586Y029891D01*
D14*
X012644Y032183D02*
X012524Y032183D01*
X012464Y032243D01*
X012705Y032484D01*
X012705Y032243D01*
X012644Y032183D01*
X012833Y032183D02*
X012893Y032183D01*
X012893Y032243D01*
X012833Y032243D01*
X012833Y032183D01*
X013017Y032183D02*
X013257Y032183D01*
X013137Y032183D02*
X013137Y032544D01*
X013017Y032424D01*
X012705Y032484D02*
X012644Y032544D01*
X012524Y032544D01*
X012464Y032484D01*
X012464Y032243D01*
X013753Y032243D02*
X013813Y032183D01*
X013994Y032183D01*
X013994Y032424D01*
X014122Y032364D02*
X014242Y032364D01*
X014122Y032544D02*
X014362Y032544D01*
X014122Y032544D02*
X014122Y032183D01*
X013753Y032243D02*
X013753Y032424D01*
X009366Y019938D02*
X009212Y019938D01*
X009136Y019861D01*
X008982Y019861D02*
X008982Y019784D01*
X008905Y019707D01*
X008982Y019631D01*
X008982Y019554D01*
X008905Y019477D01*
X008752Y019477D01*
X008675Y019554D01*
X008522Y019554D02*
X008445Y019477D01*
X008292Y019477D01*
X008215Y019554D01*
X008215Y019861D01*
X008292Y019938D01*
X008445Y019938D01*
X008522Y019861D01*
X008675Y019861D02*
X008752Y019938D01*
X008905Y019938D01*
X008982Y019861D01*
X008905Y019707D02*
X008829Y019707D01*
X009136Y019477D02*
X009443Y019784D01*
X009443Y019861D01*
X009366Y019938D01*
X009443Y019477D02*
X009136Y019477D01*
X008061Y019477D02*
X007908Y019477D01*
X007985Y019477D02*
X007985Y019938D01*
X008061Y019938D02*
X007908Y019938D01*
X007755Y019861D02*
X007755Y019707D01*
X007678Y019631D01*
X007448Y019631D01*
X007448Y019477D02*
X007448Y019938D01*
X007678Y019938D01*
X007755Y019861D01*
D15*
X009972Y010473D02*
X011972Y010473D01*
X012016Y010471D01*
X012059Y010465D01*
X012101Y010456D01*
X012143Y010443D01*
X012183Y010426D01*
X012222Y010406D01*
X012259Y010383D01*
X012293Y010356D01*
X012326Y010327D01*
X012355Y010294D01*
X012382Y010260D01*
X012405Y010223D01*
X012425Y010184D01*
X012442Y010144D01*
X012455Y010102D01*
X012464Y010060D01*
X012470Y010017D01*
X012472Y009973D01*
X012470Y009929D01*
X012464Y009886D01*
X012455Y009844D01*
X012442Y009802D01*
X012425Y009762D01*
X012405Y009723D01*
X012382Y009686D01*
X012355Y009652D01*
X012326Y009619D01*
X012293Y009590D01*
X012259Y009563D01*
X012222Y009540D01*
X012183Y009520D01*
X012143Y009503D01*
X012101Y009490D01*
X012059Y009481D01*
X012016Y009475D01*
X011972Y009473D01*
X009972Y009473D01*
X009928Y009475D01*
X009885Y009481D01*
X009843Y009490D01*
X009801Y009503D01*
X009761Y009520D01*
X009722Y009540D01*
X009685Y009563D01*
X009651Y009590D01*
X009618Y009619D01*
X009589Y009652D01*
X009562Y009686D01*
X009539Y009723D01*
X009519Y009762D01*
X009502Y009802D01*
X009489Y009844D01*
X009480Y009886D01*
X009474Y009929D01*
X009472Y009973D01*
X009474Y010017D01*
X009480Y010060D01*
X009489Y010102D01*
X009502Y010144D01*
X009519Y010184D01*
X009539Y010223D01*
X009562Y010260D01*
X009589Y010294D01*
X009618Y010327D01*
X009651Y010356D01*
X009685Y010383D01*
X009722Y010406D01*
X009761Y010426D01*
X009801Y010443D01*
X009843Y010456D01*
X009885Y010465D01*
X009928Y010471D01*
X009972Y010473D01*
D16*
X012089Y028767D03*
D17*
X012229Y028587D02*
X011079Y028587D01*
X012229Y028587D02*
X012329Y028687D01*
X012329Y032487D01*
X012229Y032587D01*
X011079Y032587D01*
X012620Y031995D02*
X012620Y031195D01*
X012622Y031178D01*
X012626Y031161D01*
X012633Y031145D01*
X012643Y031131D01*
X012656Y031118D01*
X012670Y031108D01*
X012686Y031101D01*
X012703Y031097D01*
X012720Y031095D01*
X014420Y031095D01*
X014437Y031097D01*
X014454Y031101D01*
X014470Y031108D01*
X014484Y031118D01*
X014497Y031131D01*
X014507Y031145D01*
X014514Y031161D01*
X014518Y031178D01*
X014520Y031195D01*
X014520Y031995D01*
X014518Y032012D01*
X014514Y032029D01*
X014507Y032045D01*
X014497Y032059D01*
X014484Y032072D01*
X014470Y032082D01*
X014454Y032089D01*
X014437Y032093D01*
X014420Y032095D01*
X012720Y032095D01*
X012703Y032093D01*
X012686Y032089D01*
X012670Y032082D01*
X012656Y032072D01*
X012643Y032059D01*
X012633Y032045D01*
X012626Y032029D01*
X012622Y032012D01*
X012620Y031995D01*
X013420Y031595D02*
X013470Y031595D01*
X013670Y031595D02*
X013720Y031595D01*
X014865Y030760D02*
X014865Y029060D01*
X014867Y029043D01*
X014871Y029026D01*
X014878Y029010D01*
X014888Y028996D01*
X014901Y028983D01*
X014915Y028973D01*
X014931Y028966D01*
X014948Y028962D01*
X014965Y028960D01*
X015765Y028960D01*
X015782Y028962D01*
X015799Y028966D01*
X015815Y028973D01*
X015829Y028983D01*
X015842Y028996D01*
X015852Y029010D01*
X015859Y029026D01*
X015863Y029043D01*
X015865Y029060D01*
X015865Y030760D01*
X015863Y030777D01*
X015859Y030794D01*
X015852Y030810D01*
X015842Y030824D01*
X015829Y030837D01*
X015815Y030847D01*
X015799Y030854D01*
X015782Y030858D01*
X015765Y030860D01*
X014965Y030860D01*
X014948Y030858D01*
X014931Y030854D01*
X014915Y030847D01*
X014901Y030837D01*
X014888Y030824D01*
X014878Y030810D01*
X014871Y030794D01*
X014867Y030777D01*
X014865Y030760D01*
X015365Y030060D02*
X015365Y030010D01*
X015365Y029810D02*
X015365Y029760D01*
X003056Y001706D02*
X003054Y001661D01*
X003049Y001615D01*
X003041Y001571D01*
X003029Y001527D01*
X003013Y001484D01*
X002995Y001442D01*
X002973Y001402D01*
X002949Y001364D01*
X002922Y001328D01*
X002892Y001293D01*
X002859Y001262D01*
X002824Y001232D01*
X003056Y001706D02*
X003054Y001751D01*
X003049Y001797D01*
X003041Y001841D01*
X003029Y001885D01*
X003013Y001928D01*
X002995Y001970D01*
X002973Y002010D01*
X002949Y002048D01*
X002922Y002084D01*
X002892Y002119D01*
X002859Y002150D01*
X002824Y002180D01*
X001856Y001706D02*
X001858Y001660D01*
X001863Y001614D01*
X001872Y001568D01*
X001884Y001523D01*
X001900Y001480D01*
X001919Y001438D01*
X001942Y001397D01*
X001967Y001358D01*
X001995Y001322D01*
X002026Y001287D01*
X002060Y001255D01*
X002096Y001226D01*
X001856Y001706D02*
X001858Y001753D01*
X001864Y001801D01*
X001873Y001847D01*
X001886Y001893D01*
X001902Y001937D01*
X001922Y001981D01*
X001946Y002022D01*
X001972Y002061D01*
X002002Y002098D01*
X002035Y002133D01*
X002070Y002165D01*
X002107Y002194D01*
X004387Y001512D02*
X004387Y000812D01*
X004389Y000795D01*
X004393Y000778D01*
X004400Y000762D01*
X004410Y000748D01*
X004423Y000735D01*
X004437Y000725D01*
X004453Y000718D01*
X004470Y000714D01*
X004487Y000712D01*
X004637Y000712D01*
X004687Y000762D01*
X006587Y000762D01*
X006637Y000712D01*
X006787Y000712D01*
X006804Y000714D01*
X006821Y000718D01*
X006837Y000725D01*
X006851Y000735D01*
X006864Y000748D01*
X006874Y000762D01*
X006881Y000778D01*
X006885Y000795D01*
X006887Y000812D01*
X006887Y001512D01*
X006885Y001529D01*
X006881Y001546D01*
X006874Y001562D01*
X006864Y001576D01*
X006851Y001589D01*
X006837Y001599D01*
X006821Y001606D01*
X006804Y001610D01*
X006787Y001612D01*
X006637Y001612D01*
X006587Y001562D01*
X004687Y001562D01*
X004637Y001612D01*
X004487Y001612D01*
X004470Y001610D01*
X004453Y001606D01*
X004437Y001599D01*
X004423Y001589D01*
X004410Y001576D01*
X004400Y001562D01*
X004393Y001546D01*
X004389Y001529D01*
X004387Y001512D01*
D18*
X010879Y028862D03*
X010879Y032312D03*
D19*
X010779Y031587D03*
X010779Y030587D03*
X010779Y029587D03*
D20*
X010879Y030087D03*
X010879Y031087D03*
D21*
X013470Y031295D02*
X013470Y031595D01*
X013470Y031895D01*
X013670Y031895D02*
X013670Y031595D01*
X013670Y031295D01*
X015065Y030010D02*
X015365Y030010D01*
X015665Y030010D01*
X015665Y029810D02*
X015365Y029810D01*
X015065Y029810D01*
X001656Y001706D02*
X001658Y001652D01*
X001663Y001598D01*
X001672Y001545D01*
X001685Y001492D01*
X001701Y001441D01*
X001721Y001391D01*
X001744Y001342D01*
X001770Y001294D01*
X001799Y001249D01*
X001832Y001206D01*
X001867Y001165D01*
X001905Y001126D01*
X001945Y001090D01*
X001988Y001057D01*
X002033Y001027D01*
X002080Y001000D01*
X002853Y001010D02*
X002901Y001040D01*
X002946Y001073D01*
X002989Y001109D01*
X003030Y001147D01*
X003067Y001189D01*
X003102Y001233D01*
X003133Y001279D01*
X003162Y001328D01*
X003186Y001378D01*
X003207Y001430D01*
X003225Y001484D01*
X003238Y001538D01*
X003248Y001593D01*
X003254Y001649D01*
X003256Y001705D01*
X003256Y001706D02*
X003254Y001759D01*
X003249Y001813D01*
X003240Y001865D01*
X003228Y001917D01*
X003212Y001968D01*
X003193Y002018D01*
X003170Y002067D01*
X003144Y002114D01*
X003116Y002159D01*
X003084Y002202D01*
X003050Y002242D01*
X003012Y002281D01*
X002973Y002317D01*
X001944Y002321D02*
X001904Y002285D01*
X001866Y002246D01*
X001831Y002205D01*
X001799Y002162D01*
X001769Y002117D01*
X001743Y002070D01*
X001721Y002021D01*
X001701Y001970D01*
X001685Y001919D01*
X001672Y001867D01*
X001663Y001813D01*
X001658Y001760D01*
X001656Y001706D01*
D22*
X004217Y001162D03*
X007057Y001162D03*
M02*
