G75*
G70*
%OFA0B0*%
%FSLAX24Y24*%
%IPPOS*%
%LPD*%
%AMOC8*
5,1,8,0,0,1.08239X$1,22.5*
%
%ADD10C,0.0120*%
%ADD11R,0.0591X0.0118*%
%ADD12R,0.0118X0.0591*%
D10*
X001007Y000170D02*
X018692Y000170D01*
X018692Y032847D01*
X001007Y032847D01*
X001007Y000170D01*
D11*
X007546Y015369D03*
X007546Y015565D03*
X007546Y015762D03*
X007546Y015959D03*
X007546Y016156D03*
X007546Y016353D03*
X007546Y016550D03*
X007546Y016747D03*
X007546Y016943D03*
X007546Y017140D03*
X007546Y017337D03*
X007546Y017534D03*
X007546Y017731D03*
X007546Y017928D03*
X007546Y018125D03*
X007546Y018321D03*
X012034Y018321D03*
X012034Y018125D03*
X012034Y017928D03*
X012034Y017731D03*
X012034Y017534D03*
X012034Y017337D03*
X012034Y017140D03*
X012034Y016943D03*
X012034Y016747D03*
X012034Y016550D03*
X012034Y016353D03*
X012034Y016156D03*
X012034Y015959D03*
X012034Y015762D03*
X012034Y015565D03*
X012034Y015369D03*
D12*
X011266Y014601D03*
X011069Y014601D03*
X010873Y014601D03*
X010676Y014601D03*
X010479Y014601D03*
X010282Y014601D03*
X010085Y014601D03*
X009888Y014601D03*
X009691Y014601D03*
X009495Y014601D03*
X009298Y014601D03*
X009101Y014601D03*
X008904Y014601D03*
X008707Y014601D03*
X008510Y014601D03*
X008314Y014601D03*
X008314Y019089D03*
X008510Y019089D03*
X008707Y019089D03*
X008904Y019089D03*
X009101Y019089D03*
X009298Y019089D03*
X009495Y019089D03*
X009691Y019089D03*
X009888Y019089D03*
X010085Y019089D03*
X010282Y019089D03*
X010479Y019089D03*
X010676Y019089D03*
X010873Y019089D03*
X011069Y019089D03*
X011266Y019089D03*
M02*
