%
M48
M72
T01C0.0236
T02C0.0276
T03C0.0315
T04C0.0320
T05C0.0396
T06C0.0400
T07C0.0748
%
T01
X3842Y24052
X4432Y22280
X2838Y18044
X3842Y14068
X3369Y11520
X5995Y11509
X6779Y14757
X11070Y12257
X11976Y13339
X14338Y7808
X14141Y6843
X16759Y7414
X16743Y28083
X16763Y22060
X11247Y27493
X9357Y27513
X5999Y7284
X6779Y6410
X3487Y7060
T02
X13570Y30391
X13570Y29391
X11972Y9973
X10972Y9973
X9972Y9973
T03
X7610Y29125
X7980Y29745
X8310Y29125
X8670Y29745
X8980Y29125
X11956Y25485
X12428Y14855
X15696Y2572
T04
X13070Y31595
X14070Y31595
X15365Y30410
X15365Y29410
X2456Y2206
X2456Y1206
X3637Y1162
X7637Y1162
T05
X1880Y32065
X1880Y31065
X1880Y30065
X1880Y29065
X1880Y28065
X1880Y27065
X1880Y26065
X1880Y25065
X1880Y24065
X1880Y23065
X1880Y22065
X1880Y21065
X1880Y20065
X1880Y19065
X1880Y18065
X1880Y17065
X1880Y16065
X1880Y15065
X1880Y14065
X1880Y13065
X1880Y12065
X1880Y11065
X1880Y10065
X1880Y9065
X1880Y8065
X1880Y7065
X1880Y6065
X1880Y5065
X1880Y4065
X1880Y3065
X17880Y3065
X17880Y4065
X17880Y5065
X17880Y6065
X17880Y7065
X17880Y8065
X17880Y9065
X17880Y10065
X17880Y11065
X17880Y12065
X17880Y13065
X17880Y14065
X17880Y15065
X17880Y16065
X17880Y17065
X17880Y18065
X17880Y19065
X17880Y20065
X17880Y21065
X17880Y22065
X17880Y23065
X17880Y24065
X17880Y25065
X17880Y26065
X17880Y27065
X17880Y28065
X17880Y29065
X17880Y30065
X17880Y31065
X17880Y32065
X17880Y2065
X17880Y1065
T06
X11629Y31587
X11629Y30587
X11629Y29587
X11814Y3333
X10814Y3333
X9814Y3333
X8814Y3333
X7814Y3333
T07
X6873Y31225
X9747Y31225
M30
