G75*
G70*
%OFA0B0*%
%FSLAX24Y24*%
%IPPOS*%
%LPD*%
%AMOC8*
5,1,8,0,0,1.08239X$1,22.5*
%
%ADD10C,0.0098*%
%ADD11C,0.0080*%
%ADD12R,0.0394X0.0433*%
D10*
X000156Y000156D02*
X000156Y032783D01*
X015081Y032783D01*
X015083Y032781D01*
X015083Y000156D01*
X000156Y000156D01*
X006931Y014617D02*
X007013Y014699D01*
X007153Y014560D02*
X007071Y014478D01*
X007210Y014339D02*
X007292Y014421D01*
X007431Y014281D02*
X007349Y014199D01*
X007683Y014281D02*
X007765Y014199D01*
X007904Y014339D02*
X007822Y014421D01*
X007962Y014560D02*
X008044Y014478D01*
X008183Y014617D02*
X008101Y014699D01*
X008240Y014838D02*
X008322Y014756D01*
X008461Y014895D02*
X008379Y014977D01*
X008518Y015117D02*
X008600Y015035D01*
X008740Y015174D02*
X008658Y015256D01*
X008797Y015395D02*
X008879Y015313D01*
X009018Y015452D02*
X008936Y015534D01*
X009075Y015673D02*
X009157Y015591D01*
X009296Y015731D02*
X009214Y015813D01*
X009353Y015952D02*
X009435Y015870D01*
X009575Y016009D02*
X009493Y016091D01*
X009632Y016230D02*
X009714Y016148D01*
X009853Y016287D02*
X009771Y016369D01*
X009771Y016621D02*
X009853Y016703D01*
X009714Y016843D02*
X009632Y016761D01*
X009493Y016900D02*
X009575Y016982D01*
X009435Y017121D02*
X009353Y017039D01*
X009214Y017178D02*
X009296Y017260D01*
X009157Y017399D02*
X009075Y017317D01*
X008936Y017457D02*
X009018Y017539D01*
X008879Y017678D02*
X008797Y017596D01*
X008658Y017735D02*
X008740Y017817D01*
X008600Y017956D02*
X008518Y017874D01*
X008379Y018013D02*
X008461Y018095D01*
X008322Y018235D02*
X008240Y018153D01*
X008101Y018292D02*
X008183Y018374D01*
X008044Y018513D02*
X007962Y018431D01*
X007822Y018570D02*
X007904Y018652D01*
X007765Y018791D02*
X007683Y018709D01*
X007431Y018709D02*
X007349Y018791D01*
X007210Y018652D02*
X007292Y018570D01*
X007153Y018431D02*
X007071Y018513D01*
X006931Y018374D02*
X007013Y018292D01*
X006874Y018153D02*
X006792Y018235D01*
X006653Y018095D02*
X006735Y018013D01*
X006596Y017874D02*
X006514Y017956D01*
X006375Y017817D02*
X006457Y017735D01*
X006318Y017596D02*
X006236Y017678D01*
X006096Y017539D02*
X006178Y017457D01*
X006039Y017317D02*
X005957Y017399D01*
X005818Y017260D02*
X005900Y017178D01*
X005761Y017039D02*
X005679Y017121D01*
X005540Y016982D02*
X005622Y016900D01*
X005482Y016761D02*
X005400Y016843D01*
X005261Y016703D02*
X005343Y016621D01*
X005343Y016369D02*
X005261Y016287D01*
X005400Y016148D02*
X005482Y016230D01*
X005622Y016091D02*
X005540Y016009D01*
X005679Y015870D02*
X005761Y015952D01*
X005900Y015813D02*
X005818Y015731D01*
X005957Y015591D02*
X006039Y015673D01*
X006178Y015534D02*
X006096Y015452D01*
X006236Y015313D02*
X006318Y015395D01*
X006457Y015256D02*
X006375Y015174D01*
X006514Y015035D02*
X006596Y015117D01*
X006735Y014977D02*
X006653Y014895D01*
X006792Y014756D02*
X006874Y014838D01*
D11*
X007143Y015044D02*
X007971Y015044D01*
X007893Y014966D02*
X007222Y014966D01*
X007300Y014887D02*
X007814Y014887D01*
X007735Y014809D02*
X007379Y014809D01*
X007457Y014730D02*
X007657Y014730D01*
X007578Y014651D02*
X007536Y014651D01*
X007557Y014630D02*
X005692Y016495D01*
X007488Y018291D01*
X007627Y018291D01*
X009422Y016495D01*
X007557Y014630D01*
X007065Y015123D02*
X008050Y015123D01*
X008128Y015201D02*
X006986Y015201D01*
X006908Y015280D02*
X008207Y015280D01*
X008285Y015358D02*
X006829Y015358D01*
X006750Y015437D02*
X008364Y015437D01*
X008442Y015515D02*
X006672Y015515D01*
X006593Y015594D02*
X008521Y015594D01*
X008599Y015673D02*
X006515Y015673D01*
X006436Y015751D02*
X008678Y015751D01*
X008757Y015830D02*
X006358Y015830D01*
X006279Y015908D02*
X008835Y015908D01*
X008914Y015987D02*
X006201Y015987D01*
X006122Y016065D02*
X008992Y016065D01*
X009071Y016144D02*
X006044Y016144D01*
X005965Y016222D02*
X009149Y016222D01*
X009228Y016301D02*
X005886Y016301D01*
X005808Y016379D02*
X009306Y016379D01*
X009385Y016458D02*
X005729Y016458D01*
X005733Y016536D02*
X009381Y016536D01*
X009303Y016615D02*
X005811Y016615D01*
X005890Y016694D02*
X009224Y016694D01*
X009146Y016772D02*
X005969Y016772D01*
X006047Y016851D02*
X009067Y016851D01*
X008989Y016929D02*
X006126Y016929D01*
X006204Y017008D02*
X008910Y017008D01*
X008831Y017086D02*
X006283Y017086D01*
X006361Y017165D02*
X008753Y017165D01*
X008674Y017243D02*
X006440Y017243D01*
X006518Y017322D02*
X008596Y017322D01*
X008517Y017400D02*
X006597Y017400D01*
X006675Y017479D02*
X008439Y017479D01*
X008360Y017558D02*
X006754Y017558D01*
X006833Y017636D02*
X008282Y017636D01*
X008203Y017715D02*
X006911Y017715D01*
X006990Y017793D02*
X008125Y017793D01*
X008046Y017872D02*
X007068Y017872D01*
X007147Y017950D02*
X007967Y017950D01*
X007889Y018029D02*
X007225Y018029D01*
X007304Y018107D02*
X007810Y018107D01*
X007732Y018186D02*
X007382Y018186D01*
X007461Y018264D02*
X007653Y018264D01*
D12*
X008316Y012284D03*
X008316Y011615D03*
X006767Y011610D03*
X006767Y012280D03*
M02*
