%
M48
M72
T01C0.0200
T02C0.0320
T03C0.0396
%
T01
X2003Y10526
X1676Y11306
X6773Y10693
X7548Y13306
X7548Y15356
X7573Y17656
X7573Y19993
X7573Y21743
X12381Y19064
X12831Y20064
X13518Y21764
X13361Y11994
X12043Y8571
X11343Y7273
X8323Y10693
X1963Y22511
T02
X7574Y6513
X7574Y8413
X8548Y23305
X8548Y24305
X7521Y26657
X7521Y28557
X6533Y24312
X6533Y23312
T03
X970Y1036
X970Y2036
X970Y3036
X970Y4036
X970Y5036
X970Y6036
X970Y7036
X970Y8036
X970Y9036
X970Y10036
X970Y11036
X970Y12036
X970Y13036
X970Y14036
X970Y15036
X970Y16036
X970Y17036
X970Y18036
X970Y19036
X970Y20036
X970Y21036
X970Y22036
X970Y23036
X970Y24036
X970Y25036
X970Y26036
X970Y27036
X970Y28036
X970Y29036
X970Y30036
X970Y31036
X970Y32036
X14190Y32036
X14190Y31036
X14190Y30036
X14190Y29036
X14190Y28036
X14190Y27036
X14190Y26036
X14190Y25036
X14190Y24036
X14190Y23036
X14190Y22036
X14190Y21036
X14190Y20036
X14190Y19036
X14190Y18036
X14190Y17036
X14190Y16036
X14190Y15036
X14190Y14036
X14190Y13036
X14190Y12036
X14190Y11036
X14190Y10036
X14190Y9036
X14190Y8036
X14190Y7036
X14190Y6036
X14190Y5036
X14190Y4036
X14190Y3036
X14190Y2036
X14190Y1036
M30
