G75*
G70*
%OFA0B0*%
%FSLAX24Y24*%
%IPPOS*%
%LPD*%
%AMOC8*
5,1,8,0,0,1.08239X$1,22.5*
%
%ADD10C,0.0098*%
%ADD11R,0.2795X0.2795*%
%ADD12C,0.0520*%
%ADD13R,0.0394X0.0433*%
%ADD14OC8,0.0520*%
%ADD15C,0.0742*%
%ADD16C,0.0320*%
D10*
X000156Y000156D02*
X000156Y032783D01*
X015081Y032783D01*
X015083Y032781D01*
X015083Y000156D01*
X000156Y000156D01*
X001038Y000989D02*
X001488Y000989D01*
X005161Y004661D01*
X005161Y012004D01*
X005157Y011996D02*
X007425Y014276D01*
X007431Y014281D02*
X007349Y014199D01*
X007210Y014339D02*
X007292Y014421D01*
X007279Y014409D02*
X004811Y011942D01*
X004811Y011941D02*
X004811Y005311D01*
X001488Y001989D01*
X001038Y001989D01*
X001038Y002989D02*
X001488Y002989D01*
X004461Y005961D01*
X004461Y011878D01*
X004466Y011887D02*
X007146Y014554D01*
X007153Y014560D02*
X007071Y014478D01*
X006931Y014617D02*
X007013Y014699D01*
X006998Y014685D02*
X004106Y011793D01*
X004111Y011791D02*
X004111Y006611D01*
X001488Y003989D01*
X001038Y003989D01*
X001038Y004989D02*
X001488Y004989D01*
X003761Y007261D01*
X003761Y011728D01*
X003762Y011728D02*
X006867Y014833D01*
X006874Y014838D02*
X006792Y014756D01*
X006653Y014895D02*
X006735Y014977D01*
X006727Y014970D02*
X003409Y011653D01*
X003411Y011653D02*
X003411Y007911D01*
X001488Y005989D01*
X001038Y005989D01*
X001038Y006989D02*
X001488Y006989D01*
X003061Y008561D01*
X003061Y011579D01*
X003063Y011586D02*
X006593Y015116D01*
X006596Y015117D02*
X006514Y015035D01*
X006375Y015174D02*
X006457Y015256D01*
X006446Y015246D02*
X002703Y011504D01*
X002711Y011516D02*
X002711Y010519D01*
X002713Y010564D02*
X002713Y009214D01*
X001488Y007989D01*
X001038Y007989D01*
X001038Y008989D02*
X001488Y008989D01*
X002363Y009864D01*
X002363Y010539D01*
X002361Y010519D02*
X002361Y011441D01*
X002363Y011444D02*
X006293Y015374D01*
X006318Y015395D02*
X006236Y015313D01*
X006096Y015452D02*
X006178Y015534D01*
X006153Y015509D02*
X002011Y011366D01*
X002011Y010519D01*
X001491Y009999D01*
X001041Y009999D01*
X000976Y011056D02*
X001466Y011056D01*
X006016Y015651D01*
X006039Y015673D02*
X005957Y015591D01*
X005818Y015731D02*
X005900Y015813D01*
X005871Y015784D02*
X002071Y011984D01*
X001016Y011984D01*
X001013Y012989D02*
X002796Y012989D01*
X005736Y015929D01*
X005761Y015952D02*
X005679Y015870D01*
X005540Y016009D02*
X005622Y016091D01*
X005598Y016069D02*
X003518Y013989D01*
X001013Y013989D01*
X001013Y014989D02*
X004238Y014989D01*
X005458Y016209D01*
X005482Y016230D02*
X005400Y016148D01*
X005261Y016287D02*
X005343Y016369D01*
X005328Y016354D02*
X004963Y015989D01*
X000988Y015989D01*
X000948Y017043D02*
X004923Y017043D01*
X005288Y016678D01*
X005261Y016703D02*
X005343Y016621D01*
X005482Y016761D02*
X005400Y016843D01*
X005418Y016823D02*
X004198Y018043D01*
X000973Y018043D01*
X000973Y019043D02*
X003478Y019043D01*
X005558Y016963D01*
X005540Y016982D02*
X005622Y016900D01*
X005761Y017039D02*
X005679Y017121D01*
X005696Y017103D02*
X002756Y020043D01*
X000973Y020043D01*
X000976Y021048D02*
X002031Y021048D01*
X005831Y017248D01*
X005818Y017260D02*
X005900Y017178D01*
X006039Y017317D02*
X005957Y017399D01*
X005976Y017381D02*
X001301Y022056D01*
X000976Y022056D01*
X001001Y023033D02*
X001451Y023033D01*
X001971Y022513D01*
X001971Y021666D01*
X006113Y017523D01*
X006096Y017539D02*
X006178Y017457D01*
X006318Y017596D02*
X006236Y017678D01*
X006253Y017658D02*
X002323Y021588D01*
X002321Y021591D02*
X002321Y022513D01*
X002323Y022493D02*
X002323Y023168D01*
X002273Y023218D01*
X001453Y024043D01*
X000998Y024043D01*
X000998Y025043D02*
X001453Y025043D01*
X002673Y023818D01*
X002673Y022468D01*
X002671Y022513D02*
X002671Y021516D01*
X002663Y021528D02*
X006406Y017786D01*
X006375Y017817D02*
X006457Y017735D01*
X006596Y017874D02*
X006514Y017956D01*
X006553Y017916D02*
X003023Y021446D01*
X003021Y021453D02*
X003021Y024471D01*
X001453Y026043D01*
X000998Y026043D01*
X000998Y027043D02*
X001461Y027043D01*
X003371Y025121D01*
X003371Y021379D01*
X003369Y021379D02*
X006687Y018062D01*
X006653Y018095D02*
X006735Y018013D01*
X006874Y018153D02*
X006792Y018235D01*
X006827Y018199D02*
X003722Y021304D01*
X003721Y021304D02*
X003721Y025771D01*
X001453Y028043D01*
X000998Y028043D01*
X000998Y029043D02*
X001453Y029043D01*
X004071Y026421D01*
X004071Y021241D01*
X004066Y021239D02*
X006958Y018347D01*
X006931Y018374D02*
X007013Y018292D01*
X007153Y018431D02*
X007071Y018513D01*
X007106Y018478D02*
X004426Y021145D01*
X004421Y021154D02*
X004421Y027071D01*
X001453Y030043D01*
X000998Y030043D01*
X000998Y031043D02*
X001453Y031043D01*
X004771Y027721D01*
X004771Y021091D01*
X004771Y021090D02*
X007239Y018623D01*
X007210Y018652D02*
X007292Y018570D01*
X007431Y018709D02*
X007349Y018791D01*
X007385Y018756D02*
X005117Y021036D01*
X005121Y021028D02*
X005121Y028371D01*
X001453Y032043D01*
X000998Y032043D01*
X007573Y021743D02*
X007573Y019993D01*
X007752Y018779D02*
X010019Y021059D01*
X010016Y021051D02*
X010016Y028393D01*
X013689Y032066D01*
X013688Y032066D02*
X014086Y032066D01*
X014139Y031066D02*
X013689Y031066D01*
X010366Y027743D01*
X010366Y021113D01*
X007898Y018645D01*
X007904Y018652D02*
X007822Y018570D01*
X007683Y018709D02*
X007765Y018791D01*
X008031Y018500D02*
X010711Y021168D01*
X010716Y021176D02*
X010716Y027093D01*
X013689Y030066D01*
X014139Y030066D01*
X014139Y029066D02*
X013689Y029066D01*
X011066Y026443D01*
X011066Y021263D01*
X011071Y021262D02*
X008179Y018369D01*
X008183Y018374D02*
X008101Y018292D01*
X008240Y018153D02*
X008322Y018235D01*
X008310Y018222D02*
X011415Y021327D01*
X011416Y021326D02*
X011416Y025793D01*
X013689Y028066D01*
X014139Y028066D01*
X014139Y027066D02*
X013689Y027066D01*
X011766Y025143D01*
X011766Y021401D01*
X011767Y021402D02*
X008450Y018084D01*
X008461Y018095D02*
X008379Y018013D01*
X008518Y017874D02*
X008600Y017956D01*
X008584Y017939D02*
X012114Y021469D01*
X012116Y021476D02*
X012116Y024493D01*
X013689Y026066D01*
X014139Y026066D01*
X014139Y025066D02*
X013689Y025066D01*
X012464Y023841D01*
X012464Y022491D01*
X012466Y022536D02*
X012466Y021538D01*
X012474Y021551D02*
X008731Y017808D01*
X008740Y017817D02*
X008658Y017735D01*
X008797Y017596D02*
X008879Y017678D01*
X008884Y017681D02*
X012814Y021611D01*
X012816Y021613D02*
X012816Y022536D01*
X012814Y022516D02*
X012814Y023191D01*
X013689Y024066D01*
X014139Y024066D01*
X014136Y023056D02*
X013686Y023056D01*
X013166Y022536D01*
X013166Y021688D01*
X009024Y017546D01*
X009018Y017539D02*
X008936Y017457D01*
X009075Y017317D02*
X009157Y017399D01*
X009161Y017403D02*
X013836Y022078D01*
X014161Y022078D01*
X014161Y021071D02*
X013106Y021071D01*
X009306Y017271D01*
X009296Y017260D02*
X009214Y017178D01*
X009353Y017039D02*
X009435Y017121D01*
X009441Y017126D02*
X012381Y020066D01*
X014164Y020066D01*
X014164Y019066D02*
X011659Y019066D01*
X009579Y016986D01*
X009575Y016982D02*
X009493Y016900D01*
X009632Y016761D02*
X009714Y016843D01*
X009719Y016846D02*
X010939Y018066D01*
X014164Y018066D01*
X014189Y017066D02*
X010214Y017066D01*
X009849Y016701D01*
X009853Y016703D02*
X009771Y016621D01*
X009771Y016369D02*
X010136Y016004D01*
X014111Y016004D01*
X014086Y015004D02*
X010861Y015004D01*
X009641Y016224D01*
X009632Y016230D02*
X009714Y016148D01*
X009575Y016009D02*
X009493Y016091D01*
X009501Y016084D02*
X011581Y014004D01*
X014086Y014004D01*
X014086Y013004D02*
X012304Y013004D01*
X009364Y015944D01*
X009353Y015952D02*
X009435Y015870D01*
X009296Y015731D02*
X009214Y015813D01*
X009229Y015799D02*
X013029Y011999D01*
X014084Y011999D01*
X014173Y010993D02*
X013573Y010993D01*
X013498Y011068D01*
X013498Y011243D01*
X013499Y011241D02*
X009084Y015666D01*
X009075Y015673D02*
X009157Y015591D01*
X009018Y015452D02*
X008936Y015534D01*
X008946Y015524D02*
X013089Y011381D01*
X013089Y010534D01*
X013609Y010014D01*
X014059Y010014D01*
X014061Y009004D02*
X013611Y009004D01*
X012736Y009879D01*
X012736Y010554D01*
X012739Y010534D02*
X012739Y011456D01*
X012736Y011459D02*
X008806Y015389D01*
X008797Y015395D02*
X008879Y015313D01*
X008740Y015174D02*
X008658Y015256D01*
X008654Y015261D02*
X012396Y011519D01*
X012389Y011531D02*
X012389Y010534D01*
X012386Y010579D02*
X012386Y009229D01*
X013611Y008004D01*
X014061Y008004D01*
X014061Y007004D02*
X013611Y007004D01*
X012039Y008576D01*
X012039Y011594D01*
X012036Y011601D02*
X008506Y015131D01*
X008518Y015117D02*
X008600Y015035D01*
X008461Y014895D02*
X008379Y014977D01*
X008373Y014985D02*
X011690Y011668D01*
X011689Y011668D02*
X011689Y007926D01*
X013611Y006004D01*
X014061Y006004D01*
X014061Y005004D02*
X013611Y005004D01*
X011339Y007276D01*
X011339Y011743D01*
X011337Y011743D02*
X008232Y014848D01*
X008240Y014838D02*
X008322Y014756D01*
X008183Y014617D02*
X008101Y014699D01*
X008101Y014700D02*
X010994Y011808D01*
X010989Y011806D02*
X010989Y006626D01*
X013611Y004004D01*
X014061Y004004D01*
X014061Y003004D02*
X013611Y003004D01*
X010639Y005976D01*
X010639Y011893D01*
X010634Y011902D02*
X007954Y014569D01*
X007962Y014560D02*
X008044Y014478D01*
X007904Y014339D02*
X007822Y014421D01*
X007821Y014424D02*
X010288Y011957D01*
X010289Y011956D02*
X010289Y005326D01*
X013611Y002004D01*
X014061Y002004D01*
X014061Y001004D02*
X013611Y001004D01*
X009939Y004676D01*
X009939Y012019D01*
X009942Y012011D02*
X007675Y014291D01*
X007683Y014281D02*
X007765Y014199D01*
X007548Y013293D02*
X008323Y012643D01*
X008323Y012443D01*
X008323Y011493D02*
X008323Y010693D01*
X006773Y012643D02*
X007548Y013293D01*
X006773Y012643D02*
X006773Y012443D01*
X006773Y011443D02*
X006773Y010693D01*
X009853Y016287D02*
X009771Y016369D01*
X007962Y018431D02*
X008044Y018513D01*
D11*
G36*
X007557Y014520D02*
X005582Y016495D01*
X007557Y018470D01*
X009532Y016495D01*
X007557Y014520D01*
G37*
D12*
X007574Y008413D03*
X007574Y006513D03*
X007521Y026657D03*
X007521Y028557D03*
D13*
X008316Y012284D03*
X008316Y011615D03*
X006767Y011610D03*
X006767Y012280D03*
D14*
X006533Y023312D03*
X006533Y024312D03*
X008548Y024305D03*
X008548Y023305D03*
D15*
X014190Y023036D03*
X014190Y024036D03*
X014190Y025036D03*
X014190Y026036D03*
X014190Y027036D03*
X014190Y028036D03*
X014190Y029036D03*
X014190Y030036D03*
X014190Y031036D03*
X014190Y032036D03*
X014190Y022036D03*
X014190Y021036D03*
X014190Y020036D03*
X014190Y019036D03*
X014190Y018036D03*
X014190Y017036D03*
X014190Y016036D03*
X014190Y015036D03*
X014190Y014036D03*
X014190Y013036D03*
X014190Y012036D03*
X014190Y011036D03*
X014190Y010036D03*
X014190Y009036D03*
X014190Y008036D03*
X014190Y007036D03*
X014190Y006036D03*
X014190Y005036D03*
X014190Y004036D03*
X014190Y003036D03*
X014190Y002036D03*
X014190Y001036D03*
X000970Y001036D03*
X000970Y002036D03*
X000970Y003036D03*
X000970Y004036D03*
X000970Y005036D03*
X000970Y006036D03*
X000970Y007036D03*
X000970Y008036D03*
X000970Y009036D03*
X000970Y010036D03*
X000970Y011036D03*
X000970Y012036D03*
X000970Y013036D03*
X000970Y014036D03*
X000970Y015036D03*
X000970Y016036D03*
X000970Y017036D03*
X000970Y018036D03*
X000970Y019036D03*
X000970Y020036D03*
X000970Y021036D03*
X000970Y022036D03*
X000970Y023036D03*
X000970Y024036D03*
X000970Y025036D03*
X000970Y026036D03*
X000970Y027036D03*
X000970Y028036D03*
X000970Y029036D03*
X000970Y030036D03*
X000970Y031036D03*
X000970Y032036D03*
D16*
X001963Y022511D03*
X001676Y011306D03*
X002003Y010526D03*
X006773Y010693D03*
X007548Y013306D03*
X007548Y015356D03*
X007573Y017656D03*
X007573Y019993D03*
X007573Y021743D03*
X012381Y019064D03*
X012831Y020064D03*
X013518Y021764D03*
X013361Y011994D03*
X012043Y008571D03*
X011343Y007273D03*
X008323Y010693D03*
M02*
