G75*
G70*
%OFA0B0*%
%FSLAX24Y24*%
%IPPOS*%
%LPD*%
%AMOC8*
5,1,8,0,0,1.08239X$1,22.5*
%
%ADD10C,0.0098*%
%ADD11C,0.0520*%
%ADD12OC8,0.0520*%
%ADD13C,0.0742*%
%ADD14C,0.0320*%
D10*
X000156Y000156D02*
X000156Y032783D01*
X015081Y032783D01*
X015083Y032781D01*
X015083Y000156D01*
X000156Y000156D01*
X006998Y006518D02*
X002998Y010518D01*
X001998Y010518D01*
X001673Y011318D02*
X002923Y011318D01*
X005823Y008418D01*
X007573Y008418D01*
X007573Y009893D01*
X006773Y010693D01*
X007548Y013293D02*
X007548Y015368D01*
X007573Y017668D02*
X007573Y019993D01*
X007573Y021743D02*
X007573Y022268D01*
X007573Y022343D01*
X008523Y023293D01*
X008548Y024343D02*
X008548Y027543D01*
X007523Y028568D01*
X007536Y028618D02*
X007536Y030243D01*
X008186Y030893D01*
X010198Y030893D01*
X011586Y029506D01*
X011586Y019856D01*
X012373Y019068D01*
X012823Y020068D02*
X011948Y020943D01*
X011948Y029506D01*
X010211Y031243D01*
X008061Y031243D01*
X007073Y030256D01*
X007073Y027281D01*
X007536Y026818D01*
X007481Y026668D02*
X007023Y026668D01*
X006523Y026168D01*
X006523Y024343D01*
X006548Y023293D02*
X007573Y022268D01*
X008811Y020831D02*
X013359Y016271D01*
X013361Y021213D02*
X013361Y011208D01*
X012556Y010403D01*
X012556Y009091D01*
X012038Y008573D01*
X012038Y007976D01*
X011338Y007276D01*
X008848Y007118D02*
X008848Y010168D01*
X008323Y010693D01*
X008848Y007118D02*
X008248Y006518D01*
X007573Y006518D01*
X007548Y006518D02*
X006998Y006518D01*
X005598Y020831D02*
X008811Y020831D01*
X010361Y021706D02*
X010361Y021706D01*
X013361Y021213D02*
X013523Y021376D01*
X013523Y021768D01*
X005598Y020831D02*
X004098Y022331D01*
X004098Y022331D01*
X003936Y022493D01*
X001973Y022493D01*
X005598Y020831D02*
X005598Y020831D01*
D11*
X007521Y026657D03*
X007521Y028557D03*
X007574Y008413D03*
X007574Y006513D03*
D12*
X008548Y023305D03*
X008548Y024305D03*
X006533Y024312D03*
X006533Y023312D03*
D13*
X000970Y023036D03*
X000970Y024036D03*
X000970Y025036D03*
X000970Y026036D03*
X000970Y027036D03*
X000970Y028036D03*
X000970Y029036D03*
X000970Y030036D03*
X000970Y031036D03*
X000970Y032036D03*
X000970Y022036D03*
X000970Y021036D03*
X000970Y020036D03*
X000970Y019036D03*
X000970Y018036D03*
X000970Y017036D03*
X000970Y016036D03*
X000970Y015036D03*
X000970Y014036D03*
X000970Y013036D03*
X000970Y012036D03*
X000970Y011036D03*
X000970Y010036D03*
X000970Y009036D03*
X000970Y008036D03*
X000970Y007036D03*
X000970Y006036D03*
X000970Y005036D03*
X000970Y004036D03*
X000970Y003036D03*
X000970Y002036D03*
X000970Y001036D03*
X014190Y001036D03*
X014190Y002036D03*
X014190Y003036D03*
X014190Y004036D03*
X014190Y005036D03*
X014190Y006036D03*
X014190Y007036D03*
X014190Y008036D03*
X014190Y009036D03*
X014190Y010036D03*
X014190Y011036D03*
X014190Y012036D03*
X014190Y013036D03*
X014190Y014036D03*
X014190Y015036D03*
X014190Y016036D03*
X014190Y017036D03*
X014190Y018036D03*
X014190Y019036D03*
X014190Y020036D03*
X014190Y021036D03*
X014190Y022036D03*
X014190Y023036D03*
X014190Y024036D03*
X014190Y025036D03*
X014190Y026036D03*
X014190Y027036D03*
X014190Y028036D03*
X014190Y029036D03*
X014190Y030036D03*
X014190Y031036D03*
X014190Y032036D03*
D14*
X013518Y021764D03*
X012831Y020064D03*
X012381Y019064D03*
X013361Y011994D03*
X012043Y008571D03*
X011343Y007273D03*
X008323Y010693D03*
X007548Y013306D03*
X007548Y015356D03*
X007573Y017656D03*
X007573Y019993D03*
X007573Y021743D03*
X006773Y010693D03*
X002003Y010526D03*
X001676Y011306D03*
X001963Y022511D03*
M02*
