G75*
G70*
%OFA0B0*%
%FSLAX24Y24*%
%IPPOS*%
%LPD*%
%AMOC8*
5,1,8,0,0,1.08239X$1,22.5*
%
%ADD10C,0.0098*%
%ADD11C,0.0020*%
%ADD12C,0.0010*%
%ADD13C,0.0040*%
%ADD14C,0.0160*%
%ADD15C,0.0060*%
%ADD16C,0.0050*%
%ADD17C,0.0220*%
%ADD18C,0.0100*%
D10*
X000156Y000156D02*
X000156Y032783D01*
X015081Y032783D01*
X015083Y032781D01*
X015083Y000156D01*
X000156Y000156D01*
D11*
X001368Y001324D02*
X001446Y001402D01*
X001498Y001402D01*
X001576Y001324D01*
X001628Y001376D02*
X001472Y001532D01*
X001550Y001610D01*
X001602Y001610D01*
X001654Y001558D01*
X001654Y001506D01*
X001576Y001428D01*
X001628Y001480D02*
X001732Y001480D01*
X001784Y001533D02*
X001888Y001636D01*
X001915Y001715D02*
X001967Y001715D01*
X002018Y001767D01*
X002018Y001818D01*
X001993Y001844D01*
X001941Y001844D01*
X001889Y001793D01*
X001837Y001793D01*
X001811Y001818D01*
X001811Y001870D01*
X001863Y001922D01*
X001915Y001922D01*
X001941Y002001D02*
X002097Y001845D01*
X002201Y001949D01*
X002071Y001975D02*
X002019Y001923D01*
X001941Y002001D02*
X002045Y002104D01*
X002097Y002157D02*
X002201Y002261D01*
X002149Y002209D02*
X002305Y002053D01*
X001916Y002664D02*
X001993Y002742D01*
X001993Y002793D01*
X001967Y002819D01*
X001916Y002819D01*
X001838Y002742D01*
X001916Y002819D02*
X001916Y002871D01*
X001890Y002897D01*
X001838Y002897D01*
X001760Y002819D01*
X001916Y002664D01*
X001889Y002585D02*
X001785Y002481D01*
X001577Y002481D02*
X001525Y002429D01*
X001473Y002377D02*
X001473Y002325D01*
X001395Y002247D01*
X001447Y002299D02*
X001551Y002299D01*
X001603Y002351D02*
X001447Y002507D01*
X001551Y002611D01*
X001421Y002429D02*
X001473Y002377D01*
X001421Y002429D02*
X001369Y002429D01*
X001291Y002351D01*
X001447Y002195D01*
X001732Y001792D02*
X001629Y001688D01*
X001784Y001533D01*
X001707Y001610D02*
X001758Y001662D01*
X001368Y001324D02*
X001472Y001220D01*
X002046Y002846D02*
X001942Y002950D01*
X001942Y003002D01*
X001994Y003053D01*
X002046Y003053D01*
X002098Y003002D02*
X002046Y002950D01*
X002098Y003002D02*
X002150Y002950D01*
X002150Y002898D01*
X002098Y002846D01*
X002046Y002846D01*
X001734Y003530D02*
X001579Y003686D01*
X001631Y003738D02*
X001735Y003842D01*
X001683Y003790D02*
X001839Y003634D01*
X001734Y003530D02*
X001475Y003582D01*
X001631Y003426D01*
X001578Y003374D02*
X001474Y003478D01*
X001371Y003478D01*
X001371Y003374D01*
X001474Y003270D01*
X001397Y003348D02*
X001500Y003452D01*
X001839Y003843D02*
X001813Y003868D01*
X001813Y003920D01*
X001865Y003972D01*
X001917Y003972D01*
X001943Y003894D02*
X001995Y003894D01*
X002021Y003868D01*
X002021Y003817D01*
X001969Y003765D01*
X001917Y003765D01*
X001891Y003843D02*
X001943Y003894D01*
X001891Y003843D02*
X001839Y003843D01*
X002021Y003973D02*
X002073Y004025D01*
X002047Y004154D02*
X001944Y004051D01*
X002099Y003895D01*
X002203Y003999D01*
X002256Y004051D02*
X002359Y004155D01*
X002412Y004207D02*
X002412Y004415D01*
X002386Y004441D01*
X002334Y004441D01*
X002282Y004389D01*
X002282Y004337D01*
X002412Y004207D02*
X002516Y004311D01*
X002256Y004051D02*
X002100Y004207D01*
X001821Y004549D02*
X001666Y004705D01*
X001717Y004757D02*
X001614Y004653D01*
X001561Y004601D02*
X001717Y004445D01*
X001457Y004497D01*
X001613Y004341D01*
X001561Y004289D02*
X001457Y004393D01*
X001353Y004393D01*
X001353Y004289D01*
X001457Y004185D01*
X001379Y004263D02*
X001483Y004367D01*
X001822Y004757D02*
X001874Y004757D01*
X001926Y004809D01*
X001978Y004809D01*
X002003Y004783D01*
X002003Y004732D01*
X001952Y004680D01*
X001900Y004680D01*
X001822Y004757D02*
X001796Y004783D01*
X001796Y004835D01*
X001848Y004887D01*
X001900Y004887D01*
X001926Y004966D02*
X002082Y004810D01*
X002186Y004914D01*
X002238Y004966D02*
X002082Y005122D01*
X002030Y005069D02*
X001926Y004966D01*
X002004Y004888D02*
X002056Y004940D01*
X002238Y004966D02*
X002342Y005070D01*
X002394Y005122D02*
X002498Y005226D01*
X002446Y005174D02*
X002290Y005330D01*
X002290Y005226D01*
X001736Y005459D02*
X001736Y005511D01*
X001736Y005459D02*
X001684Y005407D01*
X001632Y005407D01*
X001528Y005511D01*
X001528Y005563D01*
X001580Y005615D01*
X001632Y005615D01*
X001450Y005485D02*
X001606Y005329D01*
X001346Y005381D01*
X001502Y005225D01*
X001509Y006228D02*
X001354Y006383D01*
X001613Y006331D01*
X001457Y006487D01*
X001536Y006514D02*
X001640Y006410D01*
X001692Y006410D01*
X001743Y006462D01*
X001743Y006514D01*
X001640Y006617D02*
X001588Y006617D01*
X001536Y006565D01*
X001536Y006514D01*
X001489Y007210D02*
X001334Y007366D01*
X001593Y007314D01*
X001438Y007469D01*
X001516Y007496D02*
X001620Y007392D01*
X001672Y007392D01*
X001724Y007444D01*
X001724Y007496D01*
X001620Y007600D02*
X001568Y007600D01*
X001516Y007548D01*
X001516Y007496D01*
X001429Y008158D02*
X001533Y008261D01*
X001586Y008314D02*
X001664Y008392D01*
X001664Y008444D01*
X001560Y008547D01*
X001508Y008547D01*
X001430Y008469D01*
X001586Y008314D01*
X001429Y008158D02*
X001274Y008313D01*
X001612Y008600D02*
X001716Y008496D01*
X001768Y008496D01*
X001820Y008548D01*
X001820Y008600D01*
X001716Y008704D01*
X001664Y008704D01*
X001612Y008652D01*
X001612Y008600D01*
X001924Y008600D02*
X002028Y008704D01*
X002054Y008782D02*
X002106Y008834D01*
X002080Y008808D02*
X001925Y008964D01*
X001899Y008938D02*
X001951Y008990D01*
X002003Y009042D02*
X002262Y008990D01*
X002107Y009146D01*
X002185Y009173D02*
X002185Y009224D01*
X002237Y009276D01*
X002289Y009276D01*
X002315Y009250D01*
X002315Y009043D01*
X002418Y009147D01*
X002158Y008887D02*
X002003Y009042D01*
X002017Y012316D02*
X002164Y012463D01*
X002164Y012499D01*
X002127Y012536D01*
X002054Y012536D01*
X002017Y012499D01*
X001943Y012499D02*
X001906Y012536D01*
X001796Y012536D01*
X001796Y012316D01*
X001796Y012389D02*
X001906Y012389D01*
X001943Y012426D01*
X001943Y012499D01*
X002017Y012316D02*
X002164Y012316D01*
X001972Y013173D02*
X001898Y013173D01*
X001861Y013210D01*
X001787Y013173D02*
X001787Y013394D01*
X001714Y013320D01*
X001640Y013394D01*
X001640Y013173D01*
X001493Y013173D02*
X001493Y013394D01*
X001566Y013394D02*
X001419Y013394D01*
X001391Y012536D02*
X001354Y012499D01*
X001354Y012463D01*
X001391Y012426D01*
X001465Y012426D01*
X001501Y012389D01*
X001501Y012353D01*
X001465Y012316D01*
X001391Y012316D01*
X001354Y012353D01*
X001391Y012536D02*
X001465Y012536D01*
X001501Y012499D01*
X001575Y012499D02*
X001612Y012536D01*
X001686Y012536D01*
X001722Y012499D01*
X001722Y012353D01*
X001686Y012316D01*
X001612Y012316D01*
X001575Y012353D01*
X001575Y012499D01*
X001972Y013173D02*
X002008Y013210D01*
X002008Y013247D01*
X001972Y013284D01*
X001898Y013284D01*
X001861Y013320D01*
X001861Y013357D01*
X001898Y013394D01*
X001972Y013394D01*
X002008Y013357D01*
X001993Y014188D02*
X001883Y014299D01*
X001846Y014262D02*
X001993Y014409D01*
X001846Y014409D02*
X001846Y014188D01*
X001772Y014225D02*
X001736Y014188D01*
X001662Y014188D01*
X001625Y014225D01*
X001625Y014372D01*
X001662Y014409D01*
X001736Y014409D01*
X001772Y014372D01*
X001551Y014409D02*
X001404Y014409D01*
X001478Y014409D02*
X001478Y014188D01*
X001505Y015196D02*
X001541Y015233D01*
X001541Y015306D01*
X001468Y015306D01*
X001541Y015379D02*
X001505Y015416D01*
X001431Y015416D01*
X001394Y015379D01*
X001394Y015233D01*
X001431Y015196D01*
X001505Y015196D01*
X001615Y015196D02*
X001615Y015416D01*
X001726Y015416D01*
X001762Y015379D01*
X001762Y015306D01*
X001726Y015269D01*
X001615Y015269D01*
X001836Y015196D02*
X001910Y015196D01*
X001873Y015196D02*
X001873Y015416D01*
X001836Y015416D02*
X001910Y015416D01*
X001984Y015379D02*
X001984Y015233D01*
X002020Y015196D01*
X002094Y015196D01*
X002131Y015233D01*
X002131Y015379D01*
X002094Y015416D01*
X002020Y015416D01*
X001984Y015379D01*
X002205Y015379D02*
X002241Y015416D01*
X002315Y015416D01*
X002351Y015379D01*
X002351Y015343D01*
X002205Y015196D01*
X002351Y015196D01*
X002426Y015233D02*
X002426Y015269D01*
X002462Y015306D01*
X002536Y015306D01*
X002572Y015269D01*
X002572Y015233D01*
X002536Y015196D01*
X002462Y015196D01*
X002426Y015233D01*
X002462Y015306D02*
X002426Y015343D01*
X002426Y015379D01*
X002462Y015416D01*
X002536Y015416D01*
X002572Y015379D01*
X002572Y015343D01*
X002536Y015306D01*
X001952Y016163D02*
X001988Y016200D01*
X001988Y016347D01*
X001952Y016384D01*
X001878Y016384D01*
X001841Y016347D01*
X001841Y016200D01*
X001878Y016163D01*
X001952Y016163D01*
X001767Y016200D02*
X001767Y016347D01*
X001731Y016384D01*
X001620Y016384D01*
X001620Y016163D01*
X001731Y016163D01*
X001767Y016200D01*
X001546Y016384D02*
X001399Y016384D01*
X001473Y016384D02*
X001473Y016163D01*
X001488Y017251D02*
X001488Y017471D01*
X001561Y017471D02*
X001414Y017471D01*
X001635Y017471D02*
X001635Y017251D01*
X001745Y017251D01*
X001782Y017288D01*
X001782Y017434D01*
X001745Y017471D01*
X001635Y017471D01*
X001856Y017471D02*
X001930Y017471D01*
X001893Y017471D02*
X001893Y017251D01*
X001856Y017251D02*
X001930Y017251D01*
X001902Y018183D02*
X001829Y018183D01*
X001866Y018183D02*
X001866Y018404D01*
X001902Y018404D02*
X001829Y018404D01*
X001755Y018367D02*
X001755Y018293D01*
X001718Y018257D01*
X001608Y018257D01*
X001608Y018183D02*
X001608Y018404D01*
X001718Y018404D01*
X001755Y018367D01*
X001976Y018367D02*
X001976Y018220D01*
X002013Y018183D01*
X002086Y018183D01*
X002123Y018220D01*
X002123Y018367D01*
X002086Y018404D01*
X002013Y018404D01*
X001976Y018367D01*
X002197Y018367D02*
X002234Y018404D01*
X002307Y018404D01*
X002344Y018367D01*
X002344Y018330D01*
X002197Y018183D01*
X002344Y018183D01*
X002418Y018183D02*
X002565Y018330D01*
X002565Y018367D01*
X002528Y018404D01*
X002455Y018404D01*
X002418Y018367D01*
X002418Y018183D02*
X002565Y018183D01*
X001534Y018220D02*
X001534Y018293D01*
X001460Y018293D01*
X001387Y018220D02*
X001424Y018183D01*
X001497Y018183D01*
X001534Y018220D01*
X001534Y018367D02*
X001497Y018404D01*
X001424Y018404D01*
X001387Y018367D01*
X001387Y018220D01*
X002212Y024481D02*
X002238Y024507D01*
X002445Y024507D01*
X002471Y024533D01*
X002367Y024636D01*
X002263Y024741D02*
X002107Y024585D01*
X002055Y024637D02*
X002159Y024533D01*
X002159Y024741D02*
X002263Y024741D01*
X002133Y024819D02*
X002133Y024871D01*
X002081Y024923D01*
X002029Y024923D01*
X001925Y024819D01*
X001925Y024767D01*
X001977Y024715D01*
X002029Y024715D01*
X002133Y024819D01*
X002003Y025001D02*
X001951Y025053D01*
X001977Y025027D02*
X001821Y024871D01*
X001795Y024897D02*
X001847Y024846D01*
X001820Y025028D02*
X001872Y025080D01*
X001872Y025132D01*
X001794Y025209D01*
X001639Y025054D01*
X001691Y025106D02*
X001769Y025028D01*
X001820Y025028D01*
X001664Y025184D02*
X001612Y025236D01*
X001664Y025184D02*
X001612Y025132D01*
X001560Y025132D01*
X001509Y025184D01*
X001509Y025236D01*
X001612Y025340D01*
X001664Y025340D01*
X001716Y025288D01*
X001716Y025236D01*
X002112Y025585D02*
X002268Y025741D01*
X002164Y025741D01*
X002138Y025819D02*
X002138Y025871D01*
X002086Y025923D01*
X002034Y025923D01*
X001930Y025819D01*
X001930Y025767D01*
X001982Y025715D01*
X002034Y025715D01*
X002138Y025819D01*
X002060Y025637D02*
X002164Y025533D01*
X002243Y025507D02*
X002243Y025455D01*
X002294Y025403D01*
X002346Y025403D01*
X002372Y025429D01*
X002372Y025481D01*
X002294Y025559D01*
X002243Y025507D01*
X002294Y025559D02*
X002398Y025559D01*
X002476Y025533D01*
X002008Y026001D02*
X001956Y026053D01*
X001982Y026027D02*
X001826Y025871D01*
X001800Y025897D02*
X001852Y025846D01*
X001825Y026028D02*
X001774Y026028D01*
X001696Y026106D01*
X001644Y026054D02*
X001799Y026209D01*
X001877Y026132D01*
X001877Y026080D01*
X001825Y026028D01*
X001669Y026184D02*
X001617Y026236D01*
X001669Y026184D02*
X001617Y026132D01*
X001565Y026132D01*
X001514Y026184D01*
X001514Y026236D01*
X001617Y026340D01*
X001669Y026340D01*
X001721Y026288D01*
X001721Y026236D01*
X002068Y026634D02*
X002172Y026531D01*
X002120Y026583D02*
X002275Y026738D01*
X002172Y026738D01*
X002145Y026817D02*
X002145Y026869D01*
X002093Y026920D01*
X002041Y026920D01*
X001938Y026817D01*
X001938Y026765D01*
X001989Y026713D01*
X002041Y026713D01*
X002145Y026817D01*
X002015Y026999D02*
X001963Y027051D01*
X001989Y027025D02*
X001833Y026869D01*
X001808Y026895D02*
X001859Y026843D01*
X001833Y027025D02*
X001781Y027025D01*
X001703Y027103D01*
X001651Y027051D02*
X001807Y027207D01*
X001885Y027129D01*
X001885Y027077D01*
X001833Y027025D01*
X001677Y027181D02*
X001625Y027233D01*
X001677Y027181D02*
X001625Y027130D01*
X001573Y027130D01*
X001521Y027181D01*
X001521Y027233D01*
X001625Y027337D01*
X001677Y027337D01*
X001729Y027285D01*
X001729Y027233D01*
X002112Y027585D02*
X002268Y027741D01*
X002164Y027741D01*
X002138Y027819D02*
X002138Y027871D01*
X002086Y027923D01*
X002034Y027923D01*
X001930Y027819D01*
X001930Y027767D01*
X001982Y027715D01*
X002034Y027715D01*
X002138Y027819D01*
X002060Y027637D02*
X002164Y027533D01*
X002294Y027559D02*
X002398Y027455D01*
X002294Y027403D02*
X002450Y027559D01*
X002294Y027559D01*
X002008Y028001D02*
X001956Y028053D01*
X001982Y028027D02*
X001826Y027871D01*
X001800Y027897D02*
X001852Y027846D01*
X001825Y028028D02*
X001774Y028028D01*
X001696Y028106D01*
X001644Y028054D02*
X001799Y028209D01*
X001877Y028132D01*
X001877Y028080D01*
X001825Y028028D01*
X001669Y028184D02*
X001617Y028236D01*
X001669Y028184D02*
X001617Y028132D01*
X001565Y028132D01*
X001514Y028184D01*
X001514Y028236D01*
X001617Y028340D01*
X001669Y028340D01*
X001721Y028288D01*
X001721Y028236D01*
X002107Y028585D02*
X002263Y028741D01*
X002159Y028741D01*
X002133Y028819D02*
X002133Y028871D01*
X002081Y028923D01*
X002029Y028923D01*
X001925Y028819D01*
X001925Y028767D01*
X001977Y028715D01*
X002029Y028715D01*
X002133Y028819D01*
X002055Y028637D02*
X002159Y028533D01*
X002238Y028507D02*
X002238Y028455D01*
X002289Y028403D01*
X002341Y028403D01*
X002367Y028429D01*
X002367Y028481D01*
X002341Y028507D01*
X002367Y028481D02*
X002419Y028481D01*
X002445Y028507D01*
X002445Y028559D01*
X002393Y028610D01*
X002341Y028610D01*
X002003Y029001D02*
X001951Y029053D01*
X001977Y029027D02*
X001821Y028871D01*
X001795Y028897D02*
X001847Y028846D01*
X001820Y029028D02*
X001769Y029028D01*
X001691Y029106D01*
X001639Y029054D02*
X001794Y029209D01*
X001872Y029132D01*
X001872Y029080D01*
X001820Y029028D01*
X001664Y029184D02*
X001612Y029236D01*
X001664Y029184D02*
X001612Y029132D01*
X001560Y029132D01*
X001509Y029184D01*
X001509Y029236D01*
X001612Y029340D01*
X001664Y029340D01*
X001716Y029288D01*
X001716Y029236D01*
X002112Y029585D02*
X002268Y029741D01*
X002164Y029741D01*
X002138Y029819D02*
X002138Y029871D01*
X002086Y029923D01*
X002034Y029923D01*
X001930Y029819D01*
X001930Y029767D01*
X001982Y029715D01*
X002034Y029715D01*
X002138Y029819D01*
X002060Y029637D02*
X002164Y029533D01*
X002217Y029481D02*
X002424Y029481D01*
X002450Y029507D01*
X002450Y029559D01*
X002398Y029610D01*
X002346Y029610D01*
X002217Y029481D02*
X002320Y029377D01*
X002008Y030001D02*
X001956Y030053D01*
X001982Y030027D02*
X001826Y029871D01*
X001800Y029897D02*
X001852Y029846D01*
X001825Y030028D02*
X001774Y030028D01*
X001696Y030106D01*
X001644Y030054D02*
X001799Y030209D01*
X001877Y030132D01*
X001877Y030080D01*
X001825Y030028D01*
X001669Y030184D02*
X001617Y030236D01*
X001669Y030184D02*
X001617Y030132D01*
X001565Y030132D01*
X001514Y030184D01*
X001514Y030236D01*
X001617Y030340D01*
X001669Y030340D01*
X001721Y030288D01*
X001721Y030236D01*
X002115Y030583D02*
X002270Y030738D01*
X002167Y030738D01*
X002140Y030817D02*
X002140Y030869D01*
X002088Y030921D01*
X002036Y030921D01*
X001933Y030817D01*
X001933Y030765D01*
X001984Y030713D01*
X002036Y030713D01*
X002140Y030817D01*
X002063Y030635D02*
X002167Y030531D01*
X002219Y030478D02*
X002323Y030374D01*
X002271Y030426D02*
X002427Y030582D01*
X002323Y030582D01*
X002010Y030999D02*
X001958Y031051D01*
X001984Y031025D02*
X001828Y030869D01*
X001803Y030895D02*
X001854Y030843D01*
X001828Y031025D02*
X001776Y031025D01*
X001698Y031103D01*
X001646Y031051D02*
X001802Y031207D01*
X001880Y031129D01*
X001880Y031077D01*
X001828Y031025D01*
X001672Y031181D02*
X001620Y031233D01*
X001672Y031181D02*
X001620Y031130D01*
X001568Y031130D01*
X001516Y031181D01*
X001516Y031233D01*
X001620Y031337D01*
X001672Y031337D01*
X001724Y031285D01*
X001724Y031233D01*
X002118Y031550D02*
X002222Y031446D01*
X002170Y031498D02*
X002325Y031653D01*
X002222Y031653D01*
X002195Y031732D02*
X002195Y031784D01*
X002143Y031836D01*
X002091Y031836D01*
X001988Y031732D01*
X001988Y031680D01*
X002039Y031628D01*
X002091Y031628D01*
X002195Y031732D01*
X002065Y031914D02*
X002013Y031966D01*
X002039Y031940D02*
X001883Y031784D01*
X001858Y031810D02*
X001909Y031758D01*
X001883Y031940D02*
X001831Y031940D01*
X001753Y032018D01*
X001701Y031966D02*
X001857Y032122D01*
X001935Y032044D01*
X001935Y031992D01*
X001883Y031940D01*
X001727Y032096D02*
X001675Y032148D01*
X001727Y032096D02*
X001675Y032045D01*
X001623Y032045D01*
X001571Y032096D01*
X001571Y032148D01*
X001675Y032252D01*
X001727Y032252D01*
X001779Y032200D01*
X001779Y032148D01*
X002404Y031523D02*
X002456Y031523D01*
X002508Y031471D01*
X002508Y031419D01*
X002300Y031419D01*
X002300Y031367D01*
X002352Y031315D01*
X002404Y031315D01*
X002508Y031419D01*
X002404Y031523D02*
X002300Y031419D01*
X002380Y026634D02*
X002302Y026556D01*
X002380Y026530D01*
X002406Y026504D01*
X002406Y026452D01*
X002354Y026400D01*
X002302Y026400D01*
X002250Y026452D01*
X002250Y026504D01*
X002380Y026634D02*
X002484Y026530D01*
X005177Y031975D02*
X005177Y032195D01*
X005250Y032195D02*
X005103Y032195D01*
X005324Y032195D02*
X005398Y032195D01*
X005361Y032195D02*
X005361Y031975D01*
X005324Y031975D02*
X005398Y031975D01*
X005693Y032012D02*
X005729Y031975D01*
X005803Y031975D01*
X005840Y032012D01*
X005914Y032012D02*
X005950Y031975D01*
X006024Y031975D01*
X006061Y032012D01*
X006135Y032012D02*
X006171Y031975D01*
X006245Y031975D01*
X006281Y032012D01*
X006281Y032048D01*
X006245Y032085D01*
X006208Y032085D01*
X006245Y032085D02*
X006281Y032122D01*
X006281Y032159D01*
X006245Y032195D01*
X006171Y032195D01*
X006135Y032159D01*
X006061Y032159D02*
X006024Y032195D01*
X005950Y032195D01*
X005914Y032159D01*
X005914Y032012D01*
X005840Y032159D02*
X005803Y032195D01*
X005729Y032195D01*
X005693Y032159D01*
X005693Y032012D01*
X005853Y031700D02*
X005964Y031700D01*
X006000Y031664D01*
X006000Y031517D01*
X005964Y031480D01*
X005853Y031480D01*
X005853Y031700D01*
X006074Y031700D02*
X006148Y031700D01*
X006111Y031700D02*
X006111Y031480D01*
X006074Y031480D02*
X006148Y031480D01*
X006222Y031480D02*
X006222Y031700D01*
X006332Y031700D01*
X006369Y031664D01*
X006369Y031590D01*
X006332Y031553D01*
X006222Y031553D01*
X006318Y031225D02*
X006281Y031189D01*
X006281Y031152D01*
X006318Y031115D01*
X006391Y031115D01*
X006428Y031078D01*
X006428Y031042D01*
X006391Y031005D01*
X006318Y031005D01*
X006281Y031042D01*
X006318Y031225D02*
X006391Y031225D01*
X006428Y031189D01*
X006502Y031225D02*
X006502Y031042D01*
X006539Y031005D01*
X006612Y031005D01*
X006649Y031042D01*
X006649Y031225D01*
X006723Y031225D02*
X006796Y031152D01*
X006870Y031225D01*
X006870Y031005D01*
X006944Y031005D02*
X006944Y031225D01*
X007017Y031152D01*
X007091Y031225D01*
X007091Y031005D01*
X007165Y031005D02*
X007312Y031005D01*
X007386Y031005D02*
X007386Y031225D01*
X007496Y031225D01*
X007533Y031189D01*
X007533Y031115D01*
X007496Y031078D01*
X007386Y031078D01*
X007459Y031078D02*
X007533Y031005D01*
X007548Y031480D02*
X007694Y031480D01*
X007621Y031590D02*
X007548Y031590D01*
X007548Y031700D02*
X007548Y031480D01*
X007473Y031480D02*
X007363Y031590D01*
X007327Y031553D02*
X007473Y031700D01*
X007548Y031700D02*
X007694Y031700D01*
X007769Y031700D02*
X007915Y031700D01*
X007842Y031700D02*
X007842Y031480D01*
X007865Y031225D02*
X007828Y031189D01*
X007865Y031225D02*
X007938Y031225D01*
X007975Y031189D01*
X007975Y031152D01*
X007828Y031005D01*
X007975Y031005D01*
X008049Y031042D02*
X008196Y031189D01*
X008196Y031042D01*
X008159Y031005D01*
X008086Y031005D01*
X008049Y031042D01*
X008049Y031189D01*
X008086Y031225D01*
X008159Y031225D01*
X008196Y031189D01*
X008270Y031152D02*
X008343Y031225D01*
X008343Y031005D01*
X008270Y031005D02*
X008417Y031005D01*
X008491Y031042D02*
X008527Y031005D01*
X008601Y031005D01*
X008638Y031042D01*
X008638Y031115D01*
X008601Y031152D01*
X008564Y031152D01*
X008491Y031115D01*
X008491Y031225D01*
X008638Y031225D01*
X008653Y031480D02*
X008653Y031627D01*
X008726Y031700D01*
X008799Y031627D01*
X008799Y031480D01*
X008874Y031480D02*
X008874Y031700D01*
X008984Y031700D01*
X009020Y031664D01*
X009020Y031590D01*
X008984Y031553D01*
X008874Y031553D01*
X008947Y031553D02*
X009020Y031480D01*
X009095Y031480D02*
X009205Y031480D01*
X009241Y031517D01*
X009241Y031664D01*
X009205Y031700D01*
X009095Y031700D01*
X009095Y031480D01*
X008799Y031590D02*
X008653Y031590D01*
X008578Y031517D02*
X008578Y031664D01*
X008542Y031700D01*
X008468Y031700D01*
X008432Y031664D01*
X008432Y031517D01*
X008468Y031480D01*
X008542Y031480D01*
X008578Y031517D01*
X008357Y031517D02*
X008321Y031480D01*
X008211Y031480D01*
X008211Y031700D01*
X008321Y031700D01*
X008357Y031664D01*
X008357Y031627D01*
X008321Y031590D01*
X008211Y031590D01*
X008321Y031590D02*
X008357Y031553D01*
X008357Y031517D01*
X008418Y031975D02*
X008271Y031975D01*
X008271Y032195D01*
X008418Y032195D01*
X008344Y032085D02*
X008271Y032085D01*
X008197Y031975D02*
X008050Y031975D01*
X008050Y032195D01*
X007976Y032159D02*
X007939Y032195D01*
X007866Y032195D01*
X007829Y032159D01*
X007829Y032012D01*
X007866Y031975D01*
X007939Y031975D01*
X007976Y032012D01*
X007976Y032085D01*
X007902Y032085D01*
X007755Y031975D02*
X007755Y032195D01*
X007608Y032195D02*
X007755Y031975D01*
X007608Y031975D02*
X007608Y032195D01*
X007534Y032195D02*
X007461Y032195D01*
X007497Y032195D02*
X007497Y031975D01*
X007461Y031975D02*
X007534Y031975D01*
X007386Y032012D02*
X007350Y031975D01*
X007276Y031975D01*
X007240Y032012D01*
X007276Y032085D02*
X007350Y032085D01*
X007386Y032048D01*
X007386Y032012D01*
X007276Y032085D02*
X007240Y032122D01*
X007240Y032159D01*
X007276Y032195D01*
X007350Y032195D01*
X007386Y032159D01*
X007327Y031700D02*
X007327Y031480D01*
X007252Y031517D02*
X007216Y031480D01*
X007142Y031480D01*
X007106Y031517D01*
X007106Y031664D01*
X007142Y031700D01*
X007216Y031700D01*
X007252Y031664D01*
X007031Y031664D02*
X007031Y031517D01*
X006995Y031480D01*
X006921Y031480D01*
X006885Y031517D01*
X006885Y031664D01*
X006921Y031700D01*
X006995Y031700D01*
X007031Y031664D01*
X006908Y031975D02*
X006834Y031975D01*
X006798Y032012D01*
X006944Y032159D01*
X006944Y032012D01*
X006908Y031975D01*
X006798Y032012D02*
X006798Y032159D01*
X006834Y032195D01*
X006908Y032195D01*
X006944Y032159D01*
X006723Y032159D02*
X006577Y032012D01*
X006613Y031975D01*
X006687Y031975D01*
X006723Y032012D01*
X006723Y032159D01*
X006687Y032195D01*
X006613Y032195D01*
X006577Y032159D01*
X006577Y032012D01*
X006502Y031975D02*
X006356Y031975D01*
X006502Y032122D01*
X006502Y032159D01*
X006466Y032195D01*
X006392Y032195D01*
X006356Y032159D01*
X006700Y031700D02*
X006664Y031664D01*
X006664Y031627D01*
X006700Y031590D01*
X006774Y031590D01*
X006811Y031553D01*
X006811Y031517D01*
X006774Y031480D01*
X006700Y031480D01*
X006664Y031517D01*
X006700Y031700D02*
X006774Y031700D01*
X006811Y031664D01*
X006723Y031225D02*
X006723Y031005D01*
X007165Y031005D02*
X007165Y031225D01*
X007312Y031225D01*
X007238Y031115D02*
X007165Y031115D01*
X008713Y032012D02*
X008750Y031975D01*
X008823Y031975D01*
X008860Y032012D01*
X008934Y031975D02*
X008934Y032195D01*
X008860Y032159D02*
X008823Y032195D01*
X008750Y032195D01*
X008713Y032159D01*
X008713Y032012D01*
X008934Y032085D02*
X009081Y032085D01*
X009081Y032195D02*
X009081Y031975D01*
X009155Y031975D02*
X009228Y031975D01*
X009192Y031975D02*
X009192Y032195D01*
X009228Y032195D02*
X009155Y032195D01*
X009302Y032195D02*
X009412Y032195D01*
X009449Y032159D01*
X009449Y032085D01*
X009412Y032048D01*
X009302Y032048D01*
X009302Y031975D02*
X009302Y032195D01*
X009744Y032195D02*
X009818Y032122D01*
X009891Y032195D01*
X009891Y031975D01*
X009965Y032012D02*
X010002Y031975D01*
X010075Y031975D01*
X010112Y032012D01*
X010186Y032012D02*
X010223Y031975D01*
X010296Y031975D01*
X010333Y032012D01*
X010333Y032195D01*
X010186Y032195D02*
X010186Y032012D01*
X010112Y032159D02*
X010075Y032195D01*
X010002Y032195D01*
X009965Y032159D01*
X009965Y032012D01*
X009744Y031975D02*
X009744Y032195D01*
X012687Y031567D02*
X012687Y031515D01*
X012791Y031411D01*
X012843Y031411D01*
X012895Y031463D01*
X012895Y031515D01*
X012843Y031567D01*
X012791Y031515D01*
X012791Y031619D02*
X012739Y031619D01*
X012687Y031567D01*
X012817Y031697D02*
X012895Y031775D01*
X012947Y031775D01*
X012999Y031723D01*
X012999Y031671D01*
X012921Y031593D01*
X012973Y031541D02*
X012817Y031697D01*
X012974Y031853D02*
X013026Y031905D01*
X013000Y031879D02*
X013155Y031723D01*
X013129Y031698D02*
X013181Y031749D01*
X013208Y031828D02*
X013259Y031828D01*
X013311Y031879D01*
X013311Y031931D01*
X013208Y032035D01*
X013156Y032035D01*
X013104Y031983D01*
X013104Y031931D01*
X013208Y031828D01*
X013364Y031984D02*
X013416Y031984D01*
X013468Y032036D01*
X013468Y032088D01*
X013364Y032191D01*
X013312Y032191D01*
X013260Y032139D01*
X013260Y032088D01*
X013286Y032062D01*
X013338Y032062D01*
X013416Y032139D01*
X013459Y031326D02*
X013511Y031326D01*
X013537Y031300D01*
X013537Y031249D01*
X013485Y031197D01*
X013433Y031197D01*
X013407Y031223D01*
X013407Y031274D01*
X013459Y031326D01*
X013537Y031249D02*
X013589Y031249D01*
X013615Y031223D01*
X013615Y031171D01*
X013563Y031119D01*
X013511Y031119D01*
X013485Y031145D01*
X013485Y031197D01*
X013355Y031170D02*
X013459Y031066D01*
X013459Y031014D01*
X013407Y030963D01*
X013355Y030963D01*
X013251Y031066D01*
X013251Y031118D01*
X013303Y031170D01*
X013355Y031170D01*
X013173Y031040D02*
X013121Y030988D01*
X013147Y031014D02*
X013303Y030858D01*
X013277Y030833D02*
X013329Y030884D01*
X013147Y030858D02*
X013147Y030806D01*
X013069Y030728D01*
X013121Y030676D02*
X012965Y030832D01*
X013043Y030910D01*
X013095Y030910D01*
X013147Y030858D01*
X012990Y030702D02*
X012938Y030650D01*
X012990Y030702D02*
X013042Y030650D01*
X013042Y030598D01*
X012990Y030546D01*
X012938Y030546D01*
X012835Y030650D01*
X012835Y030702D01*
X012887Y030754D01*
X012938Y030754D01*
X013303Y030173D02*
X013251Y030121D01*
X013251Y030069D01*
X013355Y029965D01*
X013407Y029965D01*
X013459Y030017D01*
X013459Y030069D01*
X013355Y030173D01*
X013303Y030173D01*
X013382Y030251D02*
X013485Y030355D01*
X013511Y030329D01*
X013511Y030121D01*
X013537Y030095D01*
X013329Y029887D02*
X013277Y029835D01*
X013303Y029861D02*
X013147Y030017D01*
X013121Y029991D02*
X013173Y030043D01*
X013095Y029912D02*
X013147Y029860D01*
X013147Y029809D01*
X013069Y029731D01*
X013121Y029679D02*
X012965Y029834D01*
X013043Y029912D01*
X013095Y029912D01*
X012938Y029756D02*
X012887Y029756D01*
X012835Y029704D01*
X012835Y029652D01*
X012938Y029549D01*
X012990Y029549D01*
X013042Y029600D01*
X013042Y029652D01*
X012990Y029704D01*
X012938Y029652D01*
X013216Y029065D02*
X013164Y029013D01*
X013190Y029039D02*
X013345Y028883D01*
X013319Y028858D02*
X013371Y028909D01*
X013398Y028988D02*
X013449Y028988D01*
X013501Y029039D01*
X013501Y029091D01*
X013398Y029195D01*
X013346Y029195D01*
X013294Y029143D01*
X013294Y029091D01*
X013398Y028988D01*
X013554Y029144D02*
X013606Y029144D01*
X013658Y029196D01*
X013658Y029248D01*
X013632Y029274D01*
X013580Y029274D01*
X013502Y029196D01*
X013554Y029144D01*
X013502Y029196D02*
X013502Y029299D01*
X013528Y029377D01*
X013137Y028935D02*
X013189Y028883D01*
X013189Y028831D01*
X013111Y028753D01*
X013163Y028701D02*
X013007Y028857D01*
X013085Y028935D01*
X013137Y028935D01*
X012981Y028779D02*
X012929Y028779D01*
X012877Y028727D01*
X012877Y028675D01*
X012981Y028571D01*
X013033Y028571D01*
X013085Y028623D01*
X013085Y028675D01*
X013033Y028727D01*
X012981Y028675D01*
X013397Y028281D02*
X013474Y028203D01*
X013500Y028281D01*
X013526Y028307D01*
X013578Y028307D01*
X013630Y028255D01*
X013630Y028203D01*
X013578Y028151D01*
X013526Y028151D01*
X013474Y028099D02*
X013370Y028203D01*
X013318Y028203D01*
X013266Y028151D01*
X013266Y028099D01*
X013370Y027995D01*
X013422Y027995D01*
X013474Y028047D01*
X013474Y028099D01*
X013397Y028281D02*
X013500Y028385D01*
X013188Y028073D02*
X013136Y028021D01*
X013162Y028047D02*
X013318Y027891D01*
X013292Y027865D02*
X013344Y027917D01*
X013162Y027890D02*
X013162Y027839D01*
X013084Y027761D01*
X013136Y027709D02*
X012980Y027864D01*
X013058Y027942D01*
X013110Y027942D01*
X013162Y027890D01*
X013005Y027734D02*
X012953Y027682D01*
X013005Y027734D02*
X013057Y027682D01*
X013057Y027630D01*
X013005Y027579D01*
X012953Y027579D01*
X012850Y027682D01*
X012850Y027734D01*
X012902Y027786D01*
X012953Y027786D01*
X013371Y027313D02*
X013423Y027313D01*
X013526Y027209D01*
X013526Y027157D01*
X013474Y027105D01*
X013423Y027105D01*
X013319Y027209D01*
X013319Y027261D01*
X013371Y027313D01*
X013527Y027313D02*
X013527Y027469D01*
X013683Y027313D01*
X013631Y027417D02*
X013527Y027313D01*
X013396Y027027D02*
X013344Y026975D01*
X013370Y027001D02*
X013215Y027157D01*
X013189Y027131D02*
X013241Y027183D01*
X013162Y027052D02*
X013214Y027000D01*
X013214Y026949D01*
X013136Y026871D01*
X013188Y026819D02*
X013032Y026974D01*
X013110Y027052D01*
X013162Y027052D01*
X013006Y026896D02*
X012954Y026896D01*
X012902Y026844D01*
X012902Y026792D01*
X013006Y026689D01*
X013058Y026689D01*
X013110Y026740D01*
X013110Y026792D01*
X013058Y026844D01*
X013006Y026792D01*
X013388Y026258D02*
X013440Y026258D01*
X013544Y026154D01*
X013544Y026102D01*
X013492Y026050D01*
X013440Y026050D01*
X013336Y026154D01*
X013336Y026206D01*
X013388Y026258D01*
X013492Y026310D02*
X013492Y026362D01*
X013544Y026414D01*
X013596Y026414D01*
X013622Y026388D01*
X013622Y026336D01*
X013674Y026336D01*
X013700Y026310D01*
X013700Y026258D01*
X013648Y026206D01*
X013596Y026206D01*
X013596Y026310D02*
X013622Y026336D01*
X013414Y025972D02*
X013362Y025920D01*
X013388Y025946D02*
X013232Y026102D01*
X013206Y026076D02*
X013258Y026128D01*
X013180Y025997D02*
X013232Y025945D01*
X013232Y025894D01*
X013154Y025816D01*
X013206Y025764D02*
X013050Y025919D01*
X013128Y025997D01*
X013180Y025997D01*
X013023Y025841D02*
X012972Y025841D01*
X012920Y025789D01*
X012920Y025737D01*
X013023Y025634D01*
X013075Y025634D01*
X013127Y025685D01*
X013127Y025737D01*
X013075Y025789D01*
X013023Y025737D01*
X013306Y025200D02*
X013254Y025148D01*
X013254Y025096D01*
X013358Y024993D01*
X013409Y024993D01*
X013461Y025044D01*
X013461Y025096D01*
X013358Y025200D01*
X013306Y025200D01*
X013410Y025253D02*
X013410Y025304D01*
X013462Y025356D01*
X013514Y025356D01*
X013540Y025330D01*
X013540Y025123D01*
X013644Y025227D01*
X013331Y024914D02*
X013279Y024863D01*
X013305Y024888D02*
X013150Y025044D01*
X013124Y025018D02*
X013176Y025070D01*
X013097Y024940D02*
X013149Y024888D01*
X013149Y024836D01*
X013071Y024758D01*
X013123Y024706D02*
X012967Y024862D01*
X013045Y024940D01*
X013097Y024940D01*
X012941Y024784D02*
X012889Y024784D01*
X012837Y024732D01*
X012837Y024680D01*
X012941Y024576D01*
X012993Y024576D01*
X013045Y024628D01*
X013045Y024680D01*
X012993Y024732D01*
X012941Y024680D01*
X013306Y024263D02*
X013229Y024186D01*
X013384Y024030D01*
X013462Y024108D01*
X013462Y024160D01*
X013358Y024263D01*
X013306Y024263D01*
X013385Y024342D02*
X013437Y024394D01*
X013411Y024368D02*
X013566Y024212D01*
X013541Y024186D02*
X013592Y024238D01*
X013619Y024316D02*
X013671Y024316D01*
X013723Y024368D01*
X013723Y024420D01*
X013671Y024472D01*
X013619Y024420D01*
X013515Y024420D02*
X013619Y024316D01*
X013515Y024420D02*
X013515Y024472D01*
X013567Y024524D01*
X013619Y024524D01*
X013671Y024576D02*
X013671Y024628D01*
X013723Y024680D01*
X013775Y024680D01*
X013801Y024654D01*
X013801Y024447D01*
X013905Y024550D01*
X013578Y023463D02*
X013734Y023307D01*
X013682Y023255D02*
X013786Y023359D01*
X013578Y023359D02*
X013578Y023463D01*
X013500Y023333D02*
X013448Y023333D01*
X013396Y023281D01*
X013396Y023229D01*
X013500Y023125D01*
X013552Y023125D01*
X013604Y023177D01*
X013604Y023229D01*
X013500Y023333D01*
X013318Y023203D02*
X013266Y023151D01*
X013292Y023177D02*
X013448Y023021D01*
X013422Y022995D02*
X013474Y023047D01*
X013292Y023020D02*
X013292Y022969D01*
X013214Y022891D01*
X013266Y022839D02*
X013110Y022994D01*
X013188Y023072D01*
X013240Y023072D01*
X013292Y023020D01*
X013135Y022864D02*
X013083Y022812D01*
X013135Y022864D02*
X013187Y022812D01*
X013187Y022760D01*
X013135Y022709D01*
X013083Y022709D01*
X012980Y022812D01*
X012980Y022864D01*
X013032Y022916D01*
X013083Y022916D01*
X012811Y023457D02*
X012708Y023457D01*
X012604Y023561D01*
X012708Y023665D02*
X012811Y023561D01*
X012811Y023457D01*
X012916Y023561D02*
X012994Y023639D01*
X012994Y023691D01*
X012890Y023795D01*
X012838Y023795D01*
X012760Y023717D01*
X012916Y023561D01*
X013072Y023718D02*
X012916Y023873D01*
X012994Y023951D01*
X013046Y023951D01*
X013150Y023847D01*
X013150Y023795D01*
X013072Y023718D01*
X013254Y023848D02*
X013358Y023952D01*
X013376Y018516D02*
X013413Y018479D01*
X013413Y018333D01*
X013376Y018296D01*
X013303Y018296D01*
X013266Y018333D01*
X013266Y018479D01*
X013303Y018516D01*
X013376Y018516D01*
X013487Y018479D02*
X013487Y018333D01*
X013634Y018479D01*
X013634Y018333D01*
X013597Y018296D01*
X013524Y018296D01*
X013487Y018333D01*
X013487Y018479D02*
X013524Y018516D01*
X013597Y018516D01*
X013634Y018479D01*
X013192Y018516D02*
X013119Y018516D01*
X013156Y018516D02*
X013156Y018296D01*
X013192Y018296D02*
X013119Y018296D01*
X013045Y018406D02*
X013045Y018479D01*
X013008Y018516D01*
X012898Y018516D01*
X012898Y018296D01*
X012898Y018369D02*
X013008Y018369D01*
X013045Y018406D01*
X012824Y018406D02*
X012750Y018406D01*
X012824Y018406D02*
X012824Y018333D01*
X012787Y018296D01*
X012714Y018296D01*
X012677Y018333D01*
X012677Y018479D01*
X012714Y018516D01*
X012787Y018516D01*
X012824Y018479D01*
X012699Y017559D02*
X012589Y017559D01*
X012589Y017338D01*
X012699Y017338D01*
X012736Y017375D01*
X012736Y017522D01*
X012699Y017559D01*
X012515Y017522D02*
X012515Y017375D01*
X012478Y017338D01*
X012368Y017338D01*
X012368Y017559D01*
X012478Y017559D01*
X012515Y017522D01*
X012294Y017559D02*
X012294Y017412D01*
X012220Y017338D01*
X012147Y017412D01*
X012147Y017559D01*
X012180Y016471D02*
X012290Y016471D01*
X012327Y016434D01*
X012327Y016288D01*
X012290Y016251D01*
X012180Y016251D01*
X012180Y016471D01*
X012106Y016471D02*
X012106Y016324D01*
X012033Y016251D01*
X011959Y016324D01*
X011959Y016471D01*
X012401Y016471D02*
X012401Y016251D01*
X012511Y016251D01*
X012548Y016288D01*
X012548Y016434D01*
X012511Y016471D01*
X012401Y016471D01*
X012622Y016214D02*
X012769Y016214D01*
X012843Y016251D02*
X012843Y016398D01*
X012917Y016471D01*
X012990Y016398D01*
X012990Y016251D01*
X013064Y016251D02*
X013064Y016471D01*
X013211Y016251D01*
X013211Y016471D01*
X013285Y016398D02*
X013359Y016471D01*
X013432Y016398D01*
X013432Y016251D01*
X013506Y016251D02*
X013653Y016251D01*
X013580Y016251D02*
X013580Y016471D01*
X013506Y016398D01*
X013432Y016361D02*
X013285Y016361D01*
X013285Y016398D02*
X013285Y016251D01*
X012990Y016361D02*
X012843Y016361D01*
X012919Y015459D02*
X012993Y015385D01*
X012993Y015238D01*
X013067Y015238D02*
X013067Y015459D01*
X013214Y015238D01*
X013214Y015459D01*
X013288Y015385D02*
X013361Y015459D01*
X013435Y015385D01*
X013435Y015238D01*
X013509Y015238D02*
X013656Y015385D01*
X013656Y015422D01*
X013619Y015459D01*
X013545Y015459D01*
X013509Y015422D01*
X013435Y015349D02*
X013288Y015349D01*
X013288Y015385D02*
X013288Y015238D01*
X013509Y015238D02*
X013656Y015238D01*
X012993Y015349D02*
X012846Y015349D01*
X012846Y015385D02*
X012919Y015459D01*
X012846Y015385D02*
X012846Y015238D01*
X012772Y015202D02*
X012625Y015202D01*
X012551Y015275D02*
X012551Y015422D01*
X012514Y015459D01*
X012404Y015459D01*
X012404Y015238D01*
X012514Y015238D01*
X012551Y015275D01*
X012330Y015275D02*
X012330Y015422D01*
X012293Y015459D01*
X012183Y015459D01*
X012183Y015238D01*
X012293Y015238D01*
X012330Y015275D01*
X012109Y015312D02*
X012109Y015459D01*
X011962Y015459D02*
X011962Y015312D01*
X012035Y015238D01*
X012109Y015312D01*
X012810Y017302D02*
X012957Y017302D01*
X013031Y017338D02*
X013031Y017559D01*
X013141Y017559D01*
X013178Y017522D01*
X013178Y017449D01*
X013141Y017412D01*
X013031Y017412D01*
X013104Y017412D02*
X013178Y017338D01*
X013252Y017338D02*
X013252Y017485D01*
X013325Y017559D01*
X013399Y017485D01*
X013399Y017338D01*
X013473Y017338D02*
X013473Y017559D01*
X013546Y017485D01*
X013620Y017559D01*
X013620Y017338D01*
X013399Y017449D02*
X013252Y017449D01*
X008891Y012270D02*
X008671Y012270D01*
X008671Y012381D01*
X008708Y012417D01*
X008781Y012417D01*
X008818Y012381D01*
X008818Y012270D01*
X008818Y012491D02*
X008598Y012491D01*
X008598Y012638D01*
X008708Y012565D02*
X008708Y012491D01*
X008671Y011975D02*
X008635Y011975D01*
X008598Y011939D01*
X008598Y011865D01*
X008635Y011828D01*
X008671Y011975D02*
X008818Y011828D01*
X008818Y011975D01*
X008818Y011755D02*
X008818Y011718D01*
X008781Y011718D01*
X008781Y011755D01*
X008818Y011755D01*
X008781Y011644D02*
X008745Y011644D01*
X008708Y011607D01*
X008708Y011497D01*
X008781Y011497D01*
X008818Y011534D01*
X008818Y011607D01*
X008781Y011644D01*
X008635Y011570D02*
X008708Y011497D01*
X008635Y011570D02*
X008598Y011644D01*
X008068Y011595D02*
X008068Y011521D01*
X008031Y011485D01*
X007885Y011485D01*
X007848Y011521D01*
X007848Y011595D01*
X007885Y011631D01*
X007921Y011706D02*
X007848Y011779D01*
X008068Y011779D01*
X008068Y011706D02*
X008068Y011852D01*
X008031Y011631D02*
X008068Y011595D01*
X007342Y012266D02*
X007122Y012266D01*
X007122Y012376D01*
X007159Y012413D01*
X007232Y012413D01*
X007269Y012376D01*
X007269Y012266D01*
X007269Y012487D02*
X007049Y012487D01*
X007049Y012634D01*
X007159Y012560D02*
X007159Y012487D01*
X007122Y011971D02*
X007086Y011971D01*
X007049Y011934D01*
X007049Y011861D01*
X007086Y011824D01*
X007122Y011971D02*
X007269Y011824D01*
X007269Y011971D01*
X007269Y011750D02*
X007269Y011714D01*
X007232Y011714D01*
X007232Y011750D01*
X007269Y011750D01*
X007232Y011639D02*
X007196Y011639D01*
X007159Y011603D01*
X007159Y011493D01*
X007232Y011493D01*
X007269Y011529D01*
X007269Y011603D01*
X007232Y011639D01*
X007086Y011566D02*
X007159Y011493D01*
X007086Y011566D02*
X007049Y011639D01*
X006519Y011590D02*
X006519Y011517D01*
X006482Y011480D01*
X006336Y011480D01*
X006299Y011517D01*
X006299Y011590D01*
X006336Y011627D01*
X006336Y011701D02*
X006299Y011738D01*
X006299Y011811D01*
X006336Y011848D01*
X006372Y011848D01*
X006519Y011701D01*
X006519Y011848D01*
X006482Y011627D02*
X006519Y011590D01*
X007171Y000755D02*
X007318Y000535D01*
X007318Y000755D01*
X007392Y000719D02*
X007392Y000572D01*
X007429Y000535D01*
X007502Y000535D01*
X007539Y000572D01*
X007539Y000645D01*
X007465Y000645D01*
X007392Y000719D02*
X007429Y000755D01*
X007502Y000755D01*
X007539Y000719D01*
X007171Y000755D02*
X007171Y000535D01*
X012061Y006802D02*
X012009Y006854D01*
X012035Y006828D02*
X012190Y006983D01*
X012164Y007009D02*
X012216Y006957D01*
X012269Y006905D02*
X012113Y006750D01*
X012217Y006646D02*
X012372Y006801D01*
X012269Y006905D02*
X012217Y006646D01*
X012243Y006567D02*
X012347Y006464D01*
X012425Y006437D02*
X012503Y006359D01*
X012555Y006359D01*
X012659Y006463D01*
X012659Y006515D01*
X012581Y006593D01*
X012425Y006437D01*
X012607Y006307D02*
X012607Y006255D01*
X012659Y006203D01*
X012711Y006203D01*
X012738Y006124D02*
X012816Y006047D01*
X012867Y006047D01*
X012971Y006150D01*
X012971Y006202D01*
X012893Y006280D01*
X012738Y006124D01*
X012815Y006307D02*
X012815Y006359D01*
X012763Y006410D01*
X012711Y006410D01*
X012607Y006307D01*
X012920Y005994D02*
X012920Y005942D01*
X012972Y005890D01*
X013024Y005890D01*
X013024Y005786D02*
X013128Y005682D01*
X013206Y005656D02*
X013310Y005759D01*
X013414Y005759D01*
X013414Y005656D01*
X013310Y005552D01*
X013363Y005499D02*
X013518Y005655D01*
X013466Y005396D01*
X013622Y005551D01*
X013623Y005447D02*
X013726Y005447D01*
X013726Y005343D01*
X013623Y005239D01*
X013700Y005317D02*
X013597Y005421D01*
X013623Y005447D02*
X013519Y005343D01*
X013388Y005630D02*
X013284Y005734D01*
X013127Y005994D02*
X013127Y006046D01*
X013076Y006098D01*
X013024Y006098D01*
X012920Y005994D01*
X012873Y005296D02*
X012718Y005140D01*
X012821Y005036D01*
X012874Y004984D02*
X012952Y004906D01*
X013004Y004906D01*
X013107Y005010D01*
X013107Y005062D01*
X013029Y005139D01*
X012874Y004984D01*
X013056Y004853D02*
X013056Y004801D01*
X013108Y004750D01*
X013160Y004750D01*
X013264Y004853D01*
X013264Y004905D01*
X013212Y004957D01*
X013160Y004957D01*
X013056Y004853D01*
X013160Y004645D02*
X013264Y004541D01*
X013342Y004515D02*
X013394Y004463D01*
X013368Y004489D02*
X013524Y004645D01*
X013498Y004671D02*
X013550Y004619D01*
X013602Y004566D02*
X013550Y004307D01*
X013706Y004463D01*
X013707Y004358D02*
X013810Y004358D01*
X013655Y004203D01*
X013603Y004254D02*
X013707Y004151D01*
X013447Y004411D02*
X013602Y004566D01*
X013330Y003796D02*
X013278Y003796D01*
X013175Y003692D01*
X013175Y003640D01*
X013227Y003588D01*
X013278Y003588D01*
X013382Y003692D01*
X013382Y003744D01*
X013330Y003796D01*
X013226Y003848D02*
X013226Y003900D01*
X013174Y003952D01*
X013122Y003952D01*
X013096Y003926D01*
X013096Y003874D01*
X013148Y003822D01*
X013148Y003771D01*
X013122Y003745D01*
X013070Y003745D01*
X013018Y003796D01*
X013018Y003848D01*
X013305Y003510D02*
X013461Y003666D01*
X013538Y003588D01*
X013538Y003536D01*
X013487Y003484D01*
X013435Y003484D01*
X013357Y003562D01*
X013487Y003380D02*
X013695Y003380D01*
X013591Y003276D01*
X013539Y003276D01*
X013487Y003328D01*
X013487Y003380D01*
X013591Y003483D01*
X013643Y003483D01*
X013695Y003431D01*
X013695Y003380D01*
X013256Y002910D02*
X013204Y002962D01*
X013152Y002962D01*
X013126Y002936D01*
X013126Y002884D01*
X013178Y002832D01*
X013178Y002780D01*
X013152Y002755D01*
X013100Y002755D01*
X013048Y002806D01*
X013048Y002858D01*
X013205Y002702D02*
X013205Y002650D01*
X013257Y002598D01*
X013308Y002598D01*
X013412Y002702D01*
X013412Y002754D01*
X013360Y002806D01*
X013308Y002806D01*
X013205Y002702D01*
X013256Y002858D02*
X013256Y002910D01*
X013491Y002676D02*
X013335Y002520D01*
X013387Y002572D02*
X013465Y002494D01*
X013517Y002494D01*
X013568Y002546D01*
X013568Y002598D01*
X013491Y002676D01*
X013595Y002467D02*
X013699Y002467D01*
X013543Y002312D01*
X013491Y002364D02*
X013595Y002260D01*
X013316Y001867D02*
X013316Y001764D01*
X013212Y001660D01*
X013239Y001581D02*
X013343Y001478D01*
X013421Y001451D02*
X013473Y001399D01*
X013447Y001425D02*
X013603Y001581D01*
X013577Y001607D02*
X013629Y001555D01*
X013681Y001503D02*
X013629Y001243D01*
X013785Y001399D01*
X013681Y001503D02*
X013525Y001347D01*
X013290Y001738D02*
X013186Y001841D01*
X013212Y001867D02*
X013316Y001867D01*
X013212Y001867D02*
X013109Y001764D01*
X013134Y001894D02*
X013082Y001894D01*
X013004Y001972D01*
X012952Y001920D02*
X013108Y002076D01*
X013186Y001998D01*
X013186Y001946D01*
X013134Y001894D01*
X012874Y001946D02*
X012770Y002050D01*
X012770Y002155D02*
X012873Y002258D01*
X012873Y002310D01*
X012796Y002388D01*
X012640Y002232D01*
X012718Y002155D01*
X012770Y002155D01*
X012613Y002311D02*
X012717Y002415D01*
X012717Y002466D01*
X012639Y002544D01*
X012484Y002389D01*
X012562Y002311D01*
X012613Y002311D01*
X012483Y002493D02*
X012587Y002597D01*
X012483Y002701D02*
X012379Y002597D01*
X012379Y002493D01*
X012483Y002493D01*
X012008Y006958D02*
X012112Y007062D01*
X012008Y007166D02*
X011904Y007062D01*
X011904Y006958D01*
X012008Y006958D01*
D12*
X012468Y007369D02*
X012504Y007369D01*
X012575Y007440D01*
X012575Y007475D01*
X012522Y007529D01*
X012415Y007422D01*
X012468Y007369D01*
X012537Y007336D02*
X012537Y007301D01*
X012573Y007265D01*
X012608Y007265D01*
X012624Y007214D02*
X012677Y007161D01*
X012712Y007161D01*
X012783Y007232D01*
X012783Y007267D01*
X012730Y007320D01*
X012624Y007214D01*
X012679Y007336D02*
X012679Y007371D01*
X012643Y007407D01*
X012608Y007407D01*
X012537Y007336D01*
X012746Y007128D02*
X012746Y007092D01*
X012781Y007057D01*
X012816Y007057D01*
X012814Y006988D02*
X012885Y006917D01*
X012936Y006902D02*
X013007Y006972D01*
X013078Y006972D01*
X013078Y006901D01*
X013007Y006831D01*
X013040Y006797D02*
X013146Y006904D01*
X013111Y006727D01*
X013217Y006833D01*
X013215Y006764D02*
X013286Y006764D01*
X013286Y006693D01*
X013215Y006622D01*
X013231Y006571D02*
X013302Y006501D01*
X013370Y006503D02*
X013370Y006467D01*
X013406Y006432D01*
X013441Y006432D01*
X013459Y006449D01*
X013459Y006485D01*
X013423Y006520D01*
X013423Y006556D01*
X013441Y006573D01*
X013476Y006573D01*
X013512Y006538D01*
X013512Y006503D01*
X013563Y006487D02*
X013457Y006381D01*
X013528Y006381D01*
X013528Y006310D01*
X013634Y006416D01*
X013268Y006675D02*
X013197Y006746D01*
X013215Y006764D02*
X013144Y006693D01*
X013060Y006884D02*
X012989Y006955D01*
X012887Y007128D02*
X012887Y007163D01*
X012852Y007198D01*
X012816Y007198D01*
X012746Y007128D01*
X013040Y007825D02*
X013076Y007825D01*
X013146Y007896D01*
X013146Y007931D01*
X013093Y007984D01*
X012987Y007878D01*
X013040Y007825D01*
X013109Y007791D02*
X013109Y007756D01*
X013144Y007721D01*
X013180Y007721D01*
X013196Y007670D02*
X013249Y007616D01*
X013284Y007616D01*
X013355Y007687D01*
X013355Y007723D01*
X013302Y007776D01*
X013196Y007670D01*
X013251Y007791D02*
X013251Y007827D01*
X013215Y007862D01*
X013180Y007862D01*
X013109Y007791D01*
X013317Y007583D02*
X013317Y007548D01*
X013353Y007512D01*
X013388Y007512D01*
X013386Y007444D02*
X013457Y007373D01*
X013508Y007357D02*
X013614Y007463D01*
X013667Y007410D01*
X013667Y007375D01*
X013632Y007339D01*
X013596Y007339D01*
X013543Y007392D01*
X013665Y007306D02*
X013736Y007235D01*
X013754Y007253D02*
X013683Y007182D01*
X013754Y007253D02*
X013754Y007324D01*
X013683Y007324D01*
X013612Y007253D01*
X013459Y007583D02*
X013459Y007618D01*
X013424Y007654D01*
X013388Y007654D01*
X013317Y007583D01*
X012850Y008015D02*
X012956Y008122D01*
X012885Y008192D02*
X012850Y008015D01*
X012865Y007964D02*
X012936Y007894D01*
X012779Y008086D02*
X012885Y008192D01*
X012851Y008226D02*
X012816Y008262D01*
X012833Y008244D02*
X012727Y008138D01*
X012710Y008156D02*
X012745Y008120D01*
X012712Y008224D02*
X012782Y008295D01*
X012712Y008224D02*
X012641Y008224D01*
X012641Y008295D01*
X012712Y008366D01*
X013092Y008747D02*
X013144Y008695D01*
X013184Y008682D02*
X013261Y008759D01*
X013300Y008721D01*
X013300Y008695D01*
X013274Y008669D01*
X013248Y008669D01*
X013209Y008708D01*
X013301Y008642D02*
X013352Y008591D01*
X013365Y008603D02*
X013314Y008552D01*
X013327Y008512D02*
X013379Y008460D01*
X013431Y008460D02*
X013431Y008434D01*
X013457Y008408D01*
X013483Y008408D01*
X013496Y008421D01*
X013496Y008447D01*
X013470Y008473D01*
X013470Y008499D01*
X013483Y008512D01*
X013509Y008512D01*
X013535Y008486D01*
X013535Y008460D01*
X013574Y008447D02*
X013496Y008369D01*
X013548Y008369D01*
X013548Y008317D01*
X013626Y008395D01*
X013561Y008278D02*
X013613Y008226D01*
X013652Y008213D02*
X013730Y008291D01*
X013769Y008252D01*
X013769Y008226D01*
X013743Y008200D01*
X013717Y008200D01*
X013678Y008239D01*
X013365Y008603D02*
X013365Y008655D01*
X013314Y008655D01*
X013262Y008604D01*
X013144Y008851D02*
X013144Y008877D01*
X013118Y008903D01*
X013092Y008903D01*
X013040Y008851D01*
X013040Y008825D01*
X013066Y008799D01*
X013092Y008799D01*
X013014Y008877D02*
X013066Y008929D01*
X013066Y008955D01*
X013027Y008994D01*
X012949Y008916D01*
X012988Y008877D01*
X013014Y008877D01*
X012936Y008955D02*
X012910Y008955D01*
X012884Y008981D01*
X012884Y009007D01*
X012936Y009059D01*
X012962Y009059D01*
X012988Y009033D01*
X012988Y009007D01*
X012910Y009085D02*
X012910Y009111D01*
X012871Y009150D01*
X012793Y009072D01*
X012832Y009033D01*
X012858Y009033D01*
X012910Y009085D01*
X013192Y009845D02*
X013140Y009897D01*
X013140Y009949D02*
X013114Y009949D01*
X013088Y009975D01*
X013088Y010001D01*
X013140Y010053D01*
X013166Y010053D01*
X013191Y010027D01*
X013191Y010001D01*
X013113Y010079D02*
X013113Y010105D01*
X013074Y010144D01*
X012997Y010066D01*
X013036Y010027D01*
X013061Y010027D01*
X013113Y010079D01*
X013035Y010157D02*
X013035Y010183D01*
X013009Y010209D01*
X012983Y010209D01*
X012931Y010157D01*
X012931Y010131D01*
X012957Y010105D01*
X012983Y010105D01*
X012905Y010183D02*
X012957Y010235D01*
X012957Y010261D01*
X012918Y010300D01*
X012840Y010222D01*
X012879Y010183D01*
X012905Y010183D01*
X013231Y009832D02*
X013309Y009909D01*
X013348Y009871D01*
X013348Y009845D01*
X013322Y009819D01*
X013296Y009819D01*
X013257Y009858D01*
X013348Y009792D02*
X013400Y009741D01*
X013413Y009753D02*
X013361Y009702D01*
X013374Y009662D02*
X013426Y009610D01*
X013478Y009610D02*
X013478Y009584D01*
X013504Y009558D01*
X013530Y009558D01*
X013543Y009571D01*
X013543Y009597D01*
X013517Y009623D01*
X013517Y009649D01*
X013530Y009662D01*
X013556Y009662D01*
X013582Y009636D01*
X013582Y009610D01*
X013621Y009597D02*
X013543Y009519D01*
X013595Y009519D01*
X013595Y009467D01*
X013673Y009545D01*
X013609Y009428D02*
X013660Y009376D01*
X013700Y009363D02*
X013777Y009441D01*
X013752Y009311D01*
X013829Y009389D01*
X013413Y009753D02*
X013413Y009805D01*
X013361Y009805D01*
X013309Y009754D01*
X013372Y010456D02*
X013372Y010566D01*
X013427Y010566D01*
X013445Y010548D01*
X013445Y010511D01*
X013427Y010493D01*
X013372Y010493D01*
X013482Y010511D02*
X013556Y010511D01*
X013556Y010529D02*
X013556Y010456D01*
X013593Y010438D02*
X013666Y010438D01*
X013703Y010474D02*
X013722Y010456D01*
X013758Y010456D01*
X013777Y010474D01*
X013777Y010548D01*
X013758Y010566D01*
X013722Y010566D01*
X013703Y010548D01*
X013703Y010474D01*
X013814Y010474D02*
X013814Y010566D01*
X013887Y010566D02*
X013887Y010474D01*
X013869Y010456D01*
X013832Y010456D01*
X013814Y010474D01*
X013924Y010566D02*
X013998Y010566D01*
X013961Y010566D02*
X013961Y010456D01*
X013659Y010674D02*
X013641Y010656D01*
X013604Y010656D01*
X013586Y010674D01*
X013586Y010748D01*
X013604Y010766D01*
X013641Y010766D01*
X013659Y010748D01*
X013549Y010748D02*
X013530Y010766D01*
X013475Y010766D01*
X013475Y010656D01*
X013530Y010656D01*
X013549Y010674D01*
X013549Y010748D01*
X013438Y010748D02*
X013420Y010766D01*
X013383Y010766D01*
X013365Y010748D01*
X013365Y010674D01*
X013383Y010656D01*
X013420Y010656D01*
X013438Y010674D01*
X013328Y010674D02*
X013328Y010748D01*
X013309Y010766D01*
X013254Y010766D01*
X013254Y010656D01*
X013309Y010656D01*
X013328Y010674D01*
X013482Y010529D02*
X013519Y010566D01*
X013556Y010529D01*
X013482Y010529D02*
X013482Y010456D01*
X013659Y011515D02*
X013732Y011515D01*
X013769Y011552D02*
X013788Y011533D01*
X013825Y011533D01*
X013843Y011552D01*
X013843Y011570D01*
X013825Y011588D01*
X013788Y011588D01*
X013769Y011607D01*
X013769Y011625D01*
X013788Y011644D01*
X013825Y011644D01*
X013843Y011625D01*
X013880Y011644D02*
X013880Y011533D01*
X013917Y011570D01*
X013953Y011533D01*
X013953Y011644D01*
X013622Y011625D02*
X013604Y011644D01*
X013567Y011644D01*
X013549Y011625D01*
X013549Y011552D01*
X013567Y011533D01*
X013604Y011533D01*
X013622Y011552D01*
X013622Y011588D01*
X013585Y011588D01*
X013512Y011533D02*
X013475Y011533D01*
X013493Y011533D02*
X013493Y011644D01*
X013475Y011644D02*
X013512Y011644D01*
X013438Y011625D02*
X013419Y011644D01*
X013364Y011644D01*
X013364Y011533D01*
X013419Y011533D01*
X013438Y011552D01*
X013438Y011625D01*
X013596Y012453D02*
X013670Y012453D01*
X013707Y012471D02*
X013762Y012471D01*
X013780Y012489D01*
X013780Y012563D01*
X013762Y012581D01*
X013707Y012581D01*
X013707Y012471D01*
X013817Y012471D02*
X013854Y012471D01*
X013836Y012471D02*
X013836Y012581D01*
X013854Y012581D02*
X013817Y012581D01*
X013891Y012563D02*
X013891Y012489D01*
X013909Y012471D01*
X013946Y012471D01*
X013964Y012489D01*
X013964Y012526D01*
X013928Y012526D01*
X013964Y012563D02*
X013946Y012581D01*
X013909Y012581D01*
X013891Y012563D01*
X013571Y013333D02*
X013498Y013333D01*
X013460Y013351D02*
X013460Y013461D01*
X013387Y013461D02*
X013387Y013351D01*
X013424Y013388D01*
X013460Y013351D01*
X013350Y013369D02*
X013332Y013351D01*
X013295Y013351D01*
X013277Y013369D01*
X013295Y013406D02*
X013332Y013406D01*
X013350Y013388D01*
X013350Y013369D01*
X013295Y013406D02*
X013277Y013424D01*
X013277Y013443D01*
X013295Y013461D01*
X013332Y013461D01*
X013350Y013443D01*
X013240Y013333D02*
X013166Y013333D01*
X013129Y013351D02*
X013056Y013351D01*
X013129Y013424D01*
X013129Y013443D01*
X013111Y013461D01*
X013074Y013461D01*
X013056Y013443D01*
X013019Y013424D02*
X013019Y013351D01*
X013019Y013406D02*
X012945Y013406D01*
X012945Y013424D02*
X012982Y013461D01*
X013019Y013424D01*
X012945Y013424D02*
X012945Y013351D01*
X012908Y013351D02*
X012908Y013461D01*
X012835Y013461D02*
X012908Y013351D01*
X012835Y013351D02*
X012835Y013461D01*
X012798Y013424D02*
X012798Y013351D01*
X012798Y013406D02*
X012724Y013406D01*
X012724Y013424D02*
X012761Y013461D01*
X012798Y013424D01*
X012724Y013424D02*
X012724Y013351D01*
X012687Y013333D02*
X012614Y013333D01*
X012577Y013369D02*
X012558Y013351D01*
X012522Y013351D01*
X012503Y013369D01*
X012503Y013443D01*
X012522Y013461D01*
X012558Y013461D01*
X012577Y013443D01*
X012466Y013443D02*
X012448Y013461D01*
X012393Y013461D01*
X012393Y013351D01*
X012448Y013351D01*
X012466Y013369D01*
X012466Y013443D01*
X012356Y013443D02*
X012337Y013461D01*
X012301Y013461D01*
X012282Y013443D01*
X012282Y013369D01*
X012301Y013351D01*
X012337Y013351D01*
X012356Y013369D01*
X012245Y013369D02*
X012245Y013443D01*
X012227Y013461D01*
X012172Y013461D01*
X012172Y013351D01*
X012227Y013351D01*
X012245Y013369D01*
X012749Y012581D02*
X012749Y012508D01*
X012786Y012471D01*
X012823Y012508D01*
X012823Y012581D01*
X012860Y012581D02*
X012897Y012581D01*
X012878Y012581D02*
X012878Y012471D01*
X012860Y012471D02*
X012897Y012471D01*
X012934Y012471D02*
X012934Y012581D01*
X013007Y012471D01*
X013007Y012581D01*
X013044Y012453D02*
X013117Y012453D01*
X013154Y012471D02*
X013210Y012471D01*
X013228Y012489D01*
X013228Y012563D01*
X013210Y012581D01*
X013154Y012581D01*
X013154Y012471D01*
X013265Y012489D02*
X013265Y012563D01*
X013283Y012581D01*
X013320Y012581D01*
X013338Y012563D01*
X013375Y012581D02*
X013430Y012581D01*
X013449Y012563D01*
X013449Y012489D01*
X013430Y012471D01*
X013375Y012471D01*
X013375Y012581D01*
X013338Y012489D02*
X013320Y012471D01*
X013283Y012471D01*
X013265Y012489D01*
X013486Y012489D02*
X013486Y012563D01*
X013504Y012581D01*
X013541Y012581D01*
X013559Y012563D01*
X013559Y012489D02*
X013541Y012471D01*
X013504Y012471D01*
X013486Y012489D01*
X013608Y013351D02*
X013608Y013461D01*
X013663Y013461D01*
X013681Y013443D01*
X013681Y013406D01*
X013663Y013388D01*
X013608Y013388D01*
X013558Y014310D02*
X013485Y014310D01*
X013448Y014328D02*
X013448Y014439D01*
X013375Y014439D02*
X013375Y014328D01*
X013411Y014365D01*
X013448Y014328D01*
X013337Y014347D02*
X013319Y014328D01*
X013282Y014328D01*
X013264Y014347D01*
X013282Y014384D02*
X013319Y014384D01*
X013337Y014365D01*
X013337Y014347D01*
X013282Y014384D02*
X013264Y014402D01*
X013264Y014420D01*
X013282Y014439D01*
X013319Y014439D01*
X013337Y014420D01*
X013227Y014310D02*
X013154Y014310D01*
X013117Y014328D02*
X013043Y014328D01*
X013117Y014402D01*
X013117Y014420D01*
X013098Y014439D01*
X013061Y014439D01*
X013043Y014420D01*
X013006Y014402D02*
X013006Y014328D01*
X013006Y014384D02*
X012933Y014384D01*
X012933Y014402D02*
X012969Y014439D01*
X013006Y014402D01*
X012933Y014402D02*
X012933Y014328D01*
X012896Y014328D02*
X012896Y014439D01*
X012822Y014439D02*
X012896Y014328D01*
X012822Y014328D02*
X012822Y014439D01*
X012785Y014402D02*
X012785Y014328D01*
X012785Y014384D02*
X012712Y014384D01*
X012712Y014402D02*
X012748Y014439D01*
X012785Y014402D01*
X012712Y014402D02*
X012712Y014328D01*
X012675Y014310D02*
X012601Y014310D01*
X012564Y014347D02*
X012546Y014328D01*
X012509Y014328D01*
X012491Y014347D01*
X012491Y014420D01*
X012509Y014439D01*
X012546Y014439D01*
X012564Y014420D01*
X012454Y014420D02*
X012435Y014439D01*
X012380Y014439D01*
X012380Y014328D01*
X012435Y014328D01*
X012454Y014347D01*
X012454Y014420D01*
X012343Y014420D02*
X012325Y014439D01*
X012288Y014439D01*
X012270Y014420D01*
X012270Y014347D01*
X012288Y014328D01*
X012325Y014328D01*
X012343Y014347D01*
X012233Y014347D02*
X012233Y014420D01*
X012214Y014439D01*
X012159Y014439D01*
X012159Y014328D01*
X012214Y014328D01*
X012233Y014347D01*
X013596Y014328D02*
X013596Y014439D01*
X013669Y014328D01*
X013669Y014439D01*
X013720Y019331D02*
X013821Y019331D01*
X013868Y019356D02*
X013868Y019506D01*
X013943Y019506D01*
X013968Y019481D01*
X013968Y019431D01*
X013943Y019406D01*
X013868Y019406D01*
X013673Y019356D02*
X013573Y019356D01*
X013573Y019506D01*
X013526Y019456D02*
X013526Y019356D01*
X013526Y019431D02*
X013426Y019431D01*
X013426Y019456D02*
X013426Y019356D01*
X013329Y019356D02*
X013329Y019506D01*
X013279Y019506D02*
X013379Y019506D01*
X013426Y019456D02*
X013476Y019506D01*
X013526Y019456D01*
X013231Y019506D02*
X013131Y019356D01*
X013084Y019331D02*
X012984Y019331D01*
X012937Y019381D02*
X012912Y019356D01*
X012862Y019356D01*
X012837Y019381D01*
X012837Y019481D01*
X012862Y019506D01*
X012912Y019506D01*
X012937Y019481D01*
X012789Y019506D02*
X012689Y019506D01*
X012739Y019506D02*
X012739Y019356D01*
X012642Y019356D02*
X012592Y019406D01*
X012617Y019406D02*
X012542Y019406D01*
X012542Y019356D02*
X012542Y019506D01*
X012617Y019506D01*
X012642Y019481D01*
X012642Y019431D01*
X012617Y019406D01*
X012814Y020368D02*
X012814Y020479D01*
X012869Y020479D01*
X012888Y020460D01*
X012888Y020424D01*
X012869Y020405D01*
X012814Y020405D01*
X012851Y020405D02*
X012888Y020368D01*
X012962Y020368D02*
X012962Y020479D01*
X012998Y020479D02*
X012925Y020479D01*
X013035Y020460D02*
X013035Y020387D01*
X013054Y020368D01*
X013090Y020368D01*
X013109Y020387D01*
X013146Y020350D02*
X013219Y020350D01*
X013256Y020368D02*
X013330Y020479D01*
X013367Y020479D02*
X013440Y020479D01*
X013403Y020479D02*
X013403Y020368D01*
X013330Y020368D02*
X013256Y020479D01*
X013109Y020460D02*
X013090Y020479D01*
X013054Y020479D01*
X013035Y020460D01*
X013285Y021271D02*
X013322Y021271D01*
X013340Y021289D01*
X013340Y021326D01*
X013304Y021326D01*
X013340Y021363D02*
X013322Y021381D01*
X013285Y021381D01*
X013267Y021363D01*
X013267Y021289D01*
X013285Y021271D01*
X013377Y021271D02*
X013377Y021381D01*
X013432Y021381D01*
X013451Y021363D01*
X013451Y021326D01*
X013432Y021308D01*
X013377Y021308D01*
X013488Y021271D02*
X013525Y021271D01*
X013506Y021271D02*
X013506Y021381D01*
X013488Y021381D02*
X013525Y021381D01*
X013562Y021363D02*
X013562Y021289D01*
X013580Y021271D01*
X013617Y021271D01*
X013635Y021289D01*
X013635Y021363D01*
X013617Y021381D01*
X013580Y021381D01*
X013562Y021363D01*
X013672Y021363D02*
X013690Y021381D01*
X013727Y021381D01*
X013745Y021363D01*
X013745Y021344D01*
X013727Y021326D01*
X013745Y021308D01*
X013745Y021289D01*
X013727Y021271D01*
X013690Y021271D01*
X013672Y021289D01*
X013709Y021326D02*
X013727Y021326D01*
X013782Y021289D02*
X013856Y021363D01*
X013856Y021289D01*
X013838Y021271D01*
X013801Y021271D01*
X013782Y021289D01*
X013782Y021363D01*
X013801Y021381D01*
X013838Y021381D01*
X013856Y021363D01*
X013410Y021966D02*
X013410Y022018D01*
X013358Y022070D01*
X013385Y022096D02*
X013411Y022122D01*
X013398Y022109D02*
X013475Y022032D01*
X013463Y022019D02*
X013488Y022045D01*
X013515Y022071D02*
X013437Y022149D01*
X013566Y022123D01*
X013489Y022200D01*
X013606Y022136D02*
X013658Y022188D01*
X013671Y022227D02*
X013697Y022253D01*
X013684Y022240D02*
X013606Y022318D01*
X013593Y022305D02*
X013619Y022331D01*
X013658Y022344D02*
X013710Y022292D01*
X013736Y022292D01*
X013762Y022318D01*
X013762Y022344D01*
X013710Y022396D01*
X013684Y022396D01*
X013658Y022370D01*
X013658Y022344D01*
X013736Y022422D02*
X013736Y022448D01*
X013762Y022474D01*
X013788Y022474D01*
X013801Y022461D01*
X013801Y022357D01*
X013853Y022409D01*
X013410Y021966D02*
X013358Y021966D01*
X013307Y022018D01*
X013514Y020479D02*
X013551Y020442D01*
X013551Y020368D01*
X013588Y020368D02*
X013588Y020479D01*
X013551Y020424D02*
X013477Y020424D01*
X013477Y020442D02*
X013514Y020479D01*
X013477Y020442D02*
X013477Y020368D01*
X013588Y020368D02*
X013661Y020368D01*
X013698Y020350D02*
X013772Y020350D01*
X013809Y020368D02*
X013809Y020479D01*
X013882Y020368D01*
X013882Y020479D01*
X013131Y019506D02*
X013231Y019356D01*
X002646Y019263D02*
X002628Y019281D01*
X002591Y019281D01*
X002573Y019263D01*
X002573Y019244D01*
X002591Y019226D01*
X002628Y019226D01*
X002646Y019208D01*
X002646Y019189D01*
X002628Y019171D01*
X002591Y019171D01*
X002573Y019189D01*
X002536Y019189D02*
X002517Y019171D01*
X002481Y019171D01*
X002462Y019189D01*
X002462Y019263D01*
X002481Y019281D01*
X002517Y019281D01*
X002536Y019263D01*
X002425Y019153D02*
X002352Y019153D01*
X002315Y019171D02*
X002278Y019171D01*
X002297Y019171D02*
X002297Y019281D01*
X002315Y019281D02*
X002278Y019281D01*
X002241Y019263D02*
X002241Y019226D01*
X002223Y019208D01*
X002168Y019208D01*
X002168Y019171D02*
X002168Y019281D01*
X002223Y019281D01*
X002241Y019263D01*
X002131Y019263D02*
X002112Y019281D01*
X002076Y019281D01*
X002057Y019263D01*
X002057Y019244D01*
X002076Y019226D01*
X002112Y019226D01*
X002131Y019208D01*
X002131Y019189D01*
X002112Y019171D01*
X002076Y019171D01*
X002057Y019189D01*
X002020Y019153D02*
X001947Y019153D01*
X001910Y019171D02*
X001910Y019281D01*
X001910Y019226D02*
X001836Y019226D01*
X001799Y019208D02*
X001799Y019189D01*
X001781Y019171D01*
X001744Y019171D01*
X001726Y019189D01*
X001744Y019226D02*
X001781Y019226D01*
X001799Y019208D01*
X001836Y019171D02*
X001836Y019281D01*
X001799Y019263D02*
X001781Y019281D01*
X001744Y019281D01*
X001726Y019263D01*
X001726Y019244D01*
X001744Y019226D01*
X001689Y019226D02*
X001615Y019226D01*
X001615Y019244D02*
X001652Y019281D01*
X001689Y019244D01*
X001689Y019171D01*
X001615Y019171D02*
X001615Y019244D01*
X001578Y019171D02*
X001505Y019171D01*
X001505Y019281D01*
X001468Y019281D02*
X001394Y019281D01*
X001394Y019171D01*
X001394Y019226D02*
X001431Y019226D01*
X001462Y020186D02*
X001536Y020186D01*
X001573Y020186D02*
X001573Y020259D01*
X001610Y020296D01*
X001646Y020259D01*
X001646Y020186D01*
X001683Y020204D02*
X001702Y020186D01*
X001738Y020186D01*
X001757Y020204D01*
X001757Y020223D01*
X001738Y020241D01*
X001702Y020241D01*
X001683Y020259D01*
X001683Y020278D01*
X001702Y020296D01*
X001738Y020296D01*
X001757Y020278D01*
X001794Y020296D02*
X001794Y020186D01*
X001794Y020241D02*
X001867Y020241D01*
X001867Y020296D02*
X001867Y020186D01*
X001904Y020168D02*
X001978Y020168D01*
X002015Y020204D02*
X002033Y020186D01*
X002070Y020186D01*
X002088Y020204D01*
X002088Y020223D01*
X002070Y020241D01*
X002033Y020241D01*
X002015Y020259D01*
X002015Y020278D01*
X002033Y020296D01*
X002070Y020296D01*
X002088Y020278D01*
X002125Y020296D02*
X002180Y020296D01*
X002199Y020278D01*
X002199Y020241D01*
X002180Y020223D01*
X002125Y020223D01*
X002125Y020186D02*
X002125Y020296D01*
X002236Y020296D02*
X002272Y020296D01*
X002254Y020296D02*
X002254Y020186D01*
X002236Y020186D02*
X002272Y020186D01*
X002309Y020168D02*
X002383Y020168D01*
X002420Y020186D02*
X002475Y020186D01*
X002493Y020204D01*
X002493Y020278D01*
X002475Y020296D01*
X002420Y020296D01*
X002420Y020186D01*
X002530Y020186D02*
X002567Y020186D01*
X002549Y020186D02*
X002549Y020296D01*
X002567Y020296D02*
X002530Y020296D01*
X002604Y020296D02*
X002677Y020186D01*
X002677Y020296D01*
X002604Y020296D02*
X002604Y020186D01*
X001923Y021188D02*
X001941Y021207D01*
X001941Y021280D01*
X001923Y021299D01*
X001886Y021299D01*
X001867Y021280D01*
X001867Y021207D01*
X001886Y021188D01*
X001923Y021188D01*
X001830Y021207D02*
X001830Y021280D01*
X001812Y021299D01*
X001757Y021299D01*
X001757Y021188D01*
X001812Y021188D01*
X001830Y021207D01*
X001720Y021170D02*
X001647Y021170D01*
X001610Y021188D02*
X001573Y021188D01*
X001591Y021188D02*
X001591Y021299D01*
X001573Y021299D02*
X001610Y021299D01*
X001536Y021280D02*
X001536Y021243D01*
X001517Y021225D01*
X001462Y021225D01*
X001462Y021188D02*
X001462Y021299D01*
X001517Y021299D01*
X001536Y021280D01*
X001425Y021280D02*
X001407Y021299D01*
X001370Y021299D01*
X001352Y021280D01*
X001352Y021262D01*
X001370Y021243D01*
X001407Y021243D01*
X001425Y021225D01*
X001425Y021207D01*
X001407Y021188D01*
X001370Y021188D01*
X001352Y021207D01*
X001356Y021418D02*
X001282Y021418D01*
X001282Y021529D01*
X001245Y021529D02*
X001172Y021529D01*
X001172Y021418D01*
X001172Y021474D02*
X001209Y021474D01*
X001393Y021474D02*
X001466Y021474D01*
X001466Y021492D02*
X001466Y021418D01*
X001503Y021437D02*
X001522Y021418D01*
X001558Y021418D01*
X001577Y021437D01*
X001577Y021455D01*
X001558Y021474D01*
X001522Y021474D01*
X001503Y021492D01*
X001503Y021510D01*
X001522Y021529D01*
X001558Y021529D01*
X001577Y021510D01*
X001614Y021529D02*
X001614Y021418D01*
X001614Y021474D02*
X001687Y021474D01*
X001687Y021529D02*
X001687Y021418D01*
X001824Y021876D02*
X001772Y021928D01*
X001850Y022006D01*
X001810Y022019D02*
X001810Y022045D01*
X001784Y022071D01*
X001759Y022071D01*
X001707Y022019D01*
X001707Y021993D01*
X001733Y021968D01*
X001759Y021968D01*
X001654Y022020D02*
X001603Y022072D01*
X001589Y022111D02*
X001564Y022137D01*
X001576Y022124D02*
X001654Y022202D01*
X001641Y022215D02*
X001667Y022189D01*
X001602Y022228D02*
X001576Y022202D01*
X001550Y022202D01*
X001511Y022241D01*
X001485Y022215D02*
X001563Y022293D01*
X001602Y022254D01*
X001602Y022228D01*
X001524Y022306D02*
X001524Y022332D01*
X001498Y022358D01*
X001472Y022358D01*
X001459Y022345D01*
X001459Y022319D01*
X001485Y022293D01*
X001485Y022267D01*
X001472Y022254D01*
X001446Y022254D01*
X001420Y022280D01*
X001420Y022306D01*
X001368Y022306D02*
X001316Y022358D01*
X001303Y022397D02*
X001251Y022449D01*
X001329Y022527D01*
X001303Y022553D02*
X001251Y022605D01*
X001173Y022527D01*
X001212Y022566D02*
X001238Y022540D01*
X001708Y023009D02*
X001638Y023080D01*
X001640Y023148D02*
X001710Y023219D01*
X001710Y023255D01*
X001657Y023308D01*
X001551Y023202D01*
X001604Y023149D01*
X001640Y023148D01*
X001536Y023253D02*
X001606Y023323D01*
X001606Y023359D01*
X001553Y023412D01*
X001447Y023306D01*
X001500Y023253D01*
X001536Y023253D01*
X001449Y023375D02*
X001520Y023445D01*
X001449Y023375D02*
X001378Y023375D01*
X001378Y023445D01*
X001449Y023516D01*
X001775Y023877D02*
X001846Y023806D01*
X001897Y023791D02*
X001950Y023738D01*
X001985Y023738D01*
X002056Y023808D01*
X002056Y023844D01*
X002003Y023897D01*
X001897Y023791D01*
X002001Y023687D02*
X002036Y023651D01*
X002019Y023669D02*
X002125Y023775D01*
X002107Y023793D02*
X002143Y023757D01*
X002159Y023706D02*
X002088Y023635D01*
X002088Y023599D01*
X002124Y023564D01*
X002159Y023564D01*
X002194Y023599D01*
X002159Y023635D01*
X002159Y023706D02*
X002194Y023706D01*
X002230Y023670D01*
X002230Y023635D01*
X002245Y023584D02*
X002316Y023584D01*
X002210Y023478D01*
X002175Y023513D02*
X002245Y023442D01*
X001883Y023082D02*
X001777Y022976D01*
X001760Y022993D02*
X001795Y022958D01*
X001847Y022941D02*
X001847Y022906D01*
X001882Y022871D01*
X001917Y022871D01*
X001988Y022941D01*
X001988Y022977D01*
X001953Y023012D01*
X001917Y023012D01*
X001847Y022941D01*
X001901Y023064D02*
X001866Y023099D01*
X002004Y022890D02*
X002075Y022890D01*
X001968Y022784D01*
X001933Y022820D02*
X002004Y022749D01*
X001777Y023946D02*
X001848Y024017D01*
X001848Y024052D01*
X001795Y024105D01*
X001689Y023999D01*
X001742Y023946D01*
X001777Y023946D01*
X001673Y024050D02*
X001744Y024121D01*
X001744Y024156D01*
X001691Y024209D01*
X001585Y024103D01*
X001638Y024050D01*
X001673Y024050D01*
X001587Y024172D02*
X001657Y024243D01*
X001587Y024314D02*
X001516Y024243D01*
X001516Y024172D01*
X001587Y024172D01*
X001430Y021529D02*
X001466Y021492D01*
X001430Y021529D02*
X001393Y021492D01*
X001393Y021418D01*
X001352Y020296D02*
X001425Y020296D01*
X001462Y020296D02*
X001462Y020186D01*
X001389Y020241D02*
X001352Y020241D01*
X001352Y020186D02*
X001352Y020296D01*
X001573Y020241D02*
X001646Y020241D01*
X001712Y011793D02*
X001789Y011715D01*
X001660Y011741D01*
X001738Y011664D01*
X001724Y011624D02*
X001672Y011572D01*
X001633Y011559D02*
X001581Y011507D01*
X001503Y011585D01*
X001503Y011533D02*
X001555Y011481D01*
X001516Y011520D02*
X001464Y011468D01*
X001451Y011481D02*
X001451Y011533D01*
X001503Y011533D01*
X001451Y011481D02*
X001503Y011429D01*
X001451Y011377D02*
X001373Y011455D01*
X001347Y011429D02*
X001399Y011481D01*
X001332Y011548D02*
X001280Y011496D01*
X001202Y011574D01*
X001176Y011548D02*
X001254Y011470D01*
X001202Y011470D01*
X001202Y011418D01*
X001124Y011496D01*
X001269Y011351D02*
X001399Y011325D01*
X001347Y011273D02*
X001321Y011403D01*
X001358Y011574D02*
X001306Y011626D01*
X001306Y011678D01*
X001358Y011678D01*
X001410Y011626D01*
X001436Y011652D02*
X001358Y011730D01*
X001488Y011704D01*
X001410Y011782D01*
X001371Y011665D02*
X001319Y011613D01*
X001458Y010725D02*
X001536Y010647D01*
X001406Y010673D01*
X001484Y010595D01*
X001458Y010569D02*
X001406Y010621D01*
X001354Y010621D01*
X001354Y010569D01*
X001406Y010517D01*
X001379Y010491D02*
X001328Y010439D01*
X001250Y010516D01*
X001223Y010490D02*
X001301Y010412D01*
X001249Y010412D01*
X001249Y010361D01*
X001172Y010438D01*
X001302Y010276D02*
X001431Y010250D01*
X001379Y010198D02*
X001353Y010328D01*
X001380Y010354D02*
X001432Y010406D01*
X001406Y010380D02*
X001484Y010302D01*
X001536Y010354D02*
X001484Y010406D01*
X001484Y010458D01*
X001536Y010458D01*
X001588Y010406D01*
X001614Y010432D02*
X001666Y010484D01*
X001705Y010497D02*
X001757Y010549D01*
X001770Y010589D02*
X001692Y010666D01*
X001731Y010705D01*
X001757Y010705D01*
X001783Y010679D01*
X001783Y010653D01*
X001744Y010614D01*
X001614Y010432D02*
X001536Y010510D01*
X001549Y010445D02*
X001497Y010393D01*
X001367Y010556D02*
X001419Y010608D01*
X001953Y009869D02*
X002059Y009763D01*
X002130Y009834D01*
X002026Y009729D02*
X001955Y009659D01*
X001849Y009765D01*
X001833Y009714D02*
X001869Y009678D01*
X001869Y009643D01*
X001816Y009590D01*
X001851Y009554D02*
X001745Y009661D01*
X001798Y009714D01*
X001833Y009714D01*
X001835Y009503D02*
X001765Y009433D01*
X001696Y009435D02*
X001625Y009505D01*
X001590Y009505D01*
X001537Y009452D01*
X001643Y009346D01*
X001696Y009399D01*
X001696Y009435D01*
X001592Y009331D02*
X001521Y009401D01*
X001485Y009401D01*
X001432Y009348D01*
X001539Y009242D01*
X001592Y009295D01*
X001592Y009331D01*
X001470Y009244D02*
X001470Y009173D01*
X001399Y009173D01*
X001328Y009244D01*
X001399Y009315D02*
X001470Y009244D01*
D13*
X004712Y015802D02*
X004821Y015802D01*
X004712Y015802D02*
X004604Y015911D01*
X004604Y016019D01*
X004821Y016236D01*
X004929Y016236D01*
X005038Y016128D01*
X005038Y016019D01*
X005146Y015911D02*
X004929Y015694D01*
X004929Y015585D01*
X005038Y015477D01*
X005146Y015477D01*
X005255Y015368D02*
X005255Y015260D01*
X005363Y015151D01*
X005472Y015151D01*
X005526Y015205D01*
X005526Y015314D01*
X005472Y015368D01*
X005526Y015314D02*
X005635Y015314D01*
X005689Y015368D01*
X005689Y015477D01*
X005580Y015585D01*
X005472Y015585D01*
X005363Y015694D02*
X005363Y015802D01*
X005255Y015911D01*
X005146Y015911D01*
X005526Y014988D02*
X005960Y014988D01*
X006014Y015043D01*
X006014Y015151D01*
X005906Y015260D01*
X005797Y015260D01*
X005526Y014988D02*
X005743Y014771D01*
X005906Y014717D02*
X006340Y014717D01*
X006123Y014500D01*
X006014Y014500D01*
X005906Y014609D01*
X005906Y014717D01*
X006123Y014934D01*
X006231Y014934D01*
X006340Y014826D01*
X006340Y014717D01*
X006448Y014609D02*
X006231Y014391D01*
X006665Y014392D01*
X006448Y014174D01*
X006340Y014175D01*
X006231Y014283D01*
X006231Y014391D01*
X006448Y014609D02*
X006557Y014609D01*
X006665Y014500D01*
X006665Y014392D01*
X008522Y018418D02*
X008847Y018744D01*
X008630Y018744D01*
X008576Y018906D02*
X008576Y019015D01*
X008467Y019123D01*
X008359Y019123D01*
X008305Y019069D01*
X008305Y018961D01*
X008413Y018852D01*
X008413Y018744D01*
X008359Y018689D01*
X008250Y018689D01*
X008142Y018798D01*
X008142Y018906D01*
X008033Y019015D02*
X008305Y019286D01*
X008088Y019503D02*
X007816Y019232D01*
X007816Y019123D01*
X007925Y019015D01*
X008033Y019015D01*
X008142Y018689D02*
X008576Y019123D01*
X008413Y018527D02*
X008630Y018310D01*
D14*
X008371Y026407D02*
X008371Y028807D01*
X008369Y028864D01*
X008363Y028920D01*
X008354Y028976D01*
X008341Y029032D01*
X008324Y029086D01*
X008304Y029139D01*
X008280Y029190D01*
X008252Y029240D01*
X008222Y029288D01*
X008188Y029334D01*
X008151Y029377D01*
X008112Y029418D01*
X008070Y029456D01*
X008025Y029491D01*
X007978Y029523D01*
X007929Y029552D01*
X007879Y029578D01*
X007826Y029600D01*
X007773Y029619D01*
X007718Y029634D01*
X007662Y029645D01*
X007606Y029653D01*
X007549Y029657D01*
X007493Y029657D01*
X007436Y029653D01*
X007380Y029645D01*
X007324Y029634D01*
X007269Y029619D01*
X007216Y029600D01*
X007163Y029578D01*
X007113Y029552D01*
X007064Y029523D01*
X007017Y029491D01*
X006972Y029456D01*
X006930Y029418D01*
X006891Y029377D01*
X006854Y029334D01*
X006820Y029288D01*
X006790Y029240D01*
X006762Y029190D01*
X006738Y029139D01*
X006718Y029086D01*
X006701Y029032D01*
X006688Y028976D01*
X006679Y028920D01*
X006673Y028864D01*
X006671Y028807D01*
X006671Y026407D01*
X006673Y026350D01*
X006679Y026294D01*
X006688Y026238D01*
X006701Y026182D01*
X006718Y026128D01*
X006738Y026075D01*
X006762Y026024D01*
X006790Y025974D01*
X006820Y025926D01*
X006854Y025880D01*
X006891Y025837D01*
X006930Y025796D01*
X006972Y025758D01*
X007017Y025723D01*
X007064Y025691D01*
X007113Y025662D01*
X007163Y025636D01*
X007216Y025614D01*
X007269Y025595D01*
X007324Y025580D01*
X007380Y025569D01*
X007436Y025561D01*
X007493Y025557D01*
X007549Y025557D01*
X007606Y025561D01*
X007662Y025569D01*
X007718Y025580D01*
X007773Y025595D01*
X007826Y025614D01*
X007879Y025636D01*
X007929Y025662D01*
X007978Y025691D01*
X008025Y025723D01*
X008070Y025758D01*
X008112Y025796D01*
X008151Y025837D01*
X008188Y025880D01*
X008222Y025926D01*
X008252Y025974D01*
X008280Y026024D01*
X008304Y026075D01*
X008324Y026128D01*
X008341Y026182D01*
X008354Y026238D01*
X008363Y026294D01*
X008369Y026350D01*
X008371Y026407D01*
X008424Y008663D02*
X008424Y006263D01*
X008422Y006206D01*
X008416Y006150D01*
X008407Y006094D01*
X008394Y006038D01*
X008377Y005984D01*
X008357Y005931D01*
X008333Y005880D01*
X008305Y005830D01*
X008275Y005782D01*
X008241Y005736D01*
X008204Y005693D01*
X008165Y005652D01*
X008123Y005614D01*
X008078Y005579D01*
X008031Y005547D01*
X007982Y005518D01*
X007932Y005492D01*
X007879Y005470D01*
X007826Y005451D01*
X007771Y005436D01*
X007715Y005425D01*
X007659Y005417D01*
X007602Y005413D01*
X007546Y005413D01*
X007489Y005417D01*
X007433Y005425D01*
X007377Y005436D01*
X007322Y005451D01*
X007269Y005470D01*
X007216Y005492D01*
X007166Y005518D01*
X007117Y005547D01*
X007070Y005579D01*
X007025Y005614D01*
X006983Y005652D01*
X006944Y005693D01*
X006907Y005736D01*
X006873Y005782D01*
X006843Y005830D01*
X006815Y005880D01*
X006791Y005931D01*
X006771Y005984D01*
X006754Y006038D01*
X006741Y006094D01*
X006732Y006150D01*
X006726Y006206D01*
X006724Y006263D01*
X006724Y008663D01*
X006726Y008720D01*
X006732Y008776D01*
X006741Y008832D01*
X006754Y008888D01*
X006771Y008942D01*
X006791Y008995D01*
X006815Y009046D01*
X006843Y009096D01*
X006873Y009144D01*
X006907Y009190D01*
X006944Y009233D01*
X006983Y009274D01*
X007025Y009312D01*
X007070Y009347D01*
X007117Y009379D01*
X007166Y009408D01*
X007216Y009434D01*
X007269Y009456D01*
X007322Y009475D01*
X007377Y009490D01*
X007433Y009501D01*
X007489Y009509D01*
X007546Y009513D01*
X007602Y009513D01*
X007659Y009509D01*
X007715Y009501D01*
X007771Y009490D01*
X007826Y009475D01*
X007879Y009456D01*
X007932Y009434D01*
X007982Y009408D01*
X008031Y009379D01*
X008078Y009347D01*
X008123Y009312D01*
X008165Y009274D01*
X008204Y009233D01*
X008241Y009190D01*
X008275Y009144D01*
X008305Y009096D01*
X008333Y009046D01*
X008357Y008995D01*
X008377Y008942D01*
X008394Y008888D01*
X008407Y008832D01*
X008416Y008776D01*
X008422Y008720D01*
X008424Y008663D01*
D15*
X008224Y008663D02*
X008224Y006263D01*
X007874Y007213D02*
X007574Y007213D01*
X007574Y006963D01*
X007574Y007213D02*
X007274Y007213D01*
X007274Y007363D02*
X007274Y007563D01*
X007874Y007563D01*
X007874Y007363D01*
X007274Y007363D01*
X007274Y007713D02*
X007574Y007713D01*
X007574Y007963D01*
X007574Y007713D02*
X007874Y007713D01*
X008224Y008663D02*
X008222Y008713D01*
X008216Y008762D01*
X008207Y008811D01*
X008194Y008859D01*
X008177Y008906D01*
X008157Y008951D01*
X008133Y008995D01*
X008106Y009037D01*
X008075Y009077D01*
X008042Y009114D01*
X008006Y009148D01*
X007968Y009180D01*
X007927Y009209D01*
X007885Y009234D01*
X007840Y009256D01*
X007794Y009275D01*
X007746Y009290D01*
X007698Y009301D01*
X007649Y009309D01*
X007599Y009313D01*
X007549Y009313D01*
X007499Y009309D01*
X007450Y009301D01*
X007402Y009290D01*
X007354Y009275D01*
X007308Y009256D01*
X007263Y009234D01*
X007221Y009209D01*
X007180Y009180D01*
X007142Y009148D01*
X007106Y009114D01*
X007073Y009077D01*
X007042Y009037D01*
X007015Y008995D01*
X006991Y008951D01*
X006971Y008906D01*
X006954Y008859D01*
X006941Y008811D01*
X006932Y008762D01*
X006926Y008713D01*
X006924Y008663D01*
X006924Y006263D01*
X006926Y006213D01*
X006932Y006164D01*
X006941Y006115D01*
X006954Y006067D01*
X006971Y006020D01*
X006991Y005975D01*
X007015Y005931D01*
X007042Y005889D01*
X007073Y005849D01*
X007106Y005812D01*
X007142Y005778D01*
X007180Y005746D01*
X007221Y005717D01*
X007263Y005692D01*
X007308Y005670D01*
X007354Y005651D01*
X007402Y005636D01*
X007450Y005625D01*
X007499Y005617D01*
X007549Y005613D01*
X007599Y005613D01*
X007649Y005617D01*
X007698Y005625D01*
X007746Y005636D01*
X007794Y005651D01*
X007840Y005670D01*
X007885Y005692D01*
X007927Y005717D01*
X007968Y005746D01*
X008006Y005778D01*
X008042Y005812D01*
X008075Y005849D01*
X008106Y005889D01*
X008133Y005931D01*
X008157Y005975D01*
X008177Y006020D01*
X008194Y006067D01*
X008207Y006115D01*
X008216Y006164D01*
X008222Y006213D01*
X008224Y006263D01*
X008148Y022855D02*
X008948Y022855D01*
X008965Y022857D01*
X008982Y022861D01*
X008998Y022868D01*
X009012Y022878D01*
X009025Y022891D01*
X009035Y022905D01*
X009042Y022921D01*
X009046Y022938D01*
X009048Y022955D01*
X009048Y024655D01*
X009046Y024672D01*
X009042Y024689D01*
X009035Y024705D01*
X009025Y024719D01*
X009012Y024732D01*
X008998Y024742D01*
X008982Y024749D01*
X008965Y024753D01*
X008948Y024755D01*
X008148Y024755D01*
X008131Y024753D01*
X008114Y024749D01*
X008098Y024742D01*
X008084Y024732D01*
X008071Y024719D01*
X008061Y024705D01*
X008054Y024689D01*
X008050Y024672D01*
X008048Y024655D01*
X008048Y022955D01*
X008050Y022938D01*
X008054Y022921D01*
X008061Y022905D01*
X008071Y022891D01*
X008084Y022878D01*
X008098Y022868D01*
X008114Y022861D01*
X008131Y022857D01*
X008148Y022855D01*
X008548Y023655D02*
X008548Y023705D01*
X008548Y023905D02*
X008548Y023955D01*
X008171Y026407D02*
X008171Y028807D01*
X007821Y027857D02*
X007521Y027857D01*
X007521Y028107D01*
X007521Y027857D02*
X007221Y027857D01*
X007221Y027707D02*
X007821Y027707D01*
X007821Y027507D01*
X007221Y027507D01*
X007221Y027707D01*
X007221Y027357D02*
X007521Y027357D01*
X007521Y027107D01*
X007521Y027357D02*
X007821Y027357D01*
X008171Y026407D02*
X008169Y026357D01*
X008163Y026308D01*
X008154Y026259D01*
X008141Y026211D01*
X008124Y026164D01*
X008104Y026119D01*
X008080Y026075D01*
X008053Y026033D01*
X008022Y025993D01*
X007989Y025956D01*
X007953Y025922D01*
X007915Y025890D01*
X007874Y025861D01*
X007832Y025836D01*
X007787Y025814D01*
X007741Y025795D01*
X007693Y025780D01*
X007645Y025769D01*
X007596Y025761D01*
X007546Y025757D01*
X007496Y025757D01*
X007446Y025761D01*
X007397Y025769D01*
X007349Y025780D01*
X007301Y025795D01*
X007255Y025814D01*
X007210Y025836D01*
X007168Y025861D01*
X007127Y025890D01*
X007089Y025922D01*
X007053Y025956D01*
X007020Y025993D01*
X006989Y026033D01*
X006962Y026075D01*
X006938Y026119D01*
X006918Y026164D01*
X006901Y026211D01*
X006888Y026259D01*
X006879Y026308D01*
X006873Y026357D01*
X006871Y026407D01*
X006871Y028807D01*
X006873Y028857D01*
X006879Y028906D01*
X006888Y028955D01*
X006901Y029003D01*
X006918Y029050D01*
X006938Y029095D01*
X006962Y029139D01*
X006989Y029181D01*
X007020Y029221D01*
X007053Y029258D01*
X007089Y029292D01*
X007127Y029324D01*
X007168Y029353D01*
X007210Y029378D01*
X007255Y029400D01*
X007301Y029419D01*
X007349Y029434D01*
X007397Y029445D01*
X007446Y029453D01*
X007496Y029457D01*
X007546Y029457D01*
X007596Y029453D01*
X007645Y029445D01*
X007693Y029434D01*
X007741Y029419D01*
X007787Y029400D01*
X007832Y029378D01*
X007874Y029353D01*
X007915Y029324D01*
X007953Y029292D01*
X007989Y029258D01*
X008022Y029221D01*
X008053Y029181D01*
X008080Y029139D01*
X008104Y029095D01*
X008124Y029050D01*
X008141Y029003D01*
X008154Y028955D01*
X008163Y028906D01*
X008169Y028857D01*
X008171Y028807D01*
X006933Y024762D02*
X006133Y024762D01*
X006116Y024760D01*
X006099Y024756D01*
X006083Y024749D01*
X006069Y024739D01*
X006056Y024726D01*
X006046Y024712D01*
X006039Y024696D01*
X006035Y024679D01*
X006033Y024662D01*
X006033Y022962D01*
X006035Y022945D01*
X006039Y022928D01*
X006046Y022912D01*
X006056Y022898D01*
X006069Y022885D01*
X006083Y022875D01*
X006099Y022868D01*
X006116Y022864D01*
X006133Y022862D01*
X006933Y022862D01*
X006950Y022864D01*
X006967Y022868D01*
X006983Y022875D01*
X006997Y022885D01*
X007010Y022898D01*
X007020Y022912D01*
X007027Y022928D01*
X007031Y022945D01*
X007033Y022962D01*
X007033Y024662D01*
X007031Y024679D01*
X007027Y024696D01*
X007020Y024712D01*
X007010Y024726D01*
X006997Y024739D01*
X006983Y024749D01*
X006967Y024756D01*
X006950Y024760D01*
X006933Y024762D01*
X006533Y023962D02*
X006533Y023912D01*
X006533Y023712D02*
X006533Y023662D01*
D16*
X006058Y023817D02*
X005608Y023817D01*
X005608Y024042D01*
X005683Y024117D01*
X005833Y024117D01*
X005908Y024042D01*
X005908Y023817D01*
X005908Y024277D02*
X005458Y024277D01*
X005458Y024577D01*
X005683Y024427D02*
X005683Y024277D01*
X005533Y023196D02*
X005458Y023121D01*
X005458Y022971D01*
X005533Y022896D01*
X005833Y022896D01*
X005533Y023196D01*
X005833Y023196D01*
X005908Y023121D01*
X005908Y022971D01*
X005833Y022896D01*
X005908Y022736D02*
X005908Y022435D01*
X005908Y022586D02*
X005458Y022586D01*
X005608Y022435D01*
X007158Y023892D02*
X007233Y023817D01*
X007533Y023817D01*
X007608Y023892D01*
X007608Y024042D01*
X007533Y024117D01*
X007533Y024277D02*
X007608Y024352D01*
X007608Y024502D01*
X007533Y024577D01*
X007458Y024577D01*
X007383Y024502D01*
X007383Y024427D01*
X007383Y024502D02*
X007308Y024577D01*
X007233Y024577D01*
X007158Y024502D01*
X007158Y024352D01*
X007233Y024277D01*
X007233Y024117D02*
X007158Y024042D01*
X007158Y023892D01*
X007473Y023615D02*
X007698Y023390D01*
X007698Y023690D01*
X007923Y023615D02*
X007473Y023615D01*
X007548Y023230D02*
X007473Y023155D01*
X007473Y023005D01*
X007548Y022930D01*
X007848Y022930D01*
X007923Y023005D01*
X007923Y023155D01*
X007848Y023230D01*
X009173Y023080D02*
X009623Y023080D01*
X009623Y022930D02*
X009623Y023230D01*
X009548Y023390D02*
X009248Y023690D01*
X009548Y023690D01*
X009623Y023615D01*
X009623Y023465D01*
X009548Y023390D01*
X009248Y023390D01*
X009173Y023465D01*
X009173Y023615D01*
X009248Y023690D01*
X009173Y023080D02*
X009323Y022930D01*
X009323Y024311D02*
X009323Y024536D01*
X009398Y024611D01*
X009548Y024611D01*
X009623Y024536D01*
X009623Y024311D01*
X009773Y024311D02*
X009323Y024311D01*
X009398Y024771D02*
X009398Y024921D01*
X009173Y024771D02*
X009173Y025071D01*
X009173Y024771D02*
X009623Y024771D01*
X008971Y028711D02*
X008671Y028711D01*
X008596Y028786D01*
X008596Y028937D01*
X008671Y029012D01*
X008971Y029012D01*
X009046Y028937D01*
X009046Y028786D01*
X008971Y028711D01*
X008896Y028862D02*
X009046Y029012D01*
X009046Y029172D02*
X008746Y029472D01*
X008671Y029472D01*
X008596Y029397D01*
X008596Y029247D01*
X008671Y029172D01*
X009046Y029172D02*
X009046Y029472D01*
X009099Y009328D02*
X009099Y009028D01*
X009099Y009178D02*
X008649Y009178D01*
X008799Y009028D01*
X008724Y008868D02*
X008649Y008793D01*
X008649Y008643D01*
X008724Y008568D01*
X009024Y008568D01*
X009099Y008643D01*
X009099Y008793D01*
X009024Y008868D01*
X008724Y008868D01*
X008949Y008718D02*
X009099Y008868D01*
X006499Y008868D02*
X006049Y008868D01*
X006199Y009028D02*
X006199Y009328D01*
X006499Y009028D01*
X006499Y009328D01*
X006274Y008868D02*
X006274Y008567D01*
X006199Y008409D02*
X006349Y008184D01*
X006499Y008409D01*
X006499Y008567D02*
X006049Y008567D01*
X006049Y008184D02*
X006499Y008184D01*
X006424Y007563D02*
X006349Y007563D01*
X006274Y007488D01*
X006274Y007338D01*
X006199Y007263D01*
X006124Y007263D01*
X006049Y007338D01*
X006049Y007488D01*
X006124Y007563D01*
X006199Y007563D01*
X006274Y007488D01*
X006274Y007338D02*
X006349Y007263D01*
X006424Y007263D01*
X006499Y007338D01*
X006499Y007488D01*
X006424Y007563D01*
X006424Y007103D02*
X006349Y007103D01*
X006274Y007028D01*
X006274Y006803D01*
X006424Y006803D01*
X006499Y006878D01*
X006499Y007028D01*
X006424Y007103D01*
X006124Y006953D02*
X006274Y006803D01*
X006124Y006953D02*
X006049Y007103D01*
X006049Y006643D02*
X006124Y006643D01*
X006424Y006342D01*
X006499Y006342D01*
X006499Y006187D02*
X006499Y006112D01*
X006424Y006112D01*
X006424Y006187D01*
X006499Y006187D01*
X006499Y005952D02*
X006499Y005652D01*
X006199Y005952D01*
X006124Y005952D01*
X006049Y005877D01*
X006049Y005727D01*
X006124Y005652D01*
X006124Y005492D02*
X006049Y005417D01*
X006049Y005266D01*
X006124Y005191D01*
X006274Y005342D02*
X006274Y005417D01*
X006349Y005492D01*
X006424Y005492D01*
X006499Y005417D01*
X006499Y005266D01*
X006424Y005191D01*
X006274Y005417D02*
X006199Y005492D01*
X006124Y005492D01*
X006049Y006342D02*
X006049Y006643D01*
D17*
X006755Y011945D02*
X006779Y011945D01*
X008304Y011950D02*
X008328Y011950D01*
D18*
X008248Y023705D02*
X008548Y023705D01*
X008848Y023705D01*
X008848Y023905D02*
X008548Y023905D01*
X008248Y023905D01*
X006833Y023912D02*
X006533Y023912D01*
X006233Y023912D01*
X006233Y023712D02*
X006533Y023712D01*
X006833Y023712D01*
M02*
