G75*
G70*
%OFA0B0*%
%FSLAX24Y24*%
%IPPOS*%
%LPD*%
%AMOC8*
5,1,8,0,0,1.08239X$1,22.5*
%
%ADD10C,0.0120*%
%ADD11R,0.0591X0.0118*%
%ADD12R,0.0118X0.0591*%
D10*
X000168Y000170D02*
X019853Y000170D01*
X019853Y032847D01*
X000168Y032847D01*
X000168Y000170D01*
D11*
X007707Y015369D03*
X007707Y015565D03*
X007707Y015762D03*
X007707Y015959D03*
X007707Y016156D03*
X007707Y016353D03*
X007707Y016550D03*
X007707Y016747D03*
X007707Y016943D03*
X007707Y017140D03*
X007707Y017337D03*
X007707Y017534D03*
X007707Y017731D03*
X007707Y017928D03*
X007707Y018125D03*
X007707Y018321D03*
X012195Y018321D03*
X012195Y018125D03*
X012195Y017928D03*
X012195Y017731D03*
X012195Y017534D03*
X012195Y017337D03*
X012195Y017140D03*
X012195Y016943D03*
X012195Y016747D03*
X012195Y016550D03*
X012195Y016353D03*
X012195Y016156D03*
X012195Y015959D03*
X012195Y015762D03*
X012195Y015565D03*
X012195Y015369D03*
D12*
X011428Y014601D03*
X011231Y014601D03*
X011034Y014601D03*
X010837Y014601D03*
X010640Y014601D03*
X010443Y014601D03*
X010246Y014601D03*
X010050Y014601D03*
X009853Y014601D03*
X009656Y014601D03*
X009459Y014601D03*
X009262Y014601D03*
X009065Y014601D03*
X008868Y014601D03*
X008672Y014601D03*
X008475Y014601D03*
X008475Y019089D03*
X008672Y019089D03*
X008868Y019089D03*
X009065Y019089D03*
X009262Y019089D03*
X009459Y019089D03*
X009656Y019089D03*
X009853Y019089D03*
X010050Y019089D03*
X010246Y019089D03*
X010443Y019089D03*
X010640Y019089D03*
X010837Y019089D03*
X011034Y019089D03*
X011231Y019089D03*
X011428Y019089D03*
M02*
