G75*
G70*
%OFA0B0*%
%FSLAX24Y24*%
%IPPOS*%
%LPD*%
%AMOC8*
5,1,8,0,0,1.08239X$1,22.5*
%
%ADD10C,0.0030*%
%ADD11C,0.0020*%
%ADD12C,0.0120*%
%ADD13C,0.0080*%
%ADD14C,0.0040*%
%ADD15C,0.0050*%
%ADD16C,0.0200*%
%ADD17C,0.0060*%
%ADD18R,0.0500X0.0750*%
%ADD19R,0.0300X0.0700*%
%ADD20R,0.0500X0.0300*%
%ADD21C,0.0100*%
%ADD22R,0.0340X0.0240*%
D10*
X001502Y005343D02*
X001647Y005343D01*
X001696Y005391D01*
X001696Y005439D01*
X001647Y005488D01*
X001502Y005488D01*
X001502Y005343D02*
X001502Y005633D01*
X001647Y005633D01*
X001696Y005584D01*
X001696Y005536D01*
X001647Y005488D01*
X001797Y005536D02*
X001894Y005633D01*
X001894Y005343D01*
X001990Y005343D02*
X001797Y005343D01*
X002092Y005391D02*
X002140Y005343D01*
X002237Y005343D01*
X002285Y005391D01*
X002285Y005439D01*
X002237Y005488D01*
X002188Y005488D01*
X002237Y005488D02*
X002285Y005536D01*
X002285Y005584D01*
X002237Y005633D01*
X002140Y005633D01*
X002092Y005584D01*
X002092Y006248D02*
X002285Y006442D01*
X002285Y006490D01*
X002237Y006538D01*
X002140Y006538D01*
X002092Y006490D01*
X001894Y006538D02*
X001894Y006248D01*
X001990Y006248D02*
X001797Y006248D01*
X001696Y006296D02*
X001647Y006248D01*
X001502Y006248D01*
X001502Y006538D01*
X001647Y006538D01*
X001696Y006490D01*
X001696Y006442D01*
X001647Y006393D01*
X001502Y006393D01*
X001647Y006393D02*
X001696Y006345D01*
X001696Y006296D01*
X001797Y006442D02*
X001894Y006538D01*
X002092Y006248D02*
X002285Y006248D01*
X002336Y007291D02*
X002432Y007388D01*
X002432Y007582D01*
X002239Y007582D02*
X002239Y007388D01*
X002336Y007291D01*
X002138Y007340D02*
X002089Y007291D01*
X001993Y007291D01*
X001944Y007340D01*
X001845Y007340D02*
X001845Y007291D01*
X001797Y007291D01*
X001797Y007340D01*
X001845Y007340D01*
X001696Y007340D02*
X001647Y007291D01*
X001551Y007291D01*
X001502Y007340D01*
X001599Y007436D02*
X001647Y007436D01*
X001696Y007388D01*
X001696Y007340D01*
X001647Y007436D02*
X001696Y007485D01*
X001696Y007533D01*
X001647Y007582D01*
X001551Y007582D01*
X001502Y007533D01*
X001944Y007533D02*
X001993Y007582D01*
X002089Y007582D01*
X002138Y007533D01*
X002138Y007485D01*
X002089Y007436D01*
X002138Y007388D01*
X002138Y007340D01*
X002089Y007436D02*
X002041Y007436D01*
X002030Y010264D02*
X001836Y010264D01*
X001933Y010264D02*
X001933Y010554D01*
X001836Y010457D01*
X001735Y010457D02*
X001687Y010409D01*
X001542Y010409D01*
X001687Y010409D02*
X001735Y010361D01*
X001735Y010312D01*
X001687Y010264D01*
X001542Y010264D01*
X001542Y010554D01*
X001687Y010554D01*
X001735Y010506D01*
X001735Y010457D01*
X002131Y010506D02*
X002179Y010554D01*
X002276Y010554D01*
X002324Y010506D01*
X002131Y010312D01*
X002179Y010264D01*
X002276Y010264D01*
X002324Y010312D01*
X002324Y010506D01*
X002131Y010506D02*
X002131Y010312D01*
X002060Y011346D02*
X001963Y011346D01*
X001915Y011395D01*
X001814Y011395D02*
X001765Y011346D01*
X001620Y011346D01*
X001620Y011637D01*
X001765Y011637D01*
X001814Y011588D01*
X001814Y011540D01*
X001765Y011492D01*
X001620Y011492D01*
X001765Y011492D02*
X001814Y011443D01*
X001814Y011395D01*
X001915Y011540D02*
X001963Y011492D01*
X002108Y011492D01*
X002108Y011588D02*
X002108Y011395D01*
X002060Y011346D01*
X001915Y011540D02*
X001915Y011588D01*
X001963Y011637D01*
X002060Y011637D01*
X002108Y011588D01*
X001981Y012311D02*
X001885Y012311D01*
X001836Y012359D01*
X001836Y012408D01*
X001885Y012456D01*
X001981Y012456D01*
X002030Y012408D01*
X002030Y012359D01*
X001981Y012311D01*
X001981Y012456D02*
X002030Y012505D01*
X002030Y012553D01*
X001981Y012601D01*
X001885Y012601D01*
X001836Y012553D01*
X001836Y012505D01*
X001885Y012456D01*
X001735Y012408D02*
X001735Y012359D01*
X001687Y012311D01*
X001542Y012311D01*
X001542Y012601D01*
X001687Y012601D01*
X001735Y012553D01*
X001735Y012505D01*
X001687Y012456D01*
X001542Y012456D01*
X001687Y012456D02*
X001735Y012408D01*
X001777Y013256D02*
X001777Y013546D01*
X001971Y013256D01*
X001971Y013546D01*
X002072Y013546D02*
X002072Y013256D01*
X002217Y013256D01*
X002265Y013304D01*
X002265Y013498D01*
X002217Y013546D01*
X002072Y013546D01*
X001676Y013498D02*
X001628Y013546D01*
X001531Y013546D01*
X001483Y013498D01*
X001483Y013304D01*
X001531Y013256D01*
X001628Y013256D01*
X001676Y013304D01*
X001676Y013401D01*
X001579Y013401D01*
X001590Y014378D02*
X001542Y014426D01*
X001590Y014378D02*
X001687Y014378D01*
X001735Y014426D01*
X001735Y014475D01*
X001687Y014523D01*
X001638Y014523D01*
X001687Y014523D02*
X001735Y014571D01*
X001735Y014620D01*
X001687Y014668D01*
X001590Y014668D01*
X001542Y014620D01*
X001836Y014426D02*
X001885Y014426D01*
X001885Y014378D01*
X001836Y014378D01*
X001836Y014426D01*
X001984Y014426D02*
X002032Y014378D01*
X002129Y014378D01*
X002177Y014426D01*
X002177Y014475D01*
X002129Y014523D01*
X002080Y014523D01*
X002129Y014523D02*
X002177Y014571D01*
X002177Y014620D01*
X002129Y014668D01*
X002032Y014668D01*
X001984Y014620D01*
X002278Y014668D02*
X002278Y014475D01*
X002375Y014378D01*
X002472Y014475D01*
X002472Y014668D01*
X001817Y015362D02*
X001817Y015411D01*
X002010Y015604D01*
X002010Y015652D01*
X001817Y015652D01*
X001715Y015604D02*
X001715Y015556D01*
X001667Y015507D01*
X001522Y015507D01*
X001522Y015362D02*
X001667Y015362D01*
X001715Y015411D01*
X001715Y015459D01*
X001667Y015507D01*
X001715Y015604D02*
X001667Y015652D01*
X001522Y015652D01*
X001522Y015362D01*
X001522Y016327D02*
X001667Y016327D01*
X001715Y016375D01*
X001715Y016424D01*
X001667Y016472D01*
X001522Y016472D01*
X001522Y016327D02*
X001522Y016617D01*
X001667Y016617D01*
X001715Y016569D01*
X001715Y016520D01*
X001667Y016472D01*
X001817Y016472D02*
X001913Y016569D01*
X002010Y016617D01*
X001962Y016472D02*
X001817Y016472D01*
X001817Y016375D01*
X001865Y016327D01*
X001962Y016327D01*
X002010Y016375D01*
X002010Y016424D01*
X001962Y016472D01*
X002030Y019299D02*
X001836Y019299D01*
X002030Y019493D01*
X002030Y019541D01*
X001981Y019589D01*
X001885Y019589D01*
X001836Y019541D01*
X001735Y019541D02*
X001735Y019493D01*
X001687Y019444D01*
X001542Y019444D01*
X001687Y019444D02*
X001735Y019396D01*
X001735Y019348D01*
X001687Y019299D01*
X001542Y019299D01*
X001542Y019589D01*
X001687Y019589D01*
X001735Y019541D01*
X001667Y020362D02*
X001522Y020362D01*
X001522Y020652D01*
X001667Y020652D01*
X001715Y020604D01*
X001715Y020556D01*
X001667Y020507D01*
X001522Y020507D01*
X001667Y020507D02*
X001715Y020459D01*
X001715Y020411D01*
X001667Y020362D01*
X001817Y020411D02*
X001865Y020362D01*
X001962Y020362D01*
X002010Y020411D01*
X002010Y020459D01*
X001962Y020507D01*
X001913Y020507D01*
X001962Y020507D02*
X002010Y020556D01*
X002010Y020604D01*
X001962Y020652D01*
X001865Y020652D01*
X001817Y020604D01*
X001962Y021366D02*
X001962Y021656D01*
X001817Y021511D01*
X002010Y021511D01*
X001715Y021463D02*
X001715Y021415D01*
X001667Y021366D01*
X001522Y021366D01*
X001522Y021656D01*
X001667Y021656D01*
X001715Y021608D01*
X001715Y021560D01*
X001667Y021511D01*
X001522Y021511D01*
X001667Y021511D02*
X001715Y021463D01*
X001706Y022331D02*
X001561Y022331D01*
X001561Y022621D01*
X001706Y022621D01*
X001755Y022573D01*
X001755Y022524D01*
X001706Y022476D01*
X001561Y022476D01*
X001706Y022476D02*
X001755Y022427D01*
X001755Y022379D01*
X001706Y022331D01*
X001856Y022379D02*
X001904Y022331D01*
X002001Y022331D01*
X002049Y022379D01*
X002049Y022476D01*
X002001Y022524D01*
X001953Y022524D01*
X001856Y022476D01*
X001856Y022621D01*
X002049Y022621D01*
X001981Y023295D02*
X002030Y023344D01*
X002030Y023537D01*
X001981Y023586D01*
X001885Y023586D01*
X001836Y023537D01*
X001836Y023489D01*
X001885Y023440D01*
X002030Y023440D01*
X001981Y023295D02*
X001885Y023295D01*
X001836Y023344D01*
X001735Y023344D02*
X001735Y023440D01*
X001638Y023440D01*
X001542Y023344D02*
X001542Y023537D01*
X001590Y023586D01*
X001687Y023586D01*
X001735Y023537D01*
X001735Y023344D02*
X001687Y023295D01*
X001590Y023295D01*
X001542Y023344D01*
X001502Y024339D02*
X001502Y024629D01*
X001599Y024532D01*
X001696Y024629D01*
X001696Y024339D01*
X001797Y024387D02*
X001845Y024339D01*
X001942Y024339D01*
X001990Y024387D01*
X002092Y024339D02*
X002092Y024629D01*
X001990Y024580D02*
X001942Y024629D01*
X001845Y024629D01*
X001797Y024580D01*
X001797Y024387D01*
X002092Y024339D02*
X002285Y024339D01*
X002386Y024339D02*
X002386Y024629D01*
X002531Y024629D01*
X002580Y024580D01*
X002580Y024484D01*
X002531Y024435D01*
X002386Y024435D01*
X002483Y024435D02*
X002580Y024339D01*
X002355Y025343D02*
X002452Y025439D01*
X002452Y025633D01*
X002259Y025633D02*
X002259Y025439D01*
X002355Y025343D01*
X002157Y025391D02*
X002157Y025439D01*
X002109Y025488D01*
X002061Y025488D01*
X002109Y025488D02*
X002157Y025536D01*
X002157Y025584D01*
X002109Y025633D01*
X002012Y025633D01*
X001964Y025584D01*
X001964Y025391D02*
X002012Y025343D01*
X002109Y025343D01*
X002157Y025391D01*
X001865Y025391D02*
X001865Y025343D01*
X001817Y025343D01*
X001817Y025391D01*
X001865Y025391D01*
X001715Y025391D02*
X001715Y025439D01*
X001667Y025488D01*
X001619Y025488D01*
X001667Y025488D02*
X001715Y025536D01*
X001715Y025584D01*
X001667Y025633D01*
X001570Y025633D01*
X001522Y025584D01*
X001522Y025391D02*
X001570Y025343D01*
X001667Y025343D01*
X001715Y025391D01*
X001687Y026327D02*
X001590Y026327D01*
X001542Y026375D01*
X001542Y026569D01*
X001590Y026617D01*
X001687Y026617D01*
X001735Y026569D01*
X001735Y026472D02*
X001638Y026472D01*
X001735Y026472D02*
X001735Y026375D01*
X001687Y026327D01*
X001836Y026327D02*
X001836Y026617D01*
X002030Y026327D01*
X002030Y026617D01*
X002131Y026617D02*
X002276Y026617D01*
X002324Y026569D01*
X002324Y026375D01*
X002276Y026327D01*
X002131Y026327D01*
X002131Y026617D01*
X002021Y027331D02*
X001924Y027331D01*
X001876Y027379D01*
X001876Y027427D01*
X001924Y027476D01*
X002021Y027476D01*
X002069Y027427D01*
X002069Y027379D01*
X002021Y027331D01*
X002021Y027476D02*
X002069Y027524D01*
X002069Y027573D01*
X002021Y027621D01*
X001924Y027621D01*
X001876Y027573D01*
X001876Y027524D01*
X001924Y027476D01*
X001774Y027476D02*
X001774Y027379D01*
X001726Y027331D01*
X001629Y027331D01*
X001581Y027379D01*
X001581Y027573D01*
X001629Y027621D01*
X001726Y027621D01*
X001774Y027573D01*
X001774Y027476D02*
X001678Y027476D01*
X001687Y028335D02*
X001590Y028335D01*
X001542Y028383D01*
X001542Y028577D01*
X001590Y028625D01*
X001687Y028625D01*
X001735Y028577D01*
X001735Y028480D02*
X001638Y028480D01*
X001735Y028480D02*
X001735Y028383D01*
X001687Y028335D01*
X001836Y028335D02*
X001836Y028383D01*
X002030Y028577D01*
X002030Y028625D01*
X001836Y028625D01*
X001904Y029299D02*
X002001Y029299D01*
X002049Y029348D01*
X002049Y029396D01*
X002001Y029444D01*
X001856Y029444D01*
X001856Y029348D01*
X001904Y029299D01*
X001856Y029444D02*
X001953Y029541D01*
X002049Y029589D01*
X001755Y029541D02*
X001706Y029589D01*
X001610Y029589D01*
X001561Y029541D01*
X001561Y029348D01*
X001610Y029299D01*
X001706Y029299D01*
X001755Y029348D01*
X001755Y029444D01*
X001658Y029444D01*
X001715Y030303D02*
X001522Y030303D01*
X001522Y030593D01*
X001715Y030593D01*
X001817Y030593D02*
X002010Y030593D01*
X002010Y030545D01*
X001817Y030352D01*
X001817Y030303D01*
X001619Y030448D02*
X001522Y030448D01*
X001522Y031287D02*
X001715Y031287D01*
X001817Y031336D02*
X001817Y031433D01*
X001962Y031433D01*
X002010Y031384D01*
X002010Y031336D01*
X001962Y031287D01*
X001865Y031287D01*
X001817Y031336D01*
X001817Y031433D02*
X001913Y031529D01*
X002010Y031578D01*
X001715Y031578D02*
X001522Y031578D01*
X001522Y031287D01*
X001522Y031433D02*
X001619Y031433D01*
X001522Y032272D02*
X001715Y032272D01*
X001817Y032320D02*
X001865Y032272D01*
X001962Y032272D01*
X002010Y032320D01*
X002010Y032417D01*
X001962Y032465D01*
X001913Y032465D01*
X001817Y032417D01*
X001817Y032562D01*
X002010Y032562D01*
X001715Y032562D02*
X001522Y032562D01*
X001522Y032272D01*
X001522Y032417D02*
X001619Y032417D01*
X006896Y026756D02*
X006896Y026386D01*
X006896Y026509D02*
X007081Y026509D01*
X007143Y026571D01*
X007143Y026694D01*
X007081Y026756D01*
X006896Y026756D01*
X007264Y026756D02*
X007388Y026756D01*
X007326Y026756D02*
X007326Y026386D01*
X007264Y026386D02*
X007388Y026386D01*
X007510Y026448D02*
X007571Y026386D01*
X007695Y026386D01*
X007757Y026448D01*
X007878Y026448D02*
X007940Y026386D01*
X008063Y026386D01*
X008125Y026448D01*
X008125Y026509D01*
X008063Y026571D01*
X008001Y026571D01*
X008063Y026571D02*
X008125Y026633D01*
X008125Y026694D01*
X008063Y026756D01*
X007940Y026756D01*
X007878Y026694D01*
X007757Y026694D02*
X007695Y026756D01*
X007571Y026756D01*
X007510Y026694D01*
X007510Y026448D01*
X007449Y025845D02*
X007326Y025845D01*
X007264Y025784D01*
X007264Y025660D01*
X007326Y025598D01*
X007449Y025598D01*
X007511Y025660D01*
X007511Y025784D01*
X007449Y025845D01*
X007633Y025784D02*
X007633Y025660D01*
X007694Y025598D01*
X007879Y025598D01*
X008001Y025598D02*
X008001Y025969D01*
X007879Y025845D02*
X007694Y025845D01*
X007633Y025784D01*
X008001Y025722D02*
X008186Y025845D01*
X008308Y025784D02*
X008308Y025660D01*
X008369Y025598D01*
X008493Y025598D01*
X008555Y025722D02*
X008308Y025722D01*
X008308Y025784D02*
X008369Y025845D01*
X008493Y025845D01*
X008555Y025784D01*
X008555Y025722D01*
X008676Y025845D02*
X008799Y025845D01*
X008738Y025907D02*
X008738Y025660D01*
X008799Y025598D01*
X008737Y024940D02*
X008737Y024693D01*
X008737Y024816D02*
X008861Y024940D01*
X008923Y024940D01*
X008616Y024878D02*
X008616Y024816D01*
X008369Y024816D01*
X008369Y024755D02*
X008369Y024878D01*
X008431Y024940D01*
X008554Y024940D01*
X008616Y024878D01*
X008554Y024693D02*
X008431Y024693D01*
X008369Y024755D01*
X008248Y024693D02*
X008248Y024878D01*
X008186Y024940D01*
X008124Y024878D01*
X008124Y024693D01*
X008001Y024693D02*
X008001Y024940D01*
X008063Y024940D01*
X008124Y024878D01*
X007879Y024878D02*
X007879Y024693D01*
X007756Y024693D02*
X007756Y024878D01*
X007818Y024940D01*
X007879Y024878D01*
X007756Y024878D02*
X007694Y024940D01*
X007633Y024940D01*
X007633Y024693D01*
X007511Y024693D02*
X007511Y024940D01*
X007264Y024940D02*
X007264Y024755D01*
X007326Y024693D01*
X007511Y024693D01*
X007143Y024755D02*
X007081Y024693D01*
X006958Y024693D01*
X006896Y024755D01*
X006958Y024878D02*
X007081Y024878D01*
X007143Y024816D01*
X007143Y024755D01*
X006958Y024878D02*
X006896Y024940D01*
X006896Y025002D01*
X006958Y025063D01*
X007081Y025063D01*
X007143Y025002D01*
X007081Y025598D02*
X006958Y025598D01*
X006896Y025660D01*
X006958Y025784D02*
X007081Y025784D01*
X007143Y025722D01*
X007143Y025660D01*
X007081Y025598D01*
X006958Y025784D02*
X006896Y025845D01*
X006896Y025907D01*
X006958Y025969D01*
X007081Y025969D01*
X007143Y025907D01*
X008001Y025722D02*
X008186Y025598D01*
X008246Y026386D02*
X008493Y026633D01*
X008493Y026694D01*
X008432Y026756D01*
X008308Y026756D01*
X008246Y026694D01*
X008246Y026386D02*
X008493Y026386D01*
X008615Y026386D02*
X008615Y026756D01*
X008738Y026633D01*
X008862Y026756D01*
X008862Y026386D01*
X008983Y026386D02*
X009230Y026386D01*
X009351Y026386D02*
X009598Y026386D01*
X009475Y026386D02*
X009475Y026756D01*
X009351Y026633D01*
X009230Y026694D02*
X008983Y026448D01*
X008983Y026386D01*
X008983Y026756D02*
X009230Y026756D01*
X009230Y026694D01*
X009720Y026694D02*
X009781Y026756D01*
X009905Y026756D01*
X009966Y026694D01*
X009720Y026448D01*
X009781Y026386D01*
X009905Y026386D01*
X009966Y026448D01*
X009966Y026694D01*
X010088Y026694D02*
X010150Y026756D01*
X010273Y026756D01*
X010335Y026694D01*
X010335Y026633D01*
X010088Y026386D01*
X010335Y026386D01*
X010456Y026571D02*
X010703Y026571D01*
X010825Y026571D02*
X010948Y026571D01*
X010825Y026386D02*
X011071Y026386D01*
X011193Y026448D02*
X011255Y026386D01*
X011378Y026386D01*
X011440Y026448D01*
X011561Y026448D02*
X011623Y026386D01*
X011746Y026386D01*
X011808Y026448D01*
X011808Y026571D01*
X011685Y026571D01*
X011808Y026694D02*
X011746Y026756D01*
X011623Y026756D01*
X011561Y026694D01*
X011561Y026448D01*
X011440Y026694D02*
X011378Y026756D01*
X011255Y026756D01*
X011193Y026694D01*
X011193Y026448D01*
X011071Y026756D02*
X010825Y026756D01*
X010825Y026386D01*
X010641Y026386D02*
X010641Y026756D01*
X010456Y026571D01*
X010395Y025845D02*
X010395Y025598D01*
X010273Y025598D02*
X010088Y025598D01*
X010026Y025660D01*
X010088Y025722D01*
X010273Y025722D01*
X010273Y025784D02*
X010273Y025598D01*
X010395Y025722D02*
X010518Y025845D01*
X010580Y025845D01*
X010702Y025784D02*
X010702Y025660D01*
X010763Y025598D01*
X010949Y025598D01*
X010949Y025969D01*
X010949Y025845D02*
X010763Y025845D01*
X010702Y025784D01*
X010273Y025784D02*
X010212Y025845D01*
X010088Y025845D01*
X009905Y025784D02*
X009905Y025660D01*
X009843Y025598D01*
X009720Y025598D01*
X009658Y025660D01*
X009658Y025784D01*
X009720Y025845D01*
X009843Y025845D01*
X009905Y025784D01*
X009537Y025845D02*
X009475Y025784D01*
X009290Y025784D01*
X009290Y025969D02*
X009475Y025969D01*
X009537Y025907D01*
X009537Y025845D01*
X009475Y025784D02*
X009537Y025722D01*
X009537Y025660D01*
X009475Y025598D01*
X009290Y025598D01*
X009290Y025969D01*
X009720Y026448D02*
X009720Y026694D01*
X009598Y025063D02*
X009474Y025063D01*
X009413Y025002D01*
X009598Y025063D02*
X009660Y025002D01*
X009660Y024940D01*
X009413Y024693D01*
X009660Y024693D01*
X009781Y024755D02*
X010028Y025002D01*
X010028Y024755D01*
X009966Y024693D01*
X009843Y024693D01*
X009781Y024755D01*
X009781Y025002D01*
X009843Y025063D01*
X009966Y025063D01*
X010028Y025002D01*
X010149Y024940D02*
X010273Y025063D01*
X010273Y024693D01*
X010396Y024693D02*
X010149Y024693D01*
X010518Y024755D02*
X010579Y024693D01*
X010703Y024693D01*
X010764Y024755D01*
X010764Y024878D01*
X010703Y024940D01*
X010641Y024940D01*
X010518Y024878D01*
X010518Y025063D01*
X010764Y025063D01*
X011991Y026386D02*
X011929Y026448D01*
X012176Y026694D01*
X012176Y026448D01*
X012115Y026386D01*
X011991Y026386D01*
X011929Y026448D02*
X011929Y026694D01*
X011991Y026756D01*
X012115Y026756D01*
X012176Y026694D01*
X012298Y026571D02*
X012483Y026571D01*
X012545Y026509D01*
X012545Y026448D01*
X012483Y026386D01*
X012359Y026386D01*
X012298Y026448D01*
X012298Y026571D01*
X012421Y026694D01*
X012545Y026756D01*
X012666Y026571D02*
X012913Y026571D01*
X012851Y026386D02*
X012851Y026756D01*
X012666Y026571D01*
X012891Y028452D02*
X013138Y028452D01*
X013015Y028452D02*
X013015Y028823D01*
X012891Y028699D01*
X013260Y028761D02*
X013260Y028514D01*
X013506Y028761D01*
X013506Y028514D01*
X013445Y028452D01*
X013321Y028452D01*
X013260Y028514D01*
X013260Y028761D02*
X013321Y028823D01*
X013445Y028823D01*
X013506Y028761D01*
X013628Y028699D02*
X013628Y028514D01*
X013690Y028452D01*
X013875Y028452D01*
X013875Y028699D01*
X013996Y028638D02*
X014120Y028638D01*
X013996Y028823D02*
X014243Y028823D01*
X013996Y028823D02*
X013996Y028452D01*
X016128Y029136D02*
X016128Y029233D01*
X016176Y029281D01*
X016370Y029088D01*
X016418Y029136D01*
X016418Y029233D01*
X016370Y029281D01*
X016176Y029281D01*
X016128Y029136D02*
X016176Y029088D01*
X016370Y029088D01*
X016370Y029382D02*
X016370Y029431D01*
X016418Y029431D01*
X016418Y029382D01*
X016370Y029382D01*
X016418Y029529D02*
X016418Y029723D01*
X016418Y029626D02*
X016128Y029626D01*
X016225Y029529D01*
X016225Y029824D02*
X016370Y029824D01*
X016418Y029872D01*
X016418Y030018D01*
X016225Y030018D01*
X016273Y030119D02*
X016273Y030216D01*
X016128Y030312D02*
X016128Y030119D01*
X016418Y030119D01*
X017732Y028723D02*
X017828Y028723D01*
X017877Y028675D01*
X017877Y028627D01*
X017828Y028578D01*
X017877Y028530D01*
X017877Y028481D01*
X017828Y028433D01*
X017732Y028433D01*
X017683Y028481D01*
X017780Y028578D02*
X017828Y028578D01*
X017732Y028723D02*
X017683Y028675D01*
X017978Y028481D02*
X018026Y028481D01*
X018026Y028433D01*
X017978Y028433D01*
X017978Y028481D01*
X018125Y028481D02*
X018174Y028433D01*
X018270Y028433D01*
X018319Y028481D01*
X018319Y028530D01*
X018270Y028578D01*
X018222Y028578D01*
X018270Y028578D02*
X018319Y028627D01*
X018319Y028675D01*
X018270Y028723D01*
X018174Y028723D01*
X018125Y028675D01*
X018420Y028723D02*
X018420Y028530D01*
X018517Y028433D01*
X018613Y028530D01*
X018613Y028723D01*
X018545Y029260D02*
X018352Y029260D01*
X018449Y029260D02*
X018449Y029550D01*
X018352Y029453D01*
X018251Y029550D02*
X018057Y029550D01*
X018057Y029260D01*
X018251Y029260D01*
X018154Y029405D02*
X018057Y029405D01*
X018057Y030264D02*
X018251Y030264D01*
X018352Y030264D02*
X018545Y030457D01*
X018545Y030506D01*
X018497Y030554D01*
X018400Y030554D01*
X018352Y030506D01*
X018251Y030554D02*
X018057Y030554D01*
X018057Y030264D01*
X018057Y030409D02*
X018154Y030409D01*
X018352Y030264D02*
X018545Y030264D01*
X018477Y031268D02*
X018381Y031268D01*
X018332Y031316D01*
X018231Y031268D02*
X018038Y031268D01*
X018038Y031558D01*
X018231Y031558D01*
X018332Y031510D02*
X018381Y031558D01*
X018477Y031558D01*
X018526Y031510D01*
X018526Y031461D01*
X018477Y031413D01*
X018526Y031364D01*
X018526Y031316D01*
X018477Y031268D01*
X018477Y031413D02*
X018429Y031413D01*
X018134Y031413D02*
X018038Y031413D01*
X018057Y032291D02*
X018251Y032291D01*
X018154Y032436D02*
X018057Y032436D01*
X018057Y032291D02*
X018057Y032582D01*
X018251Y032582D01*
X018352Y032436D02*
X018545Y032436D01*
X018497Y032291D02*
X018497Y032582D01*
X018352Y032436D01*
X018437Y027582D02*
X018292Y027582D01*
X018292Y027291D01*
X018437Y027291D01*
X018486Y027340D01*
X018486Y027533D01*
X018437Y027582D01*
X018191Y027582D02*
X018191Y027291D01*
X017998Y027582D01*
X017998Y027291D01*
X017896Y027340D02*
X017896Y027436D01*
X017800Y027436D01*
X017896Y027340D02*
X017848Y027291D01*
X017751Y027291D01*
X017703Y027340D01*
X017703Y027533D01*
X017751Y027582D01*
X017848Y027582D01*
X017896Y027533D01*
X018077Y026578D02*
X018077Y026287D01*
X018271Y026287D01*
X018372Y026336D02*
X018565Y026529D01*
X018565Y026336D01*
X018517Y026287D01*
X018420Y026287D01*
X018372Y026336D01*
X018372Y026529D01*
X018420Y026578D01*
X018517Y026578D01*
X018565Y026529D01*
X018271Y026578D02*
X018077Y026578D01*
X018077Y026433D02*
X018174Y026433D01*
X018097Y025554D02*
X018290Y025554D01*
X018391Y025457D02*
X018488Y025554D01*
X018488Y025264D01*
X018391Y025264D02*
X018585Y025264D01*
X018193Y025409D02*
X018097Y025409D01*
X018097Y025264D02*
X018097Y025554D01*
X018077Y024570D02*
X018271Y024570D01*
X018372Y024521D02*
X018420Y024570D01*
X018517Y024570D01*
X018565Y024521D01*
X018372Y024328D01*
X018420Y024280D01*
X018517Y024280D01*
X018565Y024328D01*
X018565Y024521D01*
X018372Y024521D02*
X018372Y024328D01*
X018174Y024425D02*
X018077Y024425D01*
X018077Y024280D02*
X018077Y024570D01*
X018076Y023586D02*
X018270Y023295D01*
X018270Y023586D01*
X018371Y023586D02*
X018516Y023586D01*
X018565Y023537D01*
X018565Y023344D01*
X018516Y023295D01*
X018371Y023295D01*
X018371Y023586D01*
X018076Y023586D02*
X018076Y023295D01*
X017975Y023344D02*
X017975Y023440D01*
X017879Y023440D01*
X017975Y023344D02*
X017927Y023295D01*
X017830Y023295D01*
X017782Y023344D01*
X017782Y023537D01*
X017830Y023586D01*
X017927Y023586D01*
X017975Y023537D01*
X018134Y022719D02*
X018231Y022719D01*
X018279Y022671D01*
X018279Y022623D01*
X018231Y022574D01*
X018279Y022526D01*
X018279Y022478D01*
X018231Y022429D01*
X018134Y022429D01*
X018086Y022478D01*
X017987Y022478D02*
X017987Y022429D01*
X017939Y022429D01*
X017939Y022478D01*
X017987Y022478D01*
X017837Y022478D02*
X017789Y022429D01*
X017692Y022429D01*
X017644Y022478D01*
X017741Y022574D02*
X017789Y022574D01*
X017837Y022526D01*
X017837Y022478D01*
X017789Y022574D02*
X017837Y022623D01*
X017837Y022671D01*
X017789Y022719D01*
X017692Y022719D01*
X017644Y022671D01*
X018086Y022671D02*
X018134Y022719D01*
X018183Y022574D02*
X018231Y022574D01*
X018381Y022526D02*
X018477Y022429D01*
X018574Y022526D01*
X018574Y022719D01*
X018381Y022719D02*
X018381Y022526D01*
X018391Y021578D02*
X018391Y021433D01*
X018488Y021481D01*
X018536Y021481D01*
X018585Y021433D01*
X018585Y021336D01*
X018536Y021287D01*
X018440Y021287D01*
X018391Y021336D01*
X018290Y021336D02*
X018290Y021529D01*
X018242Y021578D01*
X018097Y021578D01*
X018097Y021287D01*
X018242Y021287D01*
X018290Y021336D01*
X018391Y021578D02*
X018585Y021578D01*
X018517Y020593D02*
X018372Y020448D01*
X018565Y020448D01*
X018517Y020303D02*
X018517Y020593D01*
X018271Y020545D02*
X018271Y020352D01*
X018222Y020303D01*
X018077Y020303D01*
X018077Y020593D01*
X018222Y020593D01*
X018271Y020545D01*
X018242Y019550D02*
X018097Y019550D01*
X018097Y019260D01*
X018242Y019260D01*
X018290Y019308D01*
X018290Y019502D01*
X018242Y019550D01*
X018391Y019502D02*
X018440Y019550D01*
X018536Y019550D01*
X018585Y019502D01*
X018585Y019453D01*
X018536Y019405D01*
X018585Y019357D01*
X018585Y019308D01*
X018536Y019260D01*
X018440Y019260D01*
X018391Y019308D01*
X018488Y019405D02*
X018536Y019405D01*
X018477Y018566D02*
X018381Y018566D01*
X018332Y018517D01*
X018231Y018517D02*
X018183Y018566D01*
X018038Y018566D01*
X018038Y018276D01*
X018183Y018276D01*
X018231Y018324D01*
X018231Y018517D01*
X018477Y018566D02*
X018526Y018517D01*
X018526Y018469D01*
X018332Y018276D01*
X018526Y018276D01*
X018508Y017601D02*
X018411Y017505D01*
X018310Y017553D02*
X018262Y017601D01*
X018116Y017601D01*
X018116Y017311D01*
X018262Y017311D01*
X018310Y017359D01*
X018310Y017553D01*
X018508Y017601D02*
X018508Y017311D01*
X018411Y017311D02*
X018605Y017311D01*
X018516Y016558D02*
X018371Y016413D01*
X018565Y016413D01*
X018516Y016268D02*
X018516Y016558D01*
X018270Y016268D02*
X018076Y016268D01*
X018173Y016268D02*
X018173Y016558D01*
X018076Y016461D01*
X017975Y016510D02*
X017927Y016558D01*
X017830Y016558D01*
X017782Y016510D01*
X017782Y016316D01*
X017830Y016268D01*
X017927Y016268D01*
X017975Y016316D01*
X017966Y015554D02*
X017869Y015554D01*
X017821Y015506D01*
X017821Y015312D01*
X017869Y015264D01*
X017966Y015264D01*
X018015Y015312D01*
X018116Y015264D02*
X018309Y015264D01*
X018213Y015264D02*
X018213Y015554D01*
X018116Y015457D01*
X018015Y015506D02*
X017966Y015554D01*
X018410Y015506D02*
X018459Y015554D01*
X018556Y015554D01*
X018604Y015506D01*
X018604Y015457D01*
X018556Y015409D01*
X018604Y015361D01*
X018604Y015312D01*
X018556Y015264D01*
X018459Y015264D01*
X018410Y015312D01*
X018507Y015409D02*
X018556Y015409D01*
X018556Y014570D02*
X018605Y014521D01*
X018411Y014328D01*
X018459Y014280D01*
X018556Y014280D01*
X018605Y014328D01*
X018605Y014521D01*
X018556Y014570D02*
X018459Y014570D01*
X018411Y014521D01*
X018411Y014328D01*
X018310Y014328D02*
X018310Y014521D01*
X018262Y014570D01*
X018116Y014570D01*
X018116Y014280D01*
X018262Y014280D01*
X018310Y014328D01*
X018390Y013723D02*
X018390Y013433D01*
X018486Y013433D02*
X018293Y013433D01*
X018192Y013481D02*
X018192Y013675D01*
X018143Y013723D01*
X017998Y013723D01*
X017998Y013433D01*
X018143Y013433D01*
X018192Y013481D01*
X018293Y013627D02*
X018390Y013723D01*
X018588Y013627D02*
X018684Y013723D01*
X018684Y013433D01*
X018588Y013433D02*
X018781Y013433D01*
X018752Y012719D02*
X018801Y012671D01*
X018607Y012478D01*
X018656Y012429D01*
X018752Y012429D01*
X018801Y012478D01*
X018801Y012671D01*
X018752Y012719D02*
X018656Y012719D01*
X018607Y012671D01*
X018607Y012478D01*
X018506Y012429D02*
X018313Y012429D01*
X018409Y012429D02*
X018409Y012719D01*
X018313Y012623D01*
X018211Y012671D02*
X018211Y012478D01*
X018163Y012429D01*
X018018Y012429D01*
X018018Y012719D01*
X018163Y012719D01*
X018211Y012671D01*
X018222Y011558D02*
X018077Y011558D01*
X018077Y011268D01*
X018222Y011268D01*
X018271Y011316D01*
X018271Y011510D01*
X018222Y011558D01*
X018372Y011510D02*
X018372Y011461D01*
X018420Y011413D01*
X018565Y011413D01*
X018565Y011510D02*
X018517Y011558D01*
X018420Y011558D01*
X018372Y011510D01*
X018565Y011510D02*
X018565Y011316D01*
X018517Y011268D01*
X018420Y011268D01*
X018372Y011316D01*
X018332Y010574D02*
X018332Y010429D01*
X018429Y010477D01*
X018477Y010477D01*
X018526Y010429D01*
X018526Y010332D01*
X018477Y010284D01*
X018381Y010284D01*
X018332Y010332D01*
X018134Y010429D02*
X018038Y010429D01*
X018038Y010284D02*
X018038Y010574D01*
X018231Y010574D01*
X018332Y010574D02*
X018526Y010574D01*
X018497Y009589D02*
X018352Y009444D01*
X018545Y009444D01*
X018497Y009299D02*
X018497Y009589D01*
X018251Y009589D02*
X018057Y009589D01*
X018057Y009299D01*
X018057Y009444D02*
X018154Y009444D01*
X018171Y008566D02*
X018171Y008276D01*
X017978Y008566D01*
X017978Y008276D01*
X017877Y008324D02*
X017877Y008421D01*
X017780Y008421D01*
X017683Y008517D02*
X017683Y008324D01*
X017732Y008276D01*
X017828Y008276D01*
X017877Y008324D01*
X017877Y008517D02*
X017828Y008566D01*
X017732Y008566D01*
X017683Y008517D01*
X017712Y007700D02*
X017809Y007700D01*
X017857Y007651D01*
X017857Y007603D01*
X017809Y007555D01*
X017857Y007506D01*
X017857Y007458D01*
X017809Y007409D01*
X017712Y007409D01*
X017664Y007458D01*
X017760Y007555D02*
X017809Y007555D01*
X017664Y007651D02*
X017712Y007700D01*
X017958Y007458D02*
X018007Y007458D01*
X018007Y007409D01*
X017958Y007409D01*
X017958Y007458D01*
X018106Y007458D02*
X018154Y007409D01*
X018251Y007409D01*
X018299Y007458D01*
X018299Y007506D01*
X018251Y007555D01*
X018202Y007555D01*
X018251Y007555D02*
X018299Y007603D01*
X018299Y007651D01*
X018251Y007700D01*
X018154Y007700D01*
X018106Y007651D01*
X018400Y007700D02*
X018400Y007506D01*
X018497Y007409D01*
X018594Y007506D01*
X018594Y007700D01*
X018418Y008276D02*
X018273Y008276D01*
X018273Y008566D01*
X018418Y008566D01*
X018466Y008517D01*
X018466Y008324D01*
X018418Y008276D01*
X018440Y006578D02*
X018391Y006529D01*
X018440Y006578D02*
X018536Y006578D01*
X018585Y006529D01*
X018585Y006481D01*
X018536Y006433D01*
X018585Y006384D01*
X018585Y006336D01*
X018536Y006287D01*
X018440Y006287D01*
X018391Y006336D01*
X018488Y006433D02*
X018536Y006433D01*
X018290Y006578D02*
X018097Y006578D01*
X018097Y006287D01*
X018097Y006433D02*
X018193Y006433D01*
X018202Y005593D02*
X018057Y005593D01*
X018057Y005303D01*
X018202Y005303D01*
X018251Y005352D01*
X018251Y005545D01*
X018202Y005593D01*
X018352Y005448D02*
X018545Y005448D01*
X018449Y005352D02*
X018449Y005545D01*
X018262Y004589D02*
X018116Y004589D01*
X018116Y004299D01*
X018262Y004299D01*
X018310Y004348D01*
X018310Y004541D01*
X018262Y004589D01*
X018411Y004444D02*
X018605Y004444D01*
X018457Y003546D02*
X018312Y003546D01*
X018312Y003256D01*
X018457Y003256D01*
X018505Y003304D01*
X018505Y003498D01*
X018457Y003546D01*
X018211Y003546D02*
X018211Y003256D01*
X018017Y003546D01*
X018017Y003256D01*
X017916Y003304D02*
X017916Y003401D01*
X017819Y003401D01*
X017723Y003304D02*
X017771Y003256D01*
X017868Y003256D01*
X017916Y003304D01*
X017723Y003304D02*
X017723Y003498D01*
X017771Y003546D01*
X017868Y003546D01*
X017916Y003498D01*
X017750Y002660D02*
X017798Y002612D01*
X017798Y002564D01*
X017750Y002515D01*
X017798Y002467D01*
X017798Y002418D01*
X017750Y002370D01*
X017653Y002370D01*
X017605Y002418D01*
X017701Y002515D02*
X017750Y002515D01*
X017750Y002660D02*
X017653Y002660D01*
X017605Y002612D01*
X017899Y002418D02*
X017948Y002418D01*
X017948Y002370D01*
X017899Y002370D01*
X017899Y002418D01*
X018047Y002418D02*
X018095Y002370D01*
X018192Y002370D01*
X018240Y002418D01*
X018240Y002467D01*
X018192Y002515D01*
X018143Y002515D01*
X018192Y002515D02*
X018240Y002564D01*
X018240Y002612D01*
X018192Y002660D01*
X018095Y002660D01*
X018047Y002612D01*
X018341Y002660D02*
X018341Y002467D01*
X018438Y002370D01*
X018535Y002467D01*
X018535Y002660D01*
X018427Y001617D02*
X018427Y001424D01*
X018331Y001327D01*
X018234Y001424D01*
X018234Y001617D01*
X018133Y001617D02*
X017939Y001617D01*
X017939Y001472D01*
X018036Y001520D01*
X018084Y001520D01*
X018133Y001472D01*
X018133Y001375D01*
X018084Y001327D01*
X017988Y001327D01*
X017939Y001375D01*
X011831Y008984D02*
X011638Y008984D01*
X011831Y009178D01*
X011638Y009178D01*
X011536Y009129D02*
X011343Y009129D01*
X011343Y008984D02*
X011343Y009275D01*
X011242Y009275D02*
X011242Y008984D01*
X011048Y008984D02*
X011048Y009275D01*
X011145Y009178D01*
X011242Y009275D01*
X011536Y009275D02*
X011536Y008984D01*
X010652Y009033D02*
X010604Y008984D01*
X010507Y008984D01*
X010459Y009033D01*
X010459Y009081D01*
X010507Y009129D01*
X010604Y009129D01*
X010652Y009081D01*
X010652Y009033D01*
X010604Y009129D02*
X010652Y009178D01*
X010652Y009226D01*
X010604Y009275D01*
X010507Y009275D01*
X010459Y009226D01*
X010459Y009178D01*
X010507Y009129D01*
X009599Y004309D02*
X009661Y004248D01*
X009661Y004186D01*
X009599Y004124D01*
X009661Y004062D01*
X009661Y004001D01*
X009599Y003939D01*
X009476Y003939D01*
X009414Y004001D01*
X009292Y003939D02*
X009230Y004001D01*
X009230Y004248D01*
X009169Y004186D02*
X009292Y004186D01*
X009414Y004248D02*
X009476Y004309D01*
X009599Y004309D01*
X009599Y004124D02*
X009538Y004124D01*
X009047Y003939D02*
X008923Y003939D01*
X008985Y003939D02*
X008985Y004186D01*
X008923Y004186D01*
X008801Y004186D02*
X008616Y004062D01*
X008801Y003939D01*
X008616Y003939D02*
X008616Y004309D01*
X008495Y004248D02*
X008433Y004309D01*
X008310Y004309D01*
X008248Y004248D01*
X008248Y004001D01*
X008310Y003939D01*
X008433Y003939D01*
X008495Y004001D01*
X008126Y003939D02*
X008002Y003939D01*
X008064Y003939D02*
X008064Y004309D01*
X008002Y004309D02*
X008126Y004309D01*
X007881Y004248D02*
X007881Y004124D01*
X007819Y004062D01*
X007634Y004062D01*
X007634Y003939D02*
X007634Y004309D01*
X007819Y004309D01*
X007881Y004248D01*
X008985Y004309D02*
X008985Y004371D01*
X009506Y000892D02*
X009753Y000522D01*
X009753Y000892D01*
X009874Y000830D02*
X009874Y000583D01*
X009936Y000522D01*
X010060Y000522D01*
X010121Y000583D01*
X010121Y000707D01*
X009998Y000707D01*
X010121Y000830D02*
X010060Y000892D01*
X009936Y000892D01*
X009874Y000830D01*
X009506Y000892D02*
X009506Y000522D01*
X006133Y001010D02*
X006071Y000948D01*
X005948Y000948D01*
X005886Y001010D01*
X006133Y001257D01*
X006133Y001010D01*
X006133Y001257D02*
X006071Y001319D01*
X005948Y001319D01*
X005886Y001257D01*
X005886Y001010D01*
X005764Y001010D02*
X005703Y000948D01*
X005579Y000948D01*
X005518Y001010D01*
X005396Y001010D02*
X005334Y000948D01*
X005211Y000948D01*
X005149Y001010D01*
X005273Y001134D02*
X005334Y001134D01*
X005396Y001072D01*
X005396Y001010D01*
X005334Y001134D02*
X005396Y001195D01*
X005396Y001257D01*
X005334Y001319D01*
X005211Y001319D01*
X005149Y001257D01*
X005518Y001257D02*
X005579Y001319D01*
X005703Y001319D01*
X005764Y001257D01*
X005764Y001195D01*
X005703Y001134D01*
X005764Y001072D01*
X005764Y001010D01*
X005703Y001134D02*
X005641Y001134D01*
D11*
X003222Y000830D02*
X003222Y000757D01*
X003186Y000720D01*
X003075Y000720D01*
X003075Y000647D02*
X003075Y000867D01*
X003186Y000867D01*
X003222Y000830D01*
X003149Y000720D02*
X003222Y000647D01*
X003001Y000647D02*
X002854Y000647D01*
X002854Y000867D01*
X003001Y000867D01*
X002928Y000757D02*
X002854Y000757D01*
X002780Y000647D02*
X002780Y000867D01*
X002634Y000867D02*
X002634Y000647D01*
X002707Y000720D01*
X002780Y000647D01*
X002559Y000683D02*
X002559Y000830D01*
X002523Y000867D01*
X002449Y000867D01*
X002413Y000830D01*
X002413Y000683D01*
X002449Y000647D01*
X002523Y000647D01*
X002559Y000683D01*
X002338Y000757D02*
X002302Y000720D01*
X002192Y000720D01*
X002192Y000647D02*
X002192Y000867D01*
X002302Y000867D01*
X002338Y000830D01*
X002338Y000757D01*
X001844Y003448D02*
X001771Y003448D01*
X001735Y003484D01*
X001735Y003556D02*
X001807Y003592D01*
X001844Y003592D01*
X001880Y003556D01*
X001880Y003484D01*
X001844Y003448D01*
X001735Y003556D02*
X001735Y003664D01*
X001880Y003664D01*
X001662Y003448D02*
X001518Y003448D01*
X001590Y003448D02*
X001590Y003664D01*
X001518Y003592D01*
X001445Y003592D02*
X001409Y003556D01*
X001300Y003556D01*
X001300Y003448D02*
X001409Y003448D01*
X001445Y003484D01*
X001445Y003520D01*
X001409Y003556D01*
X001445Y003592D02*
X001445Y003628D01*
X001409Y003664D01*
X001300Y003664D01*
X001300Y003448D01*
X001359Y004432D02*
X001468Y004432D01*
X001504Y004468D01*
X001504Y004504D01*
X001468Y004540D01*
X001359Y004540D01*
X001359Y004432D02*
X001359Y004648D01*
X001468Y004648D01*
X001504Y004612D01*
X001504Y004576D01*
X001468Y004540D01*
X001577Y004576D02*
X001649Y004648D01*
X001649Y004432D01*
X001577Y004432D02*
X001721Y004432D01*
X001794Y004540D02*
X001939Y004540D01*
X001903Y004432D02*
X001903Y004648D01*
X001794Y004540D01*
X001836Y008271D02*
X001718Y008448D01*
X001718Y008271D01*
X001655Y008300D02*
X001655Y008359D01*
X001596Y008359D01*
X001655Y008300D02*
X001625Y008271D01*
X001566Y008271D01*
X001537Y008300D01*
X001537Y008418D01*
X001566Y008448D01*
X001625Y008448D01*
X001655Y008418D01*
X001836Y008448D02*
X001836Y008271D01*
X001899Y008271D02*
X001988Y008271D01*
X002017Y008300D01*
X002017Y008418D01*
X001988Y008448D01*
X001899Y008448D01*
X001899Y008271D01*
X001899Y009235D02*
X002017Y009235D01*
X001958Y009235D02*
X001958Y009412D01*
X001899Y009353D01*
X001836Y009235D02*
X001718Y009235D01*
X001777Y009235D02*
X001777Y009412D01*
X001718Y009353D01*
X001655Y009353D02*
X001625Y009324D01*
X001537Y009324D01*
X001625Y009324D02*
X001655Y009294D01*
X001655Y009265D01*
X001625Y009235D01*
X001537Y009235D01*
X001537Y009412D01*
X001625Y009412D01*
X001655Y009383D01*
X001655Y009353D01*
X001669Y017365D02*
X001639Y017395D01*
X001757Y017513D01*
X001757Y017395D01*
X001728Y017365D01*
X001669Y017365D01*
X001639Y017395D02*
X001639Y017513D01*
X001669Y017542D01*
X001728Y017542D01*
X001757Y017513D01*
X001820Y017365D02*
X001938Y017542D01*
X002002Y017542D02*
X002090Y017542D01*
X002120Y017513D01*
X002120Y017454D01*
X002090Y017424D01*
X002002Y017424D01*
X002002Y017365D02*
X002002Y017542D01*
X002183Y017513D02*
X002183Y017395D01*
X002212Y017365D01*
X002271Y017365D01*
X002301Y017395D01*
X002301Y017454D01*
X002242Y017454D01*
X002301Y017513D02*
X002271Y017542D01*
X002212Y017542D01*
X002183Y017513D01*
X002364Y017542D02*
X002364Y017365D01*
X002482Y017365D01*
X002545Y017365D02*
X002634Y017365D01*
X002663Y017395D01*
X002663Y017513D01*
X002634Y017542D01*
X002545Y017542D01*
X002545Y017365D01*
X002423Y017454D02*
X002364Y017454D01*
X002364Y017542D02*
X002482Y017542D01*
X002726Y017483D02*
X002785Y017542D01*
X002785Y017365D01*
X002726Y017365D02*
X002844Y017365D01*
X002864Y018349D02*
X002746Y018349D01*
X002805Y018349D02*
X002805Y018526D01*
X002746Y018467D01*
X002683Y018497D02*
X002653Y018526D01*
X002594Y018526D01*
X002565Y018497D01*
X002565Y018379D01*
X002594Y018349D01*
X002653Y018349D01*
X002683Y018379D01*
X002502Y018349D02*
X002384Y018349D01*
X002384Y018526D01*
X002502Y018526D01*
X002443Y018438D02*
X002384Y018438D01*
X002320Y018438D02*
X002261Y018438D01*
X002320Y018438D02*
X002320Y018379D01*
X002291Y018349D01*
X002232Y018349D01*
X002202Y018379D01*
X002202Y018497D01*
X002232Y018526D01*
X002291Y018526D01*
X002320Y018497D01*
X002139Y018497D02*
X002139Y018438D01*
X002110Y018408D01*
X002021Y018408D01*
X002021Y018349D02*
X002021Y018526D01*
X002110Y018526D01*
X002139Y018497D01*
X001958Y018526D02*
X001840Y018349D01*
X001777Y018349D02*
X001659Y018349D01*
X001718Y018349D02*
X001718Y018526D01*
X001659Y018467D01*
X001596Y018467D02*
X001596Y018497D01*
X001566Y018526D01*
X001478Y018526D01*
X001478Y018349D01*
X001566Y018349D01*
X001596Y018379D01*
X001596Y018408D01*
X001566Y018438D01*
X001478Y018438D01*
X001566Y018438D02*
X001596Y018467D01*
X001546Y017542D02*
X001576Y017513D01*
X001576Y017483D01*
X001546Y017454D01*
X001458Y017454D01*
X001458Y017542D02*
X001458Y017365D01*
X001546Y017365D01*
X001576Y017395D01*
X001576Y017424D01*
X001546Y017454D01*
X001546Y017542D02*
X001458Y017542D01*
D12*
X000168Y000170D02*
X019853Y000170D01*
X019853Y032847D01*
X000168Y032847D01*
X000168Y000170D01*
D13*
X007475Y003083D02*
X007725Y002833D01*
X008225Y002833D01*
X008475Y003083D01*
X008725Y002833D01*
X009225Y002833D01*
X009475Y003083D01*
X009725Y002833D01*
X010225Y002833D01*
X010475Y003083D01*
X010725Y002833D01*
X011225Y002833D01*
X011475Y003083D01*
X011725Y002833D01*
X012225Y002833D01*
X012475Y003083D01*
X012475Y003583D01*
X012225Y003833D01*
X011725Y003833D01*
X011475Y003583D01*
X011225Y003833D01*
X010725Y003833D01*
X010475Y003583D01*
X010225Y003833D01*
X009725Y003833D01*
X009475Y003583D01*
X009225Y003833D01*
X008725Y003833D01*
X008475Y003583D01*
X008225Y003833D01*
X007725Y003833D01*
X007475Y003583D01*
X007475Y003083D01*
X008023Y014916D02*
X008023Y018592D01*
X008204Y018774D01*
X011880Y018774D01*
X011880Y014916D01*
X008023Y014916D01*
X013181Y029191D02*
X013181Y029591D01*
X012747Y029891D02*
X012749Y029953D01*
X012755Y030016D01*
X012765Y030077D01*
X012779Y030138D01*
X012796Y030198D01*
X012817Y030257D01*
X012843Y030314D01*
X012871Y030369D01*
X012903Y030423D01*
X012939Y030474D01*
X012977Y030524D01*
X013019Y030570D01*
X013063Y030614D01*
X013111Y030655D01*
X013160Y030693D01*
X013212Y030727D01*
X013266Y030758D01*
X013322Y030786D01*
X013380Y030810D01*
X013439Y030831D01*
X013499Y030847D01*
X013560Y030860D01*
X013622Y030869D01*
X013684Y030874D01*
X013747Y030875D01*
X013809Y030872D01*
X013871Y030865D01*
X013933Y030854D01*
X013993Y030839D01*
X014053Y030821D01*
X014111Y030799D01*
X014168Y030773D01*
X014223Y030743D01*
X014276Y030710D01*
X014327Y030674D01*
X014375Y030635D01*
X014421Y030592D01*
X014464Y030547D01*
X014504Y030499D01*
X014541Y030449D01*
X014575Y030396D01*
X014606Y030342D01*
X014632Y030286D01*
X014656Y030228D01*
X014675Y030168D01*
X014691Y030108D01*
X014703Y030046D01*
X014711Y029985D01*
X014715Y029922D01*
X014715Y029860D01*
X014711Y029797D01*
X014703Y029736D01*
X014691Y029674D01*
X014675Y029614D01*
X014656Y029554D01*
X014632Y029496D01*
X014606Y029440D01*
X014575Y029386D01*
X014541Y029333D01*
X014504Y029283D01*
X014464Y029235D01*
X014421Y029190D01*
X014375Y029147D01*
X014327Y029108D01*
X014276Y029072D01*
X014223Y029039D01*
X014168Y029009D01*
X014111Y028983D01*
X014053Y028961D01*
X013993Y028943D01*
X013933Y028928D01*
X013871Y028917D01*
X013809Y028910D01*
X013747Y028907D01*
X013684Y028908D01*
X013622Y028913D01*
X013560Y028922D01*
X013499Y028935D01*
X013439Y028951D01*
X013380Y028972D01*
X013322Y028996D01*
X013266Y029024D01*
X013212Y029055D01*
X013160Y029089D01*
X013111Y029127D01*
X013063Y029168D01*
X013019Y029212D01*
X012977Y029258D01*
X012939Y029308D01*
X012903Y029359D01*
X012871Y029413D01*
X012843Y029468D01*
X012817Y029525D01*
X012796Y029584D01*
X012779Y029644D01*
X012765Y029705D01*
X012755Y029766D01*
X012749Y029829D01*
X012747Y029891D01*
D14*
X012806Y032183D02*
X012686Y032183D01*
X012626Y032243D01*
X012866Y032484D01*
X012866Y032243D01*
X012806Y032183D01*
X012994Y032183D02*
X013054Y032183D01*
X013054Y032243D01*
X012994Y032243D01*
X012994Y032183D01*
X013178Y032183D02*
X013418Y032183D01*
X013298Y032183D02*
X013298Y032544D01*
X013178Y032424D01*
X012866Y032484D02*
X012806Y032544D01*
X012686Y032544D01*
X012626Y032484D01*
X012626Y032243D01*
X013915Y032243D02*
X013975Y032183D01*
X014155Y032183D01*
X014155Y032424D01*
X014283Y032364D02*
X014403Y032364D01*
X014283Y032544D02*
X014523Y032544D01*
X014283Y032544D02*
X014283Y032183D01*
X013915Y032243D02*
X013915Y032424D01*
X009527Y019938D02*
X009374Y019938D01*
X009297Y019861D01*
X009143Y019861D02*
X009143Y019784D01*
X009067Y019707D01*
X009143Y019631D01*
X009143Y019554D01*
X009067Y019477D01*
X008913Y019477D01*
X008837Y019554D01*
X008683Y019554D02*
X008606Y019477D01*
X008453Y019477D01*
X008376Y019554D01*
X008376Y019861D01*
X008453Y019938D01*
X008606Y019938D01*
X008683Y019861D01*
X008837Y019861D02*
X008913Y019938D01*
X009067Y019938D01*
X009143Y019861D01*
X009067Y019707D02*
X008990Y019707D01*
X009297Y019477D02*
X009604Y019784D01*
X009604Y019861D01*
X009527Y019938D01*
X009604Y019477D02*
X009297Y019477D01*
X008223Y019477D02*
X008069Y019477D01*
X008146Y019477D02*
X008146Y019938D01*
X008069Y019938D02*
X008223Y019938D01*
X007916Y019861D02*
X007916Y019707D01*
X007839Y019631D01*
X007609Y019631D01*
X007609Y019477D02*
X007609Y019938D01*
X007839Y019938D01*
X007916Y019861D01*
D15*
X010133Y010473D02*
X012133Y010473D01*
X012177Y010471D01*
X012220Y010465D01*
X012262Y010456D01*
X012304Y010443D01*
X012344Y010426D01*
X012383Y010406D01*
X012420Y010383D01*
X012454Y010356D01*
X012487Y010327D01*
X012516Y010294D01*
X012543Y010260D01*
X012566Y010223D01*
X012586Y010184D01*
X012603Y010144D01*
X012616Y010102D01*
X012625Y010060D01*
X012631Y010017D01*
X012633Y009973D01*
X012631Y009929D01*
X012625Y009886D01*
X012616Y009844D01*
X012603Y009802D01*
X012586Y009762D01*
X012566Y009723D01*
X012543Y009686D01*
X012516Y009652D01*
X012487Y009619D01*
X012454Y009590D01*
X012420Y009563D01*
X012383Y009540D01*
X012344Y009520D01*
X012304Y009503D01*
X012262Y009490D01*
X012220Y009481D01*
X012177Y009475D01*
X012133Y009473D01*
X010133Y009473D01*
X010089Y009475D01*
X010046Y009481D01*
X010004Y009490D01*
X009962Y009503D01*
X009922Y009520D01*
X009883Y009540D01*
X009846Y009563D01*
X009812Y009590D01*
X009779Y009619D01*
X009750Y009652D01*
X009723Y009686D01*
X009700Y009723D01*
X009680Y009762D01*
X009663Y009802D01*
X009650Y009844D01*
X009641Y009886D01*
X009635Y009929D01*
X009633Y009973D01*
X009635Y010017D01*
X009641Y010060D01*
X009650Y010102D01*
X009663Y010144D01*
X009680Y010184D01*
X009700Y010223D01*
X009723Y010260D01*
X009750Y010294D01*
X009779Y010327D01*
X009812Y010356D01*
X009846Y010383D01*
X009883Y010406D01*
X009922Y010426D01*
X009962Y010443D01*
X010004Y010456D01*
X010046Y010465D01*
X010089Y010471D01*
X010133Y010473D01*
D16*
X012250Y028767D03*
D17*
X012390Y028587D02*
X011240Y028587D01*
X012390Y028587D02*
X012490Y028687D01*
X012490Y032487D01*
X012390Y032587D01*
X011240Y032587D01*
X012781Y031995D02*
X012781Y031195D01*
X012783Y031178D01*
X012787Y031161D01*
X012794Y031145D01*
X012804Y031131D01*
X012817Y031118D01*
X012831Y031108D01*
X012847Y031101D01*
X012864Y031097D01*
X012881Y031095D01*
X014581Y031095D01*
X014598Y031097D01*
X014615Y031101D01*
X014631Y031108D01*
X014645Y031118D01*
X014658Y031131D01*
X014668Y031145D01*
X014675Y031161D01*
X014679Y031178D01*
X014681Y031195D01*
X014681Y031995D01*
X014679Y032012D01*
X014675Y032029D01*
X014668Y032045D01*
X014658Y032059D01*
X014645Y032072D01*
X014631Y032082D01*
X014615Y032089D01*
X014598Y032093D01*
X014581Y032095D01*
X012881Y032095D01*
X012864Y032093D01*
X012847Y032089D01*
X012831Y032082D01*
X012817Y032072D01*
X012804Y032059D01*
X012794Y032045D01*
X012787Y032029D01*
X012783Y032012D01*
X012781Y031995D01*
X013581Y031595D02*
X013631Y031595D01*
X013831Y031595D02*
X013881Y031595D01*
X015027Y030760D02*
X015027Y029060D01*
X015029Y029043D01*
X015033Y029026D01*
X015040Y029010D01*
X015050Y028996D01*
X015063Y028983D01*
X015077Y028973D01*
X015093Y028966D01*
X015110Y028962D01*
X015127Y028960D01*
X015927Y028960D01*
X015944Y028962D01*
X015961Y028966D01*
X015977Y028973D01*
X015991Y028983D01*
X016004Y028996D01*
X016014Y029010D01*
X016021Y029026D01*
X016025Y029043D01*
X016027Y029060D01*
X016027Y030760D01*
X016025Y030777D01*
X016021Y030794D01*
X016014Y030810D01*
X016004Y030824D01*
X015991Y030837D01*
X015977Y030847D01*
X015961Y030854D01*
X015944Y030858D01*
X015927Y030860D01*
X015127Y030860D01*
X015110Y030858D01*
X015093Y030854D01*
X015077Y030847D01*
X015063Y030837D01*
X015050Y030824D01*
X015040Y030810D01*
X015033Y030794D01*
X015029Y030777D01*
X015027Y030760D01*
X015527Y030060D02*
X015527Y030010D01*
X015527Y029810D02*
X015527Y029760D01*
X003316Y002217D02*
X003314Y002172D01*
X003309Y002126D01*
X003301Y002082D01*
X003289Y002038D01*
X003273Y001995D01*
X003255Y001953D01*
X003233Y001913D01*
X003209Y001875D01*
X003182Y001839D01*
X003152Y001804D01*
X003119Y001773D01*
X003084Y001743D01*
X003316Y002217D02*
X003314Y002262D01*
X003309Y002308D01*
X003301Y002352D01*
X003289Y002396D01*
X003273Y002439D01*
X003255Y002481D01*
X003233Y002521D01*
X003209Y002559D01*
X003182Y002595D01*
X003152Y002630D01*
X003119Y002661D01*
X003084Y002691D01*
X002116Y002217D02*
X002118Y002171D01*
X002123Y002125D01*
X002132Y002079D01*
X002144Y002034D01*
X002160Y001991D01*
X002179Y001949D01*
X002202Y001908D01*
X002227Y001869D01*
X002255Y001833D01*
X002286Y001798D01*
X002320Y001766D01*
X002356Y001737D01*
X002116Y002217D02*
X002118Y002264D01*
X002124Y002312D01*
X002133Y002358D01*
X002146Y002404D01*
X002162Y002448D01*
X002182Y002492D01*
X002206Y002533D01*
X002232Y002572D01*
X002262Y002609D01*
X002295Y002644D01*
X002330Y002676D01*
X002367Y002705D01*
X004548Y001512D02*
X004548Y000812D01*
X004550Y000795D01*
X004554Y000778D01*
X004561Y000762D01*
X004571Y000748D01*
X004584Y000735D01*
X004598Y000725D01*
X004614Y000718D01*
X004631Y000714D01*
X004648Y000712D01*
X004798Y000712D01*
X004848Y000762D01*
X006748Y000762D01*
X006798Y000712D01*
X006948Y000712D01*
X006965Y000714D01*
X006982Y000718D01*
X006998Y000725D01*
X007012Y000735D01*
X007025Y000748D01*
X007035Y000762D01*
X007042Y000778D01*
X007046Y000795D01*
X007048Y000812D01*
X007048Y001512D01*
X007046Y001529D01*
X007042Y001546D01*
X007035Y001562D01*
X007025Y001576D01*
X007012Y001589D01*
X006998Y001599D01*
X006982Y001606D01*
X006965Y001610D01*
X006948Y001612D01*
X006798Y001612D01*
X006748Y001562D01*
X004848Y001562D01*
X004798Y001612D01*
X004648Y001612D01*
X004631Y001610D01*
X004614Y001606D01*
X004598Y001599D01*
X004584Y001589D01*
X004571Y001576D01*
X004561Y001562D01*
X004554Y001546D01*
X004550Y001529D01*
X004548Y001512D01*
D18*
X011040Y028862D03*
X011040Y032312D03*
D19*
X010940Y031587D03*
X010940Y030587D03*
X010940Y029587D03*
D20*
X011040Y030087D03*
X011040Y031087D03*
D21*
X013631Y031295D02*
X013631Y031595D01*
X013631Y031895D01*
X013831Y031895D02*
X013831Y031595D01*
X013831Y031295D01*
X015227Y030010D02*
X015527Y030010D01*
X015827Y030010D01*
X015827Y029810D02*
X015527Y029810D01*
X015227Y029810D01*
X001916Y002217D02*
X001918Y002163D01*
X001923Y002109D01*
X001932Y002056D01*
X001945Y002003D01*
X001961Y001952D01*
X001981Y001902D01*
X002004Y001853D01*
X002030Y001805D01*
X002059Y001760D01*
X002092Y001717D01*
X002127Y001676D01*
X002165Y001637D01*
X002205Y001601D01*
X002248Y001568D01*
X002293Y001538D01*
X002340Y001511D01*
X003113Y001522D02*
X003161Y001552D01*
X003206Y001585D01*
X003249Y001621D01*
X003290Y001659D01*
X003327Y001701D01*
X003362Y001745D01*
X003393Y001791D01*
X003422Y001840D01*
X003446Y001890D01*
X003467Y001942D01*
X003485Y001996D01*
X003498Y002050D01*
X003508Y002105D01*
X003514Y002161D01*
X003516Y002217D01*
X003514Y002270D01*
X003509Y002324D01*
X003500Y002376D01*
X003488Y002428D01*
X003472Y002479D01*
X003453Y002529D01*
X003430Y002578D01*
X003404Y002625D01*
X003376Y002670D01*
X003344Y002713D01*
X003310Y002753D01*
X003272Y002792D01*
X003233Y002828D01*
X002204Y002832D02*
X002164Y002796D01*
X002126Y002757D01*
X002091Y002716D01*
X002059Y002673D01*
X002029Y002628D01*
X002003Y002581D01*
X001981Y002532D01*
X001961Y002481D01*
X001945Y002430D01*
X001932Y002378D01*
X001923Y002324D01*
X001918Y002271D01*
X001916Y002217D01*
D22*
X004378Y001162D03*
X007218Y001162D03*
M02*
