G75*
G70*
%OFA0B0*%
%FSLAX24Y24*%
%IPPOS*%
%LPD*%
%AMOC8*
5,1,8,0,0,1.08239X$1,22.5*
%
%ADD10C,0.0120*%
%ADD11R,0.0591X0.0118*%
%ADD12R,0.0118X0.0591*%
%ADD13C,0.0660*%
%ADD14C,0.0600*%
%ADD15OC8,0.0520*%
%ADD16R,0.0650X0.0650*%
%ADD17C,0.0650*%
%ADD18C,0.0515*%
%ADD19C,0.1122*%
%ADD20R,0.0740X0.0740*%
%ADD21C,0.0740*%
%ADD22C,0.0356*%
%ADD23C,0.0240*%
%ADD24C,0.0160*%
%ADD25C,0.0742*%
D10*
X000168Y000170D02*
X019853Y000170D01*
X019853Y032847D01*
X000168Y032847D01*
X000168Y000170D01*
X001054Y003064D02*
X001783Y003064D01*
X003239Y004520D01*
X003239Y005111D01*
X011034Y012906D01*
X011034Y014402D01*
X011231Y014384D02*
X011231Y012810D01*
X011231Y012828D02*
X011231Y012257D01*
X010837Y013006D02*
X010837Y014384D01*
X010640Y014384D02*
X010640Y013146D01*
X010611Y013076D02*
X003061Y005526D01*
X003160Y005623D02*
X002590Y005052D01*
X001054Y005052D01*
X001054Y006056D02*
X003298Y006056D01*
X003849Y006607D01*
X003750Y006510D02*
X010443Y013203D01*
X010443Y014384D01*
X010246Y014384D02*
X010246Y013343D01*
X010217Y013272D02*
X004439Y007495D01*
X004479Y007532D02*
X004007Y007060D01*
X001054Y007060D01*
X001054Y008064D02*
X004716Y008064D01*
X005267Y008615D01*
X005128Y008479D02*
X010050Y013400D01*
X010050Y014384D01*
X009853Y014384D02*
X009853Y013499D01*
X005817Y009463D01*
X005975Y009619D02*
X005424Y009068D01*
X001054Y009068D01*
X001054Y010052D02*
X006113Y010052D01*
X006546Y010485D01*
X006506Y010447D02*
X009656Y013597D01*
X009656Y014384D01*
X009459Y014384D02*
X009459Y013695D01*
X007195Y011432D01*
X007235Y011469D02*
X006822Y011056D01*
X001054Y011056D01*
X001054Y012060D02*
X007531Y012060D01*
X007924Y012454D01*
X007884Y012416D02*
X009262Y013794D01*
X009262Y014384D01*
X009066Y014402D02*
X009066Y013891D01*
X008220Y013044D01*
X001054Y013044D01*
X001054Y014068D02*
X006212Y014068D01*
X006684Y013595D01*
X006802Y013595D01*
X006703Y013597D02*
X008433Y013597D01*
X008504Y013626D02*
X008868Y013991D01*
X008868Y014384D01*
X008672Y014384D02*
X008672Y014089D01*
X008406Y013823D01*
X008335Y013794D02*
X006802Y013794D01*
X006802Y013792D02*
X005542Y015052D01*
X001054Y015052D01*
X001054Y016076D02*
X004834Y016076D01*
X006920Y013989D01*
X008298Y013989D01*
X008475Y014166D01*
X008475Y014402D01*
X008406Y013823D02*
X008394Y013813D01*
X008380Y013805D01*
X008366Y013799D01*
X008351Y013795D01*
X008335Y013794D01*
X008433Y013597D02*
X008449Y013598D01*
X008464Y013602D01*
X008478Y013608D01*
X008492Y013616D01*
X008504Y013626D01*
X007491Y015369D02*
X005817Y015369D01*
X005818Y015367D02*
X005897Y015367D01*
X005818Y015367D02*
X004125Y017060D01*
X001054Y017060D01*
X001054Y018044D02*
X003416Y018044D01*
X005897Y015564D01*
X005975Y015564D01*
X005916Y015565D02*
X007491Y015565D01*
X007471Y015761D02*
X006015Y015761D01*
X002708Y019068D01*
X001054Y019068D01*
X001054Y020052D02*
X001999Y020052D01*
X006094Y015957D01*
X007511Y015957D01*
X007491Y016156D02*
X006211Y016156D01*
X004242Y018125D01*
X004242Y019010D01*
X004243Y018989D02*
X004243Y019107D01*
X002275Y021076D01*
X001054Y021076D01*
X001054Y022060D02*
X002471Y022060D01*
X004440Y020091D01*
X004440Y019973D01*
X004439Y019995D02*
X004439Y018223D01*
X006309Y016353D01*
X007491Y016353D01*
X007491Y016550D02*
X006408Y016550D01*
X004636Y018321D01*
X004636Y020979D01*
X004637Y020918D02*
X004637Y021076D01*
X002668Y023044D01*
X001054Y023044D01*
X001054Y024068D02*
X002826Y024068D01*
X004834Y022060D01*
X004834Y021942D01*
X004833Y021963D02*
X004833Y018420D01*
X006506Y016747D01*
X007491Y016747D01*
X007491Y016943D02*
X006605Y016943D01*
X005030Y018518D01*
X005030Y022947D01*
X005031Y023005D02*
X005031Y022887D01*
X005031Y023005D02*
X002983Y025052D01*
X001054Y025052D01*
X001054Y026076D02*
X003141Y026076D01*
X005227Y023989D01*
X005227Y023910D01*
X005227Y023871D01*
X005227Y018635D01*
X006723Y017139D01*
X007511Y017139D01*
X007491Y017337D02*
X006802Y017337D01*
X005424Y018715D01*
X005424Y024874D01*
X005424Y024816D02*
X005424Y024934D01*
X003298Y027060D01*
X001054Y027060D01*
X001054Y028044D02*
X003534Y028044D01*
X005621Y025957D01*
X005621Y025800D01*
X005620Y025859D02*
X005620Y018814D01*
X006900Y017534D01*
X007491Y017534D01*
X007491Y017731D02*
X006998Y017731D01*
X005817Y018912D01*
X005817Y026843D01*
X005818Y026902D02*
X005818Y026784D01*
X005818Y026902D02*
X003653Y029068D01*
X001054Y029068D01*
X001054Y030052D02*
X003849Y030052D01*
X006015Y027887D01*
X006015Y027769D01*
X006014Y027827D02*
X006014Y019010D01*
X007097Y017928D01*
X007491Y017928D01*
X007491Y018125D02*
X007195Y018125D01*
X006211Y019109D01*
X006211Y028811D01*
X006212Y028753D02*
X006212Y028871D01*
X004007Y031076D01*
X001054Y031076D01*
X001054Y032060D02*
X004125Y032060D01*
X006409Y029776D01*
X006409Y019186D01*
X007275Y018320D01*
X007432Y018320D01*
X008475Y019306D02*
X008475Y021077D01*
X016841Y029443D01*
X016841Y031215D01*
X016842Y031213D02*
X017688Y032060D01*
X019027Y032060D01*
X019046Y031076D02*
X017865Y031076D01*
X017432Y030643D01*
X017432Y030524D01*
X017431Y030625D02*
X017431Y029739D01*
X008701Y021008D01*
X008672Y020937D02*
X008672Y019306D01*
X008868Y019306D02*
X008868Y020880D01*
X008869Y020879D02*
X008869Y020780D01*
X008869Y020879D02*
X018042Y030052D01*
X019027Y030052D01*
X019027Y029068D02*
X017353Y029068D01*
X009066Y020780D01*
X009065Y020782D02*
X009065Y019306D01*
X009262Y019306D02*
X009262Y020684D01*
X009263Y020682D02*
X016645Y028064D01*
X019007Y028064D01*
X019027Y027060D02*
X015936Y027060D01*
X009460Y020583D01*
X009459Y020585D02*
X009459Y019306D01*
X009656Y019306D02*
X009656Y020487D01*
X009657Y020485D02*
X015247Y026076D01*
X019027Y026076D01*
X019007Y025052D02*
X014519Y025052D01*
X009853Y020387D01*
X009853Y020388D02*
X009853Y019306D01*
X010050Y019306D02*
X010050Y020290D01*
X010050Y020288D02*
X013810Y024048D01*
X019027Y024048D01*
X019027Y023064D02*
X013121Y023064D01*
X010247Y020190D01*
X010246Y020191D02*
X010246Y019306D01*
X010443Y019306D02*
X010443Y020093D01*
X010444Y020091D02*
X012412Y022060D01*
X019027Y022060D01*
X019027Y021056D02*
X011704Y021056D01*
X010641Y019993D01*
X010640Y019995D02*
X010640Y019306D01*
X010837Y019306D02*
X010837Y019896D01*
X011231Y020290D01*
X011231Y020288D02*
X013298Y020288D01*
X013534Y020052D01*
X019027Y020052D01*
X019027Y019068D02*
X014223Y019068D01*
X013928Y019363D01*
X013987Y019306D02*
X013199Y020093D01*
X011329Y020093D01*
X011063Y019827D01*
X011034Y019756D02*
X011034Y019306D01*
X011231Y019306D02*
X011231Y019658D01*
X011260Y019729D02*
X011428Y019896D01*
X013101Y019896D01*
X014676Y018321D01*
X014617Y018379D02*
X014932Y018064D01*
X019027Y018064D01*
X019027Y017060D02*
X015641Y017060D01*
X015286Y017414D01*
X015365Y017337D02*
X013032Y019670D01*
X013042Y019658D02*
X013003Y019698D01*
X011586Y019698D01*
X011428Y019540D01*
X011428Y019304D01*
X011231Y019658D02*
X011232Y019674D01*
X011236Y019689D01*
X011242Y019703D01*
X011250Y019717D01*
X011260Y019729D01*
X011063Y019827D02*
X011053Y019815D01*
X011045Y019801D01*
X011039Y019787D01*
X011035Y019772D01*
X011034Y019756D01*
X012412Y018321D02*
X014044Y018321D01*
X014114Y018292D02*
X016054Y016353D01*
X015877Y016528D02*
X016349Y016056D01*
X019007Y016056D01*
X019027Y015052D02*
X017058Y015052D01*
X016645Y015465D01*
X016742Y015369D02*
X013987Y018125D01*
X012412Y018125D01*
X012412Y017928D02*
X013847Y017928D01*
X013917Y017898D02*
X017431Y014384D01*
X017353Y014461D02*
X017767Y014048D01*
X019027Y014048D01*
X019027Y013044D02*
X018082Y013044D01*
X016940Y014186D01*
X016940Y014580D01*
X013790Y017729D01*
X013790Y017731D02*
X012412Y017731D01*
X012412Y017534D02*
X013691Y017534D01*
X015660Y015565D01*
X015660Y014581D01*
X017825Y012416D01*
X017727Y012513D02*
X018200Y012040D01*
X019027Y012040D01*
X019007Y011056D02*
X018003Y011056D01*
X017609Y011450D01*
X017628Y011432D02*
X015492Y013568D01*
X015463Y013638D02*
X015463Y015467D01*
X013593Y017337D01*
X012412Y017337D01*
X012412Y017140D02*
X013494Y017140D01*
X015237Y015398D01*
X015266Y015327D02*
X015266Y012613D01*
X017431Y010447D01*
X017353Y010524D02*
X017826Y010052D01*
X019027Y010052D01*
X019027Y009048D02*
X017649Y009048D01*
X017196Y009501D01*
X017235Y009463D02*
X015099Y011599D01*
X015069Y011670D02*
X015069Y015270D01*
X013425Y016914D01*
X013355Y016943D02*
X012412Y016943D01*
X012412Y016747D02*
X013298Y016747D01*
X014843Y015201D01*
X014872Y015130D02*
X014872Y010644D01*
X017038Y008479D01*
X017019Y008497D02*
X017452Y008064D01*
X019027Y008064D01*
X019027Y007060D02*
X017275Y007060D01*
X016802Y007532D01*
X016841Y007495D02*
X014705Y009631D01*
X014676Y009701D02*
X014676Y015073D01*
X013199Y016550D01*
X012412Y016550D01*
X012412Y016353D02*
X013101Y016353D01*
X014479Y014975D01*
X014479Y008717D01*
X014508Y008646D02*
X016644Y006510D01*
X016586Y006568D02*
X017097Y006056D01*
X019027Y006056D01*
X019007Y005052D02*
X016920Y005052D01*
X014499Y007473D01*
X014499Y008162D01*
X014283Y008379D01*
X014283Y014875D01*
X014243Y014914D01*
X014282Y014876D02*
X013002Y016156D01*
X012412Y016156D01*
X012412Y015959D02*
X012904Y015959D01*
X014085Y014778D01*
X014085Y007418D01*
X014086Y007414D02*
X014302Y007198D01*
X014302Y006489D01*
X016743Y004048D01*
X019027Y004048D01*
X019027Y003044D02*
X016566Y003044D01*
X016034Y003576D01*
X016054Y003558D02*
X013888Y005723D01*
X013888Y014680D01*
X013889Y014678D02*
X012806Y015761D01*
X012393Y015761D01*
X012412Y015565D02*
X012707Y015565D01*
X013691Y014581D01*
X013691Y004739D01*
X015857Y002573D01*
X015838Y002591D02*
X016369Y002060D01*
X019007Y002060D01*
X019027Y001056D02*
X016192Y001056D01*
X015562Y001686D01*
X015660Y001589D02*
X013494Y003754D01*
X013494Y014483D01*
X013494Y014495D02*
X012620Y015369D01*
X012402Y015369D01*
X011428Y014363D02*
X011428Y014048D01*
X012137Y013339D01*
X010837Y013006D02*
X002372Y004542D01*
X002452Y004619D02*
X001881Y004048D01*
X001054Y004048D01*
X002668Y008536D02*
X004617Y008536D01*
X004617Y009540D02*
X002157Y009540D01*
X001999Y009698D01*
X002471Y008733D02*
X002668Y008536D01*
X007905Y008536D02*
X010975Y005465D01*
X010975Y003320D01*
X011979Y003320D02*
X011979Y005465D01*
X009283Y008162D01*
X009283Y008871D01*
X008613Y009540D01*
X010611Y013075D02*
X010621Y013087D01*
X010629Y013101D01*
X010635Y013115D01*
X010639Y013130D01*
X010640Y013146D01*
X010246Y013343D02*
X010245Y013327D01*
X010241Y013312D01*
X010235Y013298D01*
X010227Y013284D01*
X010217Y013272D01*
X013355Y016943D02*
X013371Y016942D01*
X013386Y016938D01*
X013400Y016932D01*
X013414Y016924D01*
X013426Y016914D01*
X013847Y017928D02*
X013863Y017927D01*
X013878Y017923D01*
X013892Y017917D01*
X013906Y017909D01*
X013918Y017899D01*
X014115Y018292D02*
X014103Y018302D01*
X014089Y018310D01*
X014075Y018316D01*
X014060Y018320D01*
X014044Y018321D01*
X015237Y015398D02*
X015247Y015386D01*
X015255Y015372D01*
X015261Y015358D01*
X015265Y015343D01*
X015266Y015327D01*
X014872Y015130D02*
X014871Y015146D01*
X014867Y015161D01*
X014861Y015175D01*
X014853Y015189D01*
X014843Y015201D01*
X015463Y013638D02*
X015464Y013622D01*
X015468Y013607D01*
X015474Y013593D01*
X015482Y013579D01*
X015492Y013567D01*
X015069Y011670D02*
X015070Y011654D01*
X015074Y011639D01*
X015080Y011625D01*
X015088Y011611D01*
X015098Y011599D01*
X014676Y009701D02*
X014677Y009685D01*
X014681Y009670D01*
X014687Y009656D01*
X014695Y009642D01*
X014705Y009630D01*
X014479Y008717D02*
X014480Y008701D01*
X014484Y008686D01*
X014490Y008672D01*
X014498Y008658D01*
X014508Y008646D01*
X008672Y020937D02*
X008673Y020953D01*
X008677Y020968D01*
X008683Y020982D01*
X008691Y020996D01*
X008701Y021008D01*
X009519Y027513D02*
X011409Y027513D01*
D11*
X012195Y018321D03*
X012195Y018125D03*
X012195Y017928D03*
X012195Y017731D03*
X012195Y017534D03*
X012195Y017337D03*
X012195Y017140D03*
X012195Y016943D03*
X012195Y016747D03*
X012195Y016550D03*
X012195Y016353D03*
X012195Y016156D03*
X012195Y015959D03*
X012195Y015762D03*
X012195Y015565D03*
X012195Y015369D03*
X007707Y015369D03*
X007707Y015565D03*
X007707Y015762D03*
X007707Y015959D03*
X007707Y016156D03*
X007707Y016353D03*
X007707Y016550D03*
X007707Y016747D03*
X007707Y016943D03*
X007707Y017140D03*
X007707Y017337D03*
X007707Y017534D03*
X007707Y017731D03*
X007707Y017928D03*
X007707Y018125D03*
X007707Y018321D03*
D12*
X008475Y019089D03*
X008672Y019089D03*
X008868Y019089D03*
X009065Y019089D03*
X009262Y019089D03*
X009459Y019089D03*
X009656Y019089D03*
X009853Y019089D03*
X010050Y019089D03*
X010246Y019089D03*
X010443Y019089D03*
X010640Y019089D03*
X010837Y019089D03*
X011034Y019089D03*
X011231Y019089D03*
X011428Y019089D03*
X011428Y014601D03*
X011231Y014601D03*
X011034Y014601D03*
X010837Y014601D03*
X010640Y014601D03*
X010443Y014601D03*
X010246Y014601D03*
X010050Y014601D03*
X009853Y014601D03*
X009656Y014601D03*
X009459Y014601D03*
X009262Y014601D03*
X009065Y014601D03*
X008868Y014601D03*
X008672Y014601D03*
X008475Y014601D03*
D13*
X010133Y009973D03*
X011133Y009973D03*
X012133Y009973D03*
D14*
X012090Y029587D02*
X011490Y029587D01*
X011490Y030587D02*
X012090Y030587D01*
X012090Y031587D02*
X011490Y031587D01*
D15*
X013231Y031595D03*
X014231Y031595D03*
X015527Y030410D03*
X015527Y029410D03*
X002716Y002717D03*
X002716Y001717D03*
X003798Y001162D03*
X007798Y001162D03*
D16*
X013731Y030391D03*
D17*
X013731Y029391D03*
D18*
X009141Y029125D03*
X008831Y029745D03*
X008471Y029125D03*
X008141Y029745D03*
X007771Y029125D03*
D19*
X007034Y031225D03*
X009909Y031225D03*
D20*
X007975Y003333D03*
D21*
X008975Y003333D03*
X009975Y003333D03*
X010975Y003333D03*
X011975Y003333D03*
D22*
X014302Y006843D03*
X014499Y007808D03*
X017038Y008477D03*
X017924Y007060D03*
X016054Y003556D03*
X015857Y002572D03*
X011231Y012257D03*
X012137Y013339D03*
X008613Y009540D03*
X007905Y008536D03*
X005779Y006410D03*
X004617Y008536D03*
X004184Y008083D03*
X004617Y009540D03*
X003003Y007060D03*
X002471Y008733D03*
X001999Y009717D03*
X004184Y013044D03*
X003003Y014068D03*
X002452Y017060D03*
X001999Y018044D03*
X003594Y023280D03*
X003003Y025052D03*
X003141Y026036D03*
X009519Y027513D03*
X011409Y027493D03*
X016546Y027040D03*
X017905Y028083D03*
X016546Y023044D03*
X017924Y022060D03*
D23*
X013220Y031587D02*
X011507Y031587D01*
X010483Y030564D01*
X010483Y029520D01*
X010090Y029127D01*
X009184Y029127D01*
D24*
X011783Y030583D02*
X013554Y030583D01*
X013731Y030406D01*
X015523Y030406D01*
X005779Y006410D02*
X002708Y003339D01*
X002708Y002729D01*
D25*
X001042Y003065D03*
X001042Y004065D03*
X001042Y005065D03*
X001042Y006065D03*
X001042Y007065D03*
X001042Y008065D03*
X001042Y009065D03*
X001042Y010065D03*
X001042Y011065D03*
X001042Y012065D03*
X001042Y013065D03*
X001042Y014065D03*
X001042Y015065D03*
X001042Y016065D03*
X001042Y017065D03*
X001042Y018065D03*
X001042Y019065D03*
X001042Y020065D03*
X001042Y021065D03*
X001042Y022065D03*
X001042Y023065D03*
X001042Y024065D03*
X001042Y025065D03*
X001042Y026065D03*
X001042Y027065D03*
X001042Y028065D03*
X001042Y029065D03*
X001042Y030065D03*
X001042Y031065D03*
X001042Y032065D03*
X019042Y032065D03*
X019042Y031065D03*
X019042Y030065D03*
X019042Y029065D03*
X019042Y028065D03*
X019042Y027065D03*
X019042Y026065D03*
X019042Y025065D03*
X019042Y024065D03*
X019042Y023065D03*
X019042Y022065D03*
X019042Y021065D03*
X019042Y020065D03*
X019042Y019065D03*
X019042Y018065D03*
X019042Y017065D03*
X019042Y016065D03*
X019042Y015065D03*
X019042Y014065D03*
X019042Y013065D03*
X019042Y012065D03*
X019042Y011065D03*
X019042Y010065D03*
X019042Y009065D03*
X019042Y008065D03*
X019042Y007065D03*
X019042Y006065D03*
X019042Y005065D03*
X019042Y004065D03*
X019042Y003065D03*
X019042Y002065D03*
X019042Y001065D03*
M02*
