%
M48
M72
T01C0.0236
T02C0.0276
T03C0.0315
T04C0.0320
T05C0.0396
T06C0.0400
T07C0.0748
%
T01
X3141Y26036
X3003Y25052
X3594Y23280
X1999Y18044
X2452Y17060
X3003Y14068
X4184Y13044
X4617Y9540
X4617Y8536
X4184Y8083
X3003Y7060
X2471Y8733
X1999Y9717
X5779Y6410
X7905Y8536
X8613Y9540
X11231Y12257
X12137Y13339
X14499Y7808
X14302Y6843
X16054Y3556
X15857Y2572
X17924Y7060
X17038Y8477
X17905Y28083
X16546Y27040
X16546Y23044
X17924Y22060
X11409Y27493
X9519Y27513
T02
X13731Y30391
X13731Y29391
X12133Y9973
X11133Y9973
X10133Y9973
T03
X7771Y29125
X8141Y29745
X8471Y29125
X8831Y29745
X9141Y29125
T04
X13231Y31595
X14231Y31595
X15527Y30410
X15527Y29410
X2716Y2717
X2716Y1717
X3798Y1162
X7798Y1162
T05
X1042Y32065
X1042Y31065
X1042Y30065
X1042Y29065
X1042Y28065
X1042Y27065
X1042Y26065
X1042Y25065
X1042Y24065
X1042Y23065
X1042Y22065
X1042Y21065
X1042Y20065
X1042Y19065
X1042Y18065
X1042Y17065
X1042Y16065
X1042Y15065
X1042Y14065
X1042Y13065
X1042Y12065
X1042Y11065
X1042Y10065
X1042Y9065
X1042Y8065
X1042Y7065
X1042Y6065
X1042Y5065
X1042Y4065
X1042Y3065
X19042Y3065
X19042Y4065
X19042Y5065
X19042Y6065
X19042Y7065
X19042Y8065
X19042Y9065
X19042Y10065
X19042Y11065
X19042Y12065
X19042Y13065
X19042Y14065
X19042Y15065
X19042Y16065
X19042Y17065
X19042Y18065
X19042Y19065
X19042Y20065
X19042Y21065
X19042Y22065
X19042Y23065
X19042Y24065
X19042Y25065
X19042Y26065
X19042Y27065
X19042Y28065
X19042Y29065
X19042Y30065
X19042Y31065
X19042Y32065
X19042Y2065
X19042Y1065
T06
X11790Y31587
X11790Y30587
X11790Y29587
X11975Y3333
X10975Y3333
X9975Y3333
X8975Y3333
X7975Y3333
T07
X7034Y31225
X9909Y31225
M30
