%
M48
M72
T01C0.0197
T02C0.0400
%
T01
X3276Y31443
X3276Y27978
X4599Y27155
X4595Y26147
X5127Y25616
X5697Y24198
X6485Y23194
X6623Y25616
X6599Y27155
X8079Y21876
X7961Y21187
X8552Y18194
X8099Y16895
X5934Y11206
X5697Y12191
X4516Y13431
X4516Y14198
X4241Y17761
X4989Y17761
X3138Y21187
X3138Y22230
X3138Y24198
X2646Y18194
X2646Y17210
X2764Y14198
X2764Y13431
X2764Y12191
X2764Y11206
T02
X1316Y32202
X1316Y31202
X1316Y30202
X1316Y29202
X1316Y28202
X1316Y27202
X1316Y26202
X1316Y25202
X1316Y24202
X1316Y23202
X1316Y22202
X1316Y21202
X1316Y20202
X1316Y19202
X1316Y18202
X1316Y17202
X1316Y16202
X1316Y15202
X1316Y14202
X1316Y13202
X1316Y12202
X1316Y11202
X1316Y10202
X1316Y9202
X1316Y8202
X1316Y7202
X1316Y6202
X1316Y5202
X1316Y4202
X1316Y3202
X1316Y2202
X1316Y1202
X11316Y1202
X11316Y2202
X11316Y3202
X11316Y4202
X11316Y5202
X11316Y6202
X11316Y7202
X11316Y8202
X11316Y9202
X11316Y10202
X11316Y11202
X11316Y12202
X11316Y13202
X11316Y14202
X11316Y15202
X11316Y16202
X11316Y17202
X11316Y18202
X11316Y19202
X11316Y20202
X11316Y21202
X11316Y22202
X11316Y23202
X11316Y24202
X11316Y25202
X11316Y26202
X11316Y27202
X11316Y28202
X11316Y29202
X11316Y30202
X11316Y31202
X11316Y32202
M30
