G75*
G70*
%OFA0B0*%
%FSLAX24Y24*%
%IPPOS*%
%LPD*%
%AMOC8*
5,1,8,0,0,1.08239X$1,22.5*
%
%ADD10C,0.0240*%
%ADD11R,0.0780X0.0780*%
%ADD12C,0.0780*%
%ADD13C,0.0190*%
%ADD14R,0.0650X0.0276*%
D10*
X000284Y000380D02*
X000284Y033135D01*
X012292Y033135D01*
X012292Y000380D01*
X000284Y000380D01*
D11*
X001316Y032202D03*
X011316Y032202D03*
D12*
X011316Y031202D03*
X011316Y030202D03*
X011316Y029202D03*
X011316Y028202D03*
X011316Y027202D03*
X011316Y026202D03*
X011316Y025202D03*
X011316Y024202D03*
X011316Y023202D03*
X011316Y022202D03*
X011316Y021202D03*
X011316Y020202D03*
X011316Y019202D03*
X011316Y018202D03*
X011316Y017202D03*
X011316Y016202D03*
X011316Y015202D03*
X011316Y014202D03*
X011316Y013202D03*
X011316Y012202D03*
X011316Y011202D03*
X011316Y010202D03*
X011316Y009202D03*
X011316Y008202D03*
X011316Y007202D03*
X011316Y006202D03*
X011316Y005202D03*
X011316Y004202D03*
X011316Y003202D03*
X011316Y002202D03*
X011316Y001202D03*
X001316Y001202D03*
X001316Y002202D03*
X001316Y003202D03*
X001316Y004202D03*
X001316Y005202D03*
X001316Y006202D03*
X001316Y007202D03*
X001316Y008202D03*
X001316Y009202D03*
X001316Y010202D03*
X001316Y011202D03*
X001316Y012202D03*
X001316Y013202D03*
X001316Y014202D03*
X001316Y015202D03*
X001316Y016202D03*
X001316Y017202D03*
X001316Y018202D03*
X001316Y019202D03*
X001316Y020202D03*
X001316Y021202D03*
X001316Y022202D03*
X001316Y023202D03*
X001316Y024202D03*
X001316Y025202D03*
X001316Y026202D03*
X001316Y027202D03*
X001316Y028202D03*
X001316Y029202D03*
X001316Y030202D03*
X001316Y031202D03*
D13*
X005535Y017286D03*
X005535Y016991D03*
X005535Y016695D03*
X005535Y016400D03*
X005535Y016105D03*
X005850Y016105D03*
X005850Y016400D03*
X005850Y016695D03*
X005850Y016991D03*
X005850Y017286D03*
X006165Y017286D03*
X006165Y016991D03*
X006165Y016695D03*
X006165Y016400D03*
X006165Y016105D03*
X006480Y016105D03*
X006480Y016400D03*
X006480Y016991D03*
X006480Y017286D03*
X006795Y017286D03*
X006795Y016991D03*
X006795Y016400D03*
X006795Y016105D03*
X007110Y016105D03*
X007110Y016400D03*
X007110Y016695D03*
X007110Y016991D03*
X007110Y017286D03*
D14*
X007378Y003767D03*
X007378Y003267D03*
X007378Y002767D03*
X007378Y002267D03*
X005252Y002267D03*
X005252Y002767D03*
X005252Y003267D03*
X005252Y003767D03*
M02*
