G75*
G70*
%OFA0B0*%
%FSLAX24Y24*%
%IPPOS*%
%LPD*%
%AMOC8*
5,1,8,0,0,1.08239X$1,22.5*
%
%ADD10C,0.0240*%
%ADD11R,0.0740X0.0740*%
%ADD12C,0.0740*%
%ADD13C,0.0317*%
%ADD14C,0.0100*%
D10*
X000284Y000380D02*
X000284Y033135D01*
X012292Y033135D01*
X012292Y000380D01*
X000284Y000380D01*
D11*
X001316Y032202D03*
X011316Y032202D03*
D12*
X011316Y031202D03*
X011316Y030202D03*
X011316Y029202D03*
X011316Y028202D03*
X011316Y027202D03*
X011316Y026202D03*
X011316Y025202D03*
X011316Y024202D03*
X011316Y023202D03*
X011316Y022202D03*
X011316Y021202D03*
X011316Y020202D03*
X011316Y019202D03*
X011316Y018202D03*
X011316Y017202D03*
X011316Y016202D03*
X011316Y015202D03*
X011316Y014202D03*
X011316Y013202D03*
X011316Y012202D03*
X011316Y011202D03*
X011316Y010202D03*
X011316Y009202D03*
X011316Y008202D03*
X011316Y007202D03*
X011316Y006202D03*
X011316Y005202D03*
X011316Y004202D03*
X011316Y003202D03*
X011316Y002202D03*
X011316Y001202D03*
X001316Y001202D03*
X001316Y002202D03*
X001316Y003202D03*
X001316Y004202D03*
X001316Y005202D03*
X001316Y006202D03*
X001316Y007202D03*
X001316Y008202D03*
X001316Y009202D03*
X001316Y010202D03*
X001316Y011202D03*
X001316Y012202D03*
X001316Y013202D03*
X001316Y014202D03*
X001316Y015202D03*
X001316Y016202D03*
X001316Y017202D03*
X001316Y018202D03*
X001316Y019202D03*
X001316Y020202D03*
X001316Y021202D03*
X001316Y022202D03*
X001316Y023202D03*
X001316Y024202D03*
X001316Y025202D03*
X001316Y026202D03*
X001316Y027202D03*
X001316Y028202D03*
X001316Y029202D03*
X001316Y030202D03*
X001316Y031202D03*
D13*
X003276Y031443D03*
X003276Y027978D03*
X004599Y027155D03*
X004595Y026147D03*
X005127Y025616D03*
X005697Y024198D03*
X006485Y023194D03*
X006623Y025616D03*
X006599Y027155D03*
X008079Y021876D03*
X007961Y021187D03*
X008552Y018194D03*
X008099Y016895D03*
X005934Y011206D03*
X005697Y012191D03*
X004516Y013431D03*
X004516Y014198D03*
X004241Y017761D03*
X004989Y017761D03*
X003138Y021187D03*
X003138Y022230D03*
X003138Y024198D03*
X002646Y018194D03*
X002646Y017210D03*
X002764Y014198D03*
X002764Y013431D03*
X002764Y012191D03*
X002764Y011206D03*
D14*
X005934Y011206D01*
X005697Y012191D02*
X002764Y012191D01*
X002764Y013431D02*
X004516Y013431D01*
X004516Y014198D02*
X002764Y014198D01*
X002646Y017210D02*
X007784Y017210D01*
X008099Y016895D01*
X008552Y018194D02*
X002646Y018194D01*
X003138Y021187D02*
X007961Y021187D01*
X008079Y021876D02*
X008079Y022092D01*
X007942Y022230D01*
X003138Y022230D01*
X003138Y024198D02*
X005697Y024198D01*
X005127Y025616D02*
X006623Y025616D01*
X006599Y027155D02*
X004599Y027155D01*
X004595Y026147D02*
X003276Y027466D01*
X003276Y027978D01*
X003276Y031443D01*
X001316Y023202D02*
X001323Y023194D01*
X006485Y023194D01*
X004989Y017761D02*
X004241Y017761D01*
M02*
