G75*
G70*
%OFA0B0*%
%FSLAX24Y24*%
%IPPOS*%
%LPD*%
%AMOC8*
5,1,8,0,0,1.08239X$1,22.5*
%
%ADD10C,0.0240*%
%ADD11C,0.0030*%
%ADD12C,0.0080*%
%ADD13C,0.0040*%
%ADD14C,0.0039*%
%ADD15C,0.0050*%
%ADD16C,0.0079*%
D10*
X000284Y000380D02*
X000284Y033135D01*
X012292Y033135D01*
X012292Y000380D01*
X000284Y000380D01*
D11*
X005241Y015221D02*
X005338Y015221D01*
X005386Y015270D01*
X005386Y015463D01*
X005338Y015512D01*
X005241Y015512D01*
X005193Y015463D01*
X005193Y015270D01*
X005241Y015221D01*
X005487Y015318D02*
X005584Y015221D01*
X005681Y015318D01*
X005681Y015512D01*
X005782Y015463D02*
X005782Y015415D01*
X005830Y015366D01*
X005976Y015366D01*
X005976Y015270D02*
X005976Y015463D01*
X005927Y015512D01*
X005830Y015512D01*
X005782Y015463D01*
X005782Y015270D02*
X005830Y015221D01*
X005927Y015221D01*
X005976Y015270D01*
X006077Y015270D02*
X006077Y015221D01*
X006077Y015270D02*
X006270Y015463D01*
X006270Y015512D01*
X006077Y015512D01*
X006371Y015415D02*
X006468Y015512D01*
X006468Y015221D01*
X006371Y015221D02*
X006565Y015221D01*
X006666Y015221D02*
X006859Y015415D01*
X006859Y015463D01*
X006811Y015512D01*
X006714Y015512D01*
X006666Y015463D01*
X006666Y015221D02*
X006859Y015221D01*
X005990Y017800D02*
X005893Y017800D01*
X005845Y017848D01*
X005744Y017848D02*
X005744Y017897D01*
X005696Y017945D01*
X005599Y017945D01*
X005550Y017994D01*
X005550Y018042D01*
X005599Y018090D01*
X005696Y018090D01*
X005744Y018042D01*
X005845Y018042D02*
X005893Y018090D01*
X005990Y018090D01*
X006039Y018042D01*
X006039Y017994D01*
X005990Y017945D01*
X006039Y017897D01*
X006039Y017848D01*
X005990Y017800D01*
X005990Y017945D02*
X005942Y017945D01*
X005744Y017848D02*
X005696Y017800D01*
X005599Y017800D01*
X005550Y017848D01*
X005449Y017848D02*
X005449Y018090D01*
X005449Y017848D02*
X005401Y017800D01*
X005304Y017800D01*
X005256Y017848D01*
X005256Y018090D01*
X005647Y018139D02*
X005647Y017752D01*
X005487Y015512D02*
X005487Y015318D01*
X000621Y029476D02*
X000427Y029670D01*
X000379Y029670D01*
X000330Y029621D01*
X000330Y029525D01*
X000379Y029476D01*
X000621Y029476D02*
X000621Y029670D01*
X000621Y029771D02*
X000330Y029964D01*
X000379Y030066D02*
X000330Y030114D01*
X000330Y030211D01*
X000379Y030259D01*
X000427Y030259D01*
X000475Y030211D01*
X000524Y030259D01*
X000572Y030259D01*
X000621Y030211D01*
X000621Y030114D01*
X000572Y030066D01*
X000621Y029964D02*
X000330Y029771D01*
X000475Y030162D02*
X000475Y030211D01*
X000379Y030360D02*
X000330Y030409D01*
X000330Y030505D01*
X000379Y030554D01*
X000427Y030554D01*
X000621Y030360D01*
X000621Y030554D01*
X000669Y030655D02*
X000669Y030848D01*
X000621Y030949D02*
X000330Y030949D01*
X000475Y030949D02*
X000475Y031143D01*
X000475Y031244D02*
X000475Y031341D01*
X000330Y031438D02*
X000330Y031244D01*
X000621Y031244D01*
X000621Y031438D01*
X000621Y031539D02*
X000427Y031539D01*
X000330Y031635D01*
X000427Y031732D01*
X000621Y031732D01*
X000621Y031833D02*
X000621Y031979D01*
X000572Y032027D01*
X000379Y032027D01*
X000330Y031979D01*
X000330Y031833D01*
X000621Y031833D01*
X000475Y031732D02*
X000475Y031539D01*
X000330Y031143D02*
X000621Y031143D01*
X000621Y032128D02*
X000330Y032128D01*
X000330Y032321D01*
X000330Y032423D02*
X000330Y032568D01*
X000379Y032616D01*
X000475Y032616D01*
X000524Y032568D01*
X000524Y032423D01*
X000524Y032519D02*
X000621Y032616D01*
X000621Y032423D02*
X000330Y032423D01*
X000475Y032225D02*
X000475Y032128D01*
X000621Y032128D02*
X000621Y032321D01*
X002002Y032255D02*
X002389Y032255D01*
X002341Y032303D02*
X002292Y032352D01*
X002244Y032352D01*
X002195Y032303D01*
X002195Y032206D01*
X002147Y032158D01*
X002099Y032158D01*
X002050Y032206D01*
X002050Y032303D01*
X002099Y032352D01*
X002050Y032453D02*
X002195Y032453D01*
X002147Y032549D01*
X002147Y032598D01*
X002195Y032646D01*
X002292Y032646D01*
X002341Y032598D01*
X002341Y032501D01*
X002292Y032453D01*
X002341Y032303D02*
X002341Y032206D01*
X002292Y032158D01*
X002292Y032057D02*
X002050Y032057D01*
X002050Y031863D02*
X002292Y031863D01*
X002341Y031912D01*
X002341Y032009D01*
X002292Y032057D01*
X002050Y032453D02*
X002050Y032646D01*
D12*
X001816Y032452D02*
X001816Y031952D01*
X001566Y031702D01*
X001816Y031452D01*
X001816Y030952D01*
X001566Y030702D01*
X001816Y030452D01*
X001816Y029952D01*
X001566Y029702D01*
X001816Y029452D01*
X001816Y028952D01*
X001566Y028702D01*
X001816Y028452D01*
X001816Y027952D01*
X001566Y027702D01*
X001816Y027452D01*
X001816Y026952D01*
X001566Y026702D01*
X001816Y026452D01*
X001816Y025952D01*
X001566Y025702D01*
X001816Y025452D01*
X001816Y024952D01*
X001566Y024702D01*
X001816Y024452D01*
X001816Y023952D01*
X001566Y023702D01*
X001816Y023452D01*
X001816Y022952D01*
X001566Y022702D01*
X001816Y022452D01*
X001816Y021952D01*
X001566Y021702D01*
X001816Y021452D01*
X001816Y020952D01*
X001566Y020702D01*
X001816Y020452D01*
X001816Y019952D01*
X001566Y019702D01*
X001816Y019452D01*
X001816Y018952D01*
X001566Y018702D01*
X001816Y018452D01*
X001816Y017952D01*
X001566Y017702D01*
X001816Y017452D01*
X001816Y016952D01*
X001566Y016702D01*
X001816Y016452D01*
X001816Y015952D01*
X001566Y015702D01*
X001816Y015452D01*
X001816Y014952D01*
X001566Y014702D01*
X001816Y014452D01*
X001816Y013952D01*
X001566Y013702D01*
X001816Y013452D01*
X001816Y012952D01*
X001566Y012702D01*
X001816Y012452D01*
X001816Y011952D01*
X001566Y011702D01*
X001816Y011452D01*
X001816Y010952D01*
X001566Y010702D01*
X001816Y010452D01*
X001816Y009952D01*
X001566Y009702D01*
X001816Y009452D01*
X001816Y008952D01*
X001566Y008702D01*
X001816Y008452D01*
X001816Y007952D01*
X001566Y007702D01*
X001816Y007452D01*
X001816Y006952D01*
X001566Y006702D01*
X001816Y006452D01*
X001816Y005952D01*
X001566Y005702D01*
X001816Y005452D01*
X001816Y004952D01*
X001566Y004702D01*
X001816Y004452D01*
X001816Y003952D01*
X001566Y003702D01*
X001816Y003452D01*
X001816Y002952D01*
X001566Y002702D01*
X001816Y002452D01*
X001816Y001952D01*
X001566Y001702D01*
X001816Y001452D01*
X001816Y000952D01*
X001566Y000702D01*
X001564Y000702D02*
X001068Y000702D01*
X001066Y000702D02*
X000816Y000952D01*
X000816Y001452D01*
X001066Y001702D01*
X000816Y001952D01*
X000816Y002452D01*
X001066Y002702D01*
X000816Y002952D01*
X000816Y003452D01*
X001066Y003702D01*
X000816Y003952D01*
X000816Y004452D01*
X001066Y004702D01*
X000816Y004952D01*
X000816Y005452D01*
X001066Y005702D01*
X000816Y005952D01*
X000816Y006452D01*
X001066Y006702D01*
X000816Y006952D01*
X000816Y007452D01*
X001066Y007702D01*
X000816Y007952D01*
X000816Y008452D01*
X001066Y008702D01*
X000816Y008952D01*
X000816Y009452D01*
X001066Y009702D01*
X000816Y009952D01*
X000816Y010452D01*
X001066Y010702D01*
X000816Y010952D01*
X000816Y011452D01*
X001066Y011702D01*
X000816Y011952D01*
X000816Y012452D01*
X001066Y012702D01*
X000816Y012952D01*
X000816Y013452D01*
X001066Y013702D01*
X000816Y013952D01*
X000816Y014452D01*
X001066Y014702D01*
X000816Y014952D01*
X000816Y015452D01*
X001066Y015702D01*
X000816Y015952D01*
X000816Y016452D01*
X001066Y016702D01*
X000816Y016952D01*
X000816Y017452D01*
X001066Y017702D01*
X000816Y017952D01*
X000816Y018452D01*
X001066Y018702D01*
X000816Y018952D01*
X000816Y019452D01*
X001066Y019702D01*
X000816Y019952D01*
X000816Y020452D01*
X001066Y020702D01*
X000816Y020952D01*
X000816Y021452D01*
X001066Y021702D01*
X000816Y021952D01*
X000816Y022452D01*
X001066Y022702D01*
X000816Y022952D01*
X000816Y023452D01*
X001066Y023702D01*
X000816Y023952D01*
X000816Y024452D01*
X001066Y024702D01*
X000816Y024952D01*
X000816Y025452D01*
X001066Y025702D01*
X000816Y025952D01*
X000816Y026452D01*
X001066Y026702D01*
X000816Y026952D01*
X000816Y027452D01*
X001066Y027702D01*
X000816Y027952D01*
X000816Y028452D01*
X001066Y028702D01*
X000816Y028952D01*
X000816Y029452D01*
X001066Y029702D01*
X000816Y029952D01*
X000816Y030452D01*
X001066Y030702D01*
X000816Y030952D01*
X000816Y031452D01*
X001066Y031702D01*
X000816Y031952D01*
X000816Y032452D01*
X001066Y032702D01*
X001566Y032702D01*
X001816Y032452D01*
X010816Y032452D02*
X010816Y031952D01*
X011066Y031702D01*
X010816Y031452D01*
X010816Y030952D01*
X011066Y030702D01*
X010816Y030452D01*
X010816Y029952D01*
X011066Y029702D01*
X010816Y029452D01*
X010816Y028952D01*
X011066Y028702D01*
X010816Y028452D01*
X010816Y027952D01*
X011066Y027702D01*
X010816Y027452D01*
X010816Y026952D01*
X011066Y026702D01*
X010816Y026452D01*
X010816Y025952D01*
X011066Y025702D01*
X010816Y025452D01*
X010816Y024952D01*
X011066Y024702D01*
X010816Y024452D01*
X010816Y023952D01*
X011066Y023702D01*
X010816Y023452D01*
X010816Y022952D01*
X011066Y022702D01*
X010816Y022452D01*
X010816Y021952D01*
X011066Y021702D01*
X010816Y021452D01*
X010816Y020952D01*
X011066Y020702D01*
X010816Y020452D01*
X010816Y019952D01*
X011066Y019702D01*
X010816Y019452D01*
X010816Y018952D01*
X011066Y018702D01*
X010816Y018452D01*
X010816Y017952D01*
X011066Y017702D01*
X010816Y017452D01*
X010816Y016952D01*
X011066Y016702D01*
X010816Y016452D01*
X010816Y015952D01*
X011066Y015702D01*
X010816Y015452D01*
X010816Y014952D01*
X011066Y014702D01*
X010816Y014452D01*
X010816Y013952D01*
X011066Y013702D01*
X010816Y013452D01*
X010816Y012952D01*
X011066Y012702D01*
X010816Y012452D01*
X010816Y011952D01*
X011066Y011702D01*
X010816Y011452D01*
X010816Y010952D01*
X011066Y010702D01*
X010816Y010452D01*
X010816Y009952D01*
X011066Y009702D01*
X010816Y009452D01*
X010816Y008952D01*
X011066Y008702D01*
X010816Y008452D01*
X010816Y007952D01*
X011066Y007702D01*
X010816Y007452D01*
X010816Y006952D01*
X011066Y006702D01*
X010816Y006452D01*
X010816Y005952D01*
X011066Y005702D01*
X010816Y005452D01*
X010816Y004952D01*
X011066Y004702D01*
X010816Y004452D01*
X010816Y003952D01*
X011066Y003702D01*
X010816Y003452D01*
X010816Y002952D01*
X011066Y002702D01*
X010816Y002452D01*
X010816Y001952D01*
X011066Y001702D01*
X010816Y001452D01*
X010816Y000952D01*
X011066Y000702D01*
X011566Y000702D01*
X011816Y000952D01*
X011816Y001452D01*
X011566Y001702D01*
X011816Y001952D01*
X011816Y002452D01*
X011566Y002702D01*
X011816Y002952D01*
X011816Y003452D01*
X011566Y003702D01*
X011816Y003952D01*
X011816Y004452D01*
X011566Y004702D01*
X011816Y004952D01*
X011816Y005452D01*
X011566Y005702D01*
X011816Y005952D01*
X011816Y006452D01*
X011566Y006702D01*
X011816Y006952D01*
X011816Y007452D01*
X011566Y007702D01*
X011816Y007952D01*
X011816Y008452D01*
X011566Y008702D01*
X011816Y008952D01*
X011816Y009452D01*
X011566Y009702D01*
X011816Y009952D01*
X011816Y010452D01*
X011566Y010702D01*
X011816Y010952D01*
X011816Y011452D01*
X011566Y011702D01*
X011816Y011952D01*
X011816Y012452D01*
X011566Y012702D01*
X011816Y012952D01*
X011816Y013452D01*
X011566Y013702D01*
X011816Y013952D01*
X011816Y014452D01*
X011566Y014702D01*
X011816Y014952D01*
X011816Y015452D01*
X011566Y015702D01*
X011816Y015952D01*
X011816Y016452D01*
X011566Y016702D01*
X011816Y016952D01*
X011816Y017452D01*
X011566Y017702D01*
X011816Y017952D01*
X011816Y018452D01*
X011566Y018702D01*
X011816Y018952D01*
X011816Y019452D01*
X011566Y019702D01*
X011816Y019952D01*
X011816Y020452D01*
X011566Y020702D01*
X011816Y020952D01*
X011816Y021452D01*
X011566Y021702D01*
X011816Y021952D01*
X011816Y022452D01*
X011566Y022702D01*
X011816Y022952D01*
X011816Y023452D01*
X011566Y023702D01*
X011816Y023952D01*
X011816Y024452D01*
X011566Y024702D01*
X011816Y024952D01*
X011816Y025452D01*
X011566Y025702D01*
X011816Y025952D01*
X011816Y026452D01*
X011566Y026702D01*
X011816Y026952D01*
X011816Y027452D01*
X011566Y027702D01*
X011816Y027952D01*
X011816Y028452D01*
X011566Y028702D01*
X011816Y028952D01*
X011816Y029452D01*
X011566Y029702D01*
X011816Y029952D01*
X011816Y030452D01*
X011566Y030702D01*
X011816Y030952D01*
X011816Y031452D01*
X011566Y031702D01*
X011816Y031952D01*
X011816Y032452D01*
X011566Y032702D01*
X011564Y032702D02*
X011068Y032702D01*
X011066Y032702D02*
X010816Y032452D01*
D13*
X007386Y017576D02*
X005245Y017576D01*
X005245Y015828D01*
X007386Y015828D01*
X007386Y017576D01*
D14*
X005331Y017474D02*
X005333Y017482D01*
X005338Y017489D01*
X005345Y017493D01*
X005353Y017494D01*
X005361Y017491D01*
X005367Y017486D01*
X005371Y017478D01*
X005371Y017470D01*
X005367Y017462D01*
X005361Y017457D01*
X005353Y017454D01*
X005345Y017455D01*
X005338Y017459D01*
X005333Y017466D01*
X005331Y017474D01*
D15*
X005626Y003903D02*
X006118Y003903D01*
X006120Y003877D01*
X006125Y003852D01*
X006133Y003828D01*
X006144Y003805D01*
X006159Y003783D01*
X006176Y003764D01*
X006195Y003747D01*
X006216Y003732D01*
X006240Y003721D01*
X006264Y003713D01*
X006289Y003708D01*
X006315Y003706D01*
X006341Y003708D01*
X006366Y003713D01*
X006390Y003721D01*
X006413Y003732D01*
X006435Y003747D01*
X006454Y003764D01*
X006471Y003783D01*
X006486Y003804D01*
X006497Y003828D01*
X006505Y003852D01*
X006510Y003877D01*
X006512Y003903D01*
X006511Y003903D02*
X007004Y003903D01*
X007004Y002131D01*
X005626Y002131D01*
X005626Y003903D01*
D16*
X005783Y003706D02*
X005785Y003718D01*
X005790Y003729D01*
X005799Y003738D01*
X005810Y003743D01*
X005822Y003745D01*
X005834Y003743D01*
X005845Y003738D01*
X005854Y003729D01*
X005859Y003718D01*
X005861Y003706D01*
X005859Y003694D01*
X005854Y003683D01*
X005845Y003674D01*
X005834Y003669D01*
X005822Y003667D01*
X005810Y003669D01*
X005799Y003674D01*
X005790Y003683D01*
X005785Y003694D01*
X005783Y003706D01*
M02*
