%
M48
M72
T01C0.0197
T02C0.0394
T03C0.0400
%
T01
X3659Y10017
X3659Y11025
X3659Y12021
X3765Y14033
X3797Y16021
X3742Y19616
X3277Y20557
X2895Y23021
X2907Y24009
X1525Y23021
X1490Y24009
X813Y21159
X939Y20498
X1521Y16021
X1820Y12021
X2478Y11025
X3069Y10017
X2750Y14025
T02
X3076Y1490
X2525Y2041
X1659Y2671
X1667Y6289
X2572Y6970
X3092Y7509
T03
X5104Y1041
X5104Y2041
X5104Y3041
X5104Y4041
X5104Y5041
X5104Y6041
X5104Y7041
X5104Y8041
X5104Y9041
X5104Y10041
X5104Y11041
X5104Y12041
X5104Y13041
X5104Y14041
X5104Y15041
X5104Y16041
X5104Y17041
X5104Y18041
X5104Y19041
X5104Y20041
X5104Y21041
X5104Y22041
X5104Y23041
X5104Y24041
X5104Y25041
X5104Y26041
X5104Y27041
X5104Y28041
M30
