G75*
G70*
%OFA0B0*%
%FSLAX24Y24*%
%IPPOS*%
%LPD*%
%AMOC8*
5,1,8,0,0,1.08239X$1,22.5*
%
%ADD10C,0.0100*%
%ADD11C,0.0138*%
%ADD12R,0.0276X0.0650*%
%ADD13R,0.0780X0.0780*%
%ADD14C,0.0780*%
D10*
X000151Y000151D02*
X000151Y028891D01*
X005860Y028891D01*
X005860Y000151D01*
X000151Y000151D01*
D11*
X001820Y019628D03*
X001820Y019824D03*
X001820Y020021D03*
X001820Y020218D03*
X001820Y020415D03*
X002017Y020415D03*
X002017Y020218D03*
X002017Y020021D03*
X002017Y019824D03*
X002017Y019628D03*
X002214Y019628D03*
X002214Y019824D03*
X002214Y020021D03*
X002214Y020218D03*
X002214Y020415D03*
X002411Y020415D03*
X002411Y020218D03*
X002411Y020021D03*
X002411Y019824D03*
X002411Y019628D03*
D12*
X002169Y005746D03*
X002169Y003620D03*
X002669Y003620D03*
X002669Y005746D03*
X003169Y005746D03*
X003169Y003620D03*
X001669Y003620D03*
X001669Y005746D03*
D13*
X005104Y028041D03*
D14*
X005104Y027041D03*
X005104Y026041D03*
X005104Y025041D03*
X005104Y024041D03*
X005104Y023041D03*
X005104Y022041D03*
X005104Y021041D03*
X005104Y020041D03*
X005104Y019041D03*
X005104Y018041D03*
X005104Y017041D03*
X005104Y016041D03*
X005104Y015041D03*
X005104Y014041D03*
X005104Y013041D03*
X005104Y012041D03*
X005104Y011041D03*
X005104Y010041D03*
X005104Y009041D03*
X005104Y008041D03*
X005104Y007041D03*
X005104Y006041D03*
X005104Y005041D03*
X005104Y004041D03*
X005104Y003041D03*
X005104Y002041D03*
X005104Y001041D03*
M02*
